%FSLAX25Y25*%
%MOIN*%
G70*
G01*
G75*
G04 Layer_Color=128*
%ADD10C,0.00787*%
%ADD11R,0.03543X0.03543*%
%ADD12R,0.05000X0.05000*%
%ADD13R,0.04000X0.07480*%
%ADD14R,0.03150X0.03150*%
%ADD15R,0.03150X0.03150*%
%ADD16R,0.03543X0.03543*%
%ADD17R,0.02559X0.01181*%
%ADD18R,0.01181X0.02559*%
%ADD19R,0.13583X0.13583*%
%ADD20R,0.09370X0.06496*%
%ADD21R,0.00984X0.02756*%
%ADD22R,0.03600X0.03600*%
%ADD23R,0.05000X0.03600*%
%ADD24C,0.01000*%
%ADD25C,0.01969*%
%ADD26C,0.00984*%
%ADD27C,0.00600*%
%ADD28R,0.05512X0.05512*%
%ADD29C,0.07000*%
%ADD30R,0.07000X0.07000*%
%ADD31C,0.05000*%
%ADD32C,0.03150*%
%ADD33C,0.03150*%
%ADD34R,0.07874X0.05118*%
%ADD35C,0.00800*%
%ADD36C,0.02000*%
%ADD37C,0.00591*%
%ADD38R,0.12795X0.12795*%
%ADD39R,0.08583X0.05709*%
%ADD40R,0.00827X0.02598*%
%ADD41R,0.04343X0.04343*%
%ADD42R,0.05800X0.05800*%
%ADD43R,0.04800X0.08280*%
%ADD44R,0.03950X0.03950*%
%ADD45R,0.03950X0.03950*%
%ADD46R,0.04343X0.04343*%
%ADD47R,0.03359X0.01981*%
%ADD48R,0.01981X0.03359*%
%ADD49R,0.14383X0.14383*%
%ADD50R,0.09685X0.06811*%
%ADD51R,0.01299X0.03071*%
%ADD52R,0.04400X0.04400*%
%ADD53R,0.05800X0.04400*%
%ADD54R,0.06312X0.06312*%
%ADD55C,0.07800*%
%ADD56R,0.07800X0.07800*%
%ADD57C,0.05800*%
%ADD58C,0.03950*%
%ADD59R,0.08674X0.05918*%
D10*
X0Y0D02*
Y70866D01*
X224410D01*
Y0D02*
Y70866D01*
X0Y0D02*
X224410D01*
Y70866D01*
X448819D01*
Y0D02*
Y70866D01*
X224410Y0D02*
X448819D01*
Y70866D01*
X673228D01*
Y0D02*
Y70866D01*
X448819Y0D02*
X673228D01*
X0Y70866D02*
Y141732D01*
X224410D01*
Y70866D02*
Y141732D01*
X0Y70866D02*
X224410D01*
Y141732D01*
X448819D01*
Y70866D02*
Y141732D01*
X224410Y70866D02*
X448819D01*
Y141732D01*
X673228D01*
Y70866D02*
Y141732D01*
X448819Y70866D02*
X673228D01*
X0Y141732D02*
Y212598D01*
X224410D01*
Y141732D02*
Y212598D01*
X0Y141732D02*
X224410D01*
Y212598D01*
X448819D01*
Y141732D02*
Y212598D01*
X224410Y141732D02*
X448819D01*
Y212598D01*
X673228D01*
Y141732D02*
Y212598D01*
X448819Y141732D02*
X673228D01*
X0Y212598D02*
Y283465D01*
X224410D01*
Y212598D02*
Y283465D01*
X0Y212598D02*
X224410D01*
Y283465D01*
X448819D01*
Y212598D02*
Y283465D01*
X224410Y212598D02*
X448819D01*
Y283465D01*
X673228D01*
Y212598D02*
Y283465D01*
X448819Y212598D02*
X673228D01*
X0Y283465D02*
Y354331D01*
X224410D01*
Y283465D02*
Y354331D01*
X0Y283465D02*
X224410D01*
Y354331D01*
X448819D01*
Y283465D02*
Y354331D01*
X224410Y283465D02*
X448819D01*
Y354331D01*
X673228D01*
Y283465D02*
Y354331D01*
X448819Y283465D02*
X673228D01*
D12*
X174097Y43307D02*
D03*
X182597D02*
D03*
X174097Y35433D02*
D03*
X182597D02*
D03*
X174097Y27559D02*
D03*
X182597D02*
D03*
X71734Y35433D02*
D03*
X80234D02*
D03*
X122915Y43307D02*
D03*
X131415D02*
D03*
X122915Y27559D02*
D03*
X131415D02*
D03*
X122915Y35433D02*
D03*
X131415D02*
D03*
X71734Y43307D02*
D03*
X80234D02*
D03*
X71734Y27559D02*
D03*
X80234D02*
D03*
X398506Y43307D02*
D03*
X407006D02*
D03*
X398506Y35433D02*
D03*
X407006D02*
D03*
X398506Y27559D02*
D03*
X407006D02*
D03*
X296144Y35433D02*
D03*
X304644D02*
D03*
X347325Y43307D02*
D03*
X355825D02*
D03*
X347325Y27559D02*
D03*
X355825D02*
D03*
X347325Y35433D02*
D03*
X355825D02*
D03*
X296144Y43307D02*
D03*
X304644D02*
D03*
X296144Y27559D02*
D03*
X304644D02*
D03*
X622915Y43307D02*
D03*
X631415D02*
D03*
X622915Y35433D02*
D03*
X631415D02*
D03*
X622915Y27559D02*
D03*
X631415D02*
D03*
X520553Y35433D02*
D03*
X529053D02*
D03*
X571734Y43307D02*
D03*
X580234D02*
D03*
X571734Y27559D02*
D03*
X580234D02*
D03*
X571734Y35433D02*
D03*
X580234D02*
D03*
X520553Y43307D02*
D03*
X529053D02*
D03*
X520553Y27559D02*
D03*
X529053D02*
D03*
X174097Y114173D02*
D03*
X182597D02*
D03*
X174097Y106299D02*
D03*
X182597D02*
D03*
X174097Y98425D02*
D03*
X182597D02*
D03*
X71734Y106299D02*
D03*
X80234D02*
D03*
X122915Y114173D02*
D03*
X131415D02*
D03*
X122915Y98425D02*
D03*
X131415D02*
D03*
X122915Y106299D02*
D03*
X131415D02*
D03*
X71734Y114173D02*
D03*
X80234D02*
D03*
X71734Y98425D02*
D03*
X80234D02*
D03*
X398506Y114173D02*
D03*
X407006D02*
D03*
X398506Y106299D02*
D03*
X407006D02*
D03*
X398506Y98425D02*
D03*
X407006D02*
D03*
X296144Y106299D02*
D03*
X304644D02*
D03*
X347325Y114173D02*
D03*
X355825D02*
D03*
X347325Y98425D02*
D03*
X355825D02*
D03*
X347325Y106299D02*
D03*
X355825D02*
D03*
X296144Y114173D02*
D03*
X304644D02*
D03*
X296144Y98425D02*
D03*
X304644D02*
D03*
X622915Y114173D02*
D03*
X631415D02*
D03*
X622915Y106299D02*
D03*
X631415D02*
D03*
X622915Y98425D02*
D03*
X631415D02*
D03*
X520553Y106299D02*
D03*
X529053D02*
D03*
X571734Y114173D02*
D03*
X580234D02*
D03*
X571734Y98425D02*
D03*
X580234D02*
D03*
X571734Y106299D02*
D03*
X580234D02*
D03*
X520553Y114173D02*
D03*
X529053D02*
D03*
X520553Y98425D02*
D03*
X529053D02*
D03*
X174097Y185039D02*
D03*
X182597D02*
D03*
X174097Y177165D02*
D03*
X182597D02*
D03*
X174097Y169291D02*
D03*
X182597D02*
D03*
X71734Y177165D02*
D03*
X80234D02*
D03*
X122915Y185039D02*
D03*
X131415D02*
D03*
X122915Y169291D02*
D03*
X131415D02*
D03*
X122915Y177165D02*
D03*
X131415D02*
D03*
X71734Y185039D02*
D03*
X80234D02*
D03*
X71734Y169291D02*
D03*
X80234D02*
D03*
X398506Y185039D02*
D03*
X407006D02*
D03*
X398506Y177165D02*
D03*
X407006D02*
D03*
X398506Y169291D02*
D03*
X407006D02*
D03*
X296144Y177165D02*
D03*
X304644D02*
D03*
X347325Y185039D02*
D03*
X355825D02*
D03*
X347325Y169291D02*
D03*
X355825D02*
D03*
X347325Y177165D02*
D03*
X355825D02*
D03*
X296144Y185039D02*
D03*
X304644D02*
D03*
X296144Y169291D02*
D03*
X304644D02*
D03*
X622915Y185039D02*
D03*
X631415D02*
D03*
X622915Y177165D02*
D03*
X631415D02*
D03*
X622915Y169291D02*
D03*
X631415D02*
D03*
X520553Y177165D02*
D03*
X529053D02*
D03*
X571734Y185039D02*
D03*
X580234D02*
D03*
X571734Y169291D02*
D03*
X580234D02*
D03*
X571734Y177165D02*
D03*
X580234D02*
D03*
X520553Y185039D02*
D03*
X529053D02*
D03*
X520553Y169291D02*
D03*
X529053D02*
D03*
X174097Y255906D02*
D03*
X182597D02*
D03*
X174097Y248031D02*
D03*
X182597D02*
D03*
X174097Y240158D02*
D03*
X182597D02*
D03*
X71734Y248031D02*
D03*
X80234D02*
D03*
X122915Y255906D02*
D03*
X131415D02*
D03*
X122915Y240158D02*
D03*
X131415D02*
D03*
X122915Y248031D02*
D03*
X131415D02*
D03*
X71734Y255906D02*
D03*
X80234D02*
D03*
X71734Y240158D02*
D03*
X80234D02*
D03*
X398506Y255906D02*
D03*
X407006D02*
D03*
X398506Y248031D02*
D03*
X407006D02*
D03*
X398506Y240158D02*
D03*
X407006D02*
D03*
X296144Y248031D02*
D03*
X304644D02*
D03*
X347325Y255906D02*
D03*
X355825D02*
D03*
X347325Y240158D02*
D03*
X355825D02*
D03*
X347325Y248031D02*
D03*
X355825D02*
D03*
X296144Y255906D02*
D03*
X304644D02*
D03*
X296144Y240158D02*
D03*
X304644D02*
D03*
X622915Y255906D02*
D03*
X631415D02*
D03*
X622915Y248031D02*
D03*
X631415D02*
D03*
X622915Y240158D02*
D03*
X631415D02*
D03*
X520553Y248031D02*
D03*
X529053D02*
D03*
X571734Y255906D02*
D03*
X580234D02*
D03*
X571734Y240158D02*
D03*
X580234D02*
D03*
X571734Y248031D02*
D03*
X580234D02*
D03*
X520553Y255906D02*
D03*
X529053D02*
D03*
X520553Y240158D02*
D03*
X529053D02*
D03*
X174097Y326772D02*
D03*
X182597D02*
D03*
X174097Y318898D02*
D03*
X182597D02*
D03*
X174097Y311024D02*
D03*
X182597D02*
D03*
X71734Y318898D02*
D03*
X80234D02*
D03*
X122915Y326772D02*
D03*
X131415D02*
D03*
X122915Y311024D02*
D03*
X131415D02*
D03*
X122915Y318898D02*
D03*
X131415D02*
D03*
X71734Y326772D02*
D03*
X80234D02*
D03*
X71734Y311024D02*
D03*
X80234D02*
D03*
X398506Y326772D02*
D03*
X407006D02*
D03*
X398506Y318898D02*
D03*
X407006D02*
D03*
X398506Y311024D02*
D03*
X407006D02*
D03*
X296144Y318898D02*
D03*
X304644D02*
D03*
X347325Y326772D02*
D03*
X355825D02*
D03*
X347325Y311024D02*
D03*
X355825D02*
D03*
X347325Y318898D02*
D03*
X355825D02*
D03*
X296144Y326772D02*
D03*
X304644D02*
D03*
X296144Y311024D02*
D03*
X304644D02*
D03*
X622915Y326772D02*
D03*
X631415D02*
D03*
X622915Y318898D02*
D03*
X631415D02*
D03*
X622915Y311024D02*
D03*
X631415D02*
D03*
X520553Y318898D02*
D03*
X529053D02*
D03*
X571734Y326772D02*
D03*
X580234D02*
D03*
X571734Y311024D02*
D03*
X580234D02*
D03*
X571734Y318898D02*
D03*
X580234D02*
D03*
X520553Y326772D02*
D03*
X529053D02*
D03*
X520553Y311024D02*
D03*
X529053D02*
D03*
D34*
X61811Y41732D02*
D03*
Y35433D02*
D03*
Y29134D02*
D03*
X44488Y41732D02*
D03*
Y35433D02*
D03*
Y29134D02*
D03*
X112992Y41732D02*
D03*
Y35433D02*
D03*
Y29134D02*
D03*
X95669Y41732D02*
D03*
Y35433D02*
D03*
Y29134D02*
D03*
X164173Y41732D02*
D03*
Y35433D02*
D03*
Y29134D02*
D03*
X146850Y41732D02*
D03*
Y35433D02*
D03*
Y29134D02*
D03*
X286221Y41732D02*
D03*
Y35433D02*
D03*
Y29134D02*
D03*
X268898Y41732D02*
D03*
Y35433D02*
D03*
Y29134D02*
D03*
X337402Y41732D02*
D03*
Y35433D02*
D03*
Y29134D02*
D03*
X320079Y41732D02*
D03*
Y35433D02*
D03*
Y29134D02*
D03*
X388583Y41732D02*
D03*
Y35433D02*
D03*
Y29134D02*
D03*
X371260Y41732D02*
D03*
Y35433D02*
D03*
Y29134D02*
D03*
X510630Y41732D02*
D03*
Y35433D02*
D03*
Y29134D02*
D03*
X493307Y41732D02*
D03*
Y35433D02*
D03*
Y29134D02*
D03*
X561811Y41732D02*
D03*
Y35433D02*
D03*
Y29134D02*
D03*
X544488Y41732D02*
D03*
Y35433D02*
D03*
Y29134D02*
D03*
X612992Y41732D02*
D03*
Y35433D02*
D03*
Y29134D02*
D03*
X595669Y41732D02*
D03*
Y35433D02*
D03*
Y29134D02*
D03*
X61811Y112598D02*
D03*
Y106299D02*
D03*
Y100000D02*
D03*
X44488Y112598D02*
D03*
Y106299D02*
D03*
Y100000D02*
D03*
X112992Y112598D02*
D03*
Y106299D02*
D03*
Y100000D02*
D03*
X95669Y112598D02*
D03*
Y106299D02*
D03*
Y100000D02*
D03*
X164173Y112598D02*
D03*
Y106299D02*
D03*
Y100000D02*
D03*
X146850Y112598D02*
D03*
Y106299D02*
D03*
Y100000D02*
D03*
X286221Y112598D02*
D03*
Y106299D02*
D03*
Y100000D02*
D03*
X268898Y112598D02*
D03*
Y106299D02*
D03*
Y100000D02*
D03*
X337402Y112598D02*
D03*
Y106299D02*
D03*
Y100000D02*
D03*
X320079Y112598D02*
D03*
Y106299D02*
D03*
Y100000D02*
D03*
X388583Y112598D02*
D03*
Y106299D02*
D03*
Y100000D02*
D03*
X371260Y112598D02*
D03*
Y106299D02*
D03*
Y100000D02*
D03*
X510630Y112598D02*
D03*
Y106299D02*
D03*
Y100000D02*
D03*
X493307Y112598D02*
D03*
Y106299D02*
D03*
Y100000D02*
D03*
X561811Y112598D02*
D03*
Y106299D02*
D03*
Y100000D02*
D03*
X544488Y112598D02*
D03*
Y106299D02*
D03*
Y100000D02*
D03*
X612992Y112598D02*
D03*
Y106299D02*
D03*
Y100000D02*
D03*
X595669Y112598D02*
D03*
Y106299D02*
D03*
Y100000D02*
D03*
X61811Y183465D02*
D03*
Y177165D02*
D03*
Y170866D02*
D03*
X44488Y183465D02*
D03*
Y177165D02*
D03*
Y170866D02*
D03*
X112992Y183465D02*
D03*
Y177165D02*
D03*
Y170866D02*
D03*
X95669Y183465D02*
D03*
Y177165D02*
D03*
Y170866D02*
D03*
X164173Y183465D02*
D03*
Y177165D02*
D03*
Y170866D02*
D03*
X146850Y183465D02*
D03*
Y177165D02*
D03*
Y170866D02*
D03*
X286221Y183465D02*
D03*
Y177165D02*
D03*
Y170866D02*
D03*
X268898Y183465D02*
D03*
Y177165D02*
D03*
Y170866D02*
D03*
X337402Y183465D02*
D03*
Y177165D02*
D03*
Y170866D02*
D03*
X320079Y183465D02*
D03*
Y177165D02*
D03*
Y170866D02*
D03*
X388583Y183465D02*
D03*
Y177165D02*
D03*
Y170866D02*
D03*
X371260Y183465D02*
D03*
Y177165D02*
D03*
Y170866D02*
D03*
X510630Y183465D02*
D03*
Y177165D02*
D03*
Y170866D02*
D03*
X493307Y183465D02*
D03*
Y177165D02*
D03*
Y170866D02*
D03*
X561811Y183465D02*
D03*
Y177165D02*
D03*
Y170866D02*
D03*
X544488Y183465D02*
D03*
Y177165D02*
D03*
Y170866D02*
D03*
X612992Y183465D02*
D03*
Y177165D02*
D03*
Y170866D02*
D03*
X595669Y183465D02*
D03*
Y177165D02*
D03*
Y170866D02*
D03*
X61811Y254331D02*
D03*
Y248031D02*
D03*
Y241732D02*
D03*
X44488Y254331D02*
D03*
Y248031D02*
D03*
Y241732D02*
D03*
X112992Y254331D02*
D03*
Y248031D02*
D03*
Y241732D02*
D03*
X95669Y254331D02*
D03*
Y248031D02*
D03*
Y241732D02*
D03*
X164173Y254331D02*
D03*
Y248031D02*
D03*
Y241732D02*
D03*
X146850Y254331D02*
D03*
Y248031D02*
D03*
Y241732D02*
D03*
X286221Y254331D02*
D03*
Y248031D02*
D03*
Y241732D02*
D03*
X268898Y254331D02*
D03*
Y248031D02*
D03*
Y241732D02*
D03*
X337402Y254331D02*
D03*
Y248031D02*
D03*
Y241732D02*
D03*
X320079Y254331D02*
D03*
Y248031D02*
D03*
Y241732D02*
D03*
X388583Y254331D02*
D03*
Y248031D02*
D03*
Y241732D02*
D03*
X371260Y254331D02*
D03*
Y248031D02*
D03*
Y241732D02*
D03*
X510630Y254331D02*
D03*
Y248031D02*
D03*
Y241732D02*
D03*
X493307Y254331D02*
D03*
Y248031D02*
D03*
Y241732D02*
D03*
X561811Y254331D02*
D03*
Y248031D02*
D03*
Y241732D02*
D03*
X544488Y254331D02*
D03*
Y248031D02*
D03*
Y241732D02*
D03*
X612992Y254331D02*
D03*
Y248031D02*
D03*
Y241732D02*
D03*
X595669Y254331D02*
D03*
Y248031D02*
D03*
Y241732D02*
D03*
X61811Y325197D02*
D03*
Y318898D02*
D03*
Y312598D02*
D03*
X44488Y325197D02*
D03*
Y318898D02*
D03*
Y312598D02*
D03*
X112992Y325197D02*
D03*
Y318898D02*
D03*
Y312598D02*
D03*
X95669Y325197D02*
D03*
Y318898D02*
D03*
Y312598D02*
D03*
X164173Y325197D02*
D03*
Y318898D02*
D03*
Y312598D02*
D03*
X146850Y325197D02*
D03*
Y318898D02*
D03*
Y312598D02*
D03*
X286221Y325197D02*
D03*
Y318898D02*
D03*
Y312598D02*
D03*
X268898Y325197D02*
D03*
Y318898D02*
D03*
Y312598D02*
D03*
X337402Y325197D02*
D03*
Y318898D02*
D03*
Y312598D02*
D03*
X320079Y325197D02*
D03*
Y318898D02*
D03*
Y312598D02*
D03*
X388583Y325197D02*
D03*
Y318898D02*
D03*
Y312598D02*
D03*
X371260Y325197D02*
D03*
Y318898D02*
D03*
Y312598D02*
D03*
X510630Y325197D02*
D03*
Y318898D02*
D03*
Y312598D02*
D03*
X493307Y325197D02*
D03*
Y318898D02*
D03*
Y312598D02*
D03*
X561811Y325197D02*
D03*
Y318898D02*
D03*
Y312598D02*
D03*
X544488Y325197D02*
D03*
Y318898D02*
D03*
Y312598D02*
D03*
X612992Y325197D02*
D03*
Y318898D02*
D03*
Y312598D02*
D03*
X595669Y325197D02*
D03*
Y318898D02*
D03*
Y312598D02*
D03*
M02*
