%FSLAX25Y25*%
%MOIN*%
G70*
G01*
G75*
G04 Layer_Color=65535*
%ADD10C,0.00787*%
%ADD11R,0.03543X0.03543*%
%ADD12R,0.05000X0.05000*%
%ADD13R,0.04000X0.07480*%
%ADD14R,0.03150X0.03150*%
%ADD15R,0.03150X0.03150*%
%ADD16R,0.03543X0.03543*%
%ADD17R,0.02559X0.01181*%
%ADD18R,0.01181X0.02559*%
%ADD19R,0.13583X0.13583*%
%ADD20R,0.09370X0.06496*%
%ADD21R,0.00984X0.02756*%
%ADD22R,0.03600X0.03600*%
%ADD23R,0.05000X0.03600*%
%ADD24C,0.01000*%
%ADD25C,0.01969*%
%ADD26C,0.00984*%
%ADD27C,0.00600*%
%ADD28R,0.05512X0.05512*%
%ADD29C,0.07000*%
%ADD30R,0.07000X0.07000*%
%ADD31C,0.05000*%
%ADD32C,0.03150*%
%ADD33C,0.03150*%
%ADD34R,0.07874X0.05118*%
%ADD35C,0.00800*%
%ADD36C,0.02000*%
%ADD37C,0.00591*%
D10*
X49606Y48425D02*
Y60236D01*
X36220Y48425D02*
Y60236D01*
X49606Y11024D02*
Y22835D01*
X36220Y11024D02*
Y22835D01*
X79921Y5118D02*
Y16929D01*
X66535Y5118D02*
Y16929D01*
X121260Y7480D02*
Y19291D01*
X134646Y7480D02*
Y19291D01*
X176378Y57087D02*
Y68898D01*
X162992Y57087D02*
Y68898D01*
X49606Y29528D02*
Y41339D01*
X36220Y29528D02*
Y41339D01*
X185827Y2362D02*
Y14173D01*
X172441Y2362D02*
Y14173D01*
X58661Y60630D02*
X70472D01*
X58661Y47244D02*
X70472D01*
X90748Y49803D02*
X92126Y48425D01*
X90748Y49803D02*
X93701D01*
X92126Y48425D02*
X93701Y49803D01*
X154724Y30709D02*
Y44094D01*
X166535Y33465D02*
Y41339D01*
X100000Y9843D02*
X111811D01*
X100000Y23228D02*
X111811D01*
X157875Y57480D02*
Y60104D01*
Y58792D01*
X161811D01*
X157875Y64040D02*
X158531Y62728D01*
X159843Y61416D01*
X161155D01*
X161811Y62072D01*
Y63384D01*
X161155Y64040D01*
X160499D01*
X159843Y63384D01*
Y61416D01*
X157875Y65352D02*
X161811D01*
Y67976D01*
X183858Y58661D02*
Y62597D01*
X185826D01*
X186482Y61941D01*
Y60629D01*
X185826Y59973D01*
X183858D01*
X185170D02*
X186482Y58661D01*
X187794Y59317D02*
X188450Y58661D01*
X189762D01*
X190418Y59317D01*
Y61941D01*
X189762Y62597D01*
X188450D01*
X187794Y61941D01*
Y61285D01*
X188450Y60629D01*
X190418D01*
X191730Y62597D02*
Y58661D01*
X194354D01*
X82151Y63516D02*
X81495Y64172D01*
X80184D01*
X79527Y63516D01*
Y60892D01*
X80184Y60236D01*
X81495D01*
X82151Y60892D01*
X83463Y63516D02*
X84119Y64172D01*
X85431D01*
X86087Y63516D01*
Y62860D01*
X85431Y62204D01*
X84775D01*
X85431D01*
X86087Y61548D01*
Y60892D01*
X85431Y60236D01*
X84119D01*
X83463Y60892D01*
X90023Y63516D02*
X89367Y64172D01*
X88055D01*
X87399Y63516D01*
Y60892D01*
X88055Y60236D01*
X89367D01*
X90023Y60892D01*
X92126Y67715D02*
Y63779D01*
X94094D01*
X94750Y64435D01*
Y67059D01*
X94094Y67715D01*
X92126D01*
X96062D02*
Y63779D01*
X98030D01*
X98685Y64435D01*
Y65091D01*
Y65747D01*
X98030Y66403D01*
X96062D01*
X101309Y62468D02*
X101965D01*
X102621Y63124D01*
Y66403D01*
X100653D01*
X99998Y65747D01*
Y64435D01*
X100653Y63779D01*
X102621D01*
X12466Y12991D02*
X11154D01*
X11810D01*
Y9711D01*
X11154Y9055D01*
X10498D01*
X9843Y9711D01*
X13778Y9055D02*
X15090D01*
X14434D01*
Y12991D01*
X13778Y12335D01*
X147244Y5118D02*
Y9054D01*
X148556Y7742D01*
X149868Y9054D01*
Y5118D01*
X151836D02*
X153148D01*
X153804Y5774D01*
Y7086D01*
X153148Y7742D01*
X151836D01*
X151180Y7086D01*
Y5774D01*
X151836Y5118D01*
X155116D02*
Y7742D01*
X157083D01*
X157739Y7086D01*
Y5118D01*
X61417Y32283D02*
X57482D01*
Y34251D01*
X58138Y34907D01*
X59449D01*
X60105Y34251D01*
Y32283D01*
Y33595D02*
X61417Y34907D01*
Y36219D02*
Y37531D01*
Y36875D01*
X57482D01*
X58138Y36219D01*
X57482Y39499D02*
X61417D01*
Y42123D01*
X60630Y12992D02*
X56694D01*
Y14960D01*
X57350Y15616D01*
X58662D01*
X59318Y14960D01*
Y12992D01*
Y14304D02*
X60630Y15616D01*
X57350Y16928D02*
X56694Y17584D01*
Y18896D01*
X57350Y19552D01*
X58006D01*
X58662Y18896D01*
Y18240D01*
Y18896D01*
X59318Y19552D01*
X59974D01*
X60630Y18896D01*
Y17584D01*
X59974Y16928D01*
X56694Y20864D02*
X60630D01*
Y23487D01*
X196850Y3150D02*
X192915D01*
Y5117D01*
X193571Y5773D01*
X194883D01*
X195538Y5117D01*
Y3150D01*
Y4462D02*
X196850Y5773D01*
Y9053D02*
X192915D01*
X194883Y7085D01*
Y9709D01*
X192915Y11021D02*
X196850D01*
Y13645D01*
X129004Y38451D02*
X128348Y37795D01*
Y36483D01*
X129004Y35827D01*
X129660D01*
X130316Y36483D01*
Y37795D01*
X130972Y38451D01*
X131628D01*
X132283Y37795D01*
Y36483D01*
X131628Y35827D01*
X128348Y39762D02*
X132283D01*
X130972Y41074D01*
X132283Y42386D01*
X128348D01*
X132283Y43698D02*
Y45010D01*
Y44354D01*
X128348D01*
X129004Y43698D01*
Y49602D02*
X128348Y48946D01*
Y47634D01*
X129004Y46978D01*
X131628D01*
X132283Y47634D01*
Y48946D01*
X131628Y49602D01*
X40157Y28345D02*
X42781D01*
X41469D01*
Y24409D01*
X44093D02*
X45405D01*
X44749D01*
Y28345D01*
X44093Y27689D01*
X47373Y28345D02*
Y24409D01*
X49997D01*
X62992Y22046D02*
X65616D01*
X64304D01*
Y18110D01*
X66928Y21390D02*
X67584Y22046D01*
X68896D01*
X69552Y21390D01*
Y20734D01*
X68896Y20078D01*
X69552Y19422D01*
Y18766D01*
X68896Y18110D01*
X67584D01*
X66928Y18766D01*
Y19422D01*
X67584Y20078D01*
X66928Y20734D01*
Y21390D01*
X67584Y20078D02*
X68896D01*
X70864Y22046D02*
Y18110D01*
X73487D01*
X38583Y9054D02*
X41206D01*
X39895D01*
Y5118D01*
X42518Y8398D02*
X43174Y9054D01*
X44486D01*
X45142Y8398D01*
Y7742D01*
X44486Y7086D01*
X43830D01*
X44486D01*
X45142Y6430D01*
Y5774D01*
X44486Y5118D01*
X43174D01*
X42518Y5774D01*
X46454Y9054D02*
Y5118D01*
X49078D01*
X37008Y65353D02*
X39632D01*
X38320D01*
Y61417D01*
X43567Y65353D02*
X40944D01*
Y63385D01*
X42255Y64041D01*
X42911D01*
X43567Y63385D01*
Y62073D01*
X42911Y61417D01*
X41600D01*
X40944Y62073D01*
X44879Y65353D02*
Y61417D01*
X47503D01*
X122835Y6298D02*
X125459D01*
X124147D01*
Y2362D01*
X129394D02*
X126770D01*
X129394Y4986D01*
Y5642D01*
X128738Y6298D01*
X127426D01*
X126770Y5642D01*
X130706Y6298D02*
Y2362D01*
X133330D01*
X161024Y9448D02*
X163647D01*
X162336D01*
Y5512D01*
X166927D02*
Y9448D01*
X164959Y7480D01*
X167583D01*
X168895Y9448D02*
Y5512D01*
X171519D01*
X210104Y12203D02*
X208792D01*
X209448D01*
Y8924D01*
X208792Y8268D01*
X208136D01*
X207480Y8924D01*
X214040Y8268D02*
X211416D01*
X214040Y10892D01*
Y11547D01*
X213384Y12203D01*
X212072D01*
X211416Y11547D01*
X201576Y21260D02*
Y23884D01*
X202232D01*
X204856Y21260D01*
X205512D01*
Y23884D01*
X201576Y25196D02*
X205512D01*
X204200Y26507D01*
X205512Y27819D01*
X201576D01*
X205512Y29131D02*
Y30443D01*
Y29787D01*
X201576D01*
X202232Y29131D01*
X201576Y41732D02*
Y44356D01*
X202232D01*
X204856Y41732D01*
X205512D01*
Y44356D01*
X201576Y45668D02*
X205512D01*
X204200Y46980D01*
X205512Y48292D01*
X201576D01*
X205512Y52228D02*
Y49604D01*
X202888Y52228D01*
X202232D01*
X201576Y51572D01*
Y50260D01*
X202232Y49604D01*
X18505Y40157D02*
Y42781D01*
X19161D01*
X21785Y40157D01*
X22441D01*
Y42781D01*
X18505Y44093D02*
X22441D01*
X21129Y45405D01*
X22441Y46717D01*
X18505D01*
X19161Y48029D02*
X18505Y48685D01*
Y49997D01*
X19161Y50653D01*
X19817D01*
X20473Y49997D01*
Y49341D01*
Y49997D01*
X21129Y50653D01*
X21785D01*
X22441Y49997D01*
Y48685D01*
X21785Y48029D01*
X18505Y20472D02*
Y23096D01*
X19161D01*
X21785Y20472D01*
X22441D01*
Y23096D01*
X18505Y24408D02*
X22441D01*
X21129Y25720D01*
X22441Y27032D01*
X18505D01*
X22441Y30312D02*
X18505D01*
X20473Y28344D01*
Y30968D01*
X274016Y48425D02*
Y60236D01*
X260630Y48425D02*
Y60236D01*
X274016Y11024D02*
Y22835D01*
X260630Y11024D02*
Y22835D01*
X304331Y5118D02*
Y16929D01*
X290945Y5118D02*
Y16929D01*
X345669Y7480D02*
Y19291D01*
X359055Y7480D02*
Y19291D01*
X400787Y57087D02*
Y68898D01*
X387402Y57087D02*
Y68898D01*
X274016Y29528D02*
Y41339D01*
X260630Y29528D02*
Y41339D01*
X410236Y2362D02*
Y14173D01*
X396850Y2362D02*
Y14173D01*
X283071Y60630D02*
X294882D01*
X283071Y47244D02*
X294882D01*
X315158Y49803D02*
X316535Y48425D01*
X315158Y49803D02*
X318110D01*
X316535Y48425D02*
X318110Y49803D01*
X379134Y30709D02*
Y44094D01*
X390945Y33465D02*
Y41339D01*
X324410Y9843D02*
X336221D01*
X324410Y23228D02*
X336221D01*
X382285Y57480D02*
Y60104D01*
Y58792D01*
X386221D01*
X382285Y64040D02*
X382941Y62728D01*
X384253Y61416D01*
X385564D01*
X386221Y62072D01*
Y63384D01*
X385564Y64040D01*
X384909D01*
X384253Y63384D01*
Y61416D01*
X382285Y65352D02*
X386221D01*
Y67976D01*
X408268Y58661D02*
Y62597D01*
X410236D01*
X410891Y61941D01*
Y60629D01*
X410236Y59973D01*
X408268D01*
X409580D02*
X410891Y58661D01*
X412203Y59317D02*
X412859Y58661D01*
X414171D01*
X414827Y59317D01*
Y61941D01*
X414171Y62597D01*
X412859D01*
X412203Y61941D01*
Y61285D01*
X412859Y60629D01*
X414827D01*
X416139Y62597D02*
Y58661D01*
X418763D01*
X306561Y63516D02*
X305905Y64172D01*
X304593D01*
X303937Y63516D01*
Y60892D01*
X304593Y60236D01*
X305905D01*
X306561Y60892D01*
X307873Y63516D02*
X308529Y64172D01*
X309841D01*
X310497Y63516D01*
Y62860D01*
X309841Y62204D01*
X309185D01*
X309841D01*
X310497Y61548D01*
Y60892D01*
X309841Y60236D01*
X308529D01*
X307873Y60892D01*
X314432Y63516D02*
X313776Y64172D01*
X312464D01*
X311808Y63516D01*
Y60892D01*
X312464Y60236D01*
X313776D01*
X314432Y60892D01*
X316535Y67715D02*
Y63779D01*
X318503D01*
X319159Y64435D01*
Y67059D01*
X318503Y67715D01*
X316535D01*
X320471D02*
Y63779D01*
X322439D01*
X323095Y64435D01*
Y65091D01*
Y65747D01*
X322439Y66403D01*
X320471D01*
X325719Y62468D02*
X326375D01*
X327031Y63124D01*
Y66403D01*
X325063D01*
X324407Y65747D01*
Y64435D01*
X325063Y63779D01*
X327031D01*
X236876Y12991D02*
X235564D01*
X236220D01*
Y9711D01*
X235564Y9055D01*
X234908D01*
X234252Y9711D01*
X238188Y9055D02*
X239500D01*
X238844D01*
Y12991D01*
X238188Y12335D01*
X371654Y5118D02*
Y9054D01*
X372966Y7742D01*
X374277Y9054D01*
Y5118D01*
X376245D02*
X377557D01*
X378213Y5774D01*
Y7086D01*
X377557Y7742D01*
X376245D01*
X375589Y7086D01*
Y5774D01*
X376245Y5118D01*
X379525D02*
Y7742D01*
X381493D01*
X382149Y7086D01*
Y5118D01*
X285827Y32283D02*
X281891D01*
Y34251D01*
X282547Y34907D01*
X283859D01*
X284515Y34251D01*
Y32283D01*
Y33595D02*
X285827Y34907D01*
Y36219D02*
Y37531D01*
Y36875D01*
X281891D01*
X282547Y36219D01*
X281891Y39499D02*
X285827D01*
Y42123D01*
X285039Y12992D02*
X281104D01*
Y14960D01*
X281760Y15616D01*
X283071D01*
X283728Y14960D01*
Y12992D01*
Y14304D02*
X285039Y15616D01*
X281760Y16928D02*
X281104Y17584D01*
Y18896D01*
X281760Y19552D01*
X282416D01*
X283071Y18896D01*
Y18240D01*
Y18896D01*
X283728Y19552D01*
X284383D01*
X285039Y18896D01*
Y17584D01*
X284383Y16928D01*
X281104Y20864D02*
X285039D01*
Y23487D01*
X421260Y3150D02*
X417324D01*
Y5117D01*
X417980Y5773D01*
X419292D01*
X419948Y5117D01*
Y3150D01*
Y4462D02*
X421260Y5773D01*
Y9053D02*
X417324D01*
X419292Y7085D01*
Y9709D01*
X417324Y11021D02*
X421260D01*
Y13645D01*
X353413Y38451D02*
X352757Y37795D01*
Y36483D01*
X353413Y35827D01*
X354069D01*
X354725Y36483D01*
Y37795D01*
X355381Y38451D01*
X356037D01*
X356693Y37795D01*
Y36483D01*
X356037Y35827D01*
X352757Y39762D02*
X356693D01*
X355381Y41074D01*
X356693Y42386D01*
X352757D01*
X356693Y43698D02*
Y45010D01*
Y44354D01*
X352757D01*
X353413Y43698D01*
Y49602D02*
X352757Y48946D01*
Y47634D01*
X353413Y46978D01*
X356037D01*
X356693Y47634D01*
Y48946D01*
X356037Y49602D01*
X264567Y28345D02*
X267191D01*
X265879D01*
Y24409D01*
X268503D02*
X269815D01*
X269159D01*
Y28345D01*
X268503Y27689D01*
X271782Y28345D02*
Y24409D01*
X274406D01*
X287402Y22046D02*
X290025D01*
X288714D01*
Y18110D01*
X291337Y21390D02*
X291993Y22046D01*
X293305D01*
X293961Y21390D01*
Y20734D01*
X293305Y20078D01*
X293961Y19422D01*
Y18766D01*
X293305Y18110D01*
X291993D01*
X291337Y18766D01*
Y19422D01*
X291993Y20078D01*
X291337Y20734D01*
Y21390D01*
X291993Y20078D02*
X293305D01*
X295273Y22046D02*
Y18110D01*
X297897D01*
X262992Y9054D02*
X265616D01*
X264304D01*
Y5118D01*
X266928Y8398D02*
X267584Y9054D01*
X268896D01*
X269552Y8398D01*
Y7742D01*
X268896Y7086D01*
X268240D01*
X268896D01*
X269552Y6430D01*
Y5774D01*
X268896Y5118D01*
X267584D01*
X266928Y5774D01*
X270864Y9054D02*
Y5118D01*
X273487D01*
X261417Y65353D02*
X264041D01*
X262729D01*
Y61417D01*
X267977Y65353D02*
X265353D01*
Y63385D01*
X266665Y64041D01*
X267321D01*
X267977Y63385D01*
Y62073D01*
X267321Y61417D01*
X266009D01*
X265353Y62073D01*
X269289Y65353D02*
Y61417D01*
X271913D01*
X347244Y6298D02*
X349868D01*
X348556D01*
Y2362D01*
X353804D02*
X351180D01*
X353804Y4986D01*
Y5642D01*
X353148Y6298D01*
X351836D01*
X351180Y5642D01*
X355116Y6298D02*
Y2362D01*
X357739D01*
X385433Y9448D02*
X388057D01*
X386745D01*
Y5512D01*
X391337D02*
Y9448D01*
X389369Y7480D01*
X391993D01*
X393305Y9448D02*
Y5512D01*
X395928D01*
X434514Y12203D02*
X433202D01*
X433858D01*
Y8924D01*
X433202Y8268D01*
X432546D01*
X431890Y8924D01*
X438449Y8268D02*
X435825D01*
X438449Y10892D01*
Y11547D01*
X437793Y12203D01*
X436482D01*
X435825Y11547D01*
X425985Y21260D02*
Y23884D01*
X426642D01*
X429265Y21260D01*
X429921D01*
Y23884D01*
X425985Y25196D02*
X429921D01*
X428609Y26507D01*
X429921Y27819D01*
X425985D01*
X429921Y29131D02*
Y30443D01*
Y29787D01*
X425985D01*
X426642Y29131D01*
X425985Y41732D02*
Y44356D01*
X426642D01*
X429265Y41732D01*
X429921D01*
Y44356D01*
X425985Y45668D02*
X429921D01*
X428609Y46980D01*
X429921Y48292D01*
X425985D01*
X429921Y52228D02*
Y49604D01*
X427297Y52228D01*
X426642D01*
X425985Y51572D01*
Y50260D01*
X426642Y49604D01*
X242915Y40157D02*
Y42781D01*
X243571D01*
X246194Y40157D01*
X246850D01*
Y42781D01*
X242915Y44093D02*
X246850D01*
X245538Y45405D01*
X246850Y46717D01*
X242915D01*
X243571Y48029D02*
X242915Y48685D01*
Y49997D01*
X243571Y50653D01*
X244227D01*
X244882Y49997D01*
Y49341D01*
Y49997D01*
X245538Y50653D01*
X246194D01*
X246850Y49997D01*
Y48685D01*
X246194Y48029D01*
X242915Y20472D02*
Y23096D01*
X243571D01*
X246194Y20472D01*
X246850D01*
Y23096D01*
X242915Y24408D02*
X246850D01*
X245538Y25720D01*
X246850Y27032D01*
X242915D01*
X246850Y30312D02*
X242915D01*
X244882Y28344D01*
Y30968D01*
X498425Y48425D02*
Y60236D01*
X485039Y48425D02*
Y60236D01*
X498425Y11024D02*
Y22835D01*
X485039Y11024D02*
Y22835D01*
X528740Y5118D02*
Y16929D01*
X515354Y5118D02*
Y16929D01*
X570079Y7480D02*
Y19291D01*
X583465Y7480D02*
Y19291D01*
X625197Y57087D02*
Y68898D01*
X611811Y57087D02*
Y68898D01*
X498425Y29528D02*
Y41339D01*
X485039Y29528D02*
Y41339D01*
X634646Y2362D02*
Y14173D01*
X621260Y2362D02*
Y14173D01*
X507480Y60630D02*
X519291D01*
X507480Y47244D02*
X519291D01*
X539567Y49803D02*
X540945Y48425D01*
X539567Y49803D02*
X542520D01*
X540945Y48425D02*
X542520Y49803D01*
X603543Y30709D02*
Y44094D01*
X615354Y33465D02*
Y41339D01*
X548819Y9843D02*
X560630D01*
X548819Y23228D02*
X560630D01*
X606694Y57480D02*
Y60104D01*
Y58792D01*
X610630D01*
X606694Y64040D02*
X607350Y62728D01*
X608662Y61416D01*
X609974D01*
X610630Y62072D01*
Y63384D01*
X609974Y64040D01*
X609318D01*
X608662Y63384D01*
Y61416D01*
X606694Y65352D02*
X610630D01*
Y67976D01*
X632677Y58661D02*
Y62597D01*
X634645D01*
X635301Y61941D01*
Y60629D01*
X634645Y59973D01*
X632677D01*
X633989D02*
X635301Y58661D01*
X636613Y59317D02*
X637269Y58661D01*
X638581D01*
X639237Y59317D01*
Y61941D01*
X638581Y62597D01*
X637269D01*
X636613Y61941D01*
Y61285D01*
X637269Y60629D01*
X639237D01*
X640549Y62597D02*
Y58661D01*
X643173D01*
X530970Y63516D02*
X530314Y64172D01*
X529002D01*
X528346Y63516D01*
Y60892D01*
X529002Y60236D01*
X530314D01*
X530970Y60892D01*
X532282Y63516D02*
X532938Y64172D01*
X534250D01*
X534906Y63516D01*
Y62860D01*
X534250Y62204D01*
X533594D01*
X534250D01*
X534906Y61548D01*
Y60892D01*
X534250Y60236D01*
X532938D01*
X532282Y60892D01*
X538842Y63516D02*
X538186Y64172D01*
X536874D01*
X536218Y63516D01*
Y60892D01*
X536874Y60236D01*
X538186D01*
X538842Y60892D01*
X540945Y67715D02*
Y63779D01*
X542913D01*
X543569Y64435D01*
Y67059D01*
X542913Y67715D01*
X540945D01*
X544881D02*
Y63779D01*
X546848D01*
X547504Y64435D01*
Y65091D01*
Y65747D01*
X546848Y66403D01*
X544881D01*
X550128Y62468D02*
X550784D01*
X551440Y63124D01*
Y66403D01*
X549472D01*
X548816Y65747D01*
Y64435D01*
X549472Y63779D01*
X551440D01*
X461285Y12991D02*
X459973D01*
X460629D01*
Y9711D01*
X459973Y9055D01*
X459317D01*
X458661Y9711D01*
X462597Y9055D02*
X463909D01*
X463253D01*
Y12991D01*
X462597Y12335D01*
X596063Y5118D02*
Y9054D01*
X597375Y7742D01*
X598687Y9054D01*
Y5118D01*
X600655D02*
X601967D01*
X602623Y5774D01*
Y7086D01*
X601967Y7742D01*
X600655D01*
X599999Y7086D01*
Y5774D01*
X600655Y5118D01*
X603934D02*
Y7742D01*
X605902D01*
X606558Y7086D01*
Y5118D01*
X510236Y32283D02*
X506300D01*
Y34251D01*
X506956Y34907D01*
X508268D01*
X508924Y34251D01*
Y32283D01*
Y33595D02*
X510236Y34907D01*
Y36219D02*
Y37531D01*
Y36875D01*
X506300D01*
X506956Y36219D01*
X506300Y39499D02*
X510236D01*
Y42123D01*
X509449Y12992D02*
X505513D01*
Y14960D01*
X506169Y15616D01*
X507481D01*
X508137Y14960D01*
Y12992D01*
Y14304D02*
X509449Y15616D01*
X506169Y16928D02*
X505513Y17584D01*
Y18896D01*
X506169Y19552D01*
X506825D01*
X507481Y18896D01*
Y18240D01*
Y18896D01*
X508137Y19552D01*
X508793D01*
X509449Y18896D01*
Y17584D01*
X508793Y16928D01*
X505513Y20864D02*
X509449D01*
Y23487D01*
X645669Y3150D02*
X641734D01*
Y5117D01*
X642389Y5773D01*
X643701D01*
X644357Y5117D01*
Y3150D01*
Y4462D02*
X645669Y5773D01*
Y9053D02*
X641734D01*
X643701Y7085D01*
Y9709D01*
X641734Y11021D02*
X645669D01*
Y13645D01*
X577823Y38451D02*
X577167Y37795D01*
Y36483D01*
X577823Y35827D01*
X578478D01*
X579135Y36483D01*
Y37795D01*
X579790Y38451D01*
X580446D01*
X581102Y37795D01*
Y36483D01*
X580446Y35827D01*
X577167Y39762D02*
X581102D01*
X579790Y41074D01*
X581102Y42386D01*
X577167D01*
X581102Y43698D02*
Y45010D01*
Y44354D01*
X577167D01*
X577823Y43698D01*
Y49602D02*
X577167Y48946D01*
Y47634D01*
X577823Y46978D01*
X580446D01*
X581102Y47634D01*
Y48946D01*
X580446Y49602D01*
X488976Y28345D02*
X491600D01*
X490288D01*
Y24409D01*
X492912D02*
X494224D01*
X493568D01*
Y28345D01*
X492912Y27689D01*
X496192Y28345D02*
Y24409D01*
X498816D01*
X511811Y22046D02*
X514435D01*
X513123D01*
Y18110D01*
X515747Y21390D02*
X516403Y22046D01*
X517715D01*
X518371Y21390D01*
Y20734D01*
X517715Y20078D01*
X518371Y19422D01*
Y18766D01*
X517715Y18110D01*
X516403D01*
X515747Y18766D01*
Y19422D01*
X516403Y20078D01*
X515747Y20734D01*
Y21390D01*
X516403Y20078D02*
X517715D01*
X519683Y22046D02*
Y18110D01*
X522306D01*
X487402Y9054D02*
X490025D01*
X488714D01*
Y5118D01*
X491337Y8398D02*
X491993Y9054D01*
X493305D01*
X493961Y8398D01*
Y7742D01*
X493305Y7086D01*
X492649D01*
X493305D01*
X493961Y6430D01*
Y5774D01*
X493305Y5118D01*
X491993D01*
X491337Y5774D01*
X495273Y9054D02*
Y5118D01*
X497897D01*
X485827Y65353D02*
X488451D01*
X487139D01*
Y61417D01*
X492386Y65353D02*
X489762D01*
Y63385D01*
X491074Y64041D01*
X491730D01*
X492386Y63385D01*
Y62073D01*
X491730Y61417D01*
X490418D01*
X489762Y62073D01*
X493698Y65353D02*
Y61417D01*
X496322D01*
X571654Y6298D02*
X574277D01*
X572965D01*
Y2362D01*
X578213D02*
X575589D01*
X578213Y4986D01*
Y5642D01*
X577557Y6298D01*
X576245D01*
X575589Y5642D01*
X579525Y6298D02*
Y2362D01*
X582149D01*
X609842Y9448D02*
X612466D01*
X611154D01*
Y5512D01*
X615746D02*
Y9448D01*
X613778Y7480D01*
X616402D01*
X617714Y9448D02*
Y5512D01*
X620338D01*
X658923Y12203D02*
X657611D01*
X658267D01*
Y8924D01*
X657611Y8268D01*
X656955D01*
X656299Y8924D01*
X662859Y8268D02*
X660235D01*
X662859Y10892D01*
Y11547D01*
X662203Y12203D01*
X660891D01*
X660235Y11547D01*
X650395Y21260D02*
Y23884D01*
X651051D01*
X653675Y21260D01*
X654331D01*
Y23884D01*
X650395Y25196D02*
X654331D01*
X653019Y26507D01*
X654331Y27819D01*
X650395D01*
X654331Y29131D02*
Y30443D01*
Y29787D01*
X650395D01*
X651051Y29131D01*
X650395Y41732D02*
Y44356D01*
X651051D01*
X653675Y41732D01*
X654331D01*
Y44356D01*
X650395Y45668D02*
X654331D01*
X653019Y46980D01*
X654331Y48292D01*
X650395D01*
X654331Y52228D02*
Y49604D01*
X651707Y52228D01*
X651051D01*
X650395Y51572D01*
Y50260D01*
X651051Y49604D01*
X467324Y40157D02*
Y42781D01*
X467980D01*
X470604Y40157D01*
X471260D01*
Y42781D01*
X467324Y44093D02*
X471260D01*
X469948Y45405D01*
X471260Y46717D01*
X467324D01*
X467980Y48029D02*
X467324Y48685D01*
Y49997D01*
X467980Y50653D01*
X468636D01*
X469292Y49997D01*
Y49341D01*
Y49997D01*
X469948Y50653D01*
X470604D01*
X471260Y49997D01*
Y48685D01*
X470604Y48029D01*
X467324Y20472D02*
Y23096D01*
X467980D01*
X470604Y20472D01*
X471260D01*
Y23096D01*
X467324Y24408D02*
X471260D01*
X469948Y25720D01*
X471260Y27032D01*
X467324D01*
X471260Y30312D02*
X467324D01*
X469292Y28344D01*
Y30968D01*
X49606Y119291D02*
Y131102D01*
X36220Y119291D02*
Y131102D01*
X49606Y81890D02*
Y93701D01*
X36220Y81890D02*
Y93701D01*
X79921Y75984D02*
Y87795D01*
X66535Y75984D02*
Y87795D01*
X121260Y78347D02*
Y90158D01*
X134646Y78347D02*
Y90158D01*
X176378Y127953D02*
Y139764D01*
X162992Y127953D02*
Y139764D01*
X49606Y100394D02*
Y112205D01*
X36220Y100394D02*
Y112205D01*
X185827Y73228D02*
Y85039D01*
X172441Y73228D02*
Y85039D01*
X58661Y131496D02*
X70472D01*
X58661Y118110D02*
X70472D01*
X90748Y120669D02*
X92126Y119291D01*
X90748Y120669D02*
X93701D01*
X92126Y119291D02*
X93701Y120669D01*
X154724Y101575D02*
Y114961D01*
X166535Y104331D02*
Y112205D01*
X100000Y80709D02*
X111811D01*
X100000Y94095D02*
X111811D01*
X157875Y128347D02*
Y130970D01*
Y129658D01*
X161811D01*
X157875Y134906D02*
X158531Y133594D01*
X159843Y132282D01*
X161155D01*
X161811Y132938D01*
Y134250D01*
X161155Y134906D01*
X160499D01*
X159843Y134250D01*
Y132282D01*
X157875Y136218D02*
X161811D01*
Y138842D01*
X183858Y129528D02*
Y133463D01*
X185826D01*
X186482Y132807D01*
Y131495D01*
X185826Y130840D01*
X183858D01*
X185170D02*
X186482Y129528D01*
X187794Y130183D02*
X188450Y129528D01*
X189762D01*
X190418Y130183D01*
Y132807D01*
X189762Y133463D01*
X188450D01*
X187794Y132807D01*
Y132151D01*
X188450Y131495D01*
X190418D01*
X191730Y133463D02*
Y129528D01*
X194354D01*
X82151Y134382D02*
X81495Y135038D01*
X80184D01*
X79527Y134382D01*
Y131758D01*
X80184Y131102D01*
X81495D01*
X82151Y131758D01*
X83463Y134382D02*
X84119Y135038D01*
X85431D01*
X86087Y134382D01*
Y133726D01*
X85431Y133070D01*
X84775D01*
X85431D01*
X86087Y132414D01*
Y131758D01*
X85431Y131102D01*
X84119D01*
X83463Y131758D01*
X90023Y134382D02*
X89367Y135038D01*
X88055D01*
X87399Y134382D01*
Y131758D01*
X88055Y131102D01*
X89367D01*
X90023Y131758D01*
X92126Y138581D02*
Y134646D01*
X94094D01*
X94750Y135302D01*
Y137926D01*
X94094Y138581D01*
X92126D01*
X96062D02*
Y134646D01*
X98030D01*
X98685Y135302D01*
Y135958D01*
Y136614D01*
X98030Y137269D01*
X96062D01*
X101309Y133334D02*
X101965D01*
X102621Y133990D01*
Y137269D01*
X100653D01*
X99998Y136614D01*
Y135302D01*
X100653Y134646D01*
X102621D01*
X12466Y83857D02*
X11154D01*
X11810D01*
Y80577D01*
X11154Y79921D01*
X10498D01*
X9843Y80577D01*
X13778Y79921D02*
X15090D01*
X14434D01*
Y83857D01*
X13778Y83201D01*
X147244Y75984D02*
Y79920D01*
X148556Y78608D01*
X149868Y79920D01*
Y75984D01*
X151836D02*
X153148D01*
X153804Y76640D01*
Y77952D01*
X153148Y78608D01*
X151836D01*
X151180Y77952D01*
Y76640D01*
X151836Y75984D01*
X155116D02*
Y78608D01*
X157083D01*
X157739Y77952D01*
Y75984D01*
X61417Y103150D02*
X57482D01*
Y105117D01*
X58138Y105773D01*
X59449D01*
X60105Y105117D01*
Y103150D01*
Y104462D02*
X61417Y105773D01*
Y107085D02*
Y108397D01*
Y107741D01*
X57482D01*
X58138Y107085D01*
X57482Y110365D02*
X61417D01*
Y112989D01*
X60630Y83858D02*
X56694D01*
Y85826D01*
X57350Y86482D01*
X58662D01*
X59318Y85826D01*
Y83858D01*
Y85170D02*
X60630Y86482D01*
X57350Y87794D02*
X56694Y88450D01*
Y89762D01*
X57350Y90418D01*
X58006D01*
X58662Y89762D01*
Y89106D01*
Y89762D01*
X59318Y90418D01*
X59974D01*
X60630Y89762D01*
Y88450D01*
X59974Y87794D01*
X56694Y91730D02*
X60630D01*
Y94354D01*
X196850Y74016D02*
X192915D01*
Y75984D01*
X193571Y76640D01*
X194883D01*
X195538Y75984D01*
Y74016D01*
Y75328D02*
X196850Y76640D01*
Y79919D02*
X192915D01*
X194883Y77952D01*
Y80575D01*
X192915Y81887D02*
X196850D01*
Y84511D01*
X129004Y109317D02*
X128348Y108661D01*
Y107349D01*
X129004Y106693D01*
X129660D01*
X130316Y107349D01*
Y108661D01*
X130972Y109317D01*
X131628D01*
X132283Y108661D01*
Y107349D01*
X131628Y106693D01*
X128348Y110629D02*
X132283D01*
X130972Y111941D01*
X132283Y113252D01*
X128348D01*
X132283Y114564D02*
Y115876D01*
Y115220D01*
X128348D01*
X129004Y114564D01*
Y120468D02*
X128348Y119812D01*
Y118500D01*
X129004Y117844D01*
X131628D01*
X132283Y118500D01*
Y119812D01*
X131628Y120468D01*
X40157Y99211D02*
X42781D01*
X41469D01*
Y95276D01*
X44093D02*
X45405D01*
X44749D01*
Y99211D01*
X44093Y98555D01*
X47373Y99211D02*
Y95276D01*
X49997D01*
X62992Y92912D02*
X65616D01*
X64304D01*
Y88976D01*
X66928Y92256D02*
X67584Y92912D01*
X68896D01*
X69552Y92256D01*
Y91600D01*
X68896Y90944D01*
X69552Y90288D01*
Y89632D01*
X68896Y88976D01*
X67584D01*
X66928Y89632D01*
Y90288D01*
X67584Y90944D01*
X66928Y91600D01*
Y92256D01*
X67584Y90944D02*
X68896D01*
X70864Y92912D02*
Y88976D01*
X73487D01*
X38583Y79920D02*
X41206D01*
X39895D01*
Y75984D01*
X42518Y79264D02*
X43174Y79920D01*
X44486D01*
X45142Y79264D01*
Y78608D01*
X44486Y77952D01*
X43830D01*
X44486D01*
X45142Y77296D01*
Y76640D01*
X44486Y75984D01*
X43174D01*
X42518Y76640D01*
X46454Y79920D02*
Y75984D01*
X49078D01*
X37008Y136219D02*
X39632D01*
X38320D01*
Y132283D01*
X43567Y136219D02*
X40944D01*
Y134251D01*
X42255Y134907D01*
X42911D01*
X43567Y134251D01*
Y132939D01*
X42911Y132283D01*
X41600D01*
X40944Y132939D01*
X44879Y136219D02*
Y132283D01*
X47503D01*
X122835Y77164D02*
X125459D01*
X124147D01*
Y73228D01*
X129394D02*
X126770D01*
X129394Y75852D01*
Y76508D01*
X128738Y77164D01*
X127426D01*
X126770Y76508D01*
X130706Y77164D02*
Y73228D01*
X133330D01*
X161024Y80314D02*
X163647D01*
X162336D01*
Y76378D01*
X166927D02*
Y80314D01*
X164959Y78346D01*
X167583D01*
X168895Y80314D02*
Y76378D01*
X171519D01*
X210104Y83070D02*
X208792D01*
X209448D01*
Y79790D01*
X208792Y79134D01*
X208136D01*
X207480Y79790D01*
X214040Y79134D02*
X211416D01*
X214040Y81758D01*
Y82414D01*
X213384Y83070D01*
X212072D01*
X211416Y82414D01*
X201576Y92126D02*
Y94750D01*
X202232D01*
X204856Y92126D01*
X205512D01*
Y94750D01*
X201576Y96062D02*
X205512D01*
X204200Y97374D01*
X205512Y98685D01*
X201576D01*
X205512Y99998D02*
Y101309D01*
Y100653D01*
X201576D01*
X202232Y99998D01*
X201576Y112598D02*
Y115222D01*
X202232D01*
X204856Y112598D01*
X205512D01*
Y115222D01*
X201576Y116534D02*
X205512D01*
X204200Y117846D01*
X205512Y119158D01*
X201576D01*
X205512Y123094D02*
Y120470D01*
X202888Y123094D01*
X202232D01*
X201576Y122438D01*
Y121126D01*
X202232Y120470D01*
X18505Y111024D02*
Y113647D01*
X19161D01*
X21785Y111024D01*
X22441D01*
Y113647D01*
X18505Y114959D02*
X22441D01*
X21129Y116271D01*
X22441Y117583D01*
X18505D01*
X19161Y118895D02*
X18505Y119551D01*
Y120863D01*
X19161Y121519D01*
X19817D01*
X20473Y120863D01*
Y120207D01*
Y120863D01*
X21129Y121519D01*
X21785D01*
X22441Y120863D01*
Y119551D01*
X21785Y118895D01*
X18505Y91339D02*
Y93962D01*
X19161D01*
X21785Y91339D01*
X22441D01*
Y93962D01*
X18505Y95274D02*
X22441D01*
X21129Y96586D01*
X22441Y97898D01*
X18505D01*
X22441Y101178D02*
X18505D01*
X20473Y99210D01*
Y101834D01*
X274016Y119291D02*
Y131102D01*
X260630Y119291D02*
Y131102D01*
X274016Y81890D02*
Y93701D01*
X260630Y81890D02*
Y93701D01*
X304331Y75984D02*
Y87795D01*
X290945Y75984D02*
Y87795D01*
X345669Y78347D02*
Y90158D01*
X359055Y78347D02*
Y90158D01*
X400787Y127953D02*
Y139764D01*
X387402Y127953D02*
Y139764D01*
X274016Y100394D02*
Y112205D01*
X260630Y100394D02*
Y112205D01*
X410236Y73228D02*
Y85039D01*
X396850Y73228D02*
Y85039D01*
X283071Y131496D02*
X294882D01*
X283071Y118110D02*
X294882D01*
X315158Y120669D02*
X316535Y119291D01*
X315158Y120669D02*
X318110D01*
X316535Y119291D02*
X318110Y120669D01*
X379134Y101575D02*
Y114961D01*
X390945Y104331D02*
Y112205D01*
X324410Y80709D02*
X336221D01*
X324410Y94095D02*
X336221D01*
X382285Y128347D02*
Y130970D01*
Y129658D01*
X386221D01*
X382285Y134906D02*
X382941Y133594D01*
X384253Y132282D01*
X385564D01*
X386221Y132938D01*
Y134250D01*
X385564Y134906D01*
X384909D01*
X384253Y134250D01*
Y132282D01*
X382285Y136218D02*
X386221D01*
Y138842D01*
X408268Y129528D02*
Y133463D01*
X410236D01*
X410891Y132807D01*
Y131495D01*
X410236Y130840D01*
X408268D01*
X409580D02*
X410891Y129528D01*
X412203Y130183D02*
X412859Y129528D01*
X414171D01*
X414827Y130183D01*
Y132807D01*
X414171Y133463D01*
X412859D01*
X412203Y132807D01*
Y132151D01*
X412859Y131495D01*
X414827D01*
X416139Y133463D02*
Y129528D01*
X418763D01*
X306561Y134382D02*
X305905Y135038D01*
X304593D01*
X303937Y134382D01*
Y131758D01*
X304593Y131102D01*
X305905D01*
X306561Y131758D01*
X307873Y134382D02*
X308529Y135038D01*
X309841D01*
X310497Y134382D01*
Y133726D01*
X309841Y133070D01*
X309185D01*
X309841D01*
X310497Y132414D01*
Y131758D01*
X309841Y131102D01*
X308529D01*
X307873Y131758D01*
X314432Y134382D02*
X313776Y135038D01*
X312464D01*
X311808Y134382D01*
Y131758D01*
X312464Y131102D01*
X313776D01*
X314432Y131758D01*
X316535Y138581D02*
Y134646D01*
X318503D01*
X319159Y135302D01*
Y137926D01*
X318503Y138581D01*
X316535D01*
X320471D02*
Y134646D01*
X322439D01*
X323095Y135302D01*
Y135958D01*
Y136614D01*
X322439Y137269D01*
X320471D01*
X325719Y133334D02*
X326375D01*
X327031Y133990D01*
Y137269D01*
X325063D01*
X324407Y136614D01*
Y135302D01*
X325063Y134646D01*
X327031D01*
X236876Y83857D02*
X235564D01*
X236220D01*
Y80577D01*
X235564Y79921D01*
X234908D01*
X234252Y80577D01*
X238188Y79921D02*
X239500D01*
X238844D01*
Y83857D01*
X238188Y83201D01*
X371654Y75984D02*
Y79920D01*
X372966Y78608D01*
X374277Y79920D01*
Y75984D01*
X376245D02*
X377557D01*
X378213Y76640D01*
Y77952D01*
X377557Y78608D01*
X376245D01*
X375589Y77952D01*
Y76640D01*
X376245Y75984D01*
X379525D02*
Y78608D01*
X381493D01*
X382149Y77952D01*
Y75984D01*
X285827Y103150D02*
X281891D01*
Y105117D01*
X282547Y105773D01*
X283859D01*
X284515Y105117D01*
Y103150D01*
Y104462D02*
X285827Y105773D01*
Y107085D02*
Y108397D01*
Y107741D01*
X281891D01*
X282547Y107085D01*
X281891Y110365D02*
X285827D01*
Y112989D01*
X285039Y83858D02*
X281104D01*
Y85826D01*
X281760Y86482D01*
X283071D01*
X283728Y85826D01*
Y83858D01*
Y85170D02*
X285039Y86482D01*
X281760Y87794D02*
X281104Y88450D01*
Y89762D01*
X281760Y90418D01*
X282416D01*
X283071Y89762D01*
Y89106D01*
Y89762D01*
X283728Y90418D01*
X284383D01*
X285039Y89762D01*
Y88450D01*
X284383Y87794D01*
X281104Y91730D02*
X285039D01*
Y94354D01*
X421260Y74016D02*
X417324D01*
Y75984D01*
X417980Y76640D01*
X419292D01*
X419948Y75984D01*
Y74016D01*
Y75328D02*
X421260Y76640D01*
Y79919D02*
X417324D01*
X419292Y77952D01*
Y80575D01*
X417324Y81887D02*
X421260D01*
Y84511D01*
X353413Y109317D02*
X352757Y108661D01*
Y107349D01*
X353413Y106693D01*
X354069D01*
X354725Y107349D01*
Y108661D01*
X355381Y109317D01*
X356037D01*
X356693Y108661D01*
Y107349D01*
X356037Y106693D01*
X352757Y110629D02*
X356693D01*
X355381Y111941D01*
X356693Y113252D01*
X352757D01*
X356693Y114564D02*
Y115876D01*
Y115220D01*
X352757D01*
X353413Y114564D01*
Y120468D02*
X352757Y119812D01*
Y118500D01*
X353413Y117844D01*
X356037D01*
X356693Y118500D01*
Y119812D01*
X356037Y120468D01*
X264567Y99211D02*
X267191D01*
X265879D01*
Y95276D01*
X268503D02*
X269815D01*
X269159D01*
Y99211D01*
X268503Y98555D01*
X271782Y99211D02*
Y95276D01*
X274406D01*
X287402Y92912D02*
X290025D01*
X288714D01*
Y88976D01*
X291337Y92256D02*
X291993Y92912D01*
X293305D01*
X293961Y92256D01*
Y91600D01*
X293305Y90944D01*
X293961Y90288D01*
Y89632D01*
X293305Y88976D01*
X291993D01*
X291337Y89632D01*
Y90288D01*
X291993Y90944D01*
X291337Y91600D01*
Y92256D01*
X291993Y90944D02*
X293305D01*
X295273Y92912D02*
Y88976D01*
X297897D01*
X262992Y79920D02*
X265616D01*
X264304D01*
Y75984D01*
X266928Y79264D02*
X267584Y79920D01*
X268896D01*
X269552Y79264D01*
Y78608D01*
X268896Y77952D01*
X268240D01*
X268896D01*
X269552Y77296D01*
Y76640D01*
X268896Y75984D01*
X267584D01*
X266928Y76640D01*
X270864Y79920D02*
Y75984D01*
X273487D01*
X261417Y136219D02*
X264041D01*
X262729D01*
Y132283D01*
X267977Y136219D02*
X265353D01*
Y134251D01*
X266665Y134907D01*
X267321D01*
X267977Y134251D01*
Y132939D01*
X267321Y132283D01*
X266009D01*
X265353Y132939D01*
X269289Y136219D02*
Y132283D01*
X271913D01*
X347244Y77164D02*
X349868D01*
X348556D01*
Y73228D01*
X353804D02*
X351180D01*
X353804Y75852D01*
Y76508D01*
X353148Y77164D01*
X351836D01*
X351180Y76508D01*
X355116Y77164D02*
Y73228D01*
X357739D01*
X385433Y80314D02*
X388057D01*
X386745D01*
Y76378D01*
X391337D02*
Y80314D01*
X389369Y78346D01*
X391993D01*
X393305Y80314D02*
Y76378D01*
X395928D01*
X434514Y83070D02*
X433202D01*
X433858D01*
Y79790D01*
X433202Y79134D01*
X432546D01*
X431890Y79790D01*
X438449Y79134D02*
X435825D01*
X438449Y81758D01*
Y82414D01*
X437793Y83070D01*
X436482D01*
X435825Y82414D01*
X425985Y92126D02*
Y94750D01*
X426642D01*
X429265Y92126D01*
X429921D01*
Y94750D01*
X425985Y96062D02*
X429921D01*
X428609Y97374D01*
X429921Y98685D01*
X425985D01*
X429921Y99998D02*
Y101309D01*
Y100653D01*
X425985D01*
X426642Y99998D01*
X425985Y112598D02*
Y115222D01*
X426642D01*
X429265Y112598D01*
X429921D01*
Y115222D01*
X425985Y116534D02*
X429921D01*
X428609Y117846D01*
X429921Y119158D01*
X425985D01*
X429921Y123094D02*
Y120470D01*
X427297Y123094D01*
X426642D01*
X425985Y122438D01*
Y121126D01*
X426642Y120470D01*
X242915Y111024D02*
Y113647D01*
X243571D01*
X246194Y111024D01*
X246850D01*
Y113647D01*
X242915Y114959D02*
X246850D01*
X245538Y116271D01*
X246850Y117583D01*
X242915D01*
X243571Y118895D02*
X242915Y119551D01*
Y120863D01*
X243571Y121519D01*
X244227D01*
X244882Y120863D01*
Y120207D01*
Y120863D01*
X245538Y121519D01*
X246194D01*
X246850Y120863D01*
Y119551D01*
X246194Y118895D01*
X242915Y91339D02*
Y93962D01*
X243571D01*
X246194Y91339D01*
X246850D01*
Y93962D01*
X242915Y95274D02*
X246850D01*
X245538Y96586D01*
X246850Y97898D01*
X242915D01*
X246850Y101178D02*
X242915D01*
X244882Y99210D01*
Y101834D01*
X498425Y119291D02*
Y131102D01*
X485039Y119291D02*
Y131102D01*
X498425Y81890D02*
Y93701D01*
X485039Y81890D02*
Y93701D01*
X528740Y75984D02*
Y87795D01*
X515354Y75984D02*
Y87795D01*
X570079Y78347D02*
Y90158D01*
X583465Y78347D02*
Y90158D01*
X625197Y127953D02*
Y139764D01*
X611811Y127953D02*
Y139764D01*
X498425Y100394D02*
Y112205D01*
X485039Y100394D02*
Y112205D01*
X634646Y73228D02*
Y85039D01*
X621260Y73228D02*
Y85039D01*
X507480Y131496D02*
X519291D01*
X507480Y118110D02*
X519291D01*
X539567Y120669D02*
X540945Y119291D01*
X539567Y120669D02*
X542520D01*
X540945Y119291D02*
X542520Y120669D01*
X603543Y101575D02*
Y114961D01*
X615354Y104331D02*
Y112205D01*
X548819Y80709D02*
X560630D01*
X548819Y94095D02*
X560630D01*
X606694Y128347D02*
Y130970D01*
Y129658D01*
X610630D01*
X606694Y134906D02*
X607350Y133594D01*
X608662Y132282D01*
X609974D01*
X610630Y132938D01*
Y134250D01*
X609974Y134906D01*
X609318D01*
X608662Y134250D01*
Y132282D01*
X606694Y136218D02*
X610630D01*
Y138842D01*
X632677Y129528D02*
Y133463D01*
X634645D01*
X635301Y132807D01*
Y131495D01*
X634645Y130840D01*
X632677D01*
X633989D02*
X635301Y129528D01*
X636613Y130183D02*
X637269Y129528D01*
X638581D01*
X639237Y130183D01*
Y132807D01*
X638581Y133463D01*
X637269D01*
X636613Y132807D01*
Y132151D01*
X637269Y131495D01*
X639237D01*
X640549Y133463D02*
Y129528D01*
X643173D01*
X530970Y134382D02*
X530314Y135038D01*
X529002D01*
X528346Y134382D01*
Y131758D01*
X529002Y131102D01*
X530314D01*
X530970Y131758D01*
X532282Y134382D02*
X532938Y135038D01*
X534250D01*
X534906Y134382D01*
Y133726D01*
X534250Y133070D01*
X533594D01*
X534250D01*
X534906Y132414D01*
Y131758D01*
X534250Y131102D01*
X532938D01*
X532282Y131758D01*
X538842Y134382D02*
X538186Y135038D01*
X536874D01*
X536218Y134382D01*
Y131758D01*
X536874Y131102D01*
X538186D01*
X538842Y131758D01*
X540945Y138581D02*
Y134646D01*
X542913D01*
X543569Y135302D01*
Y137926D01*
X542913Y138581D01*
X540945D01*
X544881D02*
Y134646D01*
X546848D01*
X547504Y135302D01*
Y135958D01*
Y136614D01*
X546848Y137269D01*
X544881D01*
X550128Y133334D02*
X550784D01*
X551440Y133990D01*
Y137269D01*
X549472D01*
X548816Y136614D01*
Y135302D01*
X549472Y134646D01*
X551440D01*
X461285Y83857D02*
X459973D01*
X460629D01*
Y80577D01*
X459973Y79921D01*
X459317D01*
X458661Y80577D01*
X462597Y79921D02*
X463909D01*
X463253D01*
Y83857D01*
X462597Y83201D01*
X596063Y75984D02*
Y79920D01*
X597375Y78608D01*
X598687Y79920D01*
Y75984D01*
X600655D02*
X601967D01*
X602623Y76640D01*
Y77952D01*
X601967Y78608D01*
X600655D01*
X599999Y77952D01*
Y76640D01*
X600655Y75984D01*
X603934D02*
Y78608D01*
X605902D01*
X606558Y77952D01*
Y75984D01*
X510236Y103150D02*
X506300D01*
Y105117D01*
X506956Y105773D01*
X508268D01*
X508924Y105117D01*
Y103150D01*
Y104462D02*
X510236Y105773D01*
Y107085D02*
Y108397D01*
Y107741D01*
X506300D01*
X506956Y107085D01*
X506300Y110365D02*
X510236D01*
Y112989D01*
X509449Y83858D02*
X505513D01*
Y85826D01*
X506169Y86482D01*
X507481D01*
X508137Y85826D01*
Y83858D01*
Y85170D02*
X509449Y86482D01*
X506169Y87794D02*
X505513Y88450D01*
Y89762D01*
X506169Y90418D01*
X506825D01*
X507481Y89762D01*
Y89106D01*
Y89762D01*
X508137Y90418D01*
X508793D01*
X509449Y89762D01*
Y88450D01*
X508793Y87794D01*
X505513Y91730D02*
X509449D01*
Y94354D01*
X645669Y74016D02*
X641734D01*
Y75984D01*
X642389Y76640D01*
X643701D01*
X644357Y75984D01*
Y74016D01*
Y75328D02*
X645669Y76640D01*
Y79919D02*
X641734D01*
X643701Y77952D01*
Y80575D01*
X641734Y81887D02*
X645669D01*
Y84511D01*
X577823Y109317D02*
X577167Y108661D01*
Y107349D01*
X577823Y106693D01*
X578478D01*
X579135Y107349D01*
Y108661D01*
X579790Y109317D01*
X580446D01*
X581102Y108661D01*
Y107349D01*
X580446Y106693D01*
X577167Y110629D02*
X581102D01*
X579790Y111941D01*
X581102Y113252D01*
X577167D01*
X581102Y114564D02*
Y115876D01*
Y115220D01*
X577167D01*
X577823Y114564D01*
Y120468D02*
X577167Y119812D01*
Y118500D01*
X577823Y117844D01*
X580446D01*
X581102Y118500D01*
Y119812D01*
X580446Y120468D01*
X488976Y99211D02*
X491600D01*
X490288D01*
Y95276D01*
X492912D02*
X494224D01*
X493568D01*
Y99211D01*
X492912Y98555D01*
X496192Y99211D02*
Y95276D01*
X498816D01*
X511811Y92912D02*
X514435D01*
X513123D01*
Y88976D01*
X515747Y92256D02*
X516403Y92912D01*
X517715D01*
X518371Y92256D01*
Y91600D01*
X517715Y90944D01*
X518371Y90288D01*
Y89632D01*
X517715Y88976D01*
X516403D01*
X515747Y89632D01*
Y90288D01*
X516403Y90944D01*
X515747Y91600D01*
Y92256D01*
X516403Y90944D02*
X517715D01*
X519683Y92912D02*
Y88976D01*
X522306D01*
X487402Y79920D02*
X490025D01*
X488714D01*
Y75984D01*
X491337Y79264D02*
X491993Y79920D01*
X493305D01*
X493961Y79264D01*
Y78608D01*
X493305Y77952D01*
X492649D01*
X493305D01*
X493961Y77296D01*
Y76640D01*
X493305Y75984D01*
X491993D01*
X491337Y76640D01*
X495273Y79920D02*
Y75984D01*
X497897D01*
X485827Y136219D02*
X488451D01*
X487139D01*
Y132283D01*
X492386Y136219D02*
X489762D01*
Y134251D01*
X491074Y134907D01*
X491730D01*
X492386Y134251D01*
Y132939D01*
X491730Y132283D01*
X490418D01*
X489762Y132939D01*
X493698Y136219D02*
Y132283D01*
X496322D01*
X571654Y77164D02*
X574277D01*
X572965D01*
Y73228D01*
X578213D02*
X575589D01*
X578213Y75852D01*
Y76508D01*
X577557Y77164D01*
X576245D01*
X575589Y76508D01*
X579525Y77164D02*
Y73228D01*
X582149D01*
X609842Y80314D02*
X612466D01*
X611154D01*
Y76378D01*
X615746D02*
Y80314D01*
X613778Y78346D01*
X616402D01*
X617714Y80314D02*
Y76378D01*
X620338D01*
X658923Y83070D02*
X657611D01*
X658267D01*
Y79790D01*
X657611Y79134D01*
X656955D01*
X656299Y79790D01*
X662859Y79134D02*
X660235D01*
X662859Y81758D01*
Y82414D01*
X662203Y83070D01*
X660891D01*
X660235Y82414D01*
X650395Y92126D02*
Y94750D01*
X651051D01*
X653675Y92126D01*
X654331D01*
Y94750D01*
X650395Y96062D02*
X654331D01*
X653019Y97374D01*
X654331Y98685D01*
X650395D01*
X654331Y99998D02*
Y101309D01*
Y100653D01*
X650395D01*
X651051Y99998D01*
X650395Y112598D02*
Y115222D01*
X651051D01*
X653675Y112598D01*
X654331D01*
Y115222D01*
X650395Y116534D02*
X654331D01*
X653019Y117846D01*
X654331Y119158D01*
X650395D01*
X654331Y123094D02*
Y120470D01*
X651707Y123094D01*
X651051D01*
X650395Y122438D01*
Y121126D01*
X651051Y120470D01*
X467324Y111024D02*
Y113647D01*
X467980D01*
X470604Y111024D01*
X471260D01*
Y113647D01*
X467324Y114959D02*
X471260D01*
X469948Y116271D01*
X471260Y117583D01*
X467324D01*
X467980Y118895D02*
X467324Y119551D01*
Y120863D01*
X467980Y121519D01*
X468636D01*
X469292Y120863D01*
Y120207D01*
Y120863D01*
X469948Y121519D01*
X470604D01*
X471260Y120863D01*
Y119551D01*
X470604Y118895D01*
X467324Y91339D02*
Y93962D01*
X467980D01*
X470604Y91339D01*
X471260D01*
Y93962D01*
X467324Y95274D02*
X471260D01*
X469948Y96586D01*
X471260Y97898D01*
X467324D01*
X471260Y101178D02*
X467324D01*
X469292Y99210D01*
Y101834D01*
X49606Y190157D02*
Y201969D01*
X36220Y190157D02*
Y201969D01*
X49606Y152756D02*
Y164567D01*
X36220Y152756D02*
Y164567D01*
X79921Y146850D02*
Y158661D01*
X66535Y146850D02*
Y158661D01*
X121260Y149213D02*
Y161024D01*
X134646Y149213D02*
Y161024D01*
X176378Y198819D02*
Y210630D01*
X162992Y198819D02*
Y210630D01*
X49606Y171260D02*
Y183071D01*
X36220Y171260D02*
Y183071D01*
X185827Y144095D02*
Y155905D01*
X172441Y144095D02*
Y155905D01*
X58661Y202362D02*
X70472D01*
X58661Y188976D02*
X70472D01*
X90748Y191535D02*
X92126Y190157D01*
X90748Y191535D02*
X93701D01*
X92126Y190157D02*
X93701Y191535D01*
X154724Y172441D02*
Y185827D01*
X166535Y175197D02*
Y183071D01*
X100000Y151575D02*
X111811D01*
X100000Y164961D02*
X111811D01*
X157875Y199213D02*
Y201836D01*
Y200524D01*
X161811D01*
X157875Y205772D02*
X158531Y204460D01*
X159843Y203148D01*
X161155D01*
X161811Y203804D01*
Y205116D01*
X161155Y205772D01*
X160499D01*
X159843Y205116D01*
Y203148D01*
X157875Y207084D02*
X161811D01*
Y209708D01*
X183858Y200394D02*
Y204329D01*
X185826D01*
X186482Y203674D01*
Y202362D01*
X185826Y201706D01*
X183858D01*
X185170D02*
X186482Y200394D01*
X187794Y201050D02*
X188450Y200394D01*
X189762D01*
X190418Y201050D01*
Y203674D01*
X189762Y204329D01*
X188450D01*
X187794Y203674D01*
Y203017D01*
X188450Y202362D01*
X190418D01*
X191730Y204329D02*
Y200394D01*
X194354D01*
X82151Y205248D02*
X81495Y205904D01*
X80184D01*
X79527Y205248D01*
Y202625D01*
X80184Y201969D01*
X81495D01*
X82151Y202625D01*
X83463Y205248D02*
X84119Y205904D01*
X85431D01*
X86087Y205248D01*
Y204592D01*
X85431Y203936D01*
X84775D01*
X85431D01*
X86087Y203280D01*
Y202625D01*
X85431Y201969D01*
X84119D01*
X83463Y202625D01*
X90023Y205248D02*
X89367Y205904D01*
X88055D01*
X87399Y205248D01*
Y202625D01*
X88055Y201969D01*
X89367D01*
X90023Y202625D01*
X92126Y209448D02*
Y205512D01*
X94094D01*
X94750Y206168D01*
Y208792D01*
X94094Y209448D01*
X92126D01*
X96062D02*
Y205512D01*
X98030D01*
X98685Y206168D01*
Y206824D01*
Y207480D01*
X98030Y208136D01*
X96062D01*
X101309Y204200D02*
X101965D01*
X102621Y204856D01*
Y208136D01*
X100653D01*
X99998Y207480D01*
Y206168D01*
X100653Y205512D01*
X102621D01*
X12466Y154723D02*
X11154D01*
X11810D01*
Y151443D01*
X11154Y150787D01*
X10498D01*
X9843Y151443D01*
X13778Y150787D02*
X15090D01*
X14434D01*
Y154723D01*
X13778Y154067D01*
X147244Y146850D02*
Y150786D01*
X148556Y149474D01*
X149868Y150786D01*
Y146850D01*
X151836D02*
X153148D01*
X153804Y147506D01*
Y148818D01*
X153148Y149474D01*
X151836D01*
X151180Y148818D01*
Y147506D01*
X151836Y146850D01*
X155116D02*
Y149474D01*
X157083D01*
X157739Y148818D01*
Y146850D01*
X61417Y174016D02*
X57482D01*
Y175984D01*
X58138Y176640D01*
X59449D01*
X60105Y175984D01*
Y174016D01*
Y175328D02*
X61417Y176640D01*
Y177952D02*
Y179263D01*
Y178607D01*
X57482D01*
X58138Y177952D01*
X57482Y181231D02*
X61417D01*
Y183855D01*
X60630Y154724D02*
X56694D01*
Y156692D01*
X57350Y157348D01*
X58662D01*
X59318Y156692D01*
Y154724D01*
Y156036D02*
X60630Y157348D01*
X57350Y158660D02*
X56694Y159316D01*
Y160628D01*
X57350Y161284D01*
X58006D01*
X58662Y160628D01*
Y159972D01*
Y160628D01*
X59318Y161284D01*
X59974D01*
X60630Y160628D01*
Y159316D01*
X59974Y158660D01*
X56694Y162596D02*
X60630D01*
Y165220D01*
X196850Y144882D02*
X192915D01*
Y146850D01*
X193571Y147506D01*
X194883D01*
X195538Y146850D01*
Y144882D01*
Y146194D02*
X196850Y147506D01*
Y150786D02*
X192915D01*
X194883Y148818D01*
Y151442D01*
X192915Y152753D02*
X196850D01*
Y155377D01*
X129004Y180183D02*
X128348Y179527D01*
Y178215D01*
X129004Y177559D01*
X129660D01*
X130316Y178215D01*
Y179527D01*
X130972Y180183D01*
X131628D01*
X132283Y179527D01*
Y178215D01*
X131628Y177559D01*
X128348Y181495D02*
X132283D01*
X130972Y182807D01*
X132283Y184119D01*
X128348D01*
X132283Y185431D02*
Y186742D01*
Y186086D01*
X128348D01*
X129004Y185431D01*
Y191334D02*
X128348Y190678D01*
Y189366D01*
X129004Y188710D01*
X131628D01*
X132283Y189366D01*
Y190678D01*
X131628Y191334D01*
X40157Y170078D02*
X42781D01*
X41469D01*
Y166142D01*
X44093D02*
X45405D01*
X44749D01*
Y170078D01*
X44093Y169422D01*
X47373Y170078D02*
Y166142D01*
X49997D01*
X62992Y163778D02*
X65616D01*
X64304D01*
Y159843D01*
X66928Y163122D02*
X67584Y163778D01*
X68896D01*
X69552Y163122D01*
Y162466D01*
X68896Y161810D01*
X69552Y161154D01*
Y160498D01*
X68896Y159843D01*
X67584D01*
X66928Y160498D01*
Y161154D01*
X67584Y161810D01*
X66928Y162466D01*
Y163122D01*
X67584Y161810D02*
X68896D01*
X70864Y163778D02*
Y159843D01*
X73487D01*
X38583Y150786D02*
X41206D01*
X39895D01*
Y146850D01*
X42518Y150130D02*
X43174Y150786D01*
X44486D01*
X45142Y150130D01*
Y149474D01*
X44486Y148818D01*
X43830D01*
X44486D01*
X45142Y148162D01*
Y147506D01*
X44486Y146850D01*
X43174D01*
X42518Y147506D01*
X46454Y150786D02*
Y146850D01*
X49078D01*
X37008Y207085D02*
X39632D01*
X38320D01*
Y203150D01*
X43567Y207085D02*
X40944D01*
Y205118D01*
X42255Y205773D01*
X42911D01*
X43567Y205118D01*
Y203806D01*
X42911Y203150D01*
X41600D01*
X40944Y203806D01*
X44879Y207085D02*
Y203150D01*
X47503D01*
X122835Y148030D02*
X125459D01*
X124147D01*
Y144095D01*
X129394D02*
X126770D01*
X129394Y146718D01*
Y147374D01*
X128738Y148030D01*
X127426D01*
X126770Y147374D01*
X130706Y148030D02*
Y144095D01*
X133330D01*
X161024Y151180D02*
X163647D01*
X162336D01*
Y147244D01*
X166927D02*
Y151180D01*
X164959Y149212D01*
X167583D01*
X168895Y151180D02*
Y147244D01*
X171519D01*
X210104Y153936D02*
X208792D01*
X209448D01*
Y150656D01*
X208792Y150000D01*
X208136D01*
X207480Y150656D01*
X214040Y150000D02*
X211416D01*
X214040Y152624D01*
Y153280D01*
X213384Y153936D01*
X212072D01*
X211416Y153280D01*
X201576Y162992D02*
Y165616D01*
X202232D01*
X204856Y162992D01*
X205512D01*
Y165616D01*
X201576Y166928D02*
X205512D01*
X204200Y168240D01*
X205512Y169552D01*
X201576D01*
X205512Y170864D02*
Y172176D01*
Y171520D01*
X201576D01*
X202232Y170864D01*
X201576Y183465D02*
Y186088D01*
X202232D01*
X204856Y183465D01*
X205512D01*
Y186088D01*
X201576Y187400D02*
X205512D01*
X204200Y188712D01*
X205512Y190024D01*
X201576D01*
X205512Y193960D02*
Y191336D01*
X202888Y193960D01*
X202232D01*
X201576Y193304D01*
Y191992D01*
X202232Y191336D01*
X18505Y181890D02*
Y184514D01*
X19161D01*
X21785Y181890D01*
X22441D01*
Y184514D01*
X18505Y185826D02*
X22441D01*
X21129Y187137D01*
X22441Y188449D01*
X18505D01*
X19161Y189761D02*
X18505Y190417D01*
Y191729D01*
X19161Y192385D01*
X19817D01*
X20473Y191729D01*
Y191073D01*
Y191729D01*
X21129Y192385D01*
X21785D01*
X22441Y191729D01*
Y190417D01*
X21785Y189761D01*
X18505Y162205D02*
Y164829D01*
X19161D01*
X21785Y162205D01*
X22441D01*
Y164829D01*
X18505Y166140D02*
X22441D01*
X21129Y167452D01*
X22441Y168764D01*
X18505D01*
X22441Y172044D02*
X18505D01*
X20473Y170076D01*
Y172700D01*
X274016Y190157D02*
Y201969D01*
X260630Y190157D02*
Y201969D01*
X274016Y152756D02*
Y164567D01*
X260630Y152756D02*
Y164567D01*
X304331Y146850D02*
Y158661D01*
X290945Y146850D02*
Y158661D01*
X345669Y149213D02*
Y161024D01*
X359055Y149213D02*
Y161024D01*
X400787Y198819D02*
Y210630D01*
X387402Y198819D02*
Y210630D01*
X274016Y171260D02*
Y183071D01*
X260630Y171260D02*
Y183071D01*
X410236Y144095D02*
Y155905D01*
X396850Y144095D02*
Y155905D01*
X283071Y202362D02*
X294882D01*
X283071Y188976D02*
X294882D01*
X315158Y191535D02*
X316535Y190157D01*
X315158Y191535D02*
X318110D01*
X316535Y190157D02*
X318110Y191535D01*
X379134Y172441D02*
Y185827D01*
X390945Y175197D02*
Y183071D01*
X324410Y151575D02*
X336221D01*
X324410Y164961D02*
X336221D01*
X382285Y199213D02*
Y201836D01*
Y200524D01*
X386221D01*
X382285Y205772D02*
X382941Y204460D01*
X384253Y203148D01*
X385564D01*
X386221Y203804D01*
Y205116D01*
X385564Y205772D01*
X384909D01*
X384253Y205116D01*
Y203148D01*
X382285Y207084D02*
X386221D01*
Y209708D01*
X408268Y200394D02*
Y204329D01*
X410236D01*
X410891Y203674D01*
Y202362D01*
X410236Y201706D01*
X408268D01*
X409580D02*
X410891Y200394D01*
X412203Y201050D02*
X412859Y200394D01*
X414171D01*
X414827Y201050D01*
Y203674D01*
X414171Y204329D01*
X412859D01*
X412203Y203674D01*
Y203017D01*
X412859Y202362D01*
X414827D01*
X416139Y204329D02*
Y200394D01*
X418763D01*
X306561Y205248D02*
X305905Y205904D01*
X304593D01*
X303937Y205248D01*
Y202625D01*
X304593Y201969D01*
X305905D01*
X306561Y202625D01*
X307873Y205248D02*
X308529Y205904D01*
X309841D01*
X310497Y205248D01*
Y204592D01*
X309841Y203936D01*
X309185D01*
X309841D01*
X310497Y203280D01*
Y202625D01*
X309841Y201969D01*
X308529D01*
X307873Y202625D01*
X314432Y205248D02*
X313776Y205904D01*
X312464D01*
X311808Y205248D01*
Y202625D01*
X312464Y201969D01*
X313776D01*
X314432Y202625D01*
X316535Y209448D02*
Y205512D01*
X318503D01*
X319159Y206168D01*
Y208792D01*
X318503Y209448D01*
X316535D01*
X320471D02*
Y205512D01*
X322439D01*
X323095Y206168D01*
Y206824D01*
Y207480D01*
X322439Y208136D01*
X320471D01*
X325719Y204200D02*
X326375D01*
X327031Y204856D01*
Y208136D01*
X325063D01*
X324407Y207480D01*
Y206168D01*
X325063Y205512D01*
X327031D01*
X236876Y154723D02*
X235564D01*
X236220D01*
Y151443D01*
X235564Y150787D01*
X234908D01*
X234252Y151443D01*
X238188Y150787D02*
X239500D01*
X238844D01*
Y154723D01*
X238188Y154067D01*
X371654Y146850D02*
Y150786D01*
X372966Y149474D01*
X374277Y150786D01*
Y146850D01*
X376245D02*
X377557D01*
X378213Y147506D01*
Y148818D01*
X377557Y149474D01*
X376245D01*
X375589Y148818D01*
Y147506D01*
X376245Y146850D01*
X379525D02*
Y149474D01*
X381493D01*
X382149Y148818D01*
Y146850D01*
X285827Y174016D02*
X281891D01*
Y175984D01*
X282547Y176640D01*
X283859D01*
X284515Y175984D01*
Y174016D01*
Y175328D02*
X285827Y176640D01*
Y177952D02*
Y179263D01*
Y178607D01*
X281891D01*
X282547Y177952D01*
X281891Y181231D02*
X285827D01*
Y183855D01*
X285039Y154724D02*
X281104D01*
Y156692D01*
X281760Y157348D01*
X283071D01*
X283728Y156692D01*
Y154724D01*
Y156036D02*
X285039Y157348D01*
X281760Y158660D02*
X281104Y159316D01*
Y160628D01*
X281760Y161284D01*
X282416D01*
X283071Y160628D01*
Y159972D01*
Y160628D01*
X283728Y161284D01*
X284383D01*
X285039Y160628D01*
Y159316D01*
X284383Y158660D01*
X281104Y162596D02*
X285039D01*
Y165220D01*
X421260Y144882D02*
X417324D01*
Y146850D01*
X417980Y147506D01*
X419292D01*
X419948Y146850D01*
Y144882D01*
Y146194D02*
X421260Y147506D01*
Y150786D02*
X417324D01*
X419292Y148818D01*
Y151442D01*
X417324Y152753D02*
X421260D01*
Y155377D01*
X353413Y180183D02*
X352757Y179527D01*
Y178215D01*
X353413Y177559D01*
X354069D01*
X354725Y178215D01*
Y179527D01*
X355381Y180183D01*
X356037D01*
X356693Y179527D01*
Y178215D01*
X356037Y177559D01*
X352757Y181495D02*
X356693D01*
X355381Y182807D01*
X356693Y184119D01*
X352757D01*
X356693Y185431D02*
Y186742D01*
Y186086D01*
X352757D01*
X353413Y185431D01*
Y191334D02*
X352757Y190678D01*
Y189366D01*
X353413Y188710D01*
X356037D01*
X356693Y189366D01*
Y190678D01*
X356037Y191334D01*
X264567Y170078D02*
X267191D01*
X265879D01*
Y166142D01*
X268503D02*
X269815D01*
X269159D01*
Y170078D01*
X268503Y169422D01*
X271782Y170078D02*
Y166142D01*
X274406D01*
X287402Y163778D02*
X290025D01*
X288714D01*
Y159843D01*
X291337Y163122D02*
X291993Y163778D01*
X293305D01*
X293961Y163122D01*
Y162466D01*
X293305Y161810D01*
X293961Y161154D01*
Y160498D01*
X293305Y159843D01*
X291993D01*
X291337Y160498D01*
Y161154D01*
X291993Y161810D01*
X291337Y162466D01*
Y163122D01*
X291993Y161810D02*
X293305D01*
X295273Y163778D02*
Y159843D01*
X297897D01*
X262992Y150786D02*
X265616D01*
X264304D01*
Y146850D01*
X266928Y150130D02*
X267584Y150786D01*
X268896D01*
X269552Y150130D01*
Y149474D01*
X268896Y148818D01*
X268240D01*
X268896D01*
X269552Y148162D01*
Y147506D01*
X268896Y146850D01*
X267584D01*
X266928Y147506D01*
X270864Y150786D02*
Y146850D01*
X273487D01*
X261417Y207085D02*
X264041D01*
X262729D01*
Y203150D01*
X267977Y207085D02*
X265353D01*
Y205118D01*
X266665Y205773D01*
X267321D01*
X267977Y205118D01*
Y203806D01*
X267321Y203150D01*
X266009D01*
X265353Y203806D01*
X269289Y207085D02*
Y203150D01*
X271913D01*
X347244Y148030D02*
X349868D01*
X348556D01*
Y144095D01*
X353804D02*
X351180D01*
X353804Y146718D01*
Y147374D01*
X353148Y148030D01*
X351836D01*
X351180Y147374D01*
X355116Y148030D02*
Y144095D01*
X357739D01*
X385433Y151180D02*
X388057D01*
X386745D01*
Y147244D01*
X391337D02*
Y151180D01*
X389369Y149212D01*
X391993D01*
X393305Y151180D02*
Y147244D01*
X395928D01*
X434514Y153936D02*
X433202D01*
X433858D01*
Y150656D01*
X433202Y150000D01*
X432546D01*
X431890Y150656D01*
X438449Y150000D02*
X435825D01*
X438449Y152624D01*
Y153280D01*
X437793Y153936D01*
X436482D01*
X435825Y153280D01*
X425985Y162992D02*
Y165616D01*
X426642D01*
X429265Y162992D01*
X429921D01*
Y165616D01*
X425985Y166928D02*
X429921D01*
X428609Y168240D01*
X429921Y169552D01*
X425985D01*
X429921Y170864D02*
Y172176D01*
Y171520D01*
X425985D01*
X426642Y170864D01*
X425985Y183465D02*
Y186088D01*
X426642D01*
X429265Y183465D01*
X429921D01*
Y186088D01*
X425985Y187400D02*
X429921D01*
X428609Y188712D01*
X429921Y190024D01*
X425985D01*
X429921Y193960D02*
Y191336D01*
X427297Y193960D01*
X426642D01*
X425985Y193304D01*
Y191992D01*
X426642Y191336D01*
X242915Y181890D02*
Y184514D01*
X243571D01*
X246194Y181890D01*
X246850D01*
Y184514D01*
X242915Y185826D02*
X246850D01*
X245538Y187137D01*
X246850Y188449D01*
X242915D01*
X243571Y189761D02*
X242915Y190417D01*
Y191729D01*
X243571Y192385D01*
X244227D01*
X244882Y191729D01*
Y191073D01*
Y191729D01*
X245538Y192385D01*
X246194D01*
X246850Y191729D01*
Y190417D01*
X246194Y189761D01*
X242915Y162205D02*
Y164829D01*
X243571D01*
X246194Y162205D01*
X246850D01*
Y164829D01*
X242915Y166140D02*
X246850D01*
X245538Y167452D01*
X246850Y168764D01*
X242915D01*
X246850Y172044D02*
X242915D01*
X244882Y170076D01*
Y172700D01*
X498425Y190157D02*
Y201969D01*
X485039Y190157D02*
Y201969D01*
X498425Y152756D02*
Y164567D01*
X485039Y152756D02*
Y164567D01*
X528740Y146850D02*
Y158661D01*
X515354Y146850D02*
Y158661D01*
X570079Y149213D02*
Y161024D01*
X583465Y149213D02*
Y161024D01*
X625197Y198819D02*
Y210630D01*
X611811Y198819D02*
Y210630D01*
X498425Y171260D02*
Y183071D01*
X485039Y171260D02*
Y183071D01*
X634646Y144095D02*
Y155905D01*
X621260Y144095D02*
Y155905D01*
X507480Y202362D02*
X519291D01*
X507480Y188976D02*
X519291D01*
X539567Y191535D02*
X540945Y190157D01*
X539567Y191535D02*
X542520D01*
X540945Y190157D02*
X542520Y191535D01*
X603543Y172441D02*
Y185827D01*
X615354Y175197D02*
Y183071D01*
X548819Y151575D02*
X560630D01*
X548819Y164961D02*
X560630D01*
X606694Y199213D02*
Y201836D01*
Y200524D01*
X610630D01*
X606694Y205772D02*
X607350Y204460D01*
X608662Y203148D01*
X609974D01*
X610630Y203804D01*
Y205116D01*
X609974Y205772D01*
X609318D01*
X608662Y205116D01*
Y203148D01*
X606694Y207084D02*
X610630D01*
Y209708D01*
X632677Y200394D02*
Y204329D01*
X634645D01*
X635301Y203674D01*
Y202362D01*
X634645Y201706D01*
X632677D01*
X633989D02*
X635301Y200394D01*
X636613Y201050D02*
X637269Y200394D01*
X638581D01*
X639237Y201050D01*
Y203674D01*
X638581Y204329D01*
X637269D01*
X636613Y203674D01*
Y203017D01*
X637269Y202362D01*
X639237D01*
X640549Y204329D02*
Y200394D01*
X643173D01*
X530970Y205248D02*
X530314Y205904D01*
X529002D01*
X528346Y205248D01*
Y202625D01*
X529002Y201969D01*
X530314D01*
X530970Y202625D01*
X532282Y205248D02*
X532938Y205904D01*
X534250D01*
X534906Y205248D01*
Y204592D01*
X534250Y203936D01*
X533594D01*
X534250D01*
X534906Y203280D01*
Y202625D01*
X534250Y201969D01*
X532938D01*
X532282Y202625D01*
X538842Y205248D02*
X538186Y205904D01*
X536874D01*
X536218Y205248D01*
Y202625D01*
X536874Y201969D01*
X538186D01*
X538842Y202625D01*
X540945Y209448D02*
Y205512D01*
X542913D01*
X543569Y206168D01*
Y208792D01*
X542913Y209448D01*
X540945D01*
X544881D02*
Y205512D01*
X546848D01*
X547504Y206168D01*
Y206824D01*
Y207480D01*
X546848Y208136D01*
X544881D01*
X550128Y204200D02*
X550784D01*
X551440Y204856D01*
Y208136D01*
X549472D01*
X548816Y207480D01*
Y206168D01*
X549472Y205512D01*
X551440D01*
X461285Y154723D02*
X459973D01*
X460629D01*
Y151443D01*
X459973Y150787D01*
X459317D01*
X458661Y151443D01*
X462597Y150787D02*
X463909D01*
X463253D01*
Y154723D01*
X462597Y154067D01*
X596063Y146850D02*
Y150786D01*
X597375Y149474D01*
X598687Y150786D01*
Y146850D01*
X600655D02*
X601967D01*
X602623Y147506D01*
Y148818D01*
X601967Y149474D01*
X600655D01*
X599999Y148818D01*
Y147506D01*
X600655Y146850D01*
X603934D02*
Y149474D01*
X605902D01*
X606558Y148818D01*
Y146850D01*
X510236Y174016D02*
X506300D01*
Y175984D01*
X506956Y176640D01*
X508268D01*
X508924Y175984D01*
Y174016D01*
Y175328D02*
X510236Y176640D01*
Y177952D02*
Y179263D01*
Y178607D01*
X506300D01*
X506956Y177952D01*
X506300Y181231D02*
X510236D01*
Y183855D01*
X509449Y154724D02*
X505513D01*
Y156692D01*
X506169Y157348D01*
X507481D01*
X508137Y156692D01*
Y154724D01*
Y156036D02*
X509449Y157348D01*
X506169Y158660D02*
X505513Y159316D01*
Y160628D01*
X506169Y161284D01*
X506825D01*
X507481Y160628D01*
Y159972D01*
Y160628D01*
X508137Y161284D01*
X508793D01*
X509449Y160628D01*
Y159316D01*
X508793Y158660D01*
X505513Y162596D02*
X509449D01*
Y165220D01*
X645669Y144882D02*
X641734D01*
Y146850D01*
X642389Y147506D01*
X643701D01*
X644357Y146850D01*
Y144882D01*
Y146194D02*
X645669Y147506D01*
Y150786D02*
X641734D01*
X643701Y148818D01*
Y151442D01*
X641734Y152753D02*
X645669D01*
Y155377D01*
X577823Y180183D02*
X577167Y179527D01*
Y178215D01*
X577823Y177559D01*
X578478D01*
X579135Y178215D01*
Y179527D01*
X579790Y180183D01*
X580446D01*
X581102Y179527D01*
Y178215D01*
X580446Y177559D01*
X577167Y181495D02*
X581102D01*
X579790Y182807D01*
X581102Y184119D01*
X577167D01*
X581102Y185431D02*
Y186742D01*
Y186086D01*
X577167D01*
X577823Y185431D01*
Y191334D02*
X577167Y190678D01*
Y189366D01*
X577823Y188710D01*
X580446D01*
X581102Y189366D01*
Y190678D01*
X580446Y191334D01*
X488976Y170078D02*
X491600D01*
X490288D01*
Y166142D01*
X492912D02*
X494224D01*
X493568D01*
Y170078D01*
X492912Y169422D01*
X496192Y170078D02*
Y166142D01*
X498816D01*
X511811Y163778D02*
X514435D01*
X513123D01*
Y159843D01*
X515747Y163122D02*
X516403Y163778D01*
X517715D01*
X518371Y163122D01*
Y162466D01*
X517715Y161810D01*
X518371Y161154D01*
Y160498D01*
X517715Y159843D01*
X516403D01*
X515747Y160498D01*
Y161154D01*
X516403Y161810D01*
X515747Y162466D01*
Y163122D01*
X516403Y161810D02*
X517715D01*
X519683Y163778D02*
Y159843D01*
X522306D01*
X487402Y150786D02*
X490025D01*
X488714D01*
Y146850D01*
X491337Y150130D02*
X491993Y150786D01*
X493305D01*
X493961Y150130D01*
Y149474D01*
X493305Y148818D01*
X492649D01*
X493305D01*
X493961Y148162D01*
Y147506D01*
X493305Y146850D01*
X491993D01*
X491337Y147506D01*
X495273Y150786D02*
Y146850D01*
X497897D01*
X485827Y207085D02*
X488451D01*
X487139D01*
Y203150D01*
X492386Y207085D02*
X489762D01*
Y205118D01*
X491074Y205773D01*
X491730D01*
X492386Y205118D01*
Y203806D01*
X491730Y203150D01*
X490418D01*
X489762Y203806D01*
X493698Y207085D02*
Y203150D01*
X496322D01*
X571654Y148030D02*
X574277D01*
X572965D01*
Y144095D01*
X578213D02*
X575589D01*
X578213Y146718D01*
Y147374D01*
X577557Y148030D01*
X576245D01*
X575589Y147374D01*
X579525Y148030D02*
Y144095D01*
X582149D01*
X609842Y151180D02*
X612466D01*
X611154D01*
Y147244D01*
X615746D02*
Y151180D01*
X613778Y149212D01*
X616402D01*
X617714Y151180D02*
Y147244D01*
X620338D01*
X658923Y153936D02*
X657611D01*
X658267D01*
Y150656D01*
X657611Y150000D01*
X656955D01*
X656299Y150656D01*
X662859Y150000D02*
X660235D01*
X662859Y152624D01*
Y153280D01*
X662203Y153936D01*
X660891D01*
X660235Y153280D01*
X650395Y162992D02*
Y165616D01*
X651051D01*
X653675Y162992D01*
X654331D01*
Y165616D01*
X650395Y166928D02*
X654331D01*
X653019Y168240D01*
X654331Y169552D01*
X650395D01*
X654331Y170864D02*
Y172176D01*
Y171520D01*
X650395D01*
X651051Y170864D01*
X650395Y183465D02*
Y186088D01*
X651051D01*
X653675Y183465D01*
X654331D01*
Y186088D01*
X650395Y187400D02*
X654331D01*
X653019Y188712D01*
X654331Y190024D01*
X650395D01*
X654331Y193960D02*
Y191336D01*
X651707Y193960D01*
X651051D01*
X650395Y193304D01*
Y191992D01*
X651051Y191336D01*
X467324Y181890D02*
Y184514D01*
X467980D01*
X470604Y181890D01*
X471260D01*
Y184514D01*
X467324Y185826D02*
X471260D01*
X469948Y187137D01*
X471260Y188449D01*
X467324D01*
X467980Y189761D02*
X467324Y190417D01*
Y191729D01*
X467980Y192385D01*
X468636D01*
X469292Y191729D01*
Y191073D01*
Y191729D01*
X469948Y192385D01*
X470604D01*
X471260Y191729D01*
Y190417D01*
X470604Y189761D01*
X467324Y162205D02*
Y164829D01*
X467980D01*
X470604Y162205D01*
X471260D01*
Y164829D01*
X467324Y166140D02*
X471260D01*
X469948Y167452D01*
X471260Y168764D01*
X467324D01*
X471260Y172044D02*
X467324D01*
X469292Y170076D01*
Y172700D01*
X49606Y261024D02*
Y272835D01*
X36220Y261024D02*
Y272835D01*
X49606Y223622D02*
Y235433D01*
X36220Y223622D02*
Y235433D01*
X79921Y217717D02*
Y229528D01*
X66535Y217717D02*
Y229528D01*
X121260Y220079D02*
Y231890D01*
X134646Y220079D02*
Y231890D01*
X176378Y269685D02*
Y281496D01*
X162992Y269685D02*
Y281496D01*
X49606Y242126D02*
Y253937D01*
X36220Y242126D02*
Y253937D01*
X185827Y214961D02*
Y226772D01*
X172441Y214961D02*
Y226772D01*
X58661Y273228D02*
X70472D01*
X58661Y259842D02*
X70472D01*
X90748Y262402D02*
X92126Y261024D01*
X90748Y262402D02*
X93701D01*
X92126Y261024D02*
X93701Y262402D01*
X154724Y243307D02*
Y256693D01*
X166535Y246063D02*
Y253937D01*
X100000Y222441D02*
X111811D01*
X100000Y235827D02*
X111811D01*
X157875Y270079D02*
Y272703D01*
Y271391D01*
X161811D01*
X157875Y276638D02*
X158531Y275326D01*
X159843Y274014D01*
X161155D01*
X161811Y274670D01*
Y275982D01*
X161155Y276638D01*
X160499D01*
X159843Y275982D01*
Y274014D01*
X157875Y277950D02*
X161811D01*
Y280574D01*
X183858Y271260D02*
Y275196D01*
X185826D01*
X186482Y274540D01*
Y273228D01*
X185826Y272572D01*
X183858D01*
X185170D02*
X186482Y271260D01*
X187794Y271916D02*
X188450Y271260D01*
X189762D01*
X190418Y271916D01*
Y274540D01*
X189762Y275196D01*
X188450D01*
X187794Y274540D01*
Y273884D01*
X188450Y273228D01*
X190418D01*
X191730Y275196D02*
Y271260D01*
X194354D01*
X82151Y276114D02*
X81495Y276770D01*
X80184D01*
X79527Y276114D01*
Y273491D01*
X80184Y272835D01*
X81495D01*
X82151Y273491D01*
X83463Y276114D02*
X84119Y276770D01*
X85431D01*
X86087Y276114D01*
Y275459D01*
X85431Y274802D01*
X84775D01*
X85431D01*
X86087Y274147D01*
Y273491D01*
X85431Y272835D01*
X84119D01*
X83463Y273491D01*
X90023Y276114D02*
X89367Y276770D01*
X88055D01*
X87399Y276114D01*
Y273491D01*
X88055Y272835D01*
X89367D01*
X90023Y273491D01*
X92126Y280314D02*
Y276378D01*
X94094D01*
X94750Y277034D01*
Y279658D01*
X94094Y280314D01*
X92126D01*
X96062D02*
Y276378D01*
X98030D01*
X98685Y277034D01*
Y277690D01*
Y278346D01*
X98030Y279002D01*
X96062D01*
X101309Y275066D02*
X101965D01*
X102621Y275722D01*
Y279002D01*
X100653D01*
X99998Y278346D01*
Y277034D01*
X100653Y276378D01*
X102621D01*
X12466Y225589D02*
X11154D01*
X11810D01*
Y222309D01*
X11154Y221654D01*
X10498D01*
X9843Y222309D01*
X13778Y221654D02*
X15090D01*
X14434D01*
Y225589D01*
X13778Y224933D01*
X147244Y217717D02*
Y221652D01*
X148556Y220340D01*
X149868Y221652D01*
Y217717D01*
X151836D02*
X153148D01*
X153804Y218373D01*
Y219684D01*
X153148Y220340D01*
X151836D01*
X151180Y219684D01*
Y218373D01*
X151836Y217717D01*
X155116D02*
Y220340D01*
X157083D01*
X157739Y219684D01*
Y217717D01*
X61417Y244882D02*
X57482D01*
Y246850D01*
X58138Y247506D01*
X59449D01*
X60105Y246850D01*
Y244882D01*
Y246194D02*
X61417Y247506D01*
Y248818D02*
Y250130D01*
Y249474D01*
X57482D01*
X58138Y248818D01*
X57482Y252097D02*
X61417D01*
Y254721D01*
X60630Y225590D02*
X56694D01*
Y227558D01*
X57350Y228214D01*
X58662D01*
X59318Y227558D01*
Y225590D01*
Y226903D02*
X60630Y228214D01*
X57350Y229526D02*
X56694Y230182D01*
Y231494D01*
X57350Y232150D01*
X58006D01*
X58662Y231494D01*
Y230838D01*
Y231494D01*
X59318Y232150D01*
X59974D01*
X60630Y231494D01*
Y230182D01*
X59974Y229526D01*
X56694Y233462D02*
X60630D01*
Y236086D01*
X196850Y215748D02*
X192915D01*
Y217716D01*
X193571Y218372D01*
X194883D01*
X195538Y217716D01*
Y215748D01*
Y217060D02*
X196850Y218372D01*
Y221652D02*
X192915D01*
X194883Y219684D01*
Y222308D01*
X192915Y223620D02*
X196850D01*
Y226243D01*
X129004Y251049D02*
X128348Y250393D01*
Y249081D01*
X129004Y248425D01*
X129660D01*
X130316Y249081D01*
Y250393D01*
X130972Y251049D01*
X131628D01*
X132283Y250393D01*
Y249081D01*
X131628Y248425D01*
X128348Y252361D02*
X132283D01*
X130972Y253673D01*
X132283Y254985D01*
X128348D01*
X132283Y256297D02*
Y257609D01*
Y256953D01*
X128348D01*
X129004Y256297D01*
Y262200D02*
X128348Y261544D01*
Y260232D01*
X129004Y259577D01*
X131628D01*
X132283Y260232D01*
Y261544D01*
X131628Y262200D01*
X40157Y240944D02*
X42781D01*
X41469D01*
Y237008D01*
X44093D02*
X45405D01*
X44749D01*
Y240944D01*
X44093Y240288D01*
X47373Y240944D02*
Y237008D01*
X49997D01*
X62992Y234644D02*
X65616D01*
X64304D01*
Y230709D01*
X66928Y233988D02*
X67584Y234644D01*
X68896D01*
X69552Y233988D01*
Y233332D01*
X68896Y232677D01*
X69552Y232021D01*
Y231365D01*
X68896Y230709D01*
X67584D01*
X66928Y231365D01*
Y232021D01*
X67584Y232677D01*
X66928Y233332D01*
Y233988D01*
X67584Y232677D02*
X68896D01*
X70864Y234644D02*
Y230709D01*
X73487D01*
X38583Y221652D02*
X41206D01*
X39895D01*
Y217717D01*
X42518Y220996D02*
X43174Y221652D01*
X44486D01*
X45142Y220996D01*
Y220340D01*
X44486Y219684D01*
X43830D01*
X44486D01*
X45142Y219028D01*
Y218373D01*
X44486Y217717D01*
X43174D01*
X42518Y218373D01*
X46454Y221652D02*
Y217717D01*
X49078D01*
X37008Y277952D02*
X39632D01*
X38320D01*
Y274016D01*
X43567Y277952D02*
X40944D01*
Y275984D01*
X42255Y276640D01*
X42911D01*
X43567Y275984D01*
Y274672D01*
X42911Y274016D01*
X41600D01*
X40944Y274672D01*
X44879Y277952D02*
Y274016D01*
X47503D01*
X122835Y218896D02*
X125459D01*
X124147D01*
Y214961D01*
X129394D02*
X126770D01*
X129394Y217584D01*
Y218240D01*
X128738Y218896D01*
X127426D01*
X126770Y218240D01*
X130706Y218896D02*
Y214961D01*
X133330D01*
X161024Y222046D02*
X163647D01*
X162336D01*
Y218110D01*
X166927D02*
Y222046D01*
X164959Y220078D01*
X167583D01*
X168895Y222046D02*
Y218110D01*
X171519D01*
X210104Y224802D02*
X208792D01*
X209448D01*
Y221522D01*
X208792Y220866D01*
X208136D01*
X207480Y221522D01*
X214040Y220866D02*
X211416D01*
X214040Y223490D01*
Y224146D01*
X213384Y224802D01*
X212072D01*
X211416Y224146D01*
X201576Y233858D02*
Y236482D01*
X202232D01*
X204856Y233858D01*
X205512D01*
Y236482D01*
X201576Y237794D02*
X205512D01*
X204200Y239106D01*
X205512Y240418D01*
X201576D01*
X205512Y241730D02*
Y243042D01*
Y242386D01*
X201576D01*
X202232Y241730D01*
X201576Y254331D02*
Y256955D01*
X202232D01*
X204856Y254331D01*
X205512D01*
Y256955D01*
X201576Y258266D02*
X205512D01*
X204200Y259578D01*
X205512Y260890D01*
X201576D01*
X205512Y264826D02*
Y262202D01*
X202888Y264826D01*
X202232D01*
X201576Y264170D01*
Y262858D01*
X202232Y262202D01*
X18505Y252756D02*
Y255380D01*
X19161D01*
X21785Y252756D01*
X22441D01*
Y255380D01*
X18505Y256692D02*
X22441D01*
X21129Y258003D01*
X22441Y259315D01*
X18505D01*
X19161Y260627D02*
X18505Y261283D01*
Y262595D01*
X19161Y263251D01*
X19817D01*
X20473Y262595D01*
Y261939D01*
Y262595D01*
X21129Y263251D01*
X21785D01*
X22441Y262595D01*
Y261283D01*
X21785Y260627D01*
X18505Y233071D02*
Y235695D01*
X19161D01*
X21785Y233071D01*
X22441D01*
Y235695D01*
X18505Y237007D02*
X22441D01*
X21129Y238318D01*
X22441Y239630D01*
X18505D01*
X22441Y242910D02*
X18505D01*
X20473Y240942D01*
Y243566D01*
X274016Y261024D02*
Y272835D01*
X260630Y261024D02*
Y272835D01*
X274016Y223622D02*
Y235433D01*
X260630Y223622D02*
Y235433D01*
X304331Y217717D02*
Y229528D01*
X290945Y217717D02*
Y229528D01*
X345669Y220079D02*
Y231890D01*
X359055Y220079D02*
Y231890D01*
X400787Y269685D02*
Y281496D01*
X387402Y269685D02*
Y281496D01*
X274016Y242126D02*
Y253937D01*
X260630Y242126D02*
Y253937D01*
X410236Y214961D02*
Y226772D01*
X396850Y214961D02*
Y226772D01*
X283071Y273228D02*
X294882D01*
X283071Y259842D02*
X294882D01*
X315158Y262402D02*
X316535Y261024D01*
X315158Y262402D02*
X318110D01*
X316535Y261024D02*
X318110Y262402D01*
X379134Y243307D02*
Y256693D01*
X390945Y246063D02*
Y253937D01*
X324410Y222441D02*
X336221D01*
X324410Y235827D02*
X336221D01*
X382285Y270079D02*
Y272703D01*
Y271391D01*
X386221D01*
X382285Y276638D02*
X382941Y275326D01*
X384253Y274014D01*
X385564D01*
X386221Y274670D01*
Y275982D01*
X385564Y276638D01*
X384909D01*
X384253Y275982D01*
Y274014D01*
X382285Y277950D02*
X386221D01*
Y280574D01*
X408268Y271260D02*
Y275196D01*
X410236D01*
X410891Y274540D01*
Y273228D01*
X410236Y272572D01*
X408268D01*
X409580D02*
X410891Y271260D01*
X412203Y271916D02*
X412859Y271260D01*
X414171D01*
X414827Y271916D01*
Y274540D01*
X414171Y275196D01*
X412859D01*
X412203Y274540D01*
Y273884D01*
X412859Y273228D01*
X414827D01*
X416139Y275196D02*
Y271260D01*
X418763D01*
X306561Y276114D02*
X305905Y276770D01*
X304593D01*
X303937Y276114D01*
Y273491D01*
X304593Y272835D01*
X305905D01*
X306561Y273491D01*
X307873Y276114D02*
X308529Y276770D01*
X309841D01*
X310497Y276114D01*
Y275459D01*
X309841Y274802D01*
X309185D01*
X309841D01*
X310497Y274147D01*
Y273491D01*
X309841Y272835D01*
X308529D01*
X307873Y273491D01*
X314432Y276114D02*
X313776Y276770D01*
X312464D01*
X311808Y276114D01*
Y273491D01*
X312464Y272835D01*
X313776D01*
X314432Y273491D01*
X316535Y280314D02*
Y276378D01*
X318503D01*
X319159Y277034D01*
Y279658D01*
X318503Y280314D01*
X316535D01*
X320471D02*
Y276378D01*
X322439D01*
X323095Y277034D01*
Y277690D01*
Y278346D01*
X322439Y279002D01*
X320471D01*
X325719Y275066D02*
X326375D01*
X327031Y275722D01*
Y279002D01*
X325063D01*
X324407Y278346D01*
Y277034D01*
X325063Y276378D01*
X327031D01*
X236876Y225589D02*
X235564D01*
X236220D01*
Y222309D01*
X235564Y221654D01*
X234908D01*
X234252Y222309D01*
X238188Y221654D02*
X239500D01*
X238844D01*
Y225589D01*
X238188Y224933D01*
X371654Y217717D02*
Y221652D01*
X372966Y220340D01*
X374277Y221652D01*
Y217717D01*
X376245D02*
X377557D01*
X378213Y218373D01*
Y219684D01*
X377557Y220340D01*
X376245D01*
X375589Y219684D01*
Y218373D01*
X376245Y217717D01*
X379525D02*
Y220340D01*
X381493D01*
X382149Y219684D01*
Y217717D01*
X285827Y244882D02*
X281891D01*
Y246850D01*
X282547Y247506D01*
X283859D01*
X284515Y246850D01*
Y244882D01*
Y246194D02*
X285827Y247506D01*
Y248818D02*
Y250130D01*
Y249474D01*
X281891D01*
X282547Y248818D01*
X281891Y252097D02*
X285827D01*
Y254721D01*
X285039Y225590D02*
X281104D01*
Y227558D01*
X281760Y228214D01*
X283071D01*
X283728Y227558D01*
Y225590D01*
Y226903D02*
X285039Y228214D01*
X281760Y229526D02*
X281104Y230182D01*
Y231494D01*
X281760Y232150D01*
X282416D01*
X283071Y231494D01*
Y230838D01*
Y231494D01*
X283728Y232150D01*
X284383D01*
X285039Y231494D01*
Y230182D01*
X284383Y229526D01*
X281104Y233462D02*
X285039D01*
Y236086D01*
X421260Y215748D02*
X417324D01*
Y217716D01*
X417980Y218372D01*
X419292D01*
X419948Y217716D01*
Y215748D01*
Y217060D02*
X421260Y218372D01*
Y221652D02*
X417324D01*
X419292Y219684D01*
Y222308D01*
X417324Y223620D02*
X421260D01*
Y226243D01*
X353413Y251049D02*
X352757Y250393D01*
Y249081D01*
X353413Y248425D01*
X354069D01*
X354725Y249081D01*
Y250393D01*
X355381Y251049D01*
X356037D01*
X356693Y250393D01*
Y249081D01*
X356037Y248425D01*
X352757Y252361D02*
X356693D01*
X355381Y253673D01*
X356693Y254985D01*
X352757D01*
X356693Y256297D02*
Y257609D01*
Y256953D01*
X352757D01*
X353413Y256297D01*
Y262200D02*
X352757Y261544D01*
Y260232D01*
X353413Y259577D01*
X356037D01*
X356693Y260232D01*
Y261544D01*
X356037Y262200D01*
X264567Y240944D02*
X267191D01*
X265879D01*
Y237008D01*
X268503D02*
X269815D01*
X269159D01*
Y240944D01*
X268503Y240288D01*
X271782Y240944D02*
Y237008D01*
X274406D01*
X287402Y234644D02*
X290025D01*
X288714D01*
Y230709D01*
X291337Y233988D02*
X291993Y234644D01*
X293305D01*
X293961Y233988D01*
Y233332D01*
X293305Y232677D01*
X293961Y232021D01*
Y231365D01*
X293305Y230709D01*
X291993D01*
X291337Y231365D01*
Y232021D01*
X291993Y232677D01*
X291337Y233332D01*
Y233988D01*
X291993Y232677D02*
X293305D01*
X295273Y234644D02*
Y230709D01*
X297897D01*
X262992Y221652D02*
X265616D01*
X264304D01*
Y217717D01*
X266928Y220996D02*
X267584Y221652D01*
X268896D01*
X269552Y220996D01*
Y220340D01*
X268896Y219684D01*
X268240D01*
X268896D01*
X269552Y219028D01*
Y218373D01*
X268896Y217717D01*
X267584D01*
X266928Y218373D01*
X270864Y221652D02*
Y217717D01*
X273487D01*
X261417Y277952D02*
X264041D01*
X262729D01*
Y274016D01*
X267977Y277952D02*
X265353D01*
Y275984D01*
X266665Y276640D01*
X267321D01*
X267977Y275984D01*
Y274672D01*
X267321Y274016D01*
X266009D01*
X265353Y274672D01*
X269289Y277952D02*
Y274016D01*
X271913D01*
X347244Y218896D02*
X349868D01*
X348556D01*
Y214961D01*
X353804D02*
X351180D01*
X353804Y217584D01*
Y218240D01*
X353148Y218896D01*
X351836D01*
X351180Y218240D01*
X355116Y218896D02*
Y214961D01*
X357739D01*
X385433Y222046D02*
X388057D01*
X386745D01*
Y218110D01*
X391337D02*
Y222046D01*
X389369Y220078D01*
X391993D01*
X393305Y222046D02*
Y218110D01*
X395928D01*
X434514Y224802D02*
X433202D01*
X433858D01*
Y221522D01*
X433202Y220866D01*
X432546D01*
X431890Y221522D01*
X438449Y220866D02*
X435825D01*
X438449Y223490D01*
Y224146D01*
X437793Y224802D01*
X436482D01*
X435825Y224146D01*
X425985Y233858D02*
Y236482D01*
X426642D01*
X429265Y233858D01*
X429921D01*
Y236482D01*
X425985Y237794D02*
X429921D01*
X428609Y239106D01*
X429921Y240418D01*
X425985D01*
X429921Y241730D02*
Y243042D01*
Y242386D01*
X425985D01*
X426642Y241730D01*
X425985Y254331D02*
Y256955D01*
X426642D01*
X429265Y254331D01*
X429921D01*
Y256955D01*
X425985Y258266D02*
X429921D01*
X428609Y259578D01*
X429921Y260890D01*
X425985D01*
X429921Y264826D02*
Y262202D01*
X427297Y264826D01*
X426642D01*
X425985Y264170D01*
Y262858D01*
X426642Y262202D01*
X242915Y252756D02*
Y255380D01*
X243571D01*
X246194Y252756D01*
X246850D01*
Y255380D01*
X242915Y256692D02*
X246850D01*
X245538Y258003D01*
X246850Y259315D01*
X242915D01*
X243571Y260627D02*
X242915Y261283D01*
Y262595D01*
X243571Y263251D01*
X244227D01*
X244882Y262595D01*
Y261939D01*
Y262595D01*
X245538Y263251D01*
X246194D01*
X246850Y262595D01*
Y261283D01*
X246194Y260627D01*
X242915Y233071D02*
Y235695D01*
X243571D01*
X246194Y233071D01*
X246850D01*
Y235695D01*
X242915Y237007D02*
X246850D01*
X245538Y238318D01*
X246850Y239630D01*
X242915D01*
X246850Y242910D02*
X242915D01*
X244882Y240942D01*
Y243566D01*
X498425Y261024D02*
Y272835D01*
X485039Y261024D02*
Y272835D01*
X498425Y223622D02*
Y235433D01*
X485039Y223622D02*
Y235433D01*
X528740Y217717D02*
Y229528D01*
X515354Y217717D02*
Y229528D01*
X570079Y220079D02*
Y231890D01*
X583465Y220079D02*
Y231890D01*
X625197Y269685D02*
Y281496D01*
X611811Y269685D02*
Y281496D01*
X498425Y242126D02*
Y253937D01*
X485039Y242126D02*
Y253937D01*
X634646Y214961D02*
Y226772D01*
X621260Y214961D02*
Y226772D01*
X507480Y273228D02*
X519291D01*
X507480Y259842D02*
X519291D01*
X539567Y262402D02*
X540945Y261024D01*
X539567Y262402D02*
X542520D01*
X540945Y261024D02*
X542520Y262402D01*
X603543Y243307D02*
Y256693D01*
X615354Y246063D02*
Y253937D01*
X548819Y222441D02*
X560630D01*
X548819Y235827D02*
X560630D01*
X606694Y270079D02*
Y272703D01*
Y271391D01*
X610630D01*
X606694Y276638D02*
X607350Y275326D01*
X608662Y274014D01*
X609974D01*
X610630Y274670D01*
Y275982D01*
X609974Y276638D01*
X609318D01*
X608662Y275982D01*
Y274014D01*
X606694Y277950D02*
X610630D01*
Y280574D01*
X632677Y271260D02*
Y275196D01*
X634645D01*
X635301Y274540D01*
Y273228D01*
X634645Y272572D01*
X632677D01*
X633989D02*
X635301Y271260D01*
X636613Y271916D02*
X637269Y271260D01*
X638581D01*
X639237Y271916D01*
Y274540D01*
X638581Y275196D01*
X637269D01*
X636613Y274540D01*
Y273884D01*
X637269Y273228D01*
X639237D01*
X640549Y275196D02*
Y271260D01*
X643173D01*
X530970Y276114D02*
X530314Y276770D01*
X529002D01*
X528346Y276114D01*
Y273491D01*
X529002Y272835D01*
X530314D01*
X530970Y273491D01*
X532282Y276114D02*
X532938Y276770D01*
X534250D01*
X534906Y276114D01*
Y275459D01*
X534250Y274802D01*
X533594D01*
X534250D01*
X534906Y274147D01*
Y273491D01*
X534250Y272835D01*
X532938D01*
X532282Y273491D01*
X538842Y276114D02*
X538186Y276770D01*
X536874D01*
X536218Y276114D01*
Y273491D01*
X536874Y272835D01*
X538186D01*
X538842Y273491D01*
X540945Y280314D02*
Y276378D01*
X542913D01*
X543569Y277034D01*
Y279658D01*
X542913Y280314D01*
X540945D01*
X544881D02*
Y276378D01*
X546848D01*
X547504Y277034D01*
Y277690D01*
Y278346D01*
X546848Y279002D01*
X544881D01*
X550128Y275066D02*
X550784D01*
X551440Y275722D01*
Y279002D01*
X549472D01*
X548816Y278346D01*
Y277034D01*
X549472Y276378D01*
X551440D01*
X461285Y225589D02*
X459973D01*
X460629D01*
Y222309D01*
X459973Y221654D01*
X459317D01*
X458661Y222309D01*
X462597Y221654D02*
X463909D01*
X463253D01*
Y225589D01*
X462597Y224933D01*
X596063Y217717D02*
Y221652D01*
X597375Y220340D01*
X598687Y221652D01*
Y217717D01*
X600655D02*
X601967D01*
X602623Y218373D01*
Y219684D01*
X601967Y220340D01*
X600655D01*
X599999Y219684D01*
Y218373D01*
X600655Y217717D01*
X603934D02*
Y220340D01*
X605902D01*
X606558Y219684D01*
Y217717D01*
X510236Y244882D02*
X506300D01*
Y246850D01*
X506956Y247506D01*
X508268D01*
X508924Y246850D01*
Y244882D01*
Y246194D02*
X510236Y247506D01*
Y248818D02*
Y250130D01*
Y249474D01*
X506300D01*
X506956Y248818D01*
X506300Y252097D02*
X510236D01*
Y254721D01*
X509449Y225590D02*
X505513D01*
Y227558D01*
X506169Y228214D01*
X507481D01*
X508137Y227558D01*
Y225590D01*
Y226903D02*
X509449Y228214D01*
X506169Y229526D02*
X505513Y230182D01*
Y231494D01*
X506169Y232150D01*
X506825D01*
X507481Y231494D01*
Y230838D01*
Y231494D01*
X508137Y232150D01*
X508793D01*
X509449Y231494D01*
Y230182D01*
X508793Y229526D01*
X505513Y233462D02*
X509449D01*
Y236086D01*
X645669Y215748D02*
X641734D01*
Y217716D01*
X642389Y218372D01*
X643701D01*
X644357Y217716D01*
Y215748D01*
Y217060D02*
X645669Y218372D01*
Y221652D02*
X641734D01*
X643701Y219684D01*
Y222308D01*
X641734Y223620D02*
X645669D01*
Y226243D01*
X577823Y251049D02*
X577167Y250393D01*
Y249081D01*
X577823Y248425D01*
X578478D01*
X579135Y249081D01*
Y250393D01*
X579790Y251049D01*
X580446D01*
X581102Y250393D01*
Y249081D01*
X580446Y248425D01*
X577167Y252361D02*
X581102D01*
X579790Y253673D01*
X581102Y254985D01*
X577167D01*
X581102Y256297D02*
Y257609D01*
Y256953D01*
X577167D01*
X577823Y256297D01*
Y262200D02*
X577167Y261544D01*
Y260232D01*
X577823Y259577D01*
X580446D01*
X581102Y260232D01*
Y261544D01*
X580446Y262200D01*
X488976Y240944D02*
X491600D01*
X490288D01*
Y237008D01*
X492912D02*
X494224D01*
X493568D01*
Y240944D01*
X492912Y240288D01*
X496192Y240944D02*
Y237008D01*
X498816D01*
X511811Y234644D02*
X514435D01*
X513123D01*
Y230709D01*
X515747Y233988D02*
X516403Y234644D01*
X517715D01*
X518371Y233988D01*
Y233332D01*
X517715Y232677D01*
X518371Y232021D01*
Y231365D01*
X517715Y230709D01*
X516403D01*
X515747Y231365D01*
Y232021D01*
X516403Y232677D01*
X515747Y233332D01*
Y233988D01*
X516403Y232677D02*
X517715D01*
X519683Y234644D02*
Y230709D01*
X522306D01*
X487402Y221652D02*
X490025D01*
X488714D01*
Y217717D01*
X491337Y220996D02*
X491993Y221652D01*
X493305D01*
X493961Y220996D01*
Y220340D01*
X493305Y219684D01*
X492649D01*
X493305D01*
X493961Y219028D01*
Y218373D01*
X493305Y217717D01*
X491993D01*
X491337Y218373D01*
X495273Y221652D02*
Y217717D01*
X497897D01*
X485827Y277952D02*
X488451D01*
X487139D01*
Y274016D01*
X492386Y277952D02*
X489762D01*
Y275984D01*
X491074Y276640D01*
X491730D01*
X492386Y275984D01*
Y274672D01*
X491730Y274016D01*
X490418D01*
X489762Y274672D01*
X493698Y277952D02*
Y274016D01*
X496322D01*
X571654Y218896D02*
X574277D01*
X572965D01*
Y214961D01*
X578213D02*
X575589D01*
X578213Y217584D01*
Y218240D01*
X577557Y218896D01*
X576245D01*
X575589Y218240D01*
X579525Y218896D02*
Y214961D01*
X582149D01*
X609842Y222046D02*
X612466D01*
X611154D01*
Y218110D01*
X615746D02*
Y222046D01*
X613778Y220078D01*
X616402D01*
X617714Y222046D02*
Y218110D01*
X620338D01*
X658923Y224802D02*
X657611D01*
X658267D01*
Y221522D01*
X657611Y220866D01*
X656955D01*
X656299Y221522D01*
X662859Y220866D02*
X660235D01*
X662859Y223490D01*
Y224146D01*
X662203Y224802D01*
X660891D01*
X660235Y224146D01*
X650395Y233858D02*
Y236482D01*
X651051D01*
X653675Y233858D01*
X654331D01*
Y236482D01*
X650395Y237794D02*
X654331D01*
X653019Y239106D01*
X654331Y240418D01*
X650395D01*
X654331Y241730D02*
Y243042D01*
Y242386D01*
X650395D01*
X651051Y241730D01*
X650395Y254331D02*
Y256955D01*
X651051D01*
X653675Y254331D01*
X654331D01*
Y256955D01*
X650395Y258266D02*
X654331D01*
X653019Y259578D01*
X654331Y260890D01*
X650395D01*
X654331Y264826D02*
Y262202D01*
X651707Y264826D01*
X651051D01*
X650395Y264170D01*
Y262858D01*
X651051Y262202D01*
X467324Y252756D02*
Y255380D01*
X467980D01*
X470604Y252756D01*
X471260D01*
Y255380D01*
X467324Y256692D02*
X471260D01*
X469948Y258003D01*
X471260Y259315D01*
X467324D01*
X467980Y260627D02*
X467324Y261283D01*
Y262595D01*
X467980Y263251D01*
X468636D01*
X469292Y262595D01*
Y261939D01*
Y262595D01*
X469948Y263251D01*
X470604D01*
X471260Y262595D01*
Y261283D01*
X470604Y260627D01*
X467324Y233071D02*
Y235695D01*
X467980D01*
X470604Y233071D01*
X471260D01*
Y235695D01*
X467324Y237007D02*
X471260D01*
X469948Y238318D01*
X471260Y239630D01*
X467324D01*
X471260Y242910D02*
X467324D01*
X469292Y240942D01*
Y243566D01*
X49606Y331890D02*
Y343701D01*
X36220Y331890D02*
Y343701D01*
X49606Y294488D02*
Y306299D01*
X36220Y294488D02*
Y306299D01*
X79921Y288583D02*
Y300394D01*
X66535Y288583D02*
Y300394D01*
X121260Y290945D02*
Y302756D01*
X134646Y290945D02*
Y302756D01*
X176378Y340551D02*
Y352362D01*
X162992Y340551D02*
Y352362D01*
X49606Y312992D02*
Y324803D01*
X36220Y312992D02*
Y324803D01*
X185827Y285827D02*
Y297638D01*
X172441Y285827D02*
Y297638D01*
X58661Y344094D02*
X70472D01*
X58661Y330709D02*
X70472D01*
X90748Y333268D02*
X92126Y331890D01*
X90748Y333268D02*
X93701D01*
X92126Y331890D02*
X93701Y333268D01*
X154724Y314173D02*
Y327559D01*
X166535Y316929D02*
Y324803D01*
X100000Y293307D02*
X111811D01*
X100000Y306693D02*
X111811D01*
X157875Y340945D02*
Y343569D01*
Y342257D01*
X161811D01*
X157875Y347504D02*
X158531Y346193D01*
X159843Y344881D01*
X161155D01*
X161811Y345537D01*
Y346849D01*
X161155Y347504D01*
X160499D01*
X159843Y346849D01*
Y344881D01*
X157875Y348816D02*
X161811D01*
Y351440D01*
X183858Y342126D02*
Y346062D01*
X185826D01*
X186482Y345406D01*
Y344094D01*
X185826Y343438D01*
X183858D01*
X185170D02*
X186482Y342126D01*
X187794Y342782D02*
X188450Y342126D01*
X189762D01*
X190418Y342782D01*
Y345406D01*
X189762Y346062D01*
X188450D01*
X187794Y345406D01*
Y344750D01*
X188450Y344094D01*
X190418D01*
X191730Y346062D02*
Y342126D01*
X194354D01*
X82151Y346981D02*
X81495Y347637D01*
X80184D01*
X79527Y346981D01*
Y344357D01*
X80184Y343701D01*
X81495D01*
X82151Y344357D01*
X83463Y346981D02*
X84119Y347637D01*
X85431D01*
X86087Y346981D01*
Y346325D01*
X85431Y345669D01*
X84775D01*
X85431D01*
X86087Y345013D01*
Y344357D01*
X85431Y343701D01*
X84119D01*
X83463Y344357D01*
X90023Y346981D02*
X89367Y347637D01*
X88055D01*
X87399Y346981D01*
Y344357D01*
X88055Y343701D01*
X89367D01*
X90023Y344357D01*
X92126Y351180D02*
Y347244D01*
X94094D01*
X94750Y347900D01*
Y350524D01*
X94094Y351180D01*
X92126D01*
X96062D02*
Y347244D01*
X98030D01*
X98685Y347900D01*
Y348556D01*
Y349212D01*
X98030Y349868D01*
X96062D01*
X101309Y345932D02*
X101965D01*
X102621Y346588D01*
Y349868D01*
X100653D01*
X99998Y349212D01*
Y347900D01*
X100653Y347244D01*
X102621D01*
X12466Y296455D02*
X11154D01*
X11810D01*
Y293176D01*
X11154Y292520D01*
X10498D01*
X9843Y293176D01*
X13778Y292520D02*
X15090D01*
X14434D01*
Y296455D01*
X13778Y295799D01*
X147244Y288583D02*
Y292518D01*
X148556Y291207D01*
X149868Y292518D01*
Y288583D01*
X151836D02*
X153148D01*
X153804Y289239D01*
Y290550D01*
X153148Y291207D01*
X151836D01*
X151180Y290550D01*
Y289239D01*
X151836Y288583D01*
X155116D02*
Y291207D01*
X157083D01*
X157739Y290550D01*
Y288583D01*
X61417Y315748D02*
X57482D01*
Y317716D01*
X58138Y318372D01*
X59449D01*
X60105Y317716D01*
Y315748D01*
Y317060D02*
X61417Y318372D01*
Y319684D02*
Y320996D01*
Y320340D01*
X57482D01*
X58138Y319684D01*
X57482Y322964D02*
X61417D01*
Y325587D01*
X60630Y296457D02*
X56694D01*
Y298425D01*
X57350Y299080D01*
X58662D01*
X59318Y298425D01*
Y296457D01*
Y297769D02*
X60630Y299080D01*
X57350Y300392D02*
X56694Y301048D01*
Y302360D01*
X57350Y303016D01*
X58006D01*
X58662Y302360D01*
Y301704D01*
Y302360D01*
X59318Y303016D01*
X59974D01*
X60630Y302360D01*
Y301048D01*
X59974Y300392D01*
X56694Y304328D02*
X60630D01*
Y306952D01*
X196850Y286614D02*
X192915D01*
Y288582D01*
X193571Y289238D01*
X194883D01*
X195538Y288582D01*
Y286614D01*
Y287926D02*
X196850Y289238D01*
Y292518D02*
X192915D01*
X194883Y290550D01*
Y293174D01*
X192915Y294486D02*
X196850D01*
Y297110D01*
X129004Y321915D02*
X128348Y321259D01*
Y319947D01*
X129004Y319291D01*
X129660D01*
X130316Y319947D01*
Y321259D01*
X130972Y321915D01*
X131628D01*
X132283Y321259D01*
Y319947D01*
X131628Y319291D01*
X128348Y323227D02*
X132283D01*
X130972Y324539D01*
X132283Y325851D01*
X128348D01*
X132283Y327163D02*
Y328475D01*
Y327819D01*
X128348D01*
X129004Y327163D01*
Y333066D02*
X128348Y332411D01*
Y331099D01*
X129004Y330443D01*
X131628D01*
X132283Y331099D01*
Y332411D01*
X131628Y333066D01*
X40157Y311810D02*
X42781D01*
X41469D01*
Y307874D01*
X44093D02*
X45405D01*
X44749D01*
Y311810D01*
X44093Y311154D01*
X47373Y311810D02*
Y307874D01*
X49997D01*
X62992Y305510D02*
X65616D01*
X64304D01*
Y301575D01*
X66928Y304855D02*
X67584Y305510D01*
X68896D01*
X69552Y304855D01*
Y304199D01*
X68896Y303543D01*
X69552Y302887D01*
Y302231D01*
X68896Y301575D01*
X67584D01*
X66928Y302231D01*
Y302887D01*
X67584Y303543D01*
X66928Y304199D01*
Y304855D01*
X67584Y303543D02*
X68896D01*
X70864Y305510D02*
Y301575D01*
X73487D01*
X38583Y292518D02*
X41206D01*
X39895D01*
Y288583D01*
X42518Y291862D02*
X43174Y292518D01*
X44486D01*
X45142Y291862D01*
Y291207D01*
X44486Y290550D01*
X43830D01*
X44486D01*
X45142Y289895D01*
Y289239D01*
X44486Y288583D01*
X43174D01*
X42518Y289239D01*
X46454Y292518D02*
Y288583D01*
X49078D01*
X37008Y348818D02*
X39632D01*
X38320D01*
Y344882D01*
X43567Y348818D02*
X40944D01*
Y346850D01*
X42255Y347506D01*
X42911D01*
X43567Y346850D01*
Y345538D01*
X42911Y344882D01*
X41600D01*
X40944Y345538D01*
X44879Y348818D02*
Y344882D01*
X47503D01*
X122835Y289762D02*
X125459D01*
X124147D01*
Y285827D01*
X129394D02*
X126770D01*
X129394Y288451D01*
Y289106D01*
X128738Y289762D01*
X127426D01*
X126770Y289106D01*
X130706Y289762D02*
Y285827D01*
X133330D01*
X161024Y292912D02*
X163647D01*
X162336D01*
Y288976D01*
X166927D02*
Y292912D01*
X164959Y290944D01*
X167583D01*
X168895Y292912D02*
Y288976D01*
X171519D01*
X210104Y295668D02*
X208792D01*
X209448D01*
Y292388D01*
X208792Y291732D01*
X208136D01*
X207480Y292388D01*
X214040Y291732D02*
X211416D01*
X214040Y294356D01*
Y295012D01*
X213384Y295668D01*
X212072D01*
X211416Y295012D01*
X201576Y304724D02*
Y307348D01*
X202232D01*
X204856Y304724D01*
X205512D01*
Y307348D01*
X201576Y308660D02*
X205512D01*
X204200Y309972D01*
X205512Y311284D01*
X201576D01*
X205512Y312596D02*
Y313908D01*
Y313252D01*
X201576D01*
X202232Y312596D01*
X201576Y325197D02*
Y327821D01*
X202232D01*
X204856Y325197D01*
X205512D01*
Y327821D01*
X201576Y329133D02*
X205512D01*
X204200Y330445D01*
X205512Y331756D01*
X201576D01*
X205512Y335692D02*
Y333068D01*
X202888Y335692D01*
X202232D01*
X201576Y335036D01*
Y333724D01*
X202232Y333068D01*
X18505Y323622D02*
Y326246D01*
X19161D01*
X21785Y323622D01*
X22441D01*
Y326246D01*
X18505Y327558D02*
X22441D01*
X21129Y328870D01*
X22441Y330182D01*
X18505D01*
X19161Y331493D02*
X18505Y332150D01*
Y333461D01*
X19161Y334117D01*
X19817D01*
X20473Y333461D01*
Y332805D01*
Y333461D01*
X21129Y334117D01*
X21785D01*
X22441Y333461D01*
Y332150D01*
X21785Y331493D01*
X18505Y303937D02*
Y306561D01*
X19161D01*
X21785Y303937D01*
X22441D01*
Y306561D01*
X18505Y307873D02*
X22441D01*
X21129Y309185D01*
X22441Y310497D01*
X18505D01*
X22441Y313776D02*
X18505D01*
X20473Y311808D01*
Y314432D01*
X274016Y331890D02*
Y343701D01*
X260630Y331890D02*
Y343701D01*
X274016Y294488D02*
Y306299D01*
X260630Y294488D02*
Y306299D01*
X304331Y288583D02*
Y300394D01*
X290945Y288583D02*
Y300394D01*
X345669Y290945D02*
Y302756D01*
X359055Y290945D02*
Y302756D01*
X400787Y340551D02*
Y352362D01*
X387402Y340551D02*
Y352362D01*
X274016Y312992D02*
Y324803D01*
X260630Y312992D02*
Y324803D01*
X410236Y285827D02*
Y297638D01*
X396850Y285827D02*
Y297638D01*
X283071Y344094D02*
X294882D01*
X283071Y330709D02*
X294882D01*
X315158Y333268D02*
X316535Y331890D01*
X315158Y333268D02*
X318110D01*
X316535Y331890D02*
X318110Y333268D01*
X379134Y314173D02*
Y327559D01*
X390945Y316929D02*
Y324803D01*
X324410Y293307D02*
X336221D01*
X324410Y306693D02*
X336221D01*
X382285Y340945D02*
Y343569D01*
Y342257D01*
X386221D01*
X382285Y347504D02*
X382941Y346193D01*
X384253Y344881D01*
X385564D01*
X386221Y345537D01*
Y346849D01*
X385564Y347504D01*
X384909D01*
X384253Y346849D01*
Y344881D01*
X382285Y348816D02*
X386221D01*
Y351440D01*
X408268Y342126D02*
Y346062D01*
X410236D01*
X410891Y345406D01*
Y344094D01*
X410236Y343438D01*
X408268D01*
X409580D02*
X410891Y342126D01*
X412203Y342782D02*
X412859Y342126D01*
X414171D01*
X414827Y342782D01*
Y345406D01*
X414171Y346062D01*
X412859D01*
X412203Y345406D01*
Y344750D01*
X412859Y344094D01*
X414827D01*
X416139Y346062D02*
Y342126D01*
X418763D01*
X306561Y346981D02*
X305905Y347637D01*
X304593D01*
X303937Y346981D01*
Y344357D01*
X304593Y343701D01*
X305905D01*
X306561Y344357D01*
X307873Y346981D02*
X308529Y347637D01*
X309841D01*
X310497Y346981D01*
Y346325D01*
X309841Y345669D01*
X309185D01*
X309841D01*
X310497Y345013D01*
Y344357D01*
X309841Y343701D01*
X308529D01*
X307873Y344357D01*
X314432Y346981D02*
X313776Y347637D01*
X312464D01*
X311808Y346981D01*
Y344357D01*
X312464Y343701D01*
X313776D01*
X314432Y344357D01*
X316535Y351180D02*
Y347244D01*
X318503D01*
X319159Y347900D01*
Y350524D01*
X318503Y351180D01*
X316535D01*
X320471D02*
Y347244D01*
X322439D01*
X323095Y347900D01*
Y348556D01*
Y349212D01*
X322439Y349868D01*
X320471D01*
X325719Y345932D02*
X326375D01*
X327031Y346588D01*
Y349868D01*
X325063D01*
X324407Y349212D01*
Y347900D01*
X325063Y347244D01*
X327031D01*
X236876Y296455D02*
X235564D01*
X236220D01*
Y293176D01*
X235564Y292520D01*
X234908D01*
X234252Y293176D01*
X238188Y292520D02*
X239500D01*
X238844D01*
Y296455D01*
X238188Y295799D01*
X371654Y288583D02*
Y292518D01*
X372966Y291207D01*
X374277Y292518D01*
Y288583D01*
X376245D02*
X377557D01*
X378213Y289239D01*
Y290550D01*
X377557Y291207D01*
X376245D01*
X375589Y290550D01*
Y289239D01*
X376245Y288583D01*
X379525D02*
Y291207D01*
X381493D01*
X382149Y290550D01*
Y288583D01*
X285827Y315748D02*
X281891D01*
Y317716D01*
X282547Y318372D01*
X283859D01*
X284515Y317716D01*
Y315748D01*
Y317060D02*
X285827Y318372D01*
Y319684D02*
Y320996D01*
Y320340D01*
X281891D01*
X282547Y319684D01*
X281891Y322964D02*
X285827D01*
Y325587D01*
X285039Y296457D02*
X281104D01*
Y298425D01*
X281760Y299080D01*
X283071D01*
X283728Y298425D01*
Y296457D01*
Y297769D02*
X285039Y299080D01*
X281760Y300392D02*
X281104Y301048D01*
Y302360D01*
X281760Y303016D01*
X282416D01*
X283071Y302360D01*
Y301704D01*
Y302360D01*
X283728Y303016D01*
X284383D01*
X285039Y302360D01*
Y301048D01*
X284383Y300392D01*
X281104Y304328D02*
X285039D01*
Y306952D01*
X421260Y286614D02*
X417324D01*
Y288582D01*
X417980Y289238D01*
X419292D01*
X419948Y288582D01*
Y286614D01*
Y287926D02*
X421260Y289238D01*
Y292518D02*
X417324D01*
X419292Y290550D01*
Y293174D01*
X417324Y294486D02*
X421260D01*
Y297110D01*
X353413Y321915D02*
X352757Y321259D01*
Y319947D01*
X353413Y319291D01*
X354069D01*
X354725Y319947D01*
Y321259D01*
X355381Y321915D01*
X356037D01*
X356693Y321259D01*
Y319947D01*
X356037Y319291D01*
X352757Y323227D02*
X356693D01*
X355381Y324539D01*
X356693Y325851D01*
X352757D01*
X356693Y327163D02*
Y328475D01*
Y327819D01*
X352757D01*
X353413Y327163D01*
Y333066D02*
X352757Y332411D01*
Y331099D01*
X353413Y330443D01*
X356037D01*
X356693Y331099D01*
Y332411D01*
X356037Y333066D01*
X264567Y311810D02*
X267191D01*
X265879D01*
Y307874D01*
X268503D02*
X269815D01*
X269159D01*
Y311810D01*
X268503Y311154D01*
X271782Y311810D02*
Y307874D01*
X274406D01*
X287402Y305510D02*
X290025D01*
X288714D01*
Y301575D01*
X291337Y304855D02*
X291993Y305510D01*
X293305D01*
X293961Y304855D01*
Y304199D01*
X293305Y303543D01*
X293961Y302887D01*
Y302231D01*
X293305Y301575D01*
X291993D01*
X291337Y302231D01*
Y302887D01*
X291993Y303543D01*
X291337Y304199D01*
Y304855D01*
X291993Y303543D02*
X293305D01*
X295273Y305510D02*
Y301575D01*
X297897D01*
X262992Y292518D02*
X265616D01*
X264304D01*
Y288583D01*
X266928Y291862D02*
X267584Y292518D01*
X268896D01*
X269552Y291862D01*
Y291207D01*
X268896Y290550D01*
X268240D01*
X268896D01*
X269552Y289895D01*
Y289239D01*
X268896Y288583D01*
X267584D01*
X266928Y289239D01*
X270864Y292518D02*
Y288583D01*
X273487D01*
X261417Y348818D02*
X264041D01*
X262729D01*
Y344882D01*
X267977Y348818D02*
X265353D01*
Y346850D01*
X266665Y347506D01*
X267321D01*
X267977Y346850D01*
Y345538D01*
X267321Y344882D01*
X266009D01*
X265353Y345538D01*
X269289Y348818D02*
Y344882D01*
X271913D01*
X347244Y289762D02*
X349868D01*
X348556D01*
Y285827D01*
X353804D02*
X351180D01*
X353804Y288451D01*
Y289106D01*
X353148Y289762D01*
X351836D01*
X351180Y289106D01*
X355116Y289762D02*
Y285827D01*
X357739D01*
X385433Y292912D02*
X388057D01*
X386745D01*
Y288976D01*
X391337D02*
Y292912D01*
X389369Y290944D01*
X391993D01*
X393305Y292912D02*
Y288976D01*
X395928D01*
X434514Y295668D02*
X433202D01*
X433858D01*
Y292388D01*
X433202Y291732D01*
X432546D01*
X431890Y292388D01*
X438449Y291732D02*
X435825D01*
X438449Y294356D01*
Y295012D01*
X437793Y295668D01*
X436482D01*
X435825Y295012D01*
X425985Y304724D02*
Y307348D01*
X426642D01*
X429265Y304724D01*
X429921D01*
Y307348D01*
X425985Y308660D02*
X429921D01*
X428609Y309972D01*
X429921Y311284D01*
X425985D01*
X429921Y312596D02*
Y313908D01*
Y313252D01*
X425985D01*
X426642Y312596D01*
X425985Y325197D02*
Y327821D01*
X426642D01*
X429265Y325197D01*
X429921D01*
Y327821D01*
X425985Y329133D02*
X429921D01*
X428609Y330445D01*
X429921Y331756D01*
X425985D01*
X429921Y335692D02*
Y333068D01*
X427297Y335692D01*
X426642D01*
X425985Y335036D01*
Y333724D01*
X426642Y333068D01*
X242915Y323622D02*
Y326246D01*
X243571D01*
X246194Y323622D01*
X246850D01*
Y326246D01*
X242915Y327558D02*
X246850D01*
X245538Y328870D01*
X246850Y330182D01*
X242915D01*
X243571Y331493D02*
X242915Y332150D01*
Y333461D01*
X243571Y334117D01*
X244227D01*
X244882Y333461D01*
Y332805D01*
Y333461D01*
X245538Y334117D01*
X246194D01*
X246850Y333461D01*
Y332150D01*
X246194Y331493D01*
X242915Y303937D02*
Y306561D01*
X243571D01*
X246194Y303937D01*
X246850D01*
Y306561D01*
X242915Y307873D02*
X246850D01*
X245538Y309185D01*
X246850Y310497D01*
X242915D01*
X246850Y313776D02*
X242915D01*
X244882Y311808D01*
Y314432D01*
X498425Y331890D02*
Y343701D01*
X485039Y331890D02*
Y343701D01*
X498425Y294488D02*
Y306299D01*
X485039Y294488D02*
Y306299D01*
X528740Y288583D02*
Y300394D01*
X515354Y288583D02*
Y300394D01*
X570079Y290945D02*
Y302756D01*
X583465Y290945D02*
Y302756D01*
X625197Y340551D02*
Y352362D01*
X611811Y340551D02*
Y352362D01*
X498425Y312992D02*
Y324803D01*
X485039Y312992D02*
Y324803D01*
X634646Y285827D02*
Y297638D01*
X621260Y285827D02*
Y297638D01*
X507480Y344094D02*
X519291D01*
X507480Y330709D02*
X519291D01*
X539567Y333268D02*
X540945Y331890D01*
X539567Y333268D02*
X542520D01*
X540945Y331890D02*
X542520Y333268D01*
X603543Y314173D02*
Y327559D01*
X615354Y316929D02*
Y324803D01*
X548819Y293307D02*
X560630D01*
X548819Y306693D02*
X560630D01*
X606694Y340945D02*
Y343569D01*
Y342257D01*
X610630D01*
X606694Y347504D02*
X607350Y346193D01*
X608662Y344881D01*
X609974D01*
X610630Y345537D01*
Y346849D01*
X609974Y347504D01*
X609318D01*
X608662Y346849D01*
Y344881D01*
X606694Y348816D02*
X610630D01*
Y351440D01*
X632677Y342126D02*
Y346062D01*
X634645D01*
X635301Y345406D01*
Y344094D01*
X634645Y343438D01*
X632677D01*
X633989D02*
X635301Y342126D01*
X636613Y342782D02*
X637269Y342126D01*
X638581D01*
X639237Y342782D01*
Y345406D01*
X638581Y346062D01*
X637269D01*
X636613Y345406D01*
Y344750D01*
X637269Y344094D01*
X639237D01*
X640549Y346062D02*
Y342126D01*
X643173D01*
X530970Y346981D02*
X530314Y347637D01*
X529002D01*
X528346Y346981D01*
Y344357D01*
X529002Y343701D01*
X530314D01*
X530970Y344357D01*
X532282Y346981D02*
X532938Y347637D01*
X534250D01*
X534906Y346981D01*
Y346325D01*
X534250Y345669D01*
X533594D01*
X534250D01*
X534906Y345013D01*
Y344357D01*
X534250Y343701D01*
X532938D01*
X532282Y344357D01*
X538842Y346981D02*
X538186Y347637D01*
X536874D01*
X536218Y346981D01*
Y344357D01*
X536874Y343701D01*
X538186D01*
X538842Y344357D01*
X540945Y351180D02*
Y347244D01*
X542913D01*
X543569Y347900D01*
Y350524D01*
X542913Y351180D01*
X540945D01*
X544881D02*
Y347244D01*
X546848D01*
X547504Y347900D01*
Y348556D01*
Y349212D01*
X546848Y349868D01*
X544881D01*
X550128Y345932D02*
X550784D01*
X551440Y346588D01*
Y349868D01*
X549472D01*
X548816Y349212D01*
Y347900D01*
X549472Y347244D01*
X551440D01*
X461285Y296455D02*
X459973D01*
X460629D01*
Y293176D01*
X459973Y292520D01*
X459317D01*
X458661Y293176D01*
X462597Y292520D02*
X463909D01*
X463253D01*
Y296455D01*
X462597Y295799D01*
X596063Y288583D02*
Y292518D01*
X597375Y291207D01*
X598687Y292518D01*
Y288583D01*
X600655D02*
X601967D01*
X602623Y289239D01*
Y290550D01*
X601967Y291207D01*
X600655D01*
X599999Y290550D01*
Y289239D01*
X600655Y288583D01*
X603934D02*
Y291207D01*
X605902D01*
X606558Y290550D01*
Y288583D01*
X510236Y315748D02*
X506300D01*
Y317716D01*
X506956Y318372D01*
X508268D01*
X508924Y317716D01*
Y315748D01*
Y317060D02*
X510236Y318372D01*
Y319684D02*
Y320996D01*
Y320340D01*
X506300D01*
X506956Y319684D01*
X506300Y322964D02*
X510236D01*
Y325587D01*
X509449Y296457D02*
X505513D01*
Y298425D01*
X506169Y299080D01*
X507481D01*
X508137Y298425D01*
Y296457D01*
Y297769D02*
X509449Y299080D01*
X506169Y300392D02*
X505513Y301048D01*
Y302360D01*
X506169Y303016D01*
X506825D01*
X507481Y302360D01*
Y301704D01*
Y302360D01*
X508137Y303016D01*
X508793D01*
X509449Y302360D01*
Y301048D01*
X508793Y300392D01*
X505513Y304328D02*
X509449D01*
Y306952D01*
X645669Y286614D02*
X641734D01*
Y288582D01*
X642389Y289238D01*
X643701D01*
X644357Y288582D01*
Y286614D01*
Y287926D02*
X645669Y289238D01*
Y292518D02*
X641734D01*
X643701Y290550D01*
Y293174D01*
X641734Y294486D02*
X645669D01*
Y297110D01*
X577823Y321915D02*
X577167Y321259D01*
Y319947D01*
X577823Y319291D01*
X578478D01*
X579135Y319947D01*
Y321259D01*
X579790Y321915D01*
X580446D01*
X581102Y321259D01*
Y319947D01*
X580446Y319291D01*
X577167Y323227D02*
X581102D01*
X579790Y324539D01*
X581102Y325851D01*
X577167D01*
X581102Y327163D02*
Y328475D01*
Y327819D01*
X577167D01*
X577823Y327163D01*
Y333066D02*
X577167Y332411D01*
Y331099D01*
X577823Y330443D01*
X580446D01*
X581102Y331099D01*
Y332411D01*
X580446Y333066D01*
X488976Y311810D02*
X491600D01*
X490288D01*
Y307874D01*
X492912D02*
X494224D01*
X493568D01*
Y311810D01*
X492912Y311154D01*
X496192Y311810D02*
Y307874D01*
X498816D01*
X511811Y305510D02*
X514435D01*
X513123D01*
Y301575D01*
X515747Y304855D02*
X516403Y305510D01*
X517715D01*
X518371Y304855D01*
Y304199D01*
X517715Y303543D01*
X518371Y302887D01*
Y302231D01*
X517715Y301575D01*
X516403D01*
X515747Y302231D01*
Y302887D01*
X516403Y303543D01*
X515747Y304199D01*
Y304855D01*
X516403Y303543D02*
X517715D01*
X519683Y305510D02*
Y301575D01*
X522306D01*
X487402Y292518D02*
X490025D01*
X488714D01*
Y288583D01*
X491337Y291862D02*
X491993Y292518D01*
X493305D01*
X493961Y291862D01*
Y291207D01*
X493305Y290550D01*
X492649D01*
X493305D01*
X493961Y289895D01*
Y289239D01*
X493305Y288583D01*
X491993D01*
X491337Y289239D01*
X495273Y292518D02*
Y288583D01*
X497897D01*
X485827Y348818D02*
X488451D01*
X487139D01*
Y344882D01*
X492386Y348818D02*
X489762D01*
Y346850D01*
X491074Y347506D01*
X491730D01*
X492386Y346850D01*
Y345538D01*
X491730Y344882D01*
X490418D01*
X489762Y345538D01*
X493698Y348818D02*
Y344882D01*
X496322D01*
X571654Y289762D02*
X574277D01*
X572965D01*
Y285827D01*
X578213D02*
X575589D01*
X578213Y288451D01*
Y289106D01*
X577557Y289762D01*
X576245D01*
X575589Y289106D01*
X579525Y289762D02*
Y285827D01*
X582149D01*
X609842Y292912D02*
X612466D01*
X611154D01*
Y288976D01*
X615746D02*
Y292912D01*
X613778Y290944D01*
X616402D01*
X617714Y292912D02*
Y288976D01*
X620338D01*
X658923Y295668D02*
X657611D01*
X658267D01*
Y292388D01*
X657611Y291732D01*
X656955D01*
X656299Y292388D01*
X662859Y291732D02*
X660235D01*
X662859Y294356D01*
Y295012D01*
X662203Y295668D01*
X660891D01*
X660235Y295012D01*
X650395Y304724D02*
Y307348D01*
X651051D01*
X653675Y304724D01*
X654331D01*
Y307348D01*
X650395Y308660D02*
X654331D01*
X653019Y309972D01*
X654331Y311284D01*
X650395D01*
X654331Y312596D02*
Y313908D01*
Y313252D01*
X650395D01*
X651051Y312596D01*
X650395Y325197D02*
Y327821D01*
X651051D01*
X653675Y325197D01*
X654331D01*
Y327821D01*
X650395Y329133D02*
X654331D01*
X653019Y330445D01*
X654331Y331756D01*
X650395D01*
X654331Y335692D02*
Y333068D01*
X651707Y335692D01*
X651051D01*
X650395Y335036D01*
Y333724D01*
X651051Y333068D01*
X467324Y323622D02*
Y326246D01*
X467980D01*
X470604Y323622D01*
X471260D01*
Y326246D01*
X467324Y327558D02*
X471260D01*
X469948Y328870D01*
X471260Y330182D01*
X467324D01*
X467980Y331493D02*
X467324Y332150D01*
Y333461D01*
X467980Y334117D01*
X468636D01*
X469292Y333461D01*
Y332805D01*
Y333461D01*
X469948Y334117D01*
X470604D01*
X471260Y333461D01*
Y332150D01*
X470604Y331493D01*
X467324Y303937D02*
Y306561D01*
X467980D01*
X470604Y303937D01*
X471260D01*
Y306561D01*
X467324Y307873D02*
X471260D01*
X469948Y309185D01*
X471260Y310497D01*
X467324D01*
X471260Y313776D02*
X467324D01*
X469292Y311808D01*
Y314432D01*
X0Y0D02*
Y70866D01*
X224410D01*
Y0D02*
Y70866D01*
X0Y0D02*
X224410D01*
Y70866D01*
X448819D01*
Y0D02*
Y70866D01*
X224410Y0D02*
X448819D01*
Y70866D01*
X673228D01*
Y0D02*
Y70866D01*
X448819Y0D02*
X673228D01*
X0Y70866D02*
Y141732D01*
X224410D01*
Y70866D02*
Y141732D01*
X0Y70866D02*
X224410D01*
Y141732D01*
X448819D01*
Y70866D02*
Y141732D01*
X224410Y70866D02*
X448819D01*
Y141732D01*
X673228D01*
Y70866D02*
Y141732D01*
X448819Y70866D02*
X673228D01*
X0Y141732D02*
Y212598D01*
X224410D01*
Y141732D02*
Y212598D01*
X0Y141732D02*
X224410D01*
Y212598D01*
X448819D01*
Y141732D02*
Y212598D01*
X224410Y141732D02*
X448819D01*
Y212598D01*
X673228D01*
Y141732D02*
Y212598D01*
X448819Y141732D02*
X673228D01*
X0Y212598D02*
Y283465D01*
X224410D01*
Y212598D02*
Y283465D01*
X0Y212598D02*
X224410D01*
Y283465D01*
X448819D01*
Y212598D02*
Y283465D01*
X224410Y212598D02*
X448819D01*
Y283465D01*
X673228D01*
Y212598D02*
Y283465D01*
X448819Y212598D02*
X673228D01*
X0Y283465D02*
Y354331D01*
X224410D01*
Y283465D02*
Y354331D01*
X0Y283465D02*
X224410D01*
Y354331D01*
X448819D01*
Y283465D02*
Y354331D01*
X224410Y283465D02*
X448819D01*
Y354331D01*
X673228D01*
Y283465D02*
Y354331D01*
X448819Y283465D02*
X673228D01*
D24*
X5098Y20433D02*
Y50433D01*
X98Y20433D02*
X5098D01*
X98Y50433D02*
X5098D01*
X24098Y15433D02*
Y56433D01*
X98Y15433D02*
X24098D01*
X98D02*
Y56433D01*
X143110Y18701D02*
X144882Y16929D01*
X143110Y9646D02*
X144882Y11417D01*
X144882D02*
X145669Y10236D01*
X151969D01*
X152756Y11417D01*
X153543Y10236D01*
X159843D01*
X160630Y11417D01*
X160630D02*
X161417Y10236D01*
X167717D01*
X168504Y11417D01*
X167717Y18110D02*
X168504Y16929D01*
X161417Y18110D02*
X167717D01*
X160630Y16929D02*
X161417Y18110D01*
X159843D02*
X160630Y16929D01*
X153543Y18110D02*
X159843D01*
X152756Y16929D02*
X153543Y18110D01*
X151969D02*
X152756Y16929D01*
X145669Y18110D02*
X151969D01*
X144882Y16929D02*
X145669Y18110D01*
X168504Y11417D02*
Y16929D01*
X148425Y29921D02*
Y54331D01*
X144882Y29921D02*
X148425D01*
X144882Y54331D02*
X148425D01*
X137795Y36220D02*
Y48031D01*
Y36220D02*
X144095D01*
Y48031D01*
X137795D02*
X144095D01*
X133465Y29921D02*
X137008D01*
X133465Y54331D02*
X137008D01*
X133465Y29921D02*
Y54331D01*
X110827Y69488D02*
X112598Y67716D01*
X110827Y60433D02*
X112598Y62205D01*
X112598D02*
X113386Y61024D01*
X119685D01*
X120472Y62205D01*
X121260Y61024D01*
X127559D01*
X128347Y62205D01*
X128347D02*
X129134Y61024D01*
X135433D01*
X136221Y62205D01*
X135433Y68898D02*
X136221Y67716D01*
X129134Y68898D02*
X135433D01*
X128347Y67716D02*
X129134Y68898D01*
X127559D02*
X128347Y67716D01*
X121260Y68898D02*
X127559D01*
X120472Y67716D02*
X121260Y68898D01*
X119685D02*
X120472Y67716D01*
X113386Y68898D02*
X119685D01*
X112598Y67716D02*
X113386Y68898D01*
X136221Y62205D02*
Y67716D01*
X218917Y20433D02*
Y50433D01*
X223917D01*
X218917Y20433D02*
X223917D01*
X199917Y14433D02*
Y55433D01*
X223917D01*
Y14433D02*
Y55433D01*
X229508Y20433D02*
Y50433D01*
X224508Y20433D02*
X229508D01*
X224508Y50433D02*
X229508D01*
X248508Y15433D02*
Y56433D01*
X224508Y15433D02*
X248508D01*
X224508D02*
Y56433D01*
X367520Y18701D02*
X369291Y16929D01*
X367520Y9646D02*
X369291Y11417D01*
X369291D02*
X370079Y10236D01*
X376378D01*
X377165Y11417D01*
X377953Y10236D01*
X384252D01*
X385039Y11417D01*
X385039D02*
X385827Y10236D01*
X392126D01*
X392913Y11417D01*
X392126Y18110D02*
X392913Y16929D01*
X385827Y18110D02*
X392126D01*
X385039Y16929D02*
X385827Y18110D01*
X384252D02*
X385039Y16929D01*
X377953Y18110D02*
X384252D01*
X377165Y16929D02*
X377953Y18110D01*
X376378D02*
X377165Y16929D01*
X370079Y18110D02*
X376378D01*
X369291Y16929D02*
X370079Y18110D01*
X392913Y11417D02*
Y16929D01*
X372835Y29921D02*
Y54331D01*
X369291Y29921D02*
X372835D01*
X369291Y54331D02*
X372835D01*
X362205Y36220D02*
Y48031D01*
Y36220D02*
X368504D01*
Y48031D01*
X362205D02*
X368504D01*
X357874Y29921D02*
X361417D01*
X357874Y54331D02*
X361417D01*
X357874Y29921D02*
Y54331D01*
X335236Y69488D02*
X337008Y67716D01*
X335236Y60433D02*
X337008Y62205D01*
X337008D02*
X337795Y61024D01*
X344094D01*
X344882Y62205D01*
X345669Y61024D01*
X351969D01*
X352756Y62205D01*
X352756D02*
X353543Y61024D01*
X359842D01*
X360630Y62205D01*
X359842Y68898D02*
X360630Y67716D01*
X353543Y68898D02*
X359842D01*
X352756Y67716D02*
X353543Y68898D01*
X351969D02*
X352756Y67716D01*
X345669Y68898D02*
X351969D01*
X344882Y67716D02*
X345669Y68898D01*
X344094D02*
X344882Y67716D01*
X337795Y68898D02*
X344094D01*
X337008Y67716D02*
X337795Y68898D01*
X360630Y62205D02*
Y67716D01*
X443327Y20433D02*
Y50433D01*
X448327D01*
X443327Y20433D02*
X448327D01*
X424327Y14433D02*
Y55433D01*
X448327D01*
Y14433D02*
Y55433D01*
X453917Y20433D02*
Y50433D01*
X448917Y20433D02*
X453917D01*
X448917Y50433D02*
X453917D01*
X472917Y15433D02*
Y56433D01*
X448917Y15433D02*
X472917D01*
X448917D02*
Y56433D01*
X591929Y18701D02*
X593701Y16929D01*
X591929Y9646D02*
X593701Y11417D01*
X593701D02*
X594488Y10236D01*
X600787D01*
X601575Y11417D01*
X602362Y10236D01*
X608661D01*
X609449Y11417D01*
X609449D02*
X610236Y10236D01*
X616535D01*
X617323Y11417D01*
X616535Y18110D02*
X617323Y16929D01*
X610236Y18110D02*
X616535D01*
X609449Y16929D02*
X610236Y18110D01*
X608661D02*
X609449Y16929D01*
X602362Y18110D02*
X608661D01*
X601575Y16929D02*
X602362Y18110D01*
X600787D02*
X601575Y16929D01*
X594488Y18110D02*
X600787D01*
X593701Y16929D02*
X594488Y18110D01*
X617323Y11417D02*
Y16929D01*
X597244Y29921D02*
Y54331D01*
X593701Y29921D02*
X597244D01*
X593701Y54331D02*
X597244D01*
X586614Y36220D02*
Y48031D01*
Y36220D02*
X592913D01*
Y48031D01*
X586614D02*
X592913D01*
X582283Y29921D02*
X585827D01*
X582283Y54331D02*
X585827D01*
X582283Y29921D02*
Y54331D01*
X559646Y69488D02*
X561417Y67716D01*
X559646Y60433D02*
X561417Y62205D01*
X561417D02*
X562205Y61024D01*
X568504D01*
X569291Y62205D01*
X570079Y61024D01*
X576378D01*
X577165Y62205D01*
X577165D02*
X577953Y61024D01*
X584252D01*
X585039Y62205D01*
X584252Y68898D02*
X585039Y67716D01*
X577953Y68898D02*
X584252D01*
X577165Y67716D02*
X577953Y68898D01*
X576378D02*
X577165Y67716D01*
X570079Y68898D02*
X576378D01*
X569291Y67716D02*
X570079Y68898D01*
X568504D02*
X569291Y67716D01*
X562205Y68898D02*
X568504D01*
X561417Y67716D02*
X562205Y68898D01*
X585039Y62205D02*
Y67716D01*
X667736Y20433D02*
Y50433D01*
X672736D01*
X667736Y20433D02*
X672736D01*
X648736Y14433D02*
Y55433D01*
X672736D01*
Y14433D02*
Y55433D01*
X5098Y91299D02*
Y121299D01*
X98Y91299D02*
X5098D01*
X98Y121299D02*
X5098D01*
X24098Y86299D02*
Y127299D01*
X98Y86299D02*
X24098D01*
X98D02*
Y127299D01*
X143110Y89567D02*
X144882Y87795D01*
X143110Y80512D02*
X144882Y82284D01*
X144882D02*
X145669Y81102D01*
X151969D01*
X152756Y82284D01*
X153543Y81102D01*
X159843D01*
X160630Y82284D01*
X160630D02*
X161417Y81102D01*
X167717D01*
X168504Y82284D01*
X167717Y88976D02*
X168504Y87795D01*
X161417Y88976D02*
X167717D01*
X160630Y87795D02*
X161417Y88976D01*
X159843D02*
X160630Y87795D01*
X153543Y88976D02*
X159843D01*
X152756Y87795D02*
X153543Y88976D01*
X151969D02*
X152756Y87795D01*
X145669Y88976D02*
X151969D01*
X144882Y87795D02*
X145669Y88976D01*
X168504Y82284D02*
Y87795D01*
X148425Y100787D02*
Y125197D01*
X144882Y100787D02*
X148425D01*
X144882Y125197D02*
X148425D01*
X137795Y107087D02*
Y118898D01*
Y107087D02*
X144095D01*
Y118898D01*
X137795D02*
X144095D01*
X133465Y100787D02*
X137008D01*
X133465Y125197D02*
X137008D01*
X133465Y100787D02*
Y125197D01*
X110827Y140354D02*
X112598Y138583D01*
X110827Y131299D02*
X112598Y133071D01*
X112598D02*
X113386Y131890D01*
X119685D01*
X120472Y133071D01*
X121260Y131890D01*
X127559D01*
X128347Y133071D01*
X128347D02*
X129134Y131890D01*
X135433D01*
X136221Y133071D01*
X135433Y139764D02*
X136221Y138583D01*
X129134Y139764D02*
X135433D01*
X128347Y138583D02*
X129134Y139764D01*
X127559D02*
X128347Y138583D01*
X121260Y139764D02*
X127559D01*
X120472Y138583D02*
X121260Y139764D01*
X119685D02*
X120472Y138583D01*
X113386Y139764D02*
X119685D01*
X112598Y138583D02*
X113386Y139764D01*
X136221Y133071D02*
Y138583D01*
X218917Y91299D02*
Y121299D01*
X223917D01*
X218917Y91299D02*
X223917D01*
X199917Y85299D02*
Y126299D01*
X223917D01*
Y85299D02*
Y126299D01*
X229508Y91299D02*
Y121299D01*
X224508Y91299D02*
X229508D01*
X224508Y121299D02*
X229508D01*
X248508Y86299D02*
Y127299D01*
X224508Y86299D02*
X248508D01*
X224508D02*
Y127299D01*
X367520Y89567D02*
X369291Y87795D01*
X367520Y80512D02*
X369291Y82284D01*
X369291D02*
X370079Y81102D01*
X376378D01*
X377165Y82284D01*
X377953Y81102D01*
X384252D01*
X385039Y82284D01*
X385039D02*
X385827Y81102D01*
X392126D01*
X392913Y82284D01*
X392126Y88976D02*
X392913Y87795D01*
X385827Y88976D02*
X392126D01*
X385039Y87795D02*
X385827Y88976D01*
X384252D02*
X385039Y87795D01*
X377953Y88976D02*
X384252D01*
X377165Y87795D02*
X377953Y88976D01*
X376378D02*
X377165Y87795D01*
X370079Y88976D02*
X376378D01*
X369291Y87795D02*
X370079Y88976D01*
X392913Y82284D02*
Y87795D01*
X372835Y100787D02*
Y125197D01*
X369291Y100787D02*
X372835D01*
X369291Y125197D02*
X372835D01*
X362205Y107087D02*
Y118898D01*
Y107087D02*
X368504D01*
Y118898D01*
X362205D02*
X368504D01*
X357874Y100787D02*
X361417D01*
X357874Y125197D02*
X361417D01*
X357874Y100787D02*
Y125197D01*
X335236Y140354D02*
X337008Y138583D01*
X335236Y131299D02*
X337008Y133071D01*
X337008D02*
X337795Y131890D01*
X344094D01*
X344882Y133071D01*
X345669Y131890D01*
X351969D01*
X352756Y133071D01*
X352756D02*
X353543Y131890D01*
X359842D01*
X360630Y133071D01*
X359842Y139764D02*
X360630Y138583D01*
X353543Y139764D02*
X359842D01*
X352756Y138583D02*
X353543Y139764D01*
X351969D02*
X352756Y138583D01*
X345669Y139764D02*
X351969D01*
X344882Y138583D02*
X345669Y139764D01*
X344094D02*
X344882Y138583D01*
X337795Y139764D02*
X344094D01*
X337008Y138583D02*
X337795Y139764D01*
X360630Y133071D02*
Y138583D01*
X443327Y91299D02*
Y121299D01*
X448327D01*
X443327Y91299D02*
X448327D01*
X424327Y85299D02*
Y126299D01*
X448327D01*
Y85299D02*
Y126299D01*
X453917Y91299D02*
Y121299D01*
X448917Y91299D02*
X453917D01*
X448917Y121299D02*
X453917D01*
X472917Y86299D02*
Y127299D01*
X448917Y86299D02*
X472917D01*
X448917D02*
Y127299D01*
X591929Y89567D02*
X593701Y87795D01*
X591929Y80512D02*
X593701Y82284D01*
X593701D02*
X594488Y81102D01*
X600787D01*
X601575Y82284D01*
X602362Y81102D01*
X608661D01*
X609449Y82284D01*
X609449D02*
X610236Y81102D01*
X616535D01*
X617323Y82284D01*
X616535Y88976D02*
X617323Y87795D01*
X610236Y88976D02*
X616535D01*
X609449Y87795D02*
X610236Y88976D01*
X608661D02*
X609449Y87795D01*
X602362Y88976D02*
X608661D01*
X601575Y87795D02*
X602362Y88976D01*
X600787D02*
X601575Y87795D01*
X594488Y88976D02*
X600787D01*
X593701Y87795D02*
X594488Y88976D01*
X617323Y82284D02*
Y87795D01*
X597244Y100787D02*
Y125197D01*
X593701Y100787D02*
X597244D01*
X593701Y125197D02*
X597244D01*
X586614Y107087D02*
Y118898D01*
Y107087D02*
X592913D01*
Y118898D01*
X586614D02*
X592913D01*
X582283Y100787D02*
X585827D01*
X582283Y125197D02*
X585827D01*
X582283Y100787D02*
Y125197D01*
X559646Y140354D02*
X561417Y138583D01*
X559646Y131299D02*
X561417Y133071D01*
X561417D02*
X562205Y131890D01*
X568504D01*
X569291Y133071D01*
X570079Y131890D01*
X576378D01*
X577165Y133071D01*
X577165D02*
X577953Y131890D01*
X584252D01*
X585039Y133071D01*
X584252Y139764D02*
X585039Y138583D01*
X577953Y139764D02*
X584252D01*
X577165Y138583D02*
X577953Y139764D01*
X576378D02*
X577165Y138583D01*
X570079Y139764D02*
X576378D01*
X569291Y138583D02*
X570079Y139764D01*
X568504D02*
X569291Y138583D01*
X562205Y139764D02*
X568504D01*
X561417Y138583D02*
X562205Y139764D01*
X585039Y133071D02*
Y138583D01*
X667736Y91299D02*
Y121299D01*
X672736D01*
X667736Y91299D02*
X672736D01*
X648736Y85299D02*
Y126299D01*
X672736D01*
Y85299D02*
Y126299D01*
X5098Y162165D02*
Y192165D01*
X98Y162165D02*
X5098D01*
X98Y192165D02*
X5098D01*
X24098Y157165D02*
Y198165D01*
X98Y157165D02*
X24098D01*
X98D02*
Y198165D01*
X143110Y160433D02*
X144882Y158661D01*
X143110Y151378D02*
X144882Y153150D01*
X144882D02*
X145669Y151969D01*
X151969D01*
X152756Y153150D01*
X153543Y151969D01*
X159843D01*
X160630Y153150D01*
X160630D02*
X161417Y151969D01*
X167717D01*
X168504Y153150D01*
X167717Y159843D02*
X168504Y158661D01*
X161417Y159843D02*
X167717D01*
X160630Y158661D02*
X161417Y159843D01*
X159843D02*
X160630Y158661D01*
X153543Y159843D02*
X159843D01*
X152756Y158661D02*
X153543Y159843D01*
X151969D02*
X152756Y158661D01*
X145669Y159843D02*
X151969D01*
X144882Y158661D02*
X145669Y159843D01*
X168504Y153150D02*
Y158661D01*
X148425Y171653D02*
Y196063D01*
X144882Y171653D02*
X148425D01*
X144882Y196063D02*
X148425D01*
X137795Y177953D02*
Y189764D01*
Y177953D02*
X144095D01*
Y189764D01*
X137795D02*
X144095D01*
X133465Y171653D02*
X137008D01*
X133465Y196063D02*
X137008D01*
X133465Y171653D02*
Y196063D01*
X110827Y211221D02*
X112598Y209449D01*
X110827Y202165D02*
X112598Y203937D01*
X112598D02*
X113386Y202756D01*
X119685D01*
X120472Y203937D01*
X121260Y202756D01*
X127559D01*
X128347Y203937D01*
X128347D02*
X129134Y202756D01*
X135433D01*
X136221Y203937D01*
X135433Y210630D02*
X136221Y209449D01*
X129134Y210630D02*
X135433D01*
X128347Y209449D02*
X129134Y210630D01*
X127559D02*
X128347Y209449D01*
X121260Y210630D02*
X127559D01*
X120472Y209449D02*
X121260Y210630D01*
X119685D02*
X120472Y209449D01*
X113386Y210630D02*
X119685D01*
X112598Y209449D02*
X113386Y210630D01*
X136221Y203937D02*
Y209449D01*
X218917Y162165D02*
Y192165D01*
X223917D01*
X218917Y162165D02*
X223917D01*
X199917Y156165D02*
Y197165D01*
X223917D01*
Y156165D02*
Y197165D01*
X229508Y162165D02*
Y192165D01*
X224508Y162165D02*
X229508D01*
X224508Y192165D02*
X229508D01*
X248508Y157165D02*
Y198165D01*
X224508Y157165D02*
X248508D01*
X224508D02*
Y198165D01*
X367520Y160433D02*
X369291Y158661D01*
X367520Y151378D02*
X369291Y153150D01*
X369291D02*
X370079Y151969D01*
X376378D01*
X377165Y153150D01*
X377953Y151969D01*
X384252D01*
X385039Y153150D01*
X385039D02*
X385827Y151969D01*
X392126D01*
X392913Y153150D01*
X392126Y159843D02*
X392913Y158661D01*
X385827Y159843D02*
X392126D01*
X385039Y158661D02*
X385827Y159843D01*
X384252D02*
X385039Y158661D01*
X377953Y159843D02*
X384252D01*
X377165Y158661D02*
X377953Y159843D01*
X376378D02*
X377165Y158661D01*
X370079Y159843D02*
X376378D01*
X369291Y158661D02*
X370079Y159843D01*
X392913Y153150D02*
Y158661D01*
X372835Y171653D02*
Y196063D01*
X369291Y171653D02*
X372835D01*
X369291Y196063D02*
X372835D01*
X362205Y177953D02*
Y189764D01*
Y177953D02*
X368504D01*
Y189764D01*
X362205D02*
X368504D01*
X357874Y171653D02*
X361417D01*
X357874Y196063D02*
X361417D01*
X357874Y171653D02*
Y196063D01*
X335236Y211221D02*
X337008Y209449D01*
X335236Y202165D02*
X337008Y203937D01*
X337008D02*
X337795Y202756D01*
X344094D01*
X344882Y203937D01*
X345669Y202756D01*
X351969D01*
X352756Y203937D01*
X352756D02*
X353543Y202756D01*
X359842D01*
X360630Y203937D01*
X359842Y210630D02*
X360630Y209449D01*
X353543Y210630D02*
X359842D01*
X352756Y209449D02*
X353543Y210630D01*
X351969D02*
X352756Y209449D01*
X345669Y210630D02*
X351969D01*
X344882Y209449D02*
X345669Y210630D01*
X344094D02*
X344882Y209449D01*
X337795Y210630D02*
X344094D01*
X337008Y209449D02*
X337795Y210630D01*
X360630Y203937D02*
Y209449D01*
X443327Y162165D02*
Y192165D01*
X448327D01*
X443327Y162165D02*
X448327D01*
X424327Y156165D02*
Y197165D01*
X448327D01*
Y156165D02*
Y197165D01*
X453917Y162165D02*
Y192165D01*
X448917Y162165D02*
X453917D01*
X448917Y192165D02*
X453917D01*
X472917Y157165D02*
Y198165D01*
X448917Y157165D02*
X472917D01*
X448917D02*
Y198165D01*
X591929Y160433D02*
X593701Y158661D01*
X591929Y151378D02*
X593701Y153150D01*
X593701D02*
X594488Y151969D01*
X600787D01*
X601575Y153150D01*
X602362Y151969D01*
X608661D01*
X609449Y153150D01*
X609449D02*
X610236Y151969D01*
X616535D01*
X617323Y153150D01*
X616535Y159843D02*
X617323Y158661D01*
X610236Y159843D02*
X616535D01*
X609449Y158661D02*
X610236Y159843D01*
X608661D02*
X609449Y158661D01*
X602362Y159843D02*
X608661D01*
X601575Y158661D02*
X602362Y159843D01*
X600787D02*
X601575Y158661D01*
X594488Y159843D02*
X600787D01*
X593701Y158661D02*
X594488Y159843D01*
X617323Y153150D02*
Y158661D01*
X597244Y171653D02*
Y196063D01*
X593701Y171653D02*
X597244D01*
X593701Y196063D02*
X597244D01*
X586614Y177953D02*
Y189764D01*
Y177953D02*
X592913D01*
Y189764D01*
X586614D02*
X592913D01*
X582283Y171653D02*
X585827D01*
X582283Y196063D02*
X585827D01*
X582283Y171653D02*
Y196063D01*
X559646Y211221D02*
X561417Y209449D01*
X559646Y202165D02*
X561417Y203937D01*
X561417D02*
X562205Y202756D01*
X568504D01*
X569291Y203937D01*
X570079Y202756D01*
X576378D01*
X577165Y203937D01*
X577165D02*
X577953Y202756D01*
X584252D01*
X585039Y203937D01*
X584252Y210630D02*
X585039Y209449D01*
X577953Y210630D02*
X584252D01*
X577165Y209449D02*
X577953Y210630D01*
X576378D02*
X577165Y209449D01*
X570079Y210630D02*
X576378D01*
X569291Y209449D02*
X570079Y210630D01*
X568504D02*
X569291Y209449D01*
X562205Y210630D02*
X568504D01*
X561417Y209449D02*
X562205Y210630D01*
X585039Y203937D02*
Y209449D01*
X667736Y162165D02*
Y192165D01*
X672736D01*
X667736Y162165D02*
X672736D01*
X648736Y156165D02*
Y197165D01*
X672736D01*
Y156165D02*
Y197165D01*
X5098Y233032D02*
Y263032D01*
X98Y233032D02*
X5098D01*
X98Y263032D02*
X5098D01*
X24098Y228031D02*
Y269032D01*
X98Y228031D02*
X24098D01*
X98D02*
Y269032D01*
X143110Y231299D02*
X144882Y229528D01*
X143110Y222244D02*
X144882Y224016D01*
X144882D02*
X145669Y222835D01*
X151969D01*
X152756Y224016D01*
X153543Y222835D01*
X159843D01*
X160630Y224016D01*
X160630D02*
X161417Y222835D01*
X167717D01*
X168504Y224016D01*
X167717Y230709D02*
X168504Y229528D01*
X161417Y230709D02*
X167717D01*
X160630Y229528D02*
X161417Y230709D01*
X159843D02*
X160630Y229528D01*
X153543Y230709D02*
X159843D01*
X152756Y229528D02*
X153543Y230709D01*
X151969D02*
X152756Y229528D01*
X145669Y230709D02*
X151969D01*
X144882Y229528D02*
X145669Y230709D01*
X168504Y224016D02*
Y229528D01*
X148425Y242520D02*
Y266929D01*
X144882Y242520D02*
X148425D01*
X144882Y266929D02*
X148425D01*
X137795Y248819D02*
Y260630D01*
Y248819D02*
X144095D01*
Y260630D01*
X137795D02*
X144095D01*
X133465Y242520D02*
X137008D01*
X133465Y266929D02*
X137008D01*
X133465Y242520D02*
Y266929D01*
X110827Y282087D02*
X112598Y280315D01*
X110827Y273031D02*
X112598Y274803D01*
X112598D02*
X113386Y273622D01*
X119685D01*
X120472Y274803D01*
X121260Y273622D01*
X127559D01*
X128347Y274803D01*
X128347D02*
X129134Y273622D01*
X135433D01*
X136221Y274803D01*
X135433Y281496D02*
X136221Y280315D01*
X129134Y281496D02*
X135433D01*
X128347Y280315D02*
X129134Y281496D01*
X127559D02*
X128347Y280315D01*
X121260Y281496D02*
X127559D01*
X120472Y280315D02*
X121260Y281496D01*
X119685D02*
X120472Y280315D01*
X113386Y281496D02*
X119685D01*
X112598Y280315D02*
X113386Y281496D01*
X136221Y274803D02*
Y280315D01*
X218917Y233032D02*
Y263032D01*
X223917D01*
X218917Y233032D02*
X223917D01*
X199917Y227031D02*
Y268032D01*
X223917D01*
Y227031D02*
Y268032D01*
X229508Y233032D02*
Y263032D01*
X224508Y233032D02*
X229508D01*
X224508Y263032D02*
X229508D01*
X248508Y228031D02*
Y269032D01*
X224508Y228031D02*
X248508D01*
X224508D02*
Y269032D01*
X367520Y231299D02*
X369291Y229528D01*
X367520Y222244D02*
X369291Y224016D01*
X369291D02*
X370079Y222835D01*
X376378D01*
X377165Y224016D01*
X377953Y222835D01*
X384252D01*
X385039Y224016D01*
X385039D02*
X385827Y222835D01*
X392126D01*
X392913Y224016D01*
X392126Y230709D02*
X392913Y229528D01*
X385827Y230709D02*
X392126D01*
X385039Y229528D02*
X385827Y230709D01*
X384252D02*
X385039Y229528D01*
X377953Y230709D02*
X384252D01*
X377165Y229528D02*
X377953Y230709D01*
X376378D02*
X377165Y229528D01*
X370079Y230709D02*
X376378D01*
X369291Y229528D02*
X370079Y230709D01*
X392913Y224016D02*
Y229528D01*
X372835Y242520D02*
Y266929D01*
X369291Y242520D02*
X372835D01*
X369291Y266929D02*
X372835D01*
X362205Y248819D02*
Y260630D01*
Y248819D02*
X368504D01*
Y260630D01*
X362205D02*
X368504D01*
X357874Y242520D02*
X361417D01*
X357874Y266929D02*
X361417D01*
X357874Y242520D02*
Y266929D01*
X335236Y282087D02*
X337008Y280315D01*
X335236Y273031D02*
X337008Y274803D01*
X337008D02*
X337795Y273622D01*
X344094D01*
X344882Y274803D01*
X345669Y273622D01*
X351969D01*
X352756Y274803D01*
X352756D02*
X353543Y273622D01*
X359842D01*
X360630Y274803D01*
X359842Y281496D02*
X360630Y280315D01*
X353543Y281496D02*
X359842D01*
X352756Y280315D02*
X353543Y281496D01*
X351969D02*
X352756Y280315D01*
X345669Y281496D02*
X351969D01*
X344882Y280315D02*
X345669Y281496D01*
X344094D02*
X344882Y280315D01*
X337795Y281496D02*
X344094D01*
X337008Y280315D02*
X337795Y281496D01*
X360630Y274803D02*
Y280315D01*
X443327Y233032D02*
Y263032D01*
X448327D01*
X443327Y233032D02*
X448327D01*
X424327Y227031D02*
Y268032D01*
X448327D01*
Y227031D02*
Y268032D01*
X453917Y233032D02*
Y263032D01*
X448917Y233032D02*
X453917D01*
X448917Y263032D02*
X453917D01*
X472917Y228031D02*
Y269032D01*
X448917Y228031D02*
X472917D01*
X448917D02*
Y269032D01*
X591929Y231299D02*
X593701Y229528D01*
X591929Y222244D02*
X593701Y224016D01*
X593701D02*
X594488Y222835D01*
X600787D01*
X601575Y224016D01*
X602362Y222835D01*
X608661D01*
X609449Y224016D01*
X609449D02*
X610236Y222835D01*
X616535D01*
X617323Y224016D01*
X616535Y230709D02*
X617323Y229528D01*
X610236Y230709D02*
X616535D01*
X609449Y229528D02*
X610236Y230709D01*
X608661D02*
X609449Y229528D01*
X602362Y230709D02*
X608661D01*
X601575Y229528D02*
X602362Y230709D01*
X600787D02*
X601575Y229528D01*
X594488Y230709D02*
X600787D01*
X593701Y229528D02*
X594488Y230709D01*
X617323Y224016D02*
Y229528D01*
X597244Y242520D02*
Y266929D01*
X593701Y242520D02*
X597244D01*
X593701Y266929D02*
X597244D01*
X586614Y248819D02*
Y260630D01*
Y248819D02*
X592913D01*
Y260630D01*
X586614D02*
X592913D01*
X582283Y242520D02*
X585827D01*
X582283Y266929D02*
X585827D01*
X582283Y242520D02*
Y266929D01*
X559646Y282087D02*
X561417Y280315D01*
X559646Y273031D02*
X561417Y274803D01*
X561417D02*
X562205Y273622D01*
X568504D01*
X569291Y274803D01*
X570079Y273622D01*
X576378D01*
X577165Y274803D01*
X577165D02*
X577953Y273622D01*
X584252D01*
X585039Y274803D01*
X584252Y281496D02*
X585039Y280315D01*
X577953Y281496D02*
X584252D01*
X577165Y280315D02*
X577953Y281496D01*
X576378D02*
X577165Y280315D01*
X570079Y281496D02*
X576378D01*
X569291Y280315D02*
X570079Y281496D01*
X568504D02*
X569291Y280315D01*
X562205Y281496D02*
X568504D01*
X561417Y280315D02*
X562205Y281496D01*
X585039Y274803D02*
Y280315D01*
X667736Y233032D02*
Y263032D01*
X672736D01*
X667736Y233032D02*
X672736D01*
X648736Y227031D02*
Y268032D01*
X672736D01*
Y227031D02*
Y268032D01*
X5098Y303898D02*
Y333898D01*
X98Y303898D02*
X5098D01*
X98Y333898D02*
X5098D01*
X24098Y298898D02*
Y339898D01*
X98Y298898D02*
X24098D01*
X98D02*
Y339898D01*
X143110Y302165D02*
X144882Y300394D01*
X143110Y293110D02*
X144882Y294882D01*
X144882D02*
X145669Y293701D01*
X151969D01*
X152756Y294882D01*
X153543Y293701D01*
X159843D01*
X160630Y294882D01*
X160630D02*
X161417Y293701D01*
X167717D01*
X168504Y294882D01*
X167717Y301575D02*
X168504Y300394D01*
X161417Y301575D02*
X167717D01*
X160630Y300394D02*
X161417Y301575D01*
X159843D02*
X160630Y300394D01*
X153543Y301575D02*
X159843D01*
X152756Y300394D02*
X153543Y301575D01*
X151969D02*
X152756Y300394D01*
X145669Y301575D02*
X151969D01*
X144882Y300394D02*
X145669Y301575D01*
X168504Y294882D02*
Y300394D01*
X148425Y313386D02*
Y337795D01*
X144882Y313386D02*
X148425D01*
X144882Y337795D02*
X148425D01*
X137795Y319685D02*
Y331496D01*
Y319685D02*
X144095D01*
Y331496D01*
X137795D02*
X144095D01*
X133465Y313386D02*
X137008D01*
X133465Y337795D02*
X137008D01*
X133465Y313386D02*
Y337795D01*
X110827Y352953D02*
X112598Y351181D01*
X110827Y343898D02*
X112598Y345669D01*
X112598D02*
X113386Y344488D01*
X119685D01*
X120472Y345669D01*
X121260Y344488D01*
X127559D01*
X128347Y345669D01*
X128347D02*
X129134Y344488D01*
X135433D01*
X136221Y345669D01*
X135433Y352362D02*
X136221Y351181D01*
X129134Y352362D02*
X135433D01*
X128347Y351181D02*
X129134Y352362D01*
X127559D02*
X128347Y351181D01*
X121260Y352362D02*
X127559D01*
X120472Y351181D02*
X121260Y352362D01*
X119685D02*
X120472Y351181D01*
X113386Y352362D02*
X119685D01*
X112598Y351181D02*
X113386Y352362D01*
X136221Y345669D02*
Y351181D01*
X218917Y303898D02*
Y333898D01*
X223917D01*
X218917Y303898D02*
X223917D01*
X199917Y297898D02*
Y338898D01*
X223917D01*
Y297898D02*
Y338898D01*
X229508Y303898D02*
Y333898D01*
X224508Y303898D02*
X229508D01*
X224508Y333898D02*
X229508D01*
X248508Y298898D02*
Y339898D01*
X224508Y298898D02*
X248508D01*
X224508D02*
Y339898D01*
X367520Y302165D02*
X369291Y300394D01*
X367520Y293110D02*
X369291Y294882D01*
X369291D02*
X370079Y293701D01*
X376378D01*
X377165Y294882D01*
X377953Y293701D01*
X384252D01*
X385039Y294882D01*
X385039D02*
X385827Y293701D01*
X392126D01*
X392913Y294882D01*
X392126Y301575D02*
X392913Y300394D01*
X385827Y301575D02*
X392126D01*
X385039Y300394D02*
X385827Y301575D01*
X384252D02*
X385039Y300394D01*
X377953Y301575D02*
X384252D01*
X377165Y300394D02*
X377953Y301575D01*
X376378D02*
X377165Y300394D01*
X370079Y301575D02*
X376378D01*
X369291Y300394D02*
X370079Y301575D01*
X392913Y294882D02*
Y300394D01*
X372835Y313386D02*
Y337795D01*
X369291Y313386D02*
X372835D01*
X369291Y337795D02*
X372835D01*
X362205Y319685D02*
Y331496D01*
Y319685D02*
X368504D01*
Y331496D01*
X362205D02*
X368504D01*
X357874Y313386D02*
X361417D01*
X357874Y337795D02*
X361417D01*
X357874Y313386D02*
Y337795D01*
X335236Y352953D02*
X337008Y351181D01*
X335236Y343898D02*
X337008Y345669D01*
X337008D02*
X337795Y344488D01*
X344094D01*
X344882Y345669D01*
X345669Y344488D01*
X351969D01*
X352756Y345669D01*
X352756D02*
X353543Y344488D01*
X359842D01*
X360630Y345669D01*
X359842Y352362D02*
X360630Y351181D01*
X353543Y352362D02*
X359842D01*
X352756Y351181D02*
X353543Y352362D01*
X351969D02*
X352756Y351181D01*
X345669Y352362D02*
X351969D01*
X344882Y351181D02*
X345669Y352362D01*
X344094D02*
X344882Y351181D01*
X337795Y352362D02*
X344094D01*
X337008Y351181D02*
X337795Y352362D01*
X360630Y345669D02*
Y351181D01*
X443327Y303898D02*
Y333898D01*
X448327D01*
X443327Y303898D02*
X448327D01*
X424327Y297898D02*
Y338898D01*
X448327D01*
Y297898D02*
Y338898D01*
X453917Y303898D02*
Y333898D01*
X448917Y303898D02*
X453917D01*
X448917Y333898D02*
X453917D01*
X472917Y298898D02*
Y339898D01*
X448917Y298898D02*
X472917D01*
X448917D02*
Y339898D01*
X591929Y302165D02*
X593701Y300394D01*
X591929Y293110D02*
X593701Y294882D01*
X593701D02*
X594488Y293701D01*
X600787D01*
X601575Y294882D01*
X602362Y293701D01*
X608661D01*
X609449Y294882D01*
X609449D02*
X610236Y293701D01*
X616535D01*
X617323Y294882D01*
X616535Y301575D02*
X617323Y300394D01*
X610236Y301575D02*
X616535D01*
X609449Y300394D02*
X610236Y301575D01*
X608661D02*
X609449Y300394D01*
X602362Y301575D02*
X608661D01*
X601575Y300394D02*
X602362Y301575D01*
X600787D02*
X601575Y300394D01*
X594488Y301575D02*
X600787D01*
X593701Y300394D02*
X594488Y301575D01*
X617323Y294882D02*
Y300394D01*
X597244Y313386D02*
Y337795D01*
X593701Y313386D02*
X597244D01*
X593701Y337795D02*
X597244D01*
X586614Y319685D02*
Y331496D01*
Y319685D02*
X592913D01*
Y331496D01*
X586614D02*
X592913D01*
X582283Y313386D02*
X585827D01*
X582283Y337795D02*
X585827D01*
X582283Y313386D02*
Y337795D01*
X559646Y352953D02*
X561417Y351181D01*
X559646Y343898D02*
X561417Y345669D01*
X561417D02*
X562205Y344488D01*
X568504D01*
X569291Y345669D01*
X570079Y344488D01*
X576378D01*
X577165Y345669D01*
X577165D02*
X577953Y344488D01*
X584252D01*
X585039Y345669D01*
X584252Y352362D02*
X585039Y351181D01*
X577953Y352362D02*
X584252D01*
X577165Y351181D02*
X577953Y352362D01*
X576378D02*
X577165Y351181D01*
X570079Y352362D02*
X576378D01*
X569291Y351181D02*
X570079Y352362D01*
X568504D02*
X569291Y351181D01*
X562205Y352362D02*
X568504D01*
X561417Y351181D02*
X562205Y352362D01*
X585039Y345669D02*
Y351181D01*
X667736Y303898D02*
Y333898D01*
X672736D01*
X667736Y303898D02*
X672736D01*
X648736Y297898D02*
Y338898D01*
X672736D01*
Y297898D02*
Y338898D01*
D25*
X137795Y18701D02*
X143110D01*
X137598Y9646D02*
X143110D01*
X136614Y10630D02*
X137598Y9646D01*
X136614Y10630D02*
Y17520D01*
X137795Y18701D01*
X105512Y69488D02*
X110827D01*
X105315Y60433D02*
X110827D01*
X104331Y61417D02*
X105315Y60433D01*
X104331Y61417D02*
Y68307D01*
X105512Y69488D01*
X362205Y18701D02*
X367520D01*
X362008Y9646D02*
X367520D01*
X361024Y10630D02*
X362008Y9646D01*
X361024Y10630D02*
Y17520D01*
X362205Y18701D01*
X329921Y69488D02*
X335236D01*
X329724Y60433D02*
X335236D01*
X328740Y61417D02*
X329724Y60433D01*
X328740Y61417D02*
Y68307D01*
X329921Y69488D01*
X586614Y18701D02*
X591929D01*
X586417Y9646D02*
X591929D01*
X585433Y10630D02*
X586417Y9646D01*
X585433Y10630D02*
Y17520D01*
X586614Y18701D01*
X554331Y69488D02*
X559646D01*
X554134Y60433D02*
X559646D01*
X553150Y61417D02*
X554134Y60433D01*
X553150Y61417D02*
Y68307D01*
X554331Y69488D01*
X137795Y89567D02*
X143110D01*
X137598Y80512D02*
X143110D01*
X136614Y81496D02*
X137598Y80512D01*
X136614Y81496D02*
Y88386D01*
X137795Y89567D01*
X105512Y140354D02*
X110827D01*
X105315Y131299D02*
X110827D01*
X104331Y132283D02*
X105315Y131299D01*
X104331Y132283D02*
Y139173D01*
X105512Y140354D01*
X362205Y89567D02*
X367520D01*
X362008Y80512D02*
X367520D01*
X361024Y81496D02*
X362008Y80512D01*
X361024Y81496D02*
Y88386D01*
X362205Y89567D01*
X329921Y140354D02*
X335236D01*
X329724Y131299D02*
X335236D01*
X328740Y132283D02*
X329724Y131299D01*
X328740Y132283D02*
Y139173D01*
X329921Y140354D01*
X586614Y89567D02*
X591929D01*
X586417Y80512D02*
X591929D01*
X585433Y81496D02*
X586417Y80512D01*
X585433Y81496D02*
Y88386D01*
X586614Y89567D01*
X554331Y140354D02*
X559646D01*
X554134Y131299D02*
X559646D01*
X553150Y132283D02*
X554134Y131299D01*
X553150Y132283D02*
Y139173D01*
X554331Y140354D01*
X137795Y160433D02*
X143110D01*
X137598Y151378D02*
X143110D01*
X136614Y152362D02*
X137598Y151378D01*
X136614Y152362D02*
Y159252D01*
X137795Y160433D01*
X105512Y211221D02*
X110827D01*
X105315Y202165D02*
X110827D01*
X104331Y203150D02*
X105315Y202165D01*
X104331Y203150D02*
Y210039D01*
X105512Y211221D01*
X362205Y160433D02*
X367520D01*
X362008Y151378D02*
X367520D01*
X361024Y152362D02*
X362008Y151378D01*
X361024Y152362D02*
Y159252D01*
X362205Y160433D01*
X329921Y211221D02*
X335236D01*
X329724Y202165D02*
X335236D01*
X328740Y203150D02*
X329724Y202165D01*
X328740Y203150D02*
Y210039D01*
X329921Y211221D01*
X586614Y160433D02*
X591929D01*
X586417Y151378D02*
X591929D01*
X585433Y152362D02*
X586417Y151378D01*
X585433Y152362D02*
Y159252D01*
X586614Y160433D01*
X554331Y211221D02*
X559646D01*
X554134Y202165D02*
X559646D01*
X553150Y203150D02*
X554134Y202165D01*
X553150Y203150D02*
Y210039D01*
X554331Y211221D01*
X137795Y231299D02*
X143110D01*
X137598Y222244D02*
X143110D01*
X136614Y223228D02*
X137598Y222244D01*
X136614Y223228D02*
Y230118D01*
X137795Y231299D01*
X105512Y282087D02*
X110827D01*
X105315Y273031D02*
X110827D01*
X104331Y274016D02*
X105315Y273031D01*
X104331Y274016D02*
Y280906D01*
X105512Y282087D01*
X362205Y231299D02*
X367520D01*
X362008Y222244D02*
X367520D01*
X361024Y223228D02*
X362008Y222244D01*
X361024Y223228D02*
Y230118D01*
X362205Y231299D01*
X329921Y282087D02*
X335236D01*
X329724Y273031D02*
X335236D01*
X328740Y274016D02*
X329724Y273031D01*
X328740Y274016D02*
Y280906D01*
X329921Y282087D01*
X586614Y231299D02*
X591929D01*
X586417Y222244D02*
X591929D01*
X585433Y223228D02*
X586417Y222244D01*
X585433Y223228D02*
Y230118D01*
X586614Y231299D01*
X554331Y282087D02*
X559646D01*
X554134Y273031D02*
X559646D01*
X553150Y274016D02*
X554134Y273031D01*
X553150Y274016D02*
Y280906D01*
X554331Y282087D01*
X137795Y302165D02*
X143110D01*
X137598Y293110D02*
X143110D01*
X136614Y294094D02*
X137598Y293110D01*
X136614Y294094D02*
Y300984D01*
X137795Y302165D01*
X105512Y352953D02*
X110827D01*
X105315Y343898D02*
X110827D01*
X104331Y344882D02*
X105315Y343898D01*
X104331Y344882D02*
Y351772D01*
X105512Y352953D01*
X362205Y302165D02*
X367520D01*
X362008Y293110D02*
X367520D01*
X361024Y294094D02*
X362008Y293110D01*
X361024Y294094D02*
Y300984D01*
X362205Y302165D01*
X329921Y352953D02*
X335236D01*
X329724Y343898D02*
X335236D01*
X328740Y344882D02*
X329724Y343898D01*
X328740Y344882D02*
Y351772D01*
X329921Y352953D01*
X586614Y302165D02*
X591929D01*
X586417Y293110D02*
X591929D01*
X585433Y294094D02*
X586417Y293110D01*
X585433Y294094D02*
Y300984D01*
X586614Y302165D01*
X554331Y352953D02*
X559646D01*
X554134Y343898D02*
X559646D01*
X553150Y344882D02*
X554134Y343898D01*
X553150Y344882D02*
Y351772D01*
X554331Y352953D01*
D35*
X36220Y48425D02*
X49606D01*
X36220Y60236D02*
X49606D01*
X24347Y54019D02*
X32346D01*
X24347Y37319D02*
X32346D01*
X24347Y47919D02*
Y54019D01*
X32346Y47919D02*
Y54019D01*
Y37319D02*
Y43919D01*
X24347Y37319D02*
Y43919D01*
X24346Y17634D02*
X32346D01*
X24346Y34334D02*
X32346D01*
Y17634D02*
Y23734D01*
X24346Y17634D02*
Y23734D01*
Y27734D02*
Y34334D01*
X32346Y27734D02*
Y34334D01*
X82459Y51118D02*
X89059D01*
X82459Y59118D02*
X89059D01*
X72359D02*
X78459D01*
X72359Y51118D02*
X78459D01*
X89059D02*
Y59118D01*
X72359Y51118D02*
Y59118D01*
X36220Y11024D02*
X49606D01*
X36220Y22835D02*
X49606D01*
X66535Y5118D02*
X79921D01*
X66535Y16929D02*
X79921D01*
X121260Y19291D02*
X134646D01*
X121260Y7480D02*
X134646D01*
X190094Y54413D02*
X198094D01*
X190094Y37713D02*
X198094D01*
X190094Y48313D02*
Y54413D01*
X198094Y48313D02*
Y54413D01*
Y37713D02*
Y44313D01*
X190094Y37713D02*
Y44313D01*
Y16453D02*
X198094D01*
X190094Y33153D02*
X198094D01*
Y16453D02*
Y22553D01*
X190094Y16453D02*
Y22553D01*
Y26553D02*
Y33153D01*
X198094Y26553D02*
Y33153D01*
X162992Y57087D02*
X176378D01*
X162992Y68898D02*
X176378D01*
X36220Y29528D02*
X49606D01*
X36220Y41339D02*
X49606D01*
X172441Y2362D02*
X185827D01*
X172441Y14173D02*
X185827D01*
X70472Y47244D02*
Y60630D01*
X58661Y47244D02*
Y60630D01*
X100000Y9843D02*
Y23228D01*
X111811Y9843D02*
Y23228D01*
X172996Y28709D02*
Y30709D01*
X181996Y34209D02*
Y34709D01*
X172996Y38209D02*
Y40209D01*
Y28709D02*
X177496D01*
X172996Y40209D02*
X177496D01*
X168815Y42457D02*
X174915D01*
X168815Y50457D02*
X174915D01*
X168815Y42457D02*
Y50457D01*
X185515Y42457D02*
Y50457D01*
X179415Y42457D02*
X185515D01*
X179415Y50457D02*
X185515D01*
X179809Y27228D02*
X185909D01*
X179809Y19228D02*
X185909D01*
Y27228D01*
X169209Y19228D02*
Y27228D01*
X175309D01*
X169209Y19228D02*
X175309D01*
X260630Y48425D02*
X274016D01*
X260630Y60236D02*
X274016D01*
X248756Y54019D02*
X256756D01*
X248756Y37319D02*
X256756D01*
X248756Y47919D02*
Y54019D01*
X256756Y47919D02*
Y54019D01*
Y37319D02*
Y43919D01*
X248756Y37319D02*
Y43919D01*
X248756Y17634D02*
X256756D01*
X248756Y34334D02*
X256756D01*
Y17634D02*
Y23734D01*
X248756Y17634D02*
Y23734D01*
Y27734D02*
Y34334D01*
X256756Y27734D02*
Y34334D01*
X306868Y51118D02*
X313468D01*
X306868Y59118D02*
X313468D01*
X296768D02*
X302868D01*
X296768Y51118D02*
X302868D01*
X313468D02*
Y59118D01*
X296768Y51118D02*
Y59118D01*
X260630Y11024D02*
X274016D01*
X260630Y22835D02*
X274016D01*
X290945Y5118D02*
X304331D01*
X290945Y16929D02*
X304331D01*
X345669Y19291D02*
X359055D01*
X345669Y7480D02*
X359055D01*
X414504Y54413D02*
X422504D01*
X414504Y37713D02*
X422504D01*
X414504Y48313D02*
Y54413D01*
X422504Y48313D02*
Y54413D01*
Y37713D02*
Y44313D01*
X414504Y37713D02*
Y44313D01*
Y16453D02*
X422504D01*
X414504Y33153D02*
X422504D01*
Y16453D02*
Y22553D01*
X414504Y16453D02*
Y22553D01*
Y26553D02*
Y33153D01*
X422504Y26553D02*
Y33153D01*
X387402Y57087D02*
X400787D01*
X387402Y68898D02*
X400787D01*
X260630Y29528D02*
X274016D01*
X260630Y41339D02*
X274016D01*
X396850Y2362D02*
X410236D01*
X396850Y14173D02*
X410236D01*
X294882Y47244D02*
Y60630D01*
X283071Y47244D02*
Y60630D01*
X324410Y9843D02*
Y23228D01*
X336221Y9843D02*
Y23228D01*
X397406Y28709D02*
Y30709D01*
X406405Y34209D02*
Y34709D01*
X397406Y38209D02*
Y40209D01*
Y28709D02*
X401905D01*
X397406Y40209D02*
X401905D01*
X393225Y42457D02*
X399325D01*
X393225Y50457D02*
X399325D01*
X393225Y42457D02*
Y50457D01*
X409925Y42457D02*
Y50457D01*
X403825Y42457D02*
X409925D01*
X403825Y50457D02*
X409925D01*
X404218Y27228D02*
X410319D01*
X404218Y19228D02*
X410319D01*
Y27228D01*
X393618Y19228D02*
Y27228D01*
X399718D01*
X393618Y19228D02*
X399718D01*
X485039Y48425D02*
X498425D01*
X485039Y60236D02*
X498425D01*
X473165Y54019D02*
X481165D01*
X473165Y37319D02*
X481165D01*
X473165Y47919D02*
Y54019D01*
X481165Y47919D02*
Y54019D01*
Y37319D02*
Y43919D01*
X473165Y37319D02*
Y43919D01*
X473165Y17634D02*
X481165D01*
X473165Y34334D02*
X481165D01*
Y17634D02*
Y23734D01*
X473165Y17634D02*
Y23734D01*
Y27734D02*
Y34334D01*
X481165Y27734D02*
Y34334D01*
X531278Y51118D02*
X537878D01*
X531278Y59118D02*
X537878D01*
X521178D02*
X527278D01*
X521178Y51118D02*
X527278D01*
X537878D02*
Y59118D01*
X521178Y51118D02*
Y59118D01*
X485039Y11024D02*
X498425D01*
X485039Y22835D02*
X498425D01*
X515354Y5118D02*
X528740D01*
X515354Y16929D02*
X528740D01*
X570079Y19291D02*
X583465D01*
X570079Y7480D02*
X583465D01*
X638913Y54413D02*
X646913D01*
X638913Y37713D02*
X646913D01*
X638913Y48313D02*
Y54413D01*
X646913Y48313D02*
Y54413D01*
Y37713D02*
Y44313D01*
X638913Y37713D02*
Y44313D01*
Y16453D02*
X646913D01*
X638913Y33153D02*
X646913D01*
Y16453D02*
Y22553D01*
X638913Y16453D02*
Y22553D01*
Y26553D02*
Y33153D01*
X646913Y26553D02*
Y33153D01*
X611811Y57087D02*
X625197D01*
X611811Y68898D02*
X625197D01*
X485039Y29528D02*
X498425D01*
X485039Y41339D02*
X498425D01*
X621260Y2362D02*
X634646D01*
X621260Y14173D02*
X634646D01*
X519291Y47244D02*
Y60630D01*
X507480Y47244D02*
Y60630D01*
X548819Y9843D02*
Y23228D01*
X560630Y9843D02*
Y23228D01*
X621815Y28709D02*
Y30709D01*
X630815Y34209D02*
Y34709D01*
X621815Y38209D02*
Y40209D01*
Y28709D02*
X626315D01*
X621815Y40209D02*
X626315D01*
X617634Y42457D02*
X623734D01*
X617634Y50457D02*
X623734D01*
X617634Y42457D02*
Y50457D01*
X634334Y42457D02*
Y50457D01*
X628234Y42457D02*
X634334D01*
X628234Y50457D02*
X634334D01*
X628628Y27228D02*
X634728D01*
X628628Y19228D02*
X634728D01*
Y27228D01*
X618028Y19228D02*
Y27228D01*
X624128D01*
X618028Y19228D02*
X624128D01*
X36220Y119291D02*
X49606D01*
X36220Y131102D02*
X49606D01*
X24347Y124885D02*
X32346D01*
X24347Y108185D02*
X32346D01*
X24347Y118785D02*
Y124885D01*
X32346Y118785D02*
Y124885D01*
Y108185D02*
Y114785D01*
X24347Y108185D02*
Y114785D01*
X24346Y88500D02*
X32346D01*
X24346Y105200D02*
X32346D01*
Y88500D02*
Y94600D01*
X24346Y88500D02*
Y94600D01*
Y98600D02*
Y105200D01*
X32346Y98600D02*
Y105200D01*
X82459Y121984D02*
X89059D01*
X82459Y129984D02*
X89059D01*
X72359D02*
X78459D01*
X72359Y121984D02*
X78459D01*
X89059D02*
Y129984D01*
X72359Y121984D02*
Y129984D01*
X36220Y81890D02*
X49606D01*
X36220Y93701D02*
X49606D01*
X66535Y75984D02*
X79921D01*
X66535Y87795D02*
X79921D01*
X121260Y90158D02*
X134646D01*
X121260Y78347D02*
X134646D01*
X190094Y125279D02*
X198094D01*
X190094Y108579D02*
X198094D01*
X190094Y119179D02*
Y125279D01*
X198094Y119179D02*
Y125279D01*
Y108579D02*
Y115179D01*
X190094Y108579D02*
Y115179D01*
Y87319D02*
X198094D01*
X190094Y104019D02*
X198094D01*
Y87319D02*
Y93419D01*
X190094Y87319D02*
Y93419D01*
Y97419D02*
Y104019D01*
X198094Y97419D02*
Y104019D01*
X162992Y127953D02*
X176378D01*
X162992Y139764D02*
X176378D01*
X36220Y100394D02*
X49606D01*
X36220Y112205D02*
X49606D01*
X172441Y73228D02*
X185827D01*
X172441Y85039D02*
X185827D01*
X70472Y118110D02*
Y131496D01*
X58661Y118110D02*
Y131496D01*
X100000Y80709D02*
Y94095D01*
X111811Y80709D02*
Y94095D01*
X172996Y99575D02*
Y101575D01*
X181996Y105075D02*
Y105575D01*
X172996Y109075D02*
Y111075D01*
Y99575D02*
X177496D01*
X172996Y111075D02*
X177496D01*
X168815Y113323D02*
X174915D01*
X168815Y121323D02*
X174915D01*
X168815Y113323D02*
Y121323D01*
X185515Y113323D02*
Y121323D01*
X179415Y113323D02*
X185515D01*
X179415Y121323D02*
X185515D01*
X179809Y98094D02*
X185909D01*
X179809Y90095D02*
X185909D01*
Y98094D01*
X169209Y90095D02*
Y98094D01*
X175309D01*
X169209Y90095D02*
X175309D01*
X260630Y119291D02*
X274016D01*
X260630Y131102D02*
X274016D01*
X248756Y124885D02*
X256756D01*
X248756Y108185D02*
X256756D01*
X248756Y118785D02*
Y124885D01*
X256756Y118785D02*
Y124885D01*
Y108185D02*
Y114785D01*
X248756Y108185D02*
Y114785D01*
X248756Y88500D02*
X256756D01*
X248756Y105200D02*
X256756D01*
Y88500D02*
Y94600D01*
X248756Y88500D02*
Y94600D01*
Y98600D02*
Y105200D01*
X256756Y98600D02*
Y105200D01*
X306868Y121984D02*
X313468D01*
X306868Y129984D02*
X313468D01*
X296768D02*
X302868D01*
X296768Y121984D02*
X302868D01*
X313468D02*
Y129984D01*
X296768Y121984D02*
Y129984D01*
X260630Y81890D02*
X274016D01*
X260630Y93701D02*
X274016D01*
X290945Y75984D02*
X304331D01*
X290945Y87795D02*
X304331D01*
X345669Y90158D02*
X359055D01*
X345669Y78347D02*
X359055D01*
X414504Y125279D02*
X422504D01*
X414504Y108579D02*
X422504D01*
X414504Y119179D02*
Y125279D01*
X422504Y119179D02*
Y125279D01*
Y108579D02*
Y115179D01*
X414504Y108579D02*
Y115179D01*
Y87319D02*
X422504D01*
X414504Y104019D02*
X422504D01*
Y87319D02*
Y93419D01*
X414504Y87319D02*
Y93419D01*
Y97419D02*
Y104019D01*
X422504Y97419D02*
Y104019D01*
X387402Y127953D02*
X400787D01*
X387402Y139764D02*
X400787D01*
X260630Y100394D02*
X274016D01*
X260630Y112205D02*
X274016D01*
X396850Y73228D02*
X410236D01*
X396850Y85039D02*
X410236D01*
X294882Y118110D02*
Y131496D01*
X283071Y118110D02*
Y131496D01*
X324410Y80709D02*
Y94095D01*
X336221Y80709D02*
Y94095D01*
X397406Y99575D02*
Y101575D01*
X406405Y105075D02*
Y105575D01*
X397406Y109075D02*
Y111075D01*
Y99575D02*
X401905D01*
X397406Y111075D02*
X401905D01*
X393225Y113323D02*
X399325D01*
X393225Y121323D02*
X399325D01*
X393225Y113323D02*
Y121323D01*
X409925Y113323D02*
Y121323D01*
X403825Y113323D02*
X409925D01*
X403825Y121323D02*
X409925D01*
X404218Y98094D02*
X410319D01*
X404218Y90095D02*
X410319D01*
Y98094D01*
X393618Y90095D02*
Y98094D01*
X399718D01*
X393618Y90095D02*
X399718D01*
X485039Y119291D02*
X498425D01*
X485039Y131102D02*
X498425D01*
X473165Y124885D02*
X481165D01*
X473165Y108185D02*
X481165D01*
X473165Y118785D02*
Y124885D01*
X481165Y118785D02*
Y124885D01*
Y108185D02*
Y114785D01*
X473165Y108185D02*
Y114785D01*
X473165Y88500D02*
X481165D01*
X473165Y105200D02*
X481165D01*
Y88500D02*
Y94600D01*
X473165Y88500D02*
Y94600D01*
Y98600D02*
Y105200D01*
X481165Y98600D02*
Y105200D01*
X531278Y121984D02*
X537878D01*
X531278Y129984D02*
X537878D01*
X521178D02*
X527278D01*
X521178Y121984D02*
X527278D01*
X537878D02*
Y129984D01*
X521178Y121984D02*
Y129984D01*
X485039Y81890D02*
X498425D01*
X485039Y93701D02*
X498425D01*
X515354Y75984D02*
X528740D01*
X515354Y87795D02*
X528740D01*
X570079Y90158D02*
X583465D01*
X570079Y78347D02*
X583465D01*
X638913Y125279D02*
X646913D01*
X638913Y108579D02*
X646913D01*
X638913Y119179D02*
Y125279D01*
X646913Y119179D02*
Y125279D01*
Y108579D02*
Y115179D01*
X638913Y108579D02*
Y115179D01*
Y87319D02*
X646913D01*
X638913Y104019D02*
X646913D01*
Y87319D02*
Y93419D01*
X638913Y87319D02*
Y93419D01*
Y97419D02*
Y104019D01*
X646913Y97419D02*
Y104019D01*
X611811Y127953D02*
X625197D01*
X611811Y139764D02*
X625197D01*
X485039Y100394D02*
X498425D01*
X485039Y112205D02*
X498425D01*
X621260Y73228D02*
X634646D01*
X621260Y85039D02*
X634646D01*
X519291Y118110D02*
Y131496D01*
X507480Y118110D02*
Y131496D01*
X548819Y80709D02*
Y94095D01*
X560630Y80709D02*
Y94095D01*
X621815Y99575D02*
Y101575D01*
X630815Y105075D02*
Y105575D01*
X621815Y109075D02*
Y111075D01*
Y99575D02*
X626315D01*
X621815Y111075D02*
X626315D01*
X617634Y113323D02*
X623734D01*
X617634Y121323D02*
X623734D01*
X617634Y113323D02*
Y121323D01*
X634334Y113323D02*
Y121323D01*
X628234Y113323D02*
X634334D01*
X628234Y121323D02*
X634334D01*
X628628Y98094D02*
X634728D01*
X628628Y90095D02*
X634728D01*
Y98094D01*
X618028Y90095D02*
Y98094D01*
X624128D01*
X618028Y90095D02*
X624128D01*
X36220Y190157D02*
X49606D01*
X36220Y201969D02*
X49606D01*
X24347Y195752D02*
X32346D01*
X24347Y179052D02*
X32346D01*
X24347Y189652D02*
Y195752D01*
X32346Y189652D02*
Y195752D01*
Y179052D02*
Y185652D01*
X24347Y179052D02*
Y185652D01*
X24346Y159367D02*
X32346D01*
X24346Y176067D02*
X32346D01*
Y159367D02*
Y165466D01*
X24346Y159367D02*
Y165466D01*
Y169466D02*
Y176067D01*
X32346Y169466D02*
Y176067D01*
X82459Y192850D02*
X89059D01*
X82459Y200850D02*
X89059D01*
X72359D02*
X78459D01*
X72359Y192850D02*
X78459D01*
X89059D02*
Y200850D01*
X72359Y192850D02*
Y200850D01*
X36220Y152756D02*
X49606D01*
X36220Y164567D02*
X49606D01*
X66535Y146850D02*
X79921D01*
X66535Y158661D02*
X79921D01*
X121260Y161024D02*
X134646D01*
X121260Y149213D02*
X134646D01*
X190094Y196145D02*
X198094D01*
X190094Y179445D02*
X198094D01*
X190094Y190045D02*
Y196145D01*
X198094Y190045D02*
Y196145D01*
Y179445D02*
Y186045D01*
X190094Y179445D02*
Y186045D01*
Y158185D02*
X198094D01*
X190094Y174885D02*
X198094D01*
Y158185D02*
Y164285D01*
X190094Y158185D02*
Y164285D01*
Y168285D02*
Y174885D01*
X198094Y168285D02*
Y174885D01*
X162992Y198819D02*
X176378D01*
X162992Y210630D02*
X176378D01*
X36220Y171260D02*
X49606D01*
X36220Y183071D02*
X49606D01*
X172441Y144095D02*
X185827D01*
X172441Y155905D02*
X185827D01*
X70472Y188976D02*
Y202362D01*
X58661Y188976D02*
Y202362D01*
X100000Y151575D02*
Y164961D01*
X111811Y151575D02*
Y164961D01*
X172996Y170441D02*
Y172441D01*
X181996Y175941D02*
Y176441D01*
X172996Y179941D02*
Y181941D01*
Y170441D02*
X177496D01*
X172996Y181941D02*
X177496D01*
X168815Y184189D02*
X174915D01*
X168815Y192189D02*
X174915D01*
X168815Y184189D02*
Y192189D01*
X185515Y184189D02*
Y192189D01*
X179415Y184189D02*
X185515D01*
X179415Y192189D02*
X185515D01*
X179809Y168961D02*
X185909D01*
X179809Y160961D02*
X185909D01*
Y168961D01*
X169209Y160961D02*
Y168961D01*
X175309D01*
X169209Y160961D02*
X175309D01*
X260630Y190157D02*
X274016D01*
X260630Y201969D02*
X274016D01*
X248756Y195752D02*
X256756D01*
X248756Y179052D02*
X256756D01*
X248756Y189652D02*
Y195752D01*
X256756Y189652D02*
Y195752D01*
Y179052D02*
Y185652D01*
X248756Y179052D02*
Y185652D01*
X248756Y159367D02*
X256756D01*
X248756Y176067D02*
X256756D01*
Y159367D02*
Y165466D01*
X248756Y159367D02*
Y165466D01*
Y169466D02*
Y176067D01*
X256756Y169466D02*
Y176067D01*
X306868Y192850D02*
X313468D01*
X306868Y200850D02*
X313468D01*
X296768D02*
X302868D01*
X296768Y192850D02*
X302868D01*
X313468D02*
Y200850D01*
X296768Y192850D02*
Y200850D01*
X260630Y152756D02*
X274016D01*
X260630Y164567D02*
X274016D01*
X290945Y146850D02*
X304331D01*
X290945Y158661D02*
X304331D01*
X345669Y161024D02*
X359055D01*
X345669Y149213D02*
X359055D01*
X414504Y196145D02*
X422504D01*
X414504Y179445D02*
X422504D01*
X414504Y190045D02*
Y196145D01*
X422504Y190045D02*
Y196145D01*
Y179445D02*
Y186045D01*
X414504Y179445D02*
Y186045D01*
Y158185D02*
X422504D01*
X414504Y174885D02*
X422504D01*
Y158185D02*
Y164285D01*
X414504Y158185D02*
Y164285D01*
Y168285D02*
Y174885D01*
X422504Y168285D02*
Y174885D01*
X387402Y198819D02*
X400787D01*
X387402Y210630D02*
X400787D01*
X260630Y171260D02*
X274016D01*
X260630Y183071D02*
X274016D01*
X396850Y144095D02*
X410236D01*
X396850Y155905D02*
X410236D01*
X294882Y188976D02*
Y202362D01*
X283071Y188976D02*
Y202362D01*
X324410Y151575D02*
Y164961D01*
X336221Y151575D02*
Y164961D01*
X397406Y170441D02*
Y172441D01*
X406405Y175941D02*
Y176441D01*
X397406Y179941D02*
Y181941D01*
Y170441D02*
X401905D01*
X397406Y181941D02*
X401905D01*
X393225Y184189D02*
X399325D01*
X393225Y192189D02*
X399325D01*
X393225Y184189D02*
Y192189D01*
X409925Y184189D02*
Y192189D01*
X403825Y184189D02*
X409925D01*
X403825Y192189D02*
X409925D01*
X404218Y168961D02*
X410319D01*
X404218Y160961D02*
X410319D01*
Y168961D01*
X393618Y160961D02*
Y168961D01*
X399718D01*
X393618Y160961D02*
X399718D01*
X485039Y190157D02*
X498425D01*
X485039Y201969D02*
X498425D01*
X473165Y195752D02*
X481165D01*
X473165Y179052D02*
X481165D01*
X473165Y189652D02*
Y195752D01*
X481165Y189652D02*
Y195752D01*
Y179052D02*
Y185652D01*
X473165Y179052D02*
Y185652D01*
X473165Y159367D02*
X481165D01*
X473165Y176067D02*
X481165D01*
Y159367D02*
Y165466D01*
X473165Y159367D02*
Y165466D01*
Y169466D02*
Y176067D01*
X481165Y169466D02*
Y176067D01*
X531278Y192850D02*
X537878D01*
X531278Y200850D02*
X537878D01*
X521178D02*
X527278D01*
X521178Y192850D02*
X527278D01*
X537878D02*
Y200850D01*
X521178Y192850D02*
Y200850D01*
X485039Y152756D02*
X498425D01*
X485039Y164567D02*
X498425D01*
X515354Y146850D02*
X528740D01*
X515354Y158661D02*
X528740D01*
X570079Y161024D02*
X583465D01*
X570079Y149213D02*
X583465D01*
X638913Y196145D02*
X646913D01*
X638913Y179445D02*
X646913D01*
X638913Y190045D02*
Y196145D01*
X646913Y190045D02*
Y196145D01*
Y179445D02*
Y186045D01*
X638913Y179445D02*
Y186045D01*
Y158185D02*
X646913D01*
X638913Y174885D02*
X646913D01*
Y158185D02*
Y164285D01*
X638913Y158185D02*
Y164285D01*
Y168285D02*
Y174885D01*
X646913Y168285D02*
Y174885D01*
X611811Y198819D02*
X625197D01*
X611811Y210630D02*
X625197D01*
X485039Y171260D02*
X498425D01*
X485039Y183071D02*
X498425D01*
X621260Y144095D02*
X634646D01*
X621260Y155905D02*
X634646D01*
X519291Y188976D02*
Y202362D01*
X507480Y188976D02*
Y202362D01*
X548819Y151575D02*
Y164961D01*
X560630Y151575D02*
Y164961D01*
X621815Y170441D02*
Y172441D01*
X630815Y175941D02*
Y176441D01*
X621815Y179941D02*
Y181941D01*
Y170441D02*
X626315D01*
X621815Y181941D02*
X626315D01*
X617634Y184189D02*
X623734D01*
X617634Y192189D02*
X623734D01*
X617634Y184189D02*
Y192189D01*
X634334Y184189D02*
Y192189D01*
X628234Y184189D02*
X634334D01*
X628234Y192189D02*
X634334D01*
X628628Y168961D02*
X634728D01*
X628628Y160961D02*
X634728D01*
Y168961D01*
X618028Y160961D02*
Y168961D01*
X624128D01*
X618028Y160961D02*
X624128D01*
X36220Y261024D02*
X49606D01*
X36220Y272835D02*
X49606D01*
X24347Y266618D02*
X32346D01*
X24347Y249918D02*
X32346D01*
X24347Y260518D02*
Y266618D01*
X32346Y260518D02*
Y266618D01*
Y249918D02*
Y256518D01*
X24347Y249918D02*
Y256518D01*
X24346Y230233D02*
X32346D01*
X24346Y246933D02*
X32346D01*
Y230233D02*
Y236333D01*
X24346Y230233D02*
Y236333D01*
Y240333D02*
Y246933D01*
X32346Y240333D02*
Y246933D01*
X82459Y263717D02*
X89059D01*
X82459Y271716D02*
X89059D01*
X72359D02*
X78459D01*
X72359Y263717D02*
X78459D01*
X89059D02*
Y271716D01*
X72359Y263717D02*
Y271716D01*
X36220Y223622D02*
X49606D01*
X36220Y235433D02*
X49606D01*
X66535Y217717D02*
X79921D01*
X66535Y229528D02*
X79921D01*
X121260Y231890D02*
X134646D01*
X121260Y220079D02*
X134646D01*
X190094Y267011D02*
X198094D01*
X190094Y250311D02*
X198094D01*
X190094Y260911D02*
Y267011D01*
X198094Y260911D02*
Y267011D01*
Y250311D02*
Y256911D01*
X190094Y250311D02*
Y256911D01*
Y229052D02*
X198094D01*
X190094Y245752D02*
X198094D01*
Y229052D02*
Y235152D01*
X190094Y229052D02*
Y235152D01*
Y239152D02*
Y245752D01*
X198094Y239152D02*
Y245752D01*
X162992Y269685D02*
X176378D01*
X162992Y281496D02*
X176378D01*
X36220Y242126D02*
X49606D01*
X36220Y253937D02*
X49606D01*
X172441Y214961D02*
X185827D01*
X172441Y226772D02*
X185827D01*
X70472Y259842D02*
Y273228D01*
X58661Y259842D02*
Y273228D01*
X100000Y222441D02*
Y235827D01*
X111811Y222441D02*
Y235827D01*
X172996Y241307D02*
Y243307D01*
X181996Y246807D02*
Y247307D01*
X172996Y250807D02*
Y252807D01*
Y241307D02*
X177496D01*
X172996Y252807D02*
X177496D01*
X168815Y255055D02*
X174915D01*
X168815Y263055D02*
X174915D01*
X168815Y255055D02*
Y263055D01*
X185515Y255055D02*
Y263055D01*
X179415Y255055D02*
X185515D01*
X179415Y263055D02*
X185515D01*
X179809Y239827D02*
X185909D01*
X179809Y231827D02*
X185909D01*
Y239827D01*
X169209Y231827D02*
Y239827D01*
X175309D01*
X169209Y231827D02*
X175309D01*
X260630Y261024D02*
X274016D01*
X260630Y272835D02*
X274016D01*
X248756Y266618D02*
X256756D01*
X248756Y249918D02*
X256756D01*
X248756Y260518D02*
Y266618D01*
X256756Y260518D02*
Y266618D01*
Y249918D02*
Y256518D01*
X248756Y249918D02*
Y256518D01*
X248756Y230233D02*
X256756D01*
X248756Y246933D02*
X256756D01*
Y230233D02*
Y236333D01*
X248756Y230233D02*
Y236333D01*
Y240333D02*
Y246933D01*
X256756Y240333D02*
Y246933D01*
X306868Y263717D02*
X313468D01*
X306868Y271716D02*
X313468D01*
X296768D02*
X302868D01*
X296768Y263717D02*
X302868D01*
X313468D02*
Y271716D01*
X296768Y263717D02*
Y271716D01*
X260630Y223622D02*
X274016D01*
X260630Y235433D02*
X274016D01*
X290945Y217717D02*
X304331D01*
X290945Y229528D02*
X304331D01*
X345669Y231890D02*
X359055D01*
X345669Y220079D02*
X359055D01*
X414504Y267011D02*
X422504D01*
X414504Y250311D02*
X422504D01*
X414504Y260911D02*
Y267011D01*
X422504Y260911D02*
Y267011D01*
Y250311D02*
Y256911D01*
X414504Y250311D02*
Y256911D01*
Y229052D02*
X422504D01*
X414504Y245752D02*
X422504D01*
Y229052D02*
Y235152D01*
X414504Y229052D02*
Y235152D01*
Y239152D02*
Y245752D01*
X422504Y239152D02*
Y245752D01*
X387402Y269685D02*
X400787D01*
X387402Y281496D02*
X400787D01*
X260630Y242126D02*
X274016D01*
X260630Y253937D02*
X274016D01*
X396850Y214961D02*
X410236D01*
X396850Y226772D02*
X410236D01*
X294882Y259842D02*
Y273228D01*
X283071Y259842D02*
Y273228D01*
X324410Y222441D02*
Y235827D01*
X336221Y222441D02*
Y235827D01*
X397406Y241307D02*
Y243307D01*
X406405Y246807D02*
Y247307D01*
X397406Y250807D02*
Y252807D01*
Y241307D02*
X401905D01*
X397406Y252807D02*
X401905D01*
X393225Y255055D02*
X399325D01*
X393225Y263055D02*
X399325D01*
X393225Y255055D02*
Y263055D01*
X409925Y255055D02*
Y263055D01*
X403825Y255055D02*
X409925D01*
X403825Y263055D02*
X409925D01*
X404218Y239827D02*
X410319D01*
X404218Y231827D02*
X410319D01*
Y239827D01*
X393618Y231827D02*
Y239827D01*
X399718D01*
X393618Y231827D02*
X399718D01*
X485039Y261024D02*
X498425D01*
X485039Y272835D02*
X498425D01*
X473165Y266618D02*
X481165D01*
X473165Y249918D02*
X481165D01*
X473165Y260518D02*
Y266618D01*
X481165Y260518D02*
Y266618D01*
Y249918D02*
Y256518D01*
X473165Y249918D02*
Y256518D01*
X473165Y230233D02*
X481165D01*
X473165Y246933D02*
X481165D01*
Y230233D02*
Y236333D01*
X473165Y230233D02*
Y236333D01*
Y240333D02*
Y246933D01*
X481165Y240333D02*
Y246933D01*
X531278Y263717D02*
X537878D01*
X531278Y271716D02*
X537878D01*
X521178D02*
X527278D01*
X521178Y263717D02*
X527278D01*
X537878D02*
Y271716D01*
X521178Y263717D02*
Y271716D01*
X485039Y223622D02*
X498425D01*
X485039Y235433D02*
X498425D01*
X515354Y217717D02*
X528740D01*
X515354Y229528D02*
X528740D01*
X570079Y231890D02*
X583465D01*
X570079Y220079D02*
X583465D01*
X638913Y267011D02*
X646913D01*
X638913Y250311D02*
X646913D01*
X638913Y260911D02*
Y267011D01*
X646913Y260911D02*
Y267011D01*
Y250311D02*
Y256911D01*
X638913Y250311D02*
Y256911D01*
Y229052D02*
X646913D01*
X638913Y245752D02*
X646913D01*
Y229052D02*
Y235152D01*
X638913Y229052D02*
Y235152D01*
Y239152D02*
Y245752D01*
X646913Y239152D02*
Y245752D01*
X611811Y269685D02*
X625197D01*
X611811Y281496D02*
X625197D01*
X485039Y242126D02*
X498425D01*
X485039Y253937D02*
X498425D01*
X621260Y214961D02*
X634646D01*
X621260Y226772D02*
X634646D01*
X519291Y259842D02*
Y273228D01*
X507480Y259842D02*
Y273228D01*
X548819Y222441D02*
Y235827D01*
X560630Y222441D02*
Y235827D01*
X621815Y241307D02*
Y243307D01*
X630815Y246807D02*
Y247307D01*
X621815Y250807D02*
Y252807D01*
Y241307D02*
X626315D01*
X621815Y252807D02*
X626315D01*
X617634Y255055D02*
X623734D01*
X617634Y263055D02*
X623734D01*
X617634Y255055D02*
Y263055D01*
X634334Y255055D02*
Y263055D01*
X628234Y255055D02*
X634334D01*
X628234Y263055D02*
X634334D01*
X628628Y239827D02*
X634728D01*
X628628Y231827D02*
X634728D01*
Y239827D01*
X618028Y231827D02*
Y239827D01*
X624128D01*
X618028Y231827D02*
X624128D01*
X36220Y331890D02*
X49606D01*
X36220Y343701D02*
X49606D01*
X24347Y337484D02*
X32346D01*
X24347Y320784D02*
X32346D01*
X24347Y331384D02*
Y337484D01*
X32346Y331384D02*
Y337484D01*
Y320784D02*
Y327384D01*
X24347Y320784D02*
Y327384D01*
X24346Y301099D02*
X32346D01*
X24346Y317799D02*
X32346D01*
Y301099D02*
Y307199D01*
X24346Y301099D02*
Y307199D01*
Y311199D02*
Y317799D01*
X32346Y311199D02*
Y317799D01*
X82459Y334583D02*
X89059D01*
X82459Y342583D02*
X89059D01*
X72359D02*
X78459D01*
X72359Y334583D02*
X78459D01*
X89059D02*
Y342583D01*
X72359Y334583D02*
Y342583D01*
X36220Y294488D02*
X49606D01*
X36220Y306299D02*
X49606D01*
X66535Y288583D02*
X79921D01*
X66535Y300394D02*
X79921D01*
X121260Y302756D02*
X134646D01*
X121260Y290945D02*
X134646D01*
X190094Y337878D02*
X198094D01*
X190094Y321178D02*
X198094D01*
X190094Y331778D02*
Y337878D01*
X198094Y331778D02*
Y337878D01*
Y321178D02*
Y327778D01*
X190094Y321178D02*
Y327778D01*
Y299918D02*
X198094D01*
X190094Y316618D02*
X198094D01*
Y299918D02*
Y306018D01*
X190094Y299918D02*
Y306018D01*
Y310018D02*
Y316618D01*
X198094Y310018D02*
Y316618D01*
X162992Y340551D02*
X176378D01*
X162992Y352362D02*
X176378D01*
X36220Y312992D02*
X49606D01*
X36220Y324803D02*
X49606D01*
X172441Y285827D02*
X185827D01*
X172441Y297638D02*
X185827D01*
X70472Y330709D02*
Y344094D01*
X58661Y330709D02*
Y344094D01*
X100000Y293307D02*
Y306693D01*
X111811Y293307D02*
Y306693D01*
X172996Y312173D02*
Y314173D01*
X181996Y317673D02*
Y318173D01*
X172996Y321673D02*
Y323673D01*
Y312173D02*
X177496D01*
X172996Y323673D02*
X177496D01*
X168815Y325921D02*
X174915D01*
X168815Y333921D02*
X174915D01*
X168815Y325921D02*
Y333921D01*
X185515Y325921D02*
Y333921D01*
X179415Y325921D02*
X185515D01*
X179415Y333921D02*
X185515D01*
X179809Y310693D02*
X185909D01*
X179809Y302693D02*
X185909D01*
Y310693D01*
X169209Y302693D02*
Y310693D01*
X175309D01*
X169209Y302693D02*
X175309D01*
X260630Y331890D02*
X274016D01*
X260630Y343701D02*
X274016D01*
X248756Y337484D02*
X256756D01*
X248756Y320784D02*
X256756D01*
X248756Y331384D02*
Y337484D01*
X256756Y331384D02*
Y337484D01*
Y320784D02*
Y327384D01*
X248756Y320784D02*
Y327384D01*
X248756Y301099D02*
X256756D01*
X248756Y317799D02*
X256756D01*
Y301099D02*
Y307199D01*
X248756Y301099D02*
Y307199D01*
Y311199D02*
Y317799D01*
X256756Y311199D02*
Y317799D01*
X306868Y334583D02*
X313468D01*
X306868Y342583D02*
X313468D01*
X296768D02*
X302868D01*
X296768Y334583D02*
X302868D01*
X313468D02*
Y342583D01*
X296768Y334583D02*
Y342583D01*
X260630Y294488D02*
X274016D01*
X260630Y306299D02*
X274016D01*
X290945Y288583D02*
X304331D01*
X290945Y300394D02*
X304331D01*
X345669Y302756D02*
X359055D01*
X345669Y290945D02*
X359055D01*
X414504Y337878D02*
X422504D01*
X414504Y321178D02*
X422504D01*
X414504Y331778D02*
Y337878D01*
X422504Y331778D02*
Y337878D01*
Y321178D02*
Y327778D01*
X414504Y321178D02*
Y327778D01*
Y299918D02*
X422504D01*
X414504Y316618D02*
X422504D01*
Y299918D02*
Y306018D01*
X414504Y299918D02*
Y306018D01*
Y310018D02*
Y316618D01*
X422504Y310018D02*
Y316618D01*
X387402Y340551D02*
X400787D01*
X387402Y352362D02*
X400787D01*
X260630Y312992D02*
X274016D01*
X260630Y324803D02*
X274016D01*
X396850Y285827D02*
X410236D01*
X396850Y297638D02*
X410236D01*
X294882Y330709D02*
Y344094D01*
X283071Y330709D02*
Y344094D01*
X324410Y293307D02*
Y306693D01*
X336221Y293307D02*
Y306693D01*
X397406Y312173D02*
Y314173D01*
X406405Y317673D02*
Y318173D01*
X397406Y321673D02*
Y323673D01*
Y312173D02*
X401905D01*
X397406Y323673D02*
X401905D01*
X393225Y325921D02*
X399325D01*
X393225Y333921D02*
X399325D01*
X393225Y325921D02*
Y333921D01*
X409925Y325921D02*
Y333921D01*
X403825Y325921D02*
X409925D01*
X403825Y333921D02*
X409925D01*
X404218Y310693D02*
X410319D01*
X404218Y302693D02*
X410319D01*
Y310693D01*
X393618Y302693D02*
Y310693D01*
X399718D01*
X393618Y302693D02*
X399718D01*
X485039Y331890D02*
X498425D01*
X485039Y343701D02*
X498425D01*
X473165Y337484D02*
X481165D01*
X473165Y320784D02*
X481165D01*
X473165Y331384D02*
Y337484D01*
X481165Y331384D02*
Y337484D01*
Y320784D02*
Y327384D01*
X473165Y320784D02*
Y327384D01*
X473165Y301099D02*
X481165D01*
X473165Y317799D02*
X481165D01*
Y301099D02*
Y307199D01*
X473165Y301099D02*
Y307199D01*
Y311199D02*
Y317799D01*
X481165Y311199D02*
Y317799D01*
X531278Y334583D02*
X537878D01*
X531278Y342583D02*
X537878D01*
X521178D02*
X527278D01*
X521178Y334583D02*
X527278D01*
X537878D02*
Y342583D01*
X521178Y334583D02*
Y342583D01*
X485039Y294488D02*
X498425D01*
X485039Y306299D02*
X498425D01*
X515354Y288583D02*
X528740D01*
X515354Y300394D02*
X528740D01*
X570079Y302756D02*
X583465D01*
X570079Y290945D02*
X583465D01*
X638913Y337878D02*
X646913D01*
X638913Y321178D02*
X646913D01*
X638913Y331778D02*
Y337878D01*
X646913Y331778D02*
Y337878D01*
Y321178D02*
Y327778D01*
X638913Y321178D02*
Y327778D01*
Y299918D02*
X646913D01*
X638913Y316618D02*
X646913D01*
Y299918D02*
Y306018D01*
X638913Y299918D02*
Y306018D01*
Y310018D02*
Y316618D01*
X646913Y310018D02*
Y316618D01*
X611811Y340551D02*
X625197D01*
X611811Y352362D02*
X625197D01*
X485039Y312992D02*
X498425D01*
X485039Y324803D02*
X498425D01*
X621260Y285827D02*
X634646D01*
X621260Y297638D02*
X634646D01*
X519291Y330709D02*
Y344094D01*
X507480Y330709D02*
Y344094D01*
X548819Y293307D02*
Y306693D01*
X560630Y293307D02*
Y306693D01*
X621815Y312173D02*
Y314173D01*
X630815Y317673D02*
Y318173D01*
X621815Y321673D02*
Y323673D01*
Y312173D02*
X626315D01*
X621815Y323673D02*
X626315D01*
X617634Y325921D02*
X623734D01*
X617634Y333921D02*
X623734D01*
X617634Y325921D02*
Y333921D01*
X634334Y325921D02*
Y333921D01*
X628234Y325921D02*
X634334D01*
X628234Y333921D02*
X634334D01*
X628628Y310693D02*
X634728D01*
X628628Y302693D02*
X634728D01*
Y310693D01*
X618028Y302693D02*
Y310693D01*
X624128D01*
X618028Y302693D02*
X624128D01*
D36*
X98Y56433D02*
X24098D01*
X199917Y14433D02*
X223917D01*
X224508Y56433D02*
X248508D01*
X424327Y14433D02*
X448327D01*
X448917Y56433D02*
X472917D01*
X648736Y14433D02*
X672736D01*
X98Y127299D02*
X24098D01*
X199917Y85299D02*
X223917D01*
X224508Y127299D02*
X248508D01*
X424327Y85299D02*
X448327D01*
X448917Y127299D02*
X472917D01*
X648736Y85299D02*
X672736D01*
X98Y198165D02*
X24098D01*
X199917Y156165D02*
X223917D01*
X224508Y198165D02*
X248508D01*
X424327Y156165D02*
X448327D01*
X448917Y198165D02*
X472917D01*
X648736Y156165D02*
X672736D01*
X98Y269032D02*
X24098D01*
X199917Y227031D02*
X223917D01*
X224508Y269032D02*
X248508D01*
X424327Y227031D02*
X448327D01*
X448917Y269032D02*
X472917D01*
X648736Y227031D02*
X672736D01*
X98Y339898D02*
X24098D01*
X199917Y297898D02*
X223917D01*
X224508Y339898D02*
X248508D01*
X424327Y297898D02*
X448327D01*
X448917Y339898D02*
X472917D01*
X648736Y297898D02*
X672736D01*
D37*
X186811Y2362D02*
Y13386D01*
X191929Y2362D02*
Y13386D01*
X50590Y12205D02*
Y23228D01*
X55709Y12205D02*
Y23228D01*
X182874Y57087D02*
Y68110D01*
X177756Y57087D02*
Y68110D01*
X59842Y62008D02*
X70866D01*
X59842Y67126D02*
X70866D01*
X50984Y48819D02*
Y59842D01*
X56102Y48819D02*
Y59842D01*
X80905Y5906D02*
Y16929D01*
X86024Y5906D02*
Y16929D01*
X76772Y50591D02*
X87795D01*
X76772Y45472D02*
X87795D01*
X76772Y40354D02*
X87795D01*
X76772Y45472D02*
X87795D01*
X76772Y40354D02*
X87795D01*
X76772Y35236D02*
X87795D01*
X76772Y35236D02*
X87795D01*
X76772Y30118D02*
X87795D01*
X87402Y26575D02*
X98425D01*
X87402Y21457D02*
X98425D01*
X87402Y15157D02*
X98425D01*
X87402Y20276D02*
X98425D01*
X101181Y8858D02*
X112205D01*
X101181Y3740D02*
X112205D01*
X120276Y8268D02*
Y19291D01*
X115157Y8268D02*
Y19291D01*
X116142Y28543D02*
X127165D01*
X116142Y33661D02*
X127165D01*
X138583Y69095D02*
X149606D01*
X138583Y63976D02*
X149606D01*
X158071Y46063D02*
Y57087D01*
X152953Y46063D02*
Y57087D01*
X50590Y30709D02*
Y41732D01*
X55709Y30709D02*
Y41732D01*
X411221Y2362D02*
Y13386D01*
X416339Y2362D02*
Y13386D01*
X275000Y12205D02*
Y23228D01*
X280118Y12205D02*
Y23228D01*
X407283Y57087D02*
Y68110D01*
X402165Y57087D02*
Y68110D01*
X284252Y62008D02*
X295276D01*
X284252Y67126D02*
X295276D01*
X275394Y48819D02*
Y59842D01*
X280512Y48819D02*
Y59842D01*
X305315Y5906D02*
Y16929D01*
X310433Y5906D02*
Y16929D01*
X301181Y50591D02*
X312205D01*
X301181Y45472D02*
X312205D01*
X301181Y40354D02*
X312205D01*
X301181Y45472D02*
X312205D01*
X301181Y40354D02*
X312205D01*
X301181Y35236D02*
X312205D01*
X301181Y35236D02*
X312205D01*
X301181Y30118D02*
X312205D01*
X311811Y26575D02*
X322835D01*
X311811Y21457D02*
X322835D01*
X311811Y15157D02*
X322835D01*
X311811Y20276D02*
X322835D01*
X325590Y8858D02*
X336614D01*
X325590Y3740D02*
X336614D01*
X344685Y8268D02*
Y19291D01*
X339567Y8268D02*
Y19291D01*
X340551Y28543D02*
X351575D01*
X340551Y33661D02*
X351575D01*
X362992Y69095D02*
X374016D01*
X362992Y63976D02*
X374016D01*
X382480Y46063D02*
Y57087D01*
X377362Y46063D02*
Y57087D01*
X275000Y30709D02*
Y41732D01*
X280118Y30709D02*
Y41732D01*
X635630Y2362D02*
Y13386D01*
X640748Y2362D02*
Y13386D01*
X499409Y12205D02*
Y23228D01*
X504528Y12205D02*
Y23228D01*
X631693Y57087D02*
Y68110D01*
X626575Y57087D02*
Y68110D01*
X508661Y62008D02*
X519685D01*
X508661Y67126D02*
X519685D01*
X499803Y48819D02*
Y59842D01*
X504921Y48819D02*
Y59842D01*
X529724Y5906D02*
Y16929D01*
X534842Y5906D02*
Y16929D01*
X525591Y50591D02*
X536614D01*
X525591Y45472D02*
X536614D01*
X525591Y40354D02*
X536614D01*
X525591Y45472D02*
X536614D01*
X525591Y40354D02*
X536614D01*
X525591Y35236D02*
X536614D01*
X525591Y35236D02*
X536614D01*
X525591Y30118D02*
X536614D01*
X536221Y26575D02*
X547244D01*
X536221Y21457D02*
X547244D01*
X536221Y15157D02*
X547244D01*
X536221Y20276D02*
X547244D01*
X550000Y8858D02*
X561024D01*
X550000Y3740D02*
X561024D01*
X569095Y8268D02*
Y19291D01*
X563976Y8268D02*
Y19291D01*
X564961Y28543D02*
X575984D01*
X564961Y33661D02*
X575984D01*
X587402Y69095D02*
X598425D01*
X587402Y63976D02*
X598425D01*
X606890Y46063D02*
Y57087D01*
X601772Y46063D02*
Y57087D01*
X499409Y30709D02*
Y41732D01*
X504528Y30709D02*
Y41732D01*
X186811Y73228D02*
Y84252D01*
X191929Y73228D02*
Y84252D01*
X50590Y83071D02*
Y94095D01*
X55709Y83071D02*
Y94095D01*
X182874Y127953D02*
Y138976D01*
X177756Y127953D02*
Y138976D01*
X59842Y132874D02*
X70866D01*
X59842Y137992D02*
X70866D01*
X50984Y119685D02*
Y130709D01*
X56102Y119685D02*
Y130709D01*
X80905Y76772D02*
Y87795D01*
X86024Y76772D02*
Y87795D01*
X76772Y121457D02*
X87795D01*
X76772Y116339D02*
X87795D01*
X76772Y111221D02*
X87795D01*
X76772Y116339D02*
X87795D01*
X76772Y111221D02*
X87795D01*
X76772Y106102D02*
X87795D01*
X76772Y106102D02*
X87795D01*
X76772Y100984D02*
X87795D01*
X87402Y97441D02*
X98425D01*
X87402Y92323D02*
X98425D01*
X87402Y86024D02*
X98425D01*
X87402Y91142D02*
X98425D01*
X101181Y79724D02*
X112205D01*
X101181Y74606D02*
X112205D01*
X120276Y79134D02*
Y90158D01*
X115157Y79134D02*
Y90158D01*
X116142Y99409D02*
X127165D01*
X116142Y104528D02*
X127165D01*
X138583Y139961D02*
X149606D01*
X138583Y134843D02*
X149606D01*
X158071Y116929D02*
Y127953D01*
X152953Y116929D02*
Y127953D01*
X50590Y101575D02*
Y112598D01*
X55709Y101575D02*
Y112598D01*
X411221Y73228D02*
Y84252D01*
X416339Y73228D02*
Y84252D01*
X275000Y83071D02*
Y94095D01*
X280118Y83071D02*
Y94095D01*
X407283Y127953D02*
Y138976D01*
X402165Y127953D02*
Y138976D01*
X284252Y132874D02*
X295276D01*
X284252Y137992D02*
X295276D01*
X275394Y119685D02*
Y130709D01*
X280512Y119685D02*
Y130709D01*
X305315Y76772D02*
Y87795D01*
X310433Y76772D02*
Y87795D01*
X301181Y121457D02*
X312205D01*
X301181Y116339D02*
X312205D01*
X301181Y111221D02*
X312205D01*
X301181Y116339D02*
X312205D01*
X301181Y111221D02*
X312205D01*
X301181Y106102D02*
X312205D01*
X301181Y106102D02*
X312205D01*
X301181Y100984D02*
X312205D01*
X311811Y97441D02*
X322835D01*
X311811Y92323D02*
X322835D01*
X311811Y86024D02*
X322835D01*
X311811Y91142D02*
X322835D01*
X325590Y79724D02*
X336614D01*
X325590Y74606D02*
X336614D01*
X344685Y79134D02*
Y90158D01*
X339567Y79134D02*
Y90158D01*
X340551Y99409D02*
X351575D01*
X340551Y104528D02*
X351575D01*
X362992Y139961D02*
X374016D01*
X362992Y134843D02*
X374016D01*
X382480Y116929D02*
Y127953D01*
X377362Y116929D02*
Y127953D01*
X275000Y101575D02*
Y112598D01*
X280118Y101575D02*
Y112598D01*
X635630Y73228D02*
Y84252D01*
X640748Y73228D02*
Y84252D01*
X499409Y83071D02*
Y94095D01*
X504528Y83071D02*
Y94095D01*
X631693Y127953D02*
Y138976D01*
X626575Y127953D02*
Y138976D01*
X508661Y132874D02*
X519685D01*
X508661Y137992D02*
X519685D01*
X499803Y119685D02*
Y130709D01*
X504921Y119685D02*
Y130709D01*
X529724Y76772D02*
Y87795D01*
X534842Y76772D02*
Y87795D01*
X525591Y121457D02*
X536614D01*
X525591Y116339D02*
X536614D01*
X525591Y111221D02*
X536614D01*
X525591Y116339D02*
X536614D01*
X525591Y111221D02*
X536614D01*
X525591Y106102D02*
X536614D01*
X525591Y106102D02*
X536614D01*
X525591Y100984D02*
X536614D01*
X536221Y97441D02*
X547244D01*
X536221Y92323D02*
X547244D01*
X536221Y86024D02*
X547244D01*
X536221Y91142D02*
X547244D01*
X550000Y79724D02*
X561024D01*
X550000Y74606D02*
X561024D01*
X569095Y79134D02*
Y90158D01*
X563976Y79134D02*
Y90158D01*
X564961Y99409D02*
X575984D01*
X564961Y104528D02*
X575984D01*
X587402Y139961D02*
X598425D01*
X587402Y134843D02*
X598425D01*
X606890Y116929D02*
Y127953D01*
X601772Y116929D02*
Y127953D01*
X499409Y101575D02*
Y112598D01*
X504528Y101575D02*
Y112598D01*
X186811Y144095D02*
Y155118D01*
X191929Y144095D02*
Y155118D01*
X50590Y153937D02*
Y164961D01*
X55709Y153937D02*
Y164961D01*
X182874Y198819D02*
Y209842D01*
X177756Y198819D02*
Y209842D01*
X59842Y203740D02*
X70866D01*
X59842Y208858D02*
X70866D01*
X50984Y190551D02*
Y201575D01*
X56102Y190551D02*
Y201575D01*
X80905Y147638D02*
Y158661D01*
X86024Y147638D02*
Y158661D01*
X76772Y192323D02*
X87795D01*
X76772Y187205D02*
X87795D01*
X76772Y182087D02*
X87795D01*
X76772Y187205D02*
X87795D01*
X76772Y182087D02*
X87795D01*
X76772Y176969D02*
X87795D01*
X76772Y176969D02*
X87795D01*
X76772Y171850D02*
X87795D01*
X87402Y168307D02*
X98425D01*
X87402Y163189D02*
X98425D01*
X87402Y156890D02*
X98425D01*
X87402Y162008D02*
X98425D01*
X101181Y150591D02*
X112205D01*
X101181Y145472D02*
X112205D01*
X120276Y150000D02*
Y161024D01*
X115157Y150000D02*
Y161024D01*
X116142Y170276D02*
X127165D01*
X116142Y175394D02*
X127165D01*
X138583Y210827D02*
X149606D01*
X138583Y205709D02*
X149606D01*
X158071Y187795D02*
Y198819D01*
X152953Y187795D02*
Y198819D01*
X50590Y172441D02*
Y183465D01*
X55709Y172441D02*
Y183465D01*
X411221Y144095D02*
Y155118D01*
X416339Y144095D02*
Y155118D01*
X275000Y153937D02*
Y164961D01*
X280118Y153937D02*
Y164961D01*
X407283Y198819D02*
Y209842D01*
X402165Y198819D02*
Y209842D01*
X284252Y203740D02*
X295276D01*
X284252Y208858D02*
X295276D01*
X275394Y190551D02*
Y201575D01*
X280512Y190551D02*
Y201575D01*
X305315Y147638D02*
Y158661D01*
X310433Y147638D02*
Y158661D01*
X301181Y192323D02*
X312205D01*
X301181Y187205D02*
X312205D01*
X301181Y182087D02*
X312205D01*
X301181Y187205D02*
X312205D01*
X301181Y182087D02*
X312205D01*
X301181Y176969D02*
X312205D01*
X301181Y176969D02*
X312205D01*
X301181Y171850D02*
X312205D01*
X311811Y168307D02*
X322835D01*
X311811Y163189D02*
X322835D01*
X311811Y156890D02*
X322835D01*
X311811Y162008D02*
X322835D01*
X325590Y150591D02*
X336614D01*
X325590Y145472D02*
X336614D01*
X344685Y150000D02*
Y161024D01*
X339567Y150000D02*
Y161024D01*
X340551Y170276D02*
X351575D01*
X340551Y175394D02*
X351575D01*
X362992Y210827D02*
X374016D01*
X362992Y205709D02*
X374016D01*
X382480Y187795D02*
Y198819D01*
X377362Y187795D02*
Y198819D01*
X275000Y172441D02*
Y183465D01*
X280118Y172441D02*
Y183465D01*
X635630Y144095D02*
Y155118D01*
X640748Y144095D02*
Y155118D01*
X499409Y153937D02*
Y164961D01*
X504528Y153937D02*
Y164961D01*
X631693Y198819D02*
Y209842D01*
X626575Y198819D02*
Y209842D01*
X508661Y203740D02*
X519685D01*
X508661Y208858D02*
X519685D01*
X499803Y190551D02*
Y201575D01*
X504921Y190551D02*
Y201575D01*
X529724Y147638D02*
Y158661D01*
X534842Y147638D02*
Y158661D01*
X525591Y192323D02*
X536614D01*
X525591Y187205D02*
X536614D01*
X525591Y182087D02*
X536614D01*
X525591Y187205D02*
X536614D01*
X525591Y182087D02*
X536614D01*
X525591Y176969D02*
X536614D01*
X525591Y176969D02*
X536614D01*
X525591Y171850D02*
X536614D01*
X536221Y168307D02*
X547244D01*
X536221Y163189D02*
X547244D01*
X536221Y156890D02*
X547244D01*
X536221Y162008D02*
X547244D01*
X550000Y150591D02*
X561024D01*
X550000Y145472D02*
X561024D01*
X569095Y150000D02*
Y161024D01*
X563976Y150000D02*
Y161024D01*
X564961Y170276D02*
X575984D01*
X564961Y175394D02*
X575984D01*
X587402Y210827D02*
X598425D01*
X587402Y205709D02*
X598425D01*
X606890Y187795D02*
Y198819D01*
X601772Y187795D02*
Y198819D01*
X499409Y172441D02*
Y183465D01*
X504528Y172441D02*
Y183465D01*
X186811Y214961D02*
Y225984D01*
X191929Y214961D02*
Y225984D01*
X50590Y224803D02*
Y235827D01*
X55709Y224803D02*
Y235827D01*
X182874Y269685D02*
Y280709D01*
X177756Y269685D02*
Y280709D01*
X59842Y274606D02*
X70866D01*
X59842Y279724D02*
X70866D01*
X50984Y261417D02*
Y272441D01*
X56102Y261417D02*
Y272441D01*
X80905Y218504D02*
Y229528D01*
X86024Y218504D02*
Y229528D01*
X76772Y263189D02*
X87795D01*
X76772Y258071D02*
X87795D01*
X76772Y252953D02*
X87795D01*
X76772Y258071D02*
X87795D01*
X76772Y252953D02*
X87795D01*
X76772Y247835D02*
X87795D01*
X76772Y247835D02*
X87795D01*
X76772Y242717D02*
X87795D01*
X87402Y239173D02*
X98425D01*
X87402Y234055D02*
X98425D01*
X87402Y227756D02*
X98425D01*
X87402Y232874D02*
X98425D01*
X101181Y221457D02*
X112205D01*
X101181Y216339D02*
X112205D01*
X120276Y220866D02*
Y231890D01*
X115157Y220866D02*
Y231890D01*
X116142Y241142D02*
X127165D01*
X116142Y246260D02*
X127165D01*
X138583Y281693D02*
X149606D01*
X138583Y276575D02*
X149606D01*
X158071Y258661D02*
Y269685D01*
X152953Y258661D02*
Y269685D01*
X50590Y243307D02*
Y254331D01*
X55709Y243307D02*
Y254331D01*
X411221Y214961D02*
Y225984D01*
X416339Y214961D02*
Y225984D01*
X275000Y224803D02*
Y235827D01*
X280118Y224803D02*
Y235827D01*
X407283Y269685D02*
Y280709D01*
X402165Y269685D02*
Y280709D01*
X284252Y274606D02*
X295276D01*
X284252Y279724D02*
X295276D01*
X275394Y261417D02*
Y272441D01*
X280512Y261417D02*
Y272441D01*
X305315Y218504D02*
Y229528D01*
X310433Y218504D02*
Y229528D01*
X301181Y263189D02*
X312205D01*
X301181Y258071D02*
X312205D01*
X301181Y252953D02*
X312205D01*
X301181Y258071D02*
X312205D01*
X301181Y252953D02*
X312205D01*
X301181Y247835D02*
X312205D01*
X301181Y247835D02*
X312205D01*
X301181Y242717D02*
X312205D01*
X311811Y239173D02*
X322835D01*
X311811Y234055D02*
X322835D01*
X311811Y227756D02*
X322835D01*
X311811Y232874D02*
X322835D01*
X325590Y221457D02*
X336614D01*
X325590Y216339D02*
X336614D01*
X344685Y220866D02*
Y231890D01*
X339567Y220866D02*
Y231890D01*
X340551Y241142D02*
X351575D01*
X340551Y246260D02*
X351575D01*
X362992Y281693D02*
X374016D01*
X362992Y276575D02*
X374016D01*
X382480Y258661D02*
Y269685D01*
X377362Y258661D02*
Y269685D01*
X275000Y243307D02*
Y254331D01*
X280118Y243307D02*
Y254331D01*
X635630Y214961D02*
Y225984D01*
X640748Y214961D02*
Y225984D01*
X499409Y224803D02*
Y235827D01*
X504528Y224803D02*
Y235827D01*
X631693Y269685D02*
Y280709D01*
X626575Y269685D02*
Y280709D01*
X508661Y274606D02*
X519685D01*
X508661Y279724D02*
X519685D01*
X499803Y261417D02*
Y272441D01*
X504921Y261417D02*
Y272441D01*
X529724Y218504D02*
Y229528D01*
X534842Y218504D02*
Y229528D01*
X525591Y263189D02*
X536614D01*
X525591Y258071D02*
X536614D01*
X525591Y252953D02*
X536614D01*
X525591Y258071D02*
X536614D01*
X525591Y252953D02*
X536614D01*
X525591Y247835D02*
X536614D01*
X525591Y247835D02*
X536614D01*
X525591Y242717D02*
X536614D01*
X536221Y239173D02*
X547244D01*
X536221Y234055D02*
X547244D01*
X536221Y227756D02*
X547244D01*
X536221Y232874D02*
X547244D01*
X550000Y221457D02*
X561024D01*
X550000Y216339D02*
X561024D01*
X569095Y220866D02*
Y231890D01*
X563976Y220866D02*
Y231890D01*
X564961Y241142D02*
X575984D01*
X564961Y246260D02*
X575984D01*
X587402Y281693D02*
X598425D01*
X587402Y276575D02*
X598425D01*
X606890Y258661D02*
Y269685D01*
X601772Y258661D02*
Y269685D01*
X499409Y243307D02*
Y254331D01*
X504528Y243307D02*
Y254331D01*
X186811Y285827D02*
Y296850D01*
X191929Y285827D02*
Y296850D01*
X50590Y295669D02*
Y306693D01*
X55709Y295669D02*
Y306693D01*
X182874Y340551D02*
Y351575D01*
X177756Y340551D02*
Y351575D01*
X59842Y345472D02*
X70866D01*
X59842Y350590D02*
X70866D01*
X50984Y332283D02*
Y343307D01*
X56102Y332283D02*
Y343307D01*
X80905Y289370D02*
Y300394D01*
X86024Y289370D02*
Y300394D01*
X76772Y334055D02*
X87795D01*
X76772Y328937D02*
X87795D01*
X76772Y323819D02*
X87795D01*
X76772Y328937D02*
X87795D01*
X76772Y323819D02*
X87795D01*
X76772Y318701D02*
X87795D01*
X76772Y318701D02*
X87795D01*
X76772Y313583D02*
X87795D01*
X87402Y310039D02*
X98425D01*
X87402Y304921D02*
X98425D01*
X87402Y298622D02*
X98425D01*
X87402Y303740D02*
X98425D01*
X101181Y292323D02*
X112205D01*
X101181Y287205D02*
X112205D01*
X120276Y291732D02*
Y302756D01*
X115157Y291732D02*
Y302756D01*
X116142Y312008D02*
X127165D01*
X116142Y317126D02*
X127165D01*
X138583Y352559D02*
X149606D01*
X138583Y347441D02*
X149606D01*
X158071Y329528D02*
Y340551D01*
X152953Y329528D02*
Y340551D01*
X50590Y314173D02*
Y325197D01*
X55709Y314173D02*
Y325197D01*
X411221Y285827D02*
Y296850D01*
X416339Y285827D02*
Y296850D01*
X275000Y295669D02*
Y306693D01*
X280118Y295669D02*
Y306693D01*
X407283Y340551D02*
Y351575D01*
X402165Y340551D02*
Y351575D01*
X284252Y345472D02*
X295276D01*
X284252Y350590D02*
X295276D01*
X275394Y332283D02*
Y343307D01*
X280512Y332283D02*
Y343307D01*
X305315Y289370D02*
Y300394D01*
X310433Y289370D02*
Y300394D01*
X301181Y334055D02*
X312205D01*
X301181Y328937D02*
X312205D01*
X301181Y323819D02*
X312205D01*
X301181Y328937D02*
X312205D01*
X301181Y323819D02*
X312205D01*
X301181Y318701D02*
X312205D01*
X301181Y318701D02*
X312205D01*
X301181Y313583D02*
X312205D01*
X311811Y310039D02*
X322835D01*
X311811Y304921D02*
X322835D01*
X311811Y298622D02*
X322835D01*
X311811Y303740D02*
X322835D01*
X325590Y292323D02*
X336614D01*
X325590Y287205D02*
X336614D01*
X344685Y291732D02*
Y302756D01*
X339567Y291732D02*
Y302756D01*
X340551Y312008D02*
X351575D01*
X340551Y317126D02*
X351575D01*
X362992Y352559D02*
X374016D01*
X362992Y347441D02*
X374016D01*
X382480Y329528D02*
Y340551D01*
X377362Y329528D02*
Y340551D01*
X275000Y314173D02*
Y325197D01*
X280118Y314173D02*
Y325197D01*
X635630Y285827D02*
Y296850D01*
X640748Y285827D02*
Y296850D01*
X499409Y295669D02*
Y306693D01*
X504528Y295669D02*
Y306693D01*
X631693Y340551D02*
Y351575D01*
X626575Y340551D02*
Y351575D01*
X508661Y345472D02*
X519685D01*
X508661Y350590D02*
X519685D01*
X499803Y332283D02*
Y343307D01*
X504921Y332283D02*
Y343307D01*
X529724Y289370D02*
Y300394D01*
X534842Y289370D02*
Y300394D01*
X525591Y334055D02*
X536614D01*
X525591Y328937D02*
X536614D01*
X525591Y323819D02*
X536614D01*
X525591Y328937D02*
X536614D01*
X525591Y323819D02*
X536614D01*
X525591Y318701D02*
X536614D01*
X525591Y318701D02*
X536614D01*
X525591Y313583D02*
X536614D01*
X536221Y310039D02*
X547244D01*
X536221Y304921D02*
X547244D01*
X536221Y298622D02*
X547244D01*
X536221Y303740D02*
X547244D01*
X550000Y292323D02*
X561024D01*
X550000Y287205D02*
X561024D01*
X569095Y291732D02*
Y302756D01*
X563976Y291732D02*
Y302756D01*
X564961Y312008D02*
X575984D01*
X564961Y317126D02*
X575984D01*
X587402Y352559D02*
X598425D01*
X587402Y347441D02*
X598425D01*
X606890Y329528D02*
Y340551D01*
X601772Y329528D02*
Y340551D01*
X499409Y314173D02*
Y325197D01*
X504528Y314173D02*
Y325197D01*
M02*
