M48
;Layer_Color=9474304
;FILE_FORMAT=2:5
INCH,LZ
;TYPE=PLATED
T1F00S00C0.01575
T2F00S00C0.02756
T3F00S00C0.03150
T4F00S00C0.04000
%
T01
X003937Y0022835
X0034252Y0035433
X0038189Y0048425
X0054724Y004685
X0069291Y0049213
X008937Y0040945
X0092913Y0020866
X0085433Y0019291
X0080315Y0022441
X007559Y0018504
X0063779Y0011024
X005748Y0010236
X0053937Y0025591
X0091732Y0011811
X009685Y0012992
X0112992Y0014173
X0112205Y0019685
X0117323Y0023228
X0127165Y0022441
X0131496Y0018898
X013937Y0020866
X014685Y0022835
X0158661Y0020079
X0164961Y0023228
X0173228Y0016929
X0178347Y0016535
X0170866Y0004331
X018937Y0035433
X0153543Y0037402
X0151575Y0048425
X016063Y0047638
X0164173Y0049606
X0262598Y0048425
X0258661Y0035433
X0263779Y0022835
X0278346Y0025591
X028189Y0010236
X0288189Y0011024
X03Y0018504
X0304724Y0022441
X0309842Y0019291
X0317323Y0020866
X0316142Y0011811
X032126Y0012992
X0337402Y0014173
X0336614Y0019685
X0341732Y0023228
X0351575Y0022441
X0355906Y0018898
X0363779Y0020866
X0313779Y0040945
X0293701Y0049213
X0279134Y004685
X0375984Y0048425
X0385039Y0047638
X0388583Y0049606
X0377953Y0037402
X037126Y0022835
X0383071Y0020079
X038937Y0023228
X0397638Y0016929
X0402756Y0016535
X0395276Y0004331
X0413779Y0035433
X0483071
X0487008Y0048425
X0503543Y004685
X051811Y0049213
X0502756Y0025591
X0488189Y0022835
X0506299Y0010236
X0512598Y0011024
X0524409Y0018504
X0529134Y0022441
X0534252Y0019291
X0541732Y0020866
X0540551Y0011811
X0545669Y0012992
X0561811Y0014173
X0561024Y0019685
X0566142Y0023228
X0575984Y0022441
X0580315Y0018898
X0588189Y0020866
X0595669Y0022835
X060748Y0020079
X0613779Y0023228
X0622047Y0016929
X0627165Y0016535
X0619685Y0004331
X0638189Y0035433
X0602362Y0037402
X0600394Y0048425
X0609449Y0047638
X0612992Y0049606
X0538189Y0040945
X0540551Y0052362
X0545276Y005315
X0551968Y0055512
X0556693Y0053543
X0561811Y0085039
X0561024Y0090551
X0566142Y0094095
X0575984Y0093307
X0580315Y0089764
X0588189Y0091732
X0595669Y0093701
X060748Y0090945
X0613779Y0094095
X0622047Y0087795
X0627165Y0087402
X0619685Y0075197
X0622047Y0055512
X0630315Y005315
X0634646Y0065354
X0604331Y0058661
X0596063Y0061811
X0595669Y0052362
X0602362Y0108268
X0600394Y0119291
X0595669Y0123228
X0596063Y0132677
X0604331Y0129528
X0609449Y0118504
X0612992Y0120472
X0622047Y0126378
X0630315Y0124016
X0634646Y0136221
X0619685Y0146063
X0622047Y0158661
X0627165Y0158268
X0613779Y0164961
X060748Y0161811
X0595669Y0164567
X0588189Y0162598
X0580315Y016063
X0575984Y0164173
X0566142Y0164961
X0561024Y0161417
X0561811Y0155905
X0545669Y0154724
X0540551Y0153543
X0541732Y0162598
X0534252Y0161024
X0529134Y0164173
X0524409Y0160236
X0524803Y0132283
X0540551Y0123228
X0545276Y0124016
X0551968Y0126378
X0556693Y0124409
X0538189Y0111811
X0541732Y0091732
X0534252Y0090158
X0529134Y0093307
X0524409Y008937
X0540551Y0082677
X0545669Y0083858
X0524803Y0061417
X0538189Y0182677
X0540551Y0194095
X0545276Y0194882
X0551968Y0197244
X0556693Y0195276
X0524803Y020315
X0596063Y0203543
X0595669Y0194095
X0600394Y0190157
X0609449Y018937
X0612992Y0191339
X0622047Y0197244
X0630315Y0194882
X0634646Y0207087
X0638189Y0177165
X0602362Y0179134
X0604331Y0200394
X0638189Y0106299
X051811Y0120079
X0503543Y0117717
X0502362Y0133465
X0506299Y0151969
X0512598Y0152756
X0502756Y0167323
X0488189Y0164567
X0483071Y0177165
X0487008Y0190157
X0503543Y0188583
X051811Y0190945
X0502362Y0204331
X0410236Y0207087
X0405905Y0194882
X0397638Y0197244
X0388583Y0191339
X0385039Y018937
X0375984Y0190157
X037126Y0194095
X0371654Y0203543
X0379921Y0200394
X0377953Y0179134
X037126Y0164567
X0383071Y0161811
X038937Y0164961
X0397638Y0158661
X0402756Y0158268
X0395276Y0146063
X0397638Y0126378
X0405905Y0124016
X0410236Y0136221
X0413779Y0106299
X0402756Y0087402
X0397638Y0087795
X038937Y0094095
X0383071Y0090945
X037126Y0093701
X0377953Y0108268
X0375984Y0119291
X037126Y0123228
X0371654Y0132677
X0379921Y0129528
X0385039Y0118504
X0388583Y0120472
X0395276Y0075197
X0397638Y0055512
X0405905Y005315
X0410236Y0065354
X0379921Y0058661
X0371654Y0061811
X037126Y0052362
X0502362Y0062598
X0506299Y0081102
X0512598Y008189
X0502756Y0096457
X0488189Y0093701
X0483071Y0106299
X0487008Y0119291
X0413779Y0177165
X0363779Y0162598
X0355906Y016063
X0351575Y0164173
X0341732Y0164961
X0336614Y0161417
X0337402Y0155905
X032126Y0154724
X0316142Y0153543
X0317323Y0162598
X0309842Y0161024
X0304724Y0164173
X03Y0160236
X0288189Y0152756
X028189Y0151969
X0278346Y0167323
X0263779Y0164567
X0258661Y0177165
X0262598Y0190157
X0279134Y0188583
X0293701Y0190945
X0300394Y020315
X0277953Y0204331
X0316142Y0194095
X0320866Y0194882
X0327559Y0197244
X0332283Y0195276
X0313779Y0182677
X0316142Y0123228
X0320866Y0124016
X0327559Y0126378
X0332283Y0124409
X0313779Y0111811
X0317323Y0091732
X0309842Y0090158
X0304724Y0093307
X03Y008937
X0288189Y008189
X028189Y0081102
X0278346Y0096457
X0263779Y0093701
X0258661Y0106299
X0262598Y0119291
X0279134Y0117717
X0293701Y0120079
X0300394Y0132283
X0277953Y0133465
Y0062598
X0300394Y0061417
X0316142Y0052362
X0320866Y005315
X0327559Y0055512
X0332283Y0053543
X0337402Y0085039
X0336614Y0090551
X0341732Y0094095
X0351575Y0093307
X0355906Y0089764
X0363779Y0091732
X032126Y0083858
X0316142Y0082677
X0178347Y0087402
X0173228Y0087795
X0164961Y0094095
X0158661Y0090945
X014685Y0093701
X013937Y0091732
X0131496Y0089764
X0127165Y0093307
X0117323Y0094095
X0112205Y0090551
X0112992Y0085039
X009685Y0083858
X0091732Y0082677
X0092913Y0091732
X0085433Y0090158
X0080315Y0093307
X007559Y008937
X0063779Y008189
X005748Y0081102
X0053937Y0096457
X0054724Y0117717
X0069291Y0120079
X0075984Y0132283
X0053543Y0133465
X005748Y0151969
X0063779Y0152756
X007559Y0160236
X0080315Y0164173
X0085433Y0161024
X0092913Y0162598
X0091732Y0153543
X009685Y0154724
X0112992Y0155905
X0112205Y0161417
X0117323Y0164961
X0127165Y0164173
X0131496Y016063
X013937Y0162598
X014685Y0164567
X0158661Y0161811
X0164961Y0164961
X0173228Y0158661
X0178347Y0158268
X0170866Y0146063
X0173228Y0126378
X0181496Y0124016
X0185827Y0136221
X018937Y0106299
X0153543Y0108268
X0151575Y0119291
X014685Y0123228
X0147244Y0132677
X0155512Y0129528
X016063Y0118504
X0164173Y0120472
X0170866Y0075197
X0173228Y0055512
X0181496Y005315
X0185827Y0065354
X0155512Y0058661
X0147244Y0061811
X014685Y0052362
X0107874Y0053543
X010315Y0055512
X0096457Y005315
X0091732Y0052362
X0075984Y0061417
X0053543Y0062598
X008937Y0111811
X0091732Y0123228
X0096457Y0124016
X010315Y0126378
X0107874Y0124409
Y0195276
X010315Y0197244
X0096457Y0194882
X0091732Y0194095
X008937Y0182677
X0069291Y0190945
X0054724Y0188583
X0053543Y0204331
X0075984Y020315
X0053937Y0167323
X0153543Y0179134
X0151575Y0190157
X014685Y0194095
X0147244Y0203543
X0155512Y0200394
X016063Y018937
X0164173Y0191339
X0173228Y0197244
X0181496Y0194882
X0185827Y0207087
X018937Y0177165
X0034252
X0038189Y0190157
X003937Y0164567
X0038189Y0119291
X0034252Y0106299
X003937Y0093701
Y0235433
X0034252Y0248031
X0038189Y0261024
X003937Y0306299
X0034252Y0318898
X0038189Y033189
X0054724Y0330315
X0069291Y0332677
X0075984Y0344882
X0053543Y0346063
X0053937Y0309055
X005748Y0293701
X0063779Y0294488
X007559Y0301969
X0080315Y0305906
X0085433Y0302756
X0092913Y0304331
X0091732Y0295276
X009685Y0296457
X0112992Y0297638
X0112205Y030315
X0117323Y0306693
X0127165Y0305906
X0131496Y0302362
X013937Y0304331
X014685Y0306299
X0158661Y0303543
X0164961Y0306693
X0173228Y0300394
X0178347Y03
X0170866Y0287795
X0173228Y026811
X0181496Y0265748
X0185827Y0277953
X018937Y0248031
X0178347Y0229134
X0173228Y0229528
X0164961Y0235827
X0158661Y0232677
X014685Y0235433
X013937Y0233465
X0131496Y0231496
X0127165Y0235039
X0117323Y0235827
X0112205Y0232283
X0112992Y0226772
X009685Y022559
X0091732Y0224409
X0092913Y0233465
X0085433Y023189
X0080315Y0235039
X007559Y0231102
X0063779Y0223622
X005748Y0222835
X0053937Y0238189
X0054724Y0259449
X0069291Y0261811
X0075984Y0274016
X0053543Y0275197
X0091732Y0264961
X0096457Y0265748
X010315Y026811
X0107874Y0266142
X008937Y0253543
X0153543Y025
X0151575Y0261024
X014685Y0264961
X0147244Y0274409
X0155512Y027126
X016063Y0260236
X0164173Y0262205
X0170866Y0216929
X018937Y0318898
X0181496Y0336614
X0173228Y0338976
X0164173Y0333071
X016063Y0331102
X0151575Y033189
X014685Y0335827
X0147244Y0345276
X0155512Y0342126
X0153543Y0320866
X0185827Y0348819
X0107874Y0337008
X010315Y0338976
X0096457Y0336614
X0091732Y0335827
X008937Y0324409
X0258661Y0318898
X0262598Y033189
X0279134Y0330315
X0293701Y0332677
X0300394Y0344882
X0277953Y0346063
X0278346Y0309055
X0263779Y0306299
X028189Y0293701
X0288189Y0294488
X03Y0301969
X0304724Y0305906
X0309842Y0302756
X0317323Y0304331
X0316142Y0295276
X032126Y0296457
X0337402Y0297638
X0336614Y030315
X0341732Y0306693
X0351575Y0305906
X0355906Y0302362
X0363779Y0304331
X0332283Y0337008
X0327559Y0338976
X0320866Y0336614
X0316142Y0335827
X0313779Y0324409
X0316142Y0264961
X0320866Y0265748
X0327559Y026811
X0332283Y0266142
X0313779Y0253543
X0317323Y0233465
X0309842Y023189
X0304724Y0235039
X03Y0231102
X0288189Y0223622
X028189Y0222835
X0278346Y0238189
X0263779Y0235433
X0258661Y0248031
X0262598Y0261024
X0279134Y0259449
X0293701Y0261811
X0300394Y0274016
X0277953Y0275197
X0316142Y0224409
X032126Y022559
X0337402Y0226772
X0336614Y0232283
X0341732Y0235827
X0351575Y0235039
X0355906Y0231496
X0363779Y0233465
X037126Y0235433
X0383071Y0232677
X038937Y0235827
X0397638Y0229528
X0402756Y0229134
X0395276Y0216929
X0413779Y0248031
X0405905Y0265748
X0397638Y026811
X0388583Y0262205
X0385039Y0260236
X0375984Y0261024
X037126Y0264961
X0371654Y0274409
X0379921Y027126
X0377953Y025
X0395276Y0287795
X0397638Y0300394
X0402756Y03
X038937Y0306693
X0383071Y0303543
X037126Y0306299
X0377953Y0320866
X0375984Y033189
X037126Y0335827
X0371654Y0345276
X0379921Y0342126
X0385039Y0331102
X0388583Y0333071
X0397638Y0338976
X0405905Y0336614
X0410236Y0348819
X0413779Y0318898
X0410236Y0277953
X0487008Y0261024
X0483071Y0248031
X0488189Y0235433
X0502756Y0238189
X0506299Y0222835
X0512598Y0223622
X051811Y0261811
X0503543Y0259449
X0502362Y0275197
X0506299Y0293701
X0512598Y0294488
X0502756Y0309055
X0488189Y0306299
X0483071Y0318898
X0487008Y033189
X0503543Y0330315
X051811Y0332677
X0502362Y0346063
X0524803Y0344882
X0540551Y0335827
X0545276Y0336614
X0551968Y0338976
X0556693Y0337008
X0538189Y0324409
X0541732Y0304331
X0534252Y0302756
X0529134Y0305906
X0524409Y0301969
X0540551Y0295276
X0545669Y0296457
X0561811Y0297638
X0561024Y030315
X0566142Y0306693
X0575984Y0305906
X0580315Y0302362
X0588189Y0304331
X0595669Y0306299
X060748Y0303543
X0613779Y0306693
X0622047Y0300394
X0627165Y03
X0619685Y0287795
X0622047Y026811
X0630315Y0265748
X0634646Y0277953
X0638189Y0248031
X0627165Y0229134
X0622047Y0229528
X0613779Y0235827
X060748Y0232677
X0595669Y0235433
X0588189Y0233465
X0580315Y0231496
X0575984Y0235039
X0566142Y0235827
X0561024Y0232283
X0561811Y0226772
X0545669Y022559
X0540551Y0224409
X0541732Y0233465
X0534252Y023189
X0529134Y0235039
X0524409Y0231102
X0538189Y0253543
X0540551Y0264961
X0545276Y0265748
X0551968Y026811
X0556693Y0266142
X0524803Y0274016
X0596063Y0274409
X0595669Y0264961
X0600394Y0261024
X0609449Y0260236
X0612992Y0262205
X0604331Y027126
X0602362Y025
X0619685Y0216929
X0638189Y0318898
X0630315Y0336614
X0622047Y0338976
X0612992Y0333071
X0609449Y0331102
X0600394Y033189
X0595669Y0335827
X0596063Y0345276
X0604331Y0342126
X0602362Y0320866
X0634646Y0348819
T02
X0140945Y0014173
X0148819
X0156693
X0164567
X0365354
X0373228
X0381102
X0388976
X0589764
X0597638
X0605512
X0613386
Y0085039
X0605512
X0597638
X0589764
X0581102Y0064961
X0573228
X0565354
X055748
Y0135827
X0565354
X0573228
X0581102
X0589764Y0155905
X0597638
X0605512
X0613386
X0581102Y0206693
X0573228
X0565354
X055748
X0388976Y0155905
X0381102
X0373228
Y0085039
X0381102
X0388976
X0365354
X0356693Y0064961
X0348819
X0340945
X0333071
Y0135827
X0340945
X0348819
X0356693
X0365354Y0155905
X0356693Y0206693
X0348819
X0340945
X0333071
X0132283
X0124409
X0116535
X0108661
Y0135827
X0116535
X0124409
X0132283
X0140945Y0155905
X0148819
X0156693
X0164567
Y0085039
X0156693
X0148819
X0140945
X0132283Y0064961
X0124409
X0116535
X0108661
X0140945Y0226772
X0148819
X0156693
X0164567
Y0297638
X0156693
X0148819
X0140945
X0132283Y0277559
X0124409
X0116535
X0108661
Y0348425
X0116535
X0124409
X0132283
X0333071
X0340945
X0348819
X0356693
X0365354Y0297638
X0356693Y0277559
X0348819
X0340945
X0333071
X0365354Y0226772
X0373228
X0381102
X0388976
Y0297638
X0381102
X0373228
X055748Y0277559
X0565354
X0573228
X0581102
X0589764Y0297638
X0597638
X0605512
X0613386
Y0226772
X0605512
X0597638
X0589764
X0581102Y0348425
X0573228
X0565354
X055748
T03
X0028346Y0021734
Y0030234
X0028346Y0041419
Y0049919
X0194095Y0050313
Y0041813
Y0029053
Y0020553
X0252756Y0021734
Y0030234
X0252756Y0041419
Y0049919
X0418504Y0050313
Y0041813
Y0029053
Y0020553
X0477165Y0021734
Y0030234
X0477165Y0041419
Y0049919
X0642913Y0050313
Y0041813
Y0029053
Y0020553
Y0091419
Y0099919
Y0112679
Y0121179
Y0162285
Y0170785
Y0183545
Y0192045
X0477165Y0191652
Y0183152
X0477165Y0171967
Y0163467
X0477165Y0120785
Y0112285
X0477165Y01011
Y00926
X0418504Y0091419
Y0099919
Y0112679
Y0121179
Y0162285
Y0170785
Y0183545
Y0192045
X0252756Y0191652
Y0183152
X0252756Y0171967
Y0163467
X0252756Y0120785
Y0112285
X0252756Y01011
Y00926
X0194095Y0091419
Y0099919
Y0112679
Y0121179
Y0162285
Y0170785
Y0183545
Y0192045
X0028346Y0191652
Y0183152
X0028346Y0171967
Y0163467
X0028346Y0120785
Y0112285
X0028346Y01011
Y00926
Y0234333
Y0242833
X0028346Y0254018
Y0262518
X0028346Y0305199
Y0313699
X0028346Y0324884
Y0333384
X0194095Y0333778
Y0325278
Y0312518
Y0304018
Y0262911
Y0254411
Y0241652
Y0233152
X0252756Y0234333
Y0242833
X0252756Y0254018
Y0262518
X0252756Y0305199
Y0313699
X0252756Y0324884
Y0333384
X0418504Y0333778
Y0325278
Y0312518
Y0304018
Y0262911
Y0254411
Y0241652
Y0233152
X0477165Y0234333
Y0242833
X0477165Y0254018
Y0262518
X0477165Y0305199
Y0313699
X0477165Y0324884
Y0333384
X0642913Y0333778
Y0325278
Y0312518
Y0304018
Y0262911
Y0254411
Y0241652
Y0233152
T04
X0012598Y0020433
Y0030433
Y0040433
Y0050433
X0211417Y0050433
Y0040433
Y0030433
Y0020433
X0237008Y0020433
Y0030433
Y0040433
Y0050433
X0435827Y0050433
Y0040433
Y0030433
Y0020433
X0461417Y0020433
Y0030433
Y0040433
Y0050433
X0660236Y0050433
Y0040433
Y0030433
Y0020433
Y0091299
Y0101299
Y0111299
Y0121299
Y0162165
Y0172165
Y0182165
Y0192165
X0461417Y0192165
Y0182165
Y0172165
Y0162165
X0435827Y0162165
Y0172165
Y0182165
Y0192165
Y0121299
Y0111299
Y0101299
Y0091299
X0461417Y0091299
Y0101299
Y0111299
Y0121299
X0237008
Y0111299
Y0101299
Y0091299
X0211417Y0091299
Y0101299
Y0111299
Y0121299
Y0162165
Y0172165
Y0182165
Y0192165
X0237008Y0192165
Y0182165
Y0172165
Y0162165
X0012598
Y0172165
Y0182165
Y0192165
Y0121299
Y0111299
Y0101299
Y0091299
Y0233032
Y0243032
Y0253031
Y0263032
Y0303898
Y0313898
Y0323898
Y0333898
X0211417Y0333898
Y0323898
Y0313898
Y0303898
X0237008Y0303898
Y0313898
Y0323898
Y0333898
Y0263032
Y0253031
Y0243032
Y0233032
X0211417Y0233032
Y0243032
Y0253031
Y0263032
X0435827
Y0253031
Y0243032
Y0233032
X0461417Y0233032
Y0243032
Y0253031
Y0263032
Y0303898
Y0313898
Y0323898
Y0333898
X0435827Y0333898
Y0323898
Y0313898
Y0303898
X0660236
Y0313898
Y0323898
Y0333898
Y0263032
Y0253031
Y0243032
Y0233032
M30
