%FSLAX25Y25*%
%MOIN*%
G70*
G01*
G75*
G04 Layer_Color=16711935*
%ADD10C,0.00787*%
D10*
X0Y0D02*
Y70866D01*
X224410D01*
Y0D02*
Y70866D01*
X0Y0D02*
X224410D01*
Y70866D01*
X448819D01*
Y0D02*
Y70866D01*
X224410Y0D02*
X448819D01*
Y70866D01*
X673228D01*
Y0D02*
Y70866D01*
X448819Y0D02*
X673228D01*
X0Y70866D02*
Y141732D01*
X224410D01*
Y70866D02*
Y141732D01*
X0Y70866D02*
X224410D01*
Y141732D01*
X448819D01*
Y70866D02*
Y141732D01*
X224410Y70866D02*
X448819D01*
Y141732D01*
X673228D01*
Y70866D02*
Y141732D01*
X448819Y70866D02*
X673228D01*
X0Y141732D02*
Y212598D01*
X224410D01*
Y141732D02*
Y212598D01*
X0Y141732D02*
X224410D01*
Y212598D01*
X448819D01*
Y141732D02*
Y212598D01*
X224410Y141732D02*
X448819D01*
Y212598D01*
X673228D01*
Y141732D02*
Y212598D01*
X448819Y141732D02*
X673228D01*
X0Y212598D02*
Y283465D01*
X224410D01*
Y212598D02*
Y283465D01*
X0Y212598D02*
X224410D01*
Y283465D01*
X448819D01*
Y212598D02*
Y283465D01*
X224410Y212598D02*
X448819D01*
Y283465D01*
X673228D01*
Y212598D02*
Y283465D01*
X448819Y212598D02*
X673228D01*
X0Y283465D02*
Y354331D01*
X224410D01*
Y283465D02*
Y354331D01*
X0Y283465D02*
X224410D01*
Y354331D01*
X448819D01*
Y283465D02*
Y354331D01*
X224410Y283465D02*
X448819D01*
Y354331D01*
X673228D01*
Y283465D02*
Y354331D01*
X448819Y283465D02*
X673228D01*
M02*
