%FSLAX25Y25*%
%MOIN*%
G70*
G01*
G75*
G04 Layer_Color=16777200*
%ADD10C,0.00787*%
%ADD11R,0.03543X0.03543*%
%ADD12R,0.05000X0.05000*%
%ADD13R,0.04000X0.07480*%
%ADD14R,0.03150X0.03150*%
%ADD15R,0.03150X0.03150*%
%ADD16R,0.03543X0.03543*%
%ADD17R,0.02559X0.01181*%
%ADD18R,0.01181X0.02559*%
%ADD19R,0.13583X0.13583*%
%ADD20R,0.09370X0.06496*%
%ADD21R,0.00984X0.02756*%
%ADD22R,0.03600X0.03600*%
%ADD23R,0.05000X0.03600*%
%ADD24C,0.01000*%
%ADD25C,0.01969*%
%ADD26C,0.00984*%
%ADD27C,0.00600*%
%ADD28R,0.05512X0.05512*%
%ADD29C,0.07000*%
%ADD30R,0.07000X0.07000*%
%ADD31C,0.05000*%
%ADD32C,0.03150*%
%ADD33C,0.03150*%
%ADD34R,0.07874X0.05118*%
%ADD35C,0.00800*%
%ADD36C,0.02000*%
%ADD37C,0.00591*%
%ADD38R,0.12795X0.12795*%
%ADD39R,0.08583X0.05709*%
%ADD40R,0.00827X0.02598*%
%ADD41R,0.04343X0.04343*%
%ADD42R,0.05800X0.05800*%
%ADD43R,0.04800X0.08280*%
%ADD44R,0.03950X0.03950*%
%ADD45R,0.03950X0.03950*%
%ADD46R,0.04343X0.04343*%
%ADD47R,0.03359X0.01981*%
%ADD48R,0.01981X0.03359*%
%ADD49R,0.14383X0.14383*%
%ADD50R,0.09685X0.06811*%
%ADD51R,0.01299X0.03071*%
%ADD52R,0.04400X0.04400*%
%ADD53R,0.05800X0.04400*%
%ADD54R,0.06312X0.06312*%
%ADD55C,0.07800*%
%ADD56R,0.07800X0.07800*%
%ADD57C,0.05800*%
%ADD58C,0.03950*%
%ADD59R,0.08674X0.05918*%
D10*
X0Y0D02*
Y70866D01*
X224410D01*
Y0D02*
Y70866D01*
X0Y0D02*
X224410D01*
Y70866D01*
X448819D01*
Y0D02*
Y70866D01*
X224410Y0D02*
X448819D01*
Y70866D01*
X673228D01*
Y0D02*
Y70866D01*
X448819Y0D02*
X673228D01*
X0Y70866D02*
Y141732D01*
X224410D01*
Y70866D02*
Y141732D01*
X0Y70866D02*
X224410D01*
Y141732D01*
X448819D01*
Y70866D02*
Y141732D01*
X224410Y70866D02*
X448819D01*
Y141732D01*
X673228D01*
Y70866D02*
Y141732D01*
X448819Y70866D02*
X673228D01*
X0Y141732D02*
Y212598D01*
X224410D01*
Y141732D02*
Y212598D01*
X0Y141732D02*
X224410D01*
Y212598D01*
X448819D01*
Y141732D02*
Y212598D01*
X224410Y141732D02*
X448819D01*
Y212598D01*
X673228D01*
Y141732D02*
Y212598D01*
X448819Y141732D02*
X673228D01*
X0Y212598D02*
Y283465D01*
X224410D01*
Y212598D02*
Y283465D01*
X0Y212598D02*
X224410D01*
Y283465D01*
X448819D01*
Y212598D02*
Y283465D01*
X224410Y212598D02*
X448819D01*
Y283465D01*
X673228D01*
Y212598D02*
Y283465D01*
X448819Y212598D02*
X673228D01*
X0Y283465D02*
Y354331D01*
X224410D01*
Y283465D02*
Y354331D01*
X0Y283465D02*
X224410D01*
Y354331D01*
X448819D01*
Y283465D02*
Y354331D01*
X224410Y283465D02*
X448819D01*
Y354331D01*
X673228D01*
Y283465D02*
Y354331D01*
X448819Y283465D02*
X673228D01*
D24*
X225803Y70866D02*
X237221D01*
X225803Y0D02*
X237221D01*
X236221Y45930D02*
Y70866D01*
Y0D02*
Y21736D01*
X234221Y64866D02*
X236221Y70866D01*
X238221Y64866D01*
X236221Y0D02*
X238221Y6000D01*
X234221D02*
X236221Y0D01*
X224410Y-15961D02*
Y-1394D01*
X0Y-15961D02*
Y-1394D01*
X123201Y-14961D02*
X224410D01*
X0D02*
X98008D01*
X218409Y-12961D02*
X224410Y-14961D01*
X218409Y-16961D02*
X224410Y-14961D01*
X0D02*
X6000Y-16961D01*
X0Y-14961D02*
X6000Y-12961D01*
X450213Y70866D02*
X461630D01*
X450213Y0D02*
X461630D01*
X460630Y45930D02*
Y70866D01*
Y0D02*
Y21736D01*
X458630Y64866D02*
X460630Y70866D01*
X462630Y64866D01*
X460630Y0D02*
X462630Y6000D01*
X458630D02*
X460630Y0D01*
X448819Y-15961D02*
Y-1394D01*
X224410Y-15961D02*
Y-1394D01*
X347611Y-14961D02*
X448819D01*
X224410D02*
X322418D01*
X442819Y-12961D02*
X448819Y-14961D01*
X442819Y-16961D02*
X448819Y-14961D01*
X224410D02*
X230410Y-16961D01*
X224410Y-14961D02*
X230410Y-12961D01*
X674622Y70866D02*
X686039D01*
X674622Y0D02*
X686039D01*
X685039Y45930D02*
Y70866D01*
Y0D02*
Y21736D01*
X683039Y64866D02*
X685039Y70866D01*
X687039Y64866D01*
X685039Y0D02*
X687039Y6000D01*
X683039D02*
X685039Y0D01*
X673228Y-15961D02*
Y-1394D01*
X448819Y-15961D02*
Y-1394D01*
X572020Y-14961D02*
X673228D01*
X448819D02*
X546827D01*
X667228Y-12961D02*
X673228Y-14961D01*
X667228Y-16961D02*
X673228Y-14961D01*
X448819D02*
X454819Y-16961D01*
X448819Y-14961D02*
X454819Y-12961D01*
X225803Y141732D02*
X237221D01*
X225803Y70866D02*
X237221D01*
X236221Y116796D02*
Y141732D01*
Y70866D02*
Y92603D01*
X234221Y135732D02*
X236221Y141732D01*
X238221Y135732D01*
X236221Y70866D02*
X238221Y76866D01*
X234221D02*
X236221Y70866D01*
X224410Y54905D02*
Y69472D01*
X0Y54905D02*
Y69472D01*
X123201Y55905D02*
X224410D01*
X0D02*
X98008D01*
X218409Y57906D02*
X224410Y55905D01*
X218409Y53905D02*
X224410Y55905D01*
X0D02*
X6000Y53905D01*
X0Y55905D02*
X6000Y57906D01*
X450213Y141732D02*
X461630D01*
X450213Y70866D02*
X461630D01*
X460630Y116796D02*
Y141732D01*
Y70866D02*
Y92603D01*
X458630Y135732D02*
X460630Y141732D01*
X462630Y135732D01*
X460630Y70866D02*
X462630Y76866D01*
X458630D02*
X460630Y70866D01*
X448819Y54905D02*
Y69472D01*
X224410Y54905D02*
Y69472D01*
X347611Y55905D02*
X448819D01*
X224410D02*
X322418D01*
X442819Y57906D02*
X448819Y55905D01*
X442819Y53905D02*
X448819Y55905D01*
X224410D02*
X230410Y53905D01*
X224410Y55905D02*
X230410Y57906D01*
X674622Y141732D02*
X686039D01*
X674622Y70866D02*
X686039D01*
X685039Y116796D02*
Y141732D01*
Y70866D02*
Y92603D01*
X683039Y135732D02*
X685039Y141732D01*
X687039Y135732D01*
X685039Y70866D02*
X687039Y76866D01*
X683039D02*
X685039Y70866D01*
X673228Y54905D02*
Y69472D01*
X448819Y54905D02*
Y69472D01*
X572020Y55905D02*
X673228D01*
X448819D02*
X546827D01*
X667228Y57906D02*
X673228Y55905D01*
X667228Y53905D02*
X673228Y55905D01*
X448819D02*
X454819Y53905D01*
X448819Y55905D02*
X454819Y57906D01*
X225803Y212598D02*
X237221D01*
X225803Y141732D02*
X237221D01*
X236221Y187662D02*
Y212598D01*
Y141732D02*
Y163469D01*
X234221Y206598D02*
X236221Y212598D01*
X238221Y206598D01*
X236221Y141732D02*
X238221Y147732D01*
X234221D02*
X236221Y141732D01*
X224410Y125772D02*
Y140339D01*
X0Y125772D02*
Y140339D01*
X123201Y126772D02*
X224410D01*
X0D02*
X98008D01*
X218409Y128772D02*
X224410Y126772D01*
X218409Y124772D02*
X224410Y126772D01*
X0D02*
X6000Y124772D01*
X0Y126772D02*
X6000Y128772D01*
X450213Y212598D02*
X461630D01*
X450213Y141732D02*
X461630D01*
X460630Y187662D02*
Y212598D01*
Y141732D02*
Y163469D01*
X458630Y206598D02*
X460630Y212598D01*
X462630Y206598D01*
X460630Y141732D02*
X462630Y147732D01*
X458630D02*
X460630Y141732D01*
X448819Y125772D02*
Y140339D01*
X224410Y125772D02*
Y140339D01*
X347611Y126772D02*
X448819D01*
X224410D02*
X322418D01*
X442819Y128772D02*
X448819Y126772D01*
X442819Y124772D02*
X448819Y126772D01*
X224410D02*
X230410Y124772D01*
X224410Y126772D02*
X230410Y128772D01*
X674622Y212598D02*
X686039D01*
X674622Y141732D02*
X686039D01*
X685039Y187662D02*
Y212598D01*
Y141732D02*
Y163469D01*
X683039Y206598D02*
X685039Y212598D01*
X687039Y206598D01*
X685039Y141732D02*
X687039Y147732D01*
X683039D02*
X685039Y141732D01*
X673228Y125772D02*
Y140339D01*
X448819Y125772D02*
Y140339D01*
X572020Y126772D02*
X673228D01*
X448819D02*
X546827D01*
X667228Y128772D02*
X673228Y126772D01*
X667228Y124772D02*
X673228Y126772D01*
X448819D02*
X454819Y124772D01*
X448819Y126772D02*
X454819Y128772D01*
X225803Y283465D02*
X237221D01*
X225803Y212598D02*
X237221D01*
X236221Y258528D02*
Y283465D01*
Y212598D02*
Y234335D01*
X234221Y277465D02*
X236221Y283465D01*
X238221Y277465D01*
X236221Y212598D02*
X238221Y218598D01*
X234221D02*
X236221Y212598D01*
X224410Y196638D02*
Y211205D01*
X0Y196638D02*
Y211205D01*
X123201Y197638D02*
X224410D01*
X0D02*
X98008D01*
X218409Y199638D02*
X224410Y197638D01*
X218409Y195638D02*
X224410Y197638D01*
X0D02*
X6000Y195638D01*
X0Y197638D02*
X6000Y199638D01*
X450213Y283465D02*
X461630D01*
X450213Y212598D02*
X461630D01*
X460630Y258528D02*
Y283465D01*
Y212598D02*
Y234335D01*
X458630Y277465D02*
X460630Y283465D01*
X462630Y277465D01*
X460630Y212598D02*
X462630Y218598D01*
X458630D02*
X460630Y212598D01*
X448819Y196638D02*
Y211205D01*
X224410Y196638D02*
Y211205D01*
X347611Y197638D02*
X448819D01*
X224410D02*
X322418D01*
X442819Y199638D02*
X448819Y197638D01*
X442819Y195638D02*
X448819Y197638D01*
X224410D02*
X230410Y195638D01*
X224410Y197638D02*
X230410Y199638D01*
X674622Y283465D02*
X686039D01*
X674622Y212598D02*
X686039D01*
X685039Y258528D02*
Y283465D01*
Y212598D02*
Y234335D01*
X683039Y277465D02*
X685039Y283465D01*
X687039Y277465D01*
X685039Y212598D02*
X687039Y218598D01*
X683039D02*
X685039Y212598D01*
X673228Y196638D02*
Y211205D01*
X448819Y196638D02*
Y211205D01*
X572020Y197638D02*
X673228D01*
X448819D02*
X546827D01*
X667228Y199638D02*
X673228Y197638D01*
X667228Y195638D02*
X673228Y197638D01*
X448819D02*
X454819Y195638D01*
X448819Y197638D02*
X454819Y199638D01*
X225803Y354331D02*
X237221D01*
X225803Y283465D02*
X237221D01*
X236221Y329394D02*
Y354331D01*
Y283465D02*
Y305201D01*
X234221Y348331D02*
X236221Y354331D01*
X238221Y348331D01*
X236221Y283465D02*
X238221Y289465D01*
X234221D02*
X236221Y283465D01*
X224410Y267504D02*
Y282071D01*
X0Y267504D02*
Y282071D01*
X123201Y268504D02*
X224410D01*
X0D02*
X98008D01*
X218409Y270504D02*
X224410Y268504D01*
X218409Y266504D02*
X224410Y268504D01*
X0D02*
X6000Y266504D01*
X0Y268504D02*
X6000Y270504D01*
X450213Y354331D02*
X461630D01*
X450213Y283465D02*
X461630D01*
X460630Y329394D02*
Y354331D01*
Y283465D02*
Y305201D01*
X458630Y348331D02*
X460630Y354331D01*
X462630Y348331D01*
X460630Y283465D02*
X462630Y289465D01*
X458630D02*
X460630Y283465D01*
X448819Y267504D02*
Y282071D01*
X224410Y267504D02*
Y282071D01*
X347611Y268504D02*
X448819D01*
X224410D02*
X322418D01*
X442819Y270504D02*
X448819Y268504D01*
X442819Y266504D02*
X448819Y268504D01*
X224410D02*
X230410Y266504D01*
X224410Y268504D02*
X230410Y270504D01*
X674622Y354331D02*
X686039D01*
X674622Y283465D02*
X686039D01*
X685039Y329394D02*
Y354331D01*
Y283465D02*
Y305201D01*
X683039Y348331D02*
X685039Y354331D01*
X687039Y348331D01*
X685039Y283465D02*
X687039Y289465D01*
X683039D02*
X685039Y283465D01*
X673228Y267504D02*
Y282071D01*
X448819Y267504D02*
Y282071D01*
X572020Y268504D02*
X673228D01*
X448819D02*
X546827D01*
X667228Y270504D02*
X673228Y268504D01*
X667228Y266504D02*
X673228Y268504D01*
X448819D02*
X454819Y266504D01*
X448819Y268504D02*
X454819Y270504D01*
D27*
X240819Y23336D02*
Y25336D01*
Y24336D01*
X234821D01*
X235821Y23336D01*
Y28335D02*
X234821Y29335D01*
Y31334D01*
X235821Y32334D01*
X236821D01*
X237820Y31334D01*
X238820Y32334D01*
X239820D01*
X240819Y31334D01*
Y29335D01*
X239820Y28335D01*
X238820D01*
X237820Y29335D01*
X236821Y28335D01*
X235821D01*
X237820Y29335D02*
Y31334D01*
X241819Y35333D02*
X240819Y36332D01*
X239820D01*
Y35333D01*
X240819D01*
Y36332D01*
X241819Y35333D01*
X242818Y34333D01*
X235821Y40331D02*
X234821Y41331D01*
Y43330D01*
X235821Y44330D01*
X239820D01*
X240819Y43330D01*
Y41331D01*
X239820Y40331D01*
X235821D01*
X103607Y-13561D02*
X99608D01*
Y-16560D01*
X101608Y-15561D01*
X102607D01*
X103607Y-16560D01*
Y-18560D01*
X102607Y-19559D01*
X100608D01*
X99608Y-18560D01*
X105606Y-13561D02*
X109605D01*
Y-14561D01*
X105606Y-18560D01*
Y-19559D01*
X112604Y-20559D02*
X113604Y-19559D01*
Y-18560D01*
X112604D01*
Y-19559D01*
X113604D01*
X112604Y-20559D01*
X111604Y-21559D01*
X117603Y-14561D02*
X118602Y-13561D01*
X120601D01*
X121601Y-14561D01*
Y-18560D01*
X120601Y-19559D01*
X118602D01*
X117603Y-18560D01*
Y-14561D01*
X465229Y23336D02*
Y25336D01*
Y24336D01*
X459231D01*
X460230Y23336D01*
Y28335D02*
X459231Y29335D01*
Y31334D01*
X460230Y32334D01*
X461230D01*
X462230Y31334D01*
X463229Y32334D01*
X464229D01*
X465229Y31334D01*
Y29335D01*
X464229Y28335D01*
X463229D01*
X462230Y29335D01*
X461230Y28335D01*
X460230D01*
X462230Y29335D02*
Y31334D01*
X466228Y35333D02*
X465229Y36332D01*
X464229D01*
Y35333D01*
X465229D01*
Y36332D01*
X466228Y35333D01*
X467228Y34333D01*
X460230Y40331D02*
X459231Y41331D01*
Y43330D01*
X460230Y44330D01*
X464229D01*
X465229Y43330D01*
Y41331D01*
X464229Y40331D01*
X460230D01*
X328016Y-13561D02*
X324018D01*
Y-16560D01*
X326017Y-15561D01*
X327017D01*
X328016Y-16560D01*
Y-18560D01*
X327017Y-19559D01*
X325017D01*
X324018Y-18560D01*
X330016Y-13561D02*
X334015D01*
Y-14561D01*
X330016Y-18560D01*
Y-19559D01*
X337014Y-20559D02*
X338013Y-19559D01*
Y-18560D01*
X337014D01*
Y-19559D01*
X338013D01*
X337014Y-20559D01*
X336014Y-21559D01*
X342012Y-14561D02*
X343012Y-13561D01*
X345011D01*
X346011Y-14561D01*
Y-18560D01*
X345011Y-19559D01*
X343012D01*
X342012Y-18560D01*
Y-14561D01*
X689638Y23336D02*
Y25336D01*
Y24336D01*
X683640D01*
X684640Y23336D01*
Y28335D02*
X683640Y29335D01*
Y31334D01*
X684640Y32334D01*
X685639D01*
X686639Y31334D01*
X687639Y32334D01*
X688638D01*
X689638Y31334D01*
Y29335D01*
X688638Y28335D01*
X687639D01*
X686639Y29335D01*
X685639Y28335D01*
X684640D01*
X686639Y29335D02*
Y31334D01*
X690638Y35333D02*
X689638Y36332D01*
X688638D01*
Y35333D01*
X689638D01*
Y36332D01*
X690638Y35333D01*
X691637Y34333D01*
X684640Y40331D02*
X683640Y41331D01*
Y43330D01*
X684640Y44330D01*
X688638D01*
X689638Y43330D01*
Y41331D01*
X688638Y40331D01*
X684640D01*
X552426Y-13561D02*
X548427D01*
Y-16560D01*
X550426Y-15561D01*
X551426D01*
X552426Y-16560D01*
Y-18560D01*
X551426Y-19559D01*
X549427D01*
X548427Y-18560D01*
X554425Y-13561D02*
X558424D01*
Y-14561D01*
X554425Y-18560D01*
Y-19559D01*
X561423Y-20559D02*
X562423Y-19559D01*
Y-18560D01*
X561423D01*
Y-19559D01*
X562423D01*
X561423Y-20559D01*
X560423Y-21559D01*
X566421Y-14561D02*
X567421Y-13561D01*
X569420D01*
X570420Y-14561D01*
Y-18560D01*
X569420Y-19559D01*
X567421D01*
X566421Y-18560D01*
Y-14561D01*
X240819Y94203D02*
Y96202D01*
Y95202D01*
X234821D01*
X235821Y94203D01*
Y99201D02*
X234821Y100201D01*
Y102200D01*
X235821Y103200D01*
X236821D01*
X237820Y102200D01*
X238820Y103200D01*
X239820D01*
X240819Y102200D01*
Y100201D01*
X239820Y99201D01*
X238820D01*
X237820Y100201D01*
X236821Y99201D01*
X235821D01*
X237820Y100201D02*
Y102200D01*
X241819Y106199D02*
X240819Y107198D01*
X239820D01*
Y106199D01*
X240819D01*
Y107198D01*
X241819Y106199D01*
X242818Y105199D01*
X235821Y111197D02*
X234821Y112197D01*
Y114196D01*
X235821Y115196D01*
X239820D01*
X240819Y114196D01*
Y112197D01*
X239820Y111197D01*
X235821D01*
X103607Y57305D02*
X99608D01*
Y54306D01*
X101608Y55305D01*
X102607D01*
X103607Y54306D01*
Y52306D01*
X102607Y51307D01*
X100608D01*
X99608Y52306D01*
X105606Y57305D02*
X109605D01*
Y56305D01*
X105606Y52306D01*
Y51307D01*
X112604Y50307D02*
X113604Y51307D01*
Y52306D01*
X112604D01*
Y51307D01*
X113604D01*
X112604Y50307D01*
X111604Y49308D01*
X117603Y56305D02*
X118602Y57305D01*
X120601D01*
X121601Y56305D01*
Y52306D01*
X120601Y51307D01*
X118602D01*
X117603Y52306D01*
Y56305D01*
X465229Y94203D02*
Y96202D01*
Y95202D01*
X459231D01*
X460230Y94203D01*
Y99201D02*
X459231Y100201D01*
Y102200D01*
X460230Y103200D01*
X461230D01*
X462230Y102200D01*
X463229Y103200D01*
X464229D01*
X465229Y102200D01*
Y100201D01*
X464229Y99201D01*
X463229D01*
X462230Y100201D01*
X461230Y99201D01*
X460230D01*
X462230Y100201D02*
Y102200D01*
X466228Y106199D02*
X465229Y107198D01*
X464229D01*
Y106199D01*
X465229D01*
Y107198D01*
X466228Y106199D01*
X467228Y105199D01*
X460230Y111197D02*
X459231Y112197D01*
Y114196D01*
X460230Y115196D01*
X464229D01*
X465229Y114196D01*
Y112197D01*
X464229Y111197D01*
X460230D01*
X328016Y57305D02*
X324018D01*
Y54306D01*
X326017Y55305D01*
X327017D01*
X328016Y54306D01*
Y52306D01*
X327017Y51307D01*
X325017D01*
X324018Y52306D01*
X330016Y57305D02*
X334015D01*
Y56305D01*
X330016Y52306D01*
Y51307D01*
X337014Y50307D02*
X338013Y51307D01*
Y52306D01*
X337014D01*
Y51307D01*
X338013D01*
X337014Y50307D01*
X336014Y49308D01*
X342012Y56305D02*
X343012Y57305D01*
X345011D01*
X346011Y56305D01*
Y52306D01*
X345011Y51307D01*
X343012D01*
X342012Y52306D01*
Y56305D01*
X689638Y94203D02*
Y96202D01*
Y95202D01*
X683640D01*
X684640Y94203D01*
Y99201D02*
X683640Y100201D01*
Y102200D01*
X684640Y103200D01*
X685639D01*
X686639Y102200D01*
X687639Y103200D01*
X688638D01*
X689638Y102200D01*
Y100201D01*
X688638Y99201D01*
X687639D01*
X686639Y100201D01*
X685639Y99201D01*
X684640D01*
X686639Y100201D02*
Y102200D01*
X690638Y106199D02*
X689638Y107198D01*
X688638D01*
Y106199D01*
X689638D01*
Y107198D01*
X690638Y106199D01*
X691637Y105199D01*
X684640Y111197D02*
X683640Y112197D01*
Y114196D01*
X684640Y115196D01*
X688638D01*
X689638Y114196D01*
Y112197D01*
X688638Y111197D01*
X684640D01*
X552426Y57305D02*
X548427D01*
Y54306D01*
X550426Y55305D01*
X551426D01*
X552426Y54306D01*
Y52306D01*
X551426Y51307D01*
X549427D01*
X548427Y52306D01*
X554425Y57305D02*
X558424D01*
Y56305D01*
X554425Y52306D01*
Y51307D01*
X561423Y50307D02*
X562423Y51307D01*
Y52306D01*
X561423D01*
Y51307D01*
X562423D01*
X561423Y50307D01*
X560423Y49308D01*
X566421Y56305D02*
X567421Y57305D01*
X569420D01*
X570420Y56305D01*
Y52306D01*
X569420Y51307D01*
X567421D01*
X566421Y52306D01*
Y56305D01*
X240819Y165069D02*
Y167068D01*
Y166068D01*
X234821D01*
X235821Y165069D01*
Y170067D02*
X234821Y171067D01*
Y173066D01*
X235821Y174066D01*
X236821D01*
X237820Y173066D01*
X238820Y174066D01*
X239820D01*
X240819Y173066D01*
Y171067D01*
X239820Y170067D01*
X238820D01*
X237820Y171067D01*
X236821Y170067D01*
X235821D01*
X237820Y171067D02*
Y173066D01*
X241819Y177065D02*
X240819Y178065D01*
X239820D01*
Y177065D01*
X240819D01*
Y178065D01*
X241819Y177065D01*
X242818Y176065D01*
X235821Y182063D02*
X234821Y183063D01*
Y185062D01*
X235821Y186062D01*
X239820D01*
X240819Y185062D01*
Y183063D01*
X239820Y182063D01*
X235821D01*
X103607Y128171D02*
X99608D01*
Y125172D01*
X101608Y126172D01*
X102607D01*
X103607Y125172D01*
Y123173D01*
X102607Y122173D01*
X100608D01*
X99608Y123173D01*
X105606Y128171D02*
X109605D01*
Y127171D01*
X105606Y123173D01*
Y122173D01*
X112604Y121173D02*
X113604Y122173D01*
Y123173D01*
X112604D01*
Y122173D01*
X113604D01*
X112604Y121173D01*
X111604Y120174D01*
X117603Y127171D02*
X118602Y128171D01*
X120601D01*
X121601Y127171D01*
Y123173D01*
X120601Y122173D01*
X118602D01*
X117603Y123173D01*
Y127171D01*
X465229Y165069D02*
Y167068D01*
Y166068D01*
X459231D01*
X460230Y165069D01*
Y170067D02*
X459231Y171067D01*
Y173066D01*
X460230Y174066D01*
X461230D01*
X462230Y173066D01*
X463229Y174066D01*
X464229D01*
X465229Y173066D01*
Y171067D01*
X464229Y170067D01*
X463229D01*
X462230Y171067D01*
X461230Y170067D01*
X460230D01*
X462230Y171067D02*
Y173066D01*
X466228Y177065D02*
X465229Y178065D01*
X464229D01*
Y177065D01*
X465229D01*
Y178065D01*
X466228Y177065D01*
X467228Y176065D01*
X460230Y182063D02*
X459231Y183063D01*
Y185062D01*
X460230Y186062D01*
X464229D01*
X465229Y185062D01*
Y183063D01*
X464229Y182063D01*
X460230D01*
X328016Y128171D02*
X324018D01*
Y125172D01*
X326017Y126172D01*
X327017D01*
X328016Y125172D01*
Y123173D01*
X327017Y122173D01*
X325017D01*
X324018Y123173D01*
X330016Y128171D02*
X334015D01*
Y127171D01*
X330016Y123173D01*
Y122173D01*
X337014Y121173D02*
X338013Y122173D01*
Y123173D01*
X337014D01*
Y122173D01*
X338013D01*
X337014Y121173D01*
X336014Y120174D01*
X342012Y127171D02*
X343012Y128171D01*
X345011D01*
X346011Y127171D01*
Y123173D01*
X345011Y122173D01*
X343012D01*
X342012Y123173D01*
Y127171D01*
X689638Y165069D02*
Y167068D01*
Y166068D01*
X683640D01*
X684640Y165069D01*
Y170067D02*
X683640Y171067D01*
Y173066D01*
X684640Y174066D01*
X685639D01*
X686639Y173066D01*
X687639Y174066D01*
X688638D01*
X689638Y173066D01*
Y171067D01*
X688638Y170067D01*
X687639D01*
X686639Y171067D01*
X685639Y170067D01*
X684640D01*
X686639Y171067D02*
Y173066D01*
X690638Y177065D02*
X689638Y178065D01*
X688638D01*
Y177065D01*
X689638D01*
Y178065D01*
X690638Y177065D01*
X691637Y176065D01*
X684640Y182063D02*
X683640Y183063D01*
Y185062D01*
X684640Y186062D01*
X688638D01*
X689638Y185062D01*
Y183063D01*
X688638Y182063D01*
X684640D01*
X552426Y128171D02*
X548427D01*
Y125172D01*
X550426Y126172D01*
X551426D01*
X552426Y125172D01*
Y123173D01*
X551426Y122173D01*
X549427D01*
X548427Y123173D01*
X554425Y128171D02*
X558424D01*
Y127171D01*
X554425Y123173D01*
Y122173D01*
X561423Y121173D02*
X562423Y122173D01*
Y123173D01*
X561423D01*
Y122173D01*
X562423D01*
X561423Y121173D01*
X560423Y120174D01*
X566421Y127171D02*
X567421Y128171D01*
X569420D01*
X570420Y127171D01*
Y123173D01*
X569420Y122173D01*
X567421D01*
X566421Y123173D01*
Y127171D01*
X240819Y235935D02*
Y237934D01*
Y236935D01*
X234821D01*
X235821Y235935D01*
Y240933D02*
X234821Y241933D01*
Y243932D01*
X235821Y244932D01*
X236821D01*
X237820Y243932D01*
X238820Y244932D01*
X239820D01*
X240819Y243932D01*
Y241933D01*
X239820Y240933D01*
X238820D01*
X237820Y241933D01*
X236821Y240933D01*
X235821D01*
X237820Y241933D02*
Y243932D01*
X241819Y247931D02*
X240819Y248931D01*
X239820D01*
Y247931D01*
X240819D01*
Y248931D01*
X241819Y247931D01*
X242818Y246931D01*
X235821Y252929D02*
X234821Y253929D01*
Y255928D01*
X235821Y256928D01*
X239820D01*
X240819Y255928D01*
Y253929D01*
X239820Y252929D01*
X235821D01*
X103607Y199037D02*
X99608D01*
Y196038D01*
X101608Y197038D01*
X102607D01*
X103607Y196038D01*
Y194039D01*
X102607Y193039D01*
X100608D01*
X99608Y194039D01*
X105606Y199037D02*
X109605D01*
Y198038D01*
X105606Y194039D01*
Y193039D01*
X112604Y192039D02*
X113604Y193039D01*
Y194039D01*
X112604D01*
Y193039D01*
X113604D01*
X112604Y192039D01*
X111604Y191040D01*
X117603Y198038D02*
X118602Y199037D01*
X120601D01*
X121601Y198038D01*
Y194039D01*
X120601Y193039D01*
X118602D01*
X117603Y194039D01*
Y198038D01*
X465229Y235935D02*
Y237934D01*
Y236935D01*
X459231D01*
X460230Y235935D01*
Y240933D02*
X459231Y241933D01*
Y243932D01*
X460230Y244932D01*
X461230D01*
X462230Y243932D01*
X463229Y244932D01*
X464229D01*
X465229Y243932D01*
Y241933D01*
X464229Y240933D01*
X463229D01*
X462230Y241933D01*
X461230Y240933D01*
X460230D01*
X462230Y241933D02*
Y243932D01*
X466228Y247931D02*
X465229Y248931D01*
X464229D01*
Y247931D01*
X465229D01*
Y248931D01*
X466228Y247931D01*
X467228Y246931D01*
X460230Y252929D02*
X459231Y253929D01*
Y255928D01*
X460230Y256928D01*
X464229D01*
X465229Y255928D01*
Y253929D01*
X464229Y252929D01*
X460230D01*
X328016Y199037D02*
X324018D01*
Y196038D01*
X326017Y197038D01*
X327017D01*
X328016Y196038D01*
Y194039D01*
X327017Y193039D01*
X325017D01*
X324018Y194039D01*
X330016Y199037D02*
X334015D01*
Y198038D01*
X330016Y194039D01*
Y193039D01*
X337014Y192039D02*
X338013Y193039D01*
Y194039D01*
X337014D01*
Y193039D01*
X338013D01*
X337014Y192039D01*
X336014Y191040D01*
X342012Y198038D02*
X343012Y199037D01*
X345011D01*
X346011Y198038D01*
Y194039D01*
X345011Y193039D01*
X343012D01*
X342012Y194039D01*
Y198038D01*
X689638Y235935D02*
Y237934D01*
Y236935D01*
X683640D01*
X684640Y235935D01*
Y240933D02*
X683640Y241933D01*
Y243932D01*
X684640Y244932D01*
X685639D01*
X686639Y243932D01*
X687639Y244932D01*
X688638D01*
X689638Y243932D01*
Y241933D01*
X688638Y240933D01*
X687639D01*
X686639Y241933D01*
X685639Y240933D01*
X684640D01*
X686639Y241933D02*
Y243932D01*
X690638Y247931D02*
X689638Y248931D01*
X688638D01*
Y247931D01*
X689638D01*
Y248931D01*
X690638Y247931D01*
X691637Y246931D01*
X684640Y252929D02*
X683640Y253929D01*
Y255928D01*
X684640Y256928D01*
X688638D01*
X689638Y255928D01*
Y253929D01*
X688638Y252929D01*
X684640D01*
X552426Y199037D02*
X548427D01*
Y196038D01*
X550426Y197038D01*
X551426D01*
X552426Y196038D01*
Y194039D01*
X551426Y193039D01*
X549427D01*
X548427Y194039D01*
X554425Y199037D02*
X558424D01*
Y198038D01*
X554425Y194039D01*
Y193039D01*
X561423Y192039D02*
X562423Y193039D01*
Y194039D01*
X561423D01*
Y193039D01*
X562423D01*
X561423Y192039D01*
X560423Y191040D01*
X566421Y198038D02*
X567421Y199037D01*
X569420D01*
X570420Y198038D01*
Y194039D01*
X569420Y193039D01*
X567421D01*
X566421Y194039D01*
Y198038D01*
X240819Y306801D02*
Y308800D01*
Y307801D01*
X234821D01*
X235821Y306801D01*
Y311799D02*
X234821Y312799D01*
Y314798D01*
X235821Y315798D01*
X236821D01*
X237820Y314798D01*
X238820Y315798D01*
X239820D01*
X240819Y314798D01*
Y312799D01*
X239820Y311799D01*
X238820D01*
X237820Y312799D01*
X236821Y311799D01*
X235821D01*
X237820Y312799D02*
Y314798D01*
X241819Y318797D02*
X240819Y319797D01*
X239820D01*
Y318797D01*
X240819D01*
Y319797D01*
X241819Y318797D01*
X242818Y317797D01*
X235821Y323796D02*
X234821Y324795D01*
Y326795D01*
X235821Y327794D01*
X239820D01*
X240819Y326795D01*
Y324795D01*
X239820Y323796D01*
X235821D01*
X103607Y269903D02*
X99608D01*
Y266904D01*
X101608Y267904D01*
X102607D01*
X103607Y266904D01*
Y264905D01*
X102607Y263905D01*
X100608D01*
X99608Y264905D01*
X105606Y269903D02*
X109605D01*
Y268904D01*
X105606Y264905D01*
Y263905D01*
X112604Y262906D02*
X113604Y263905D01*
Y264905D01*
X112604D01*
Y263905D01*
X113604D01*
X112604Y262906D01*
X111604Y261906D01*
X117603Y268904D02*
X118602Y269903D01*
X120601D01*
X121601Y268904D01*
Y264905D01*
X120601Y263905D01*
X118602D01*
X117603Y264905D01*
Y268904D01*
X465229Y306801D02*
Y308800D01*
Y307801D01*
X459231D01*
X460230Y306801D01*
Y311799D02*
X459231Y312799D01*
Y314798D01*
X460230Y315798D01*
X461230D01*
X462230Y314798D01*
X463229Y315798D01*
X464229D01*
X465229Y314798D01*
Y312799D01*
X464229Y311799D01*
X463229D01*
X462230Y312799D01*
X461230Y311799D01*
X460230D01*
X462230Y312799D02*
Y314798D01*
X466228Y318797D02*
X465229Y319797D01*
X464229D01*
Y318797D01*
X465229D01*
Y319797D01*
X466228Y318797D01*
X467228Y317797D01*
X460230Y323796D02*
X459231Y324795D01*
Y326795D01*
X460230Y327794D01*
X464229D01*
X465229Y326795D01*
Y324795D01*
X464229Y323796D01*
X460230D01*
X328016Y269903D02*
X324018D01*
Y266904D01*
X326017Y267904D01*
X327017D01*
X328016Y266904D01*
Y264905D01*
X327017Y263905D01*
X325017D01*
X324018Y264905D01*
X330016Y269903D02*
X334015D01*
Y268904D01*
X330016Y264905D01*
Y263905D01*
X337014Y262906D02*
X338013Y263905D01*
Y264905D01*
X337014D01*
Y263905D01*
X338013D01*
X337014Y262906D01*
X336014Y261906D01*
X342012Y268904D02*
X343012Y269903D01*
X345011D01*
X346011Y268904D01*
Y264905D01*
X345011Y263905D01*
X343012D01*
X342012Y264905D01*
Y268904D01*
X689638Y306801D02*
Y308800D01*
Y307801D01*
X683640D01*
X684640Y306801D01*
Y311799D02*
X683640Y312799D01*
Y314798D01*
X684640Y315798D01*
X685639D01*
X686639Y314798D01*
X687639Y315798D01*
X688638D01*
X689638Y314798D01*
Y312799D01*
X688638Y311799D01*
X687639D01*
X686639Y312799D01*
X685639Y311799D01*
X684640D01*
X686639Y312799D02*
Y314798D01*
X690638Y318797D02*
X689638Y319797D01*
X688638D01*
Y318797D01*
X689638D01*
Y319797D01*
X690638Y318797D01*
X691637Y317797D01*
X684640Y323796D02*
X683640Y324795D01*
Y326795D01*
X684640Y327794D01*
X688638D01*
X689638Y326795D01*
Y324795D01*
X688638Y323796D01*
X684640D01*
X552426Y269903D02*
X548427D01*
Y266904D01*
X550426Y267904D01*
X551426D01*
X552426Y266904D01*
Y264905D01*
X551426Y263905D01*
X549427D01*
X548427Y264905D01*
X554425Y269903D02*
X558424D01*
Y268904D01*
X554425Y264905D01*
Y263905D01*
X561423Y262906D02*
X562423Y263905D01*
Y264905D01*
X561423D01*
Y263905D01*
X562423D01*
X561423Y262906D01*
X560423Y261906D01*
X566421Y268904D02*
X567421Y269903D01*
X569420D01*
X570420Y268904D01*
Y264905D01*
X569420Y263905D01*
X567421D01*
X566421Y264905D01*
Y268904D01*
M02*
