%FSLAX25Y25*%
%MOIN*%
G70*
G01*
G75*
G04 Layer_Color=8421504*
%ADD10C,0.00787*%
%ADD11R,0.03543X0.03543*%
%ADD12R,0.05000X0.05000*%
%ADD13R,0.04000X0.07480*%
%ADD14R,0.03150X0.03150*%
%ADD15R,0.03150X0.03150*%
%ADD16R,0.03543X0.03543*%
%ADD17R,0.02559X0.01181*%
%ADD18R,0.01181X0.02559*%
%ADD19R,0.13583X0.13583*%
%ADD20R,0.09370X0.06496*%
%ADD21R,0.00984X0.02756*%
%ADD22R,0.03600X0.03600*%
%ADD23R,0.05000X0.03600*%
%ADD24C,0.01000*%
%ADD25C,0.01969*%
%ADD26C,0.00984*%
%ADD27C,0.00600*%
%ADD28R,0.05512X0.05512*%
%ADD29C,0.07000*%
%ADD30R,0.07000X0.07000*%
%ADD31C,0.05000*%
%ADD32C,0.03150*%
%ADD33C,0.03150*%
%ADD34R,0.07874X0.05118*%
%ADD35C,0.00800*%
%ADD36C,0.02000*%
%ADD37C,0.00591*%
%ADD38R,0.12795X0.12795*%
%ADD39R,0.08583X0.05709*%
%ADD40R,0.00827X0.02598*%
D10*
X0Y0D02*
Y70866D01*
X224410D01*
Y0D02*
Y70866D01*
X0Y0D02*
X224410D01*
Y70866D01*
X448819D01*
Y0D02*
Y70866D01*
X224410Y0D02*
X448819D01*
Y70866D01*
X673228D01*
Y0D02*
Y70866D01*
X448819Y0D02*
X673228D01*
X0Y70866D02*
Y141732D01*
X224410D01*
Y70866D02*
Y141732D01*
X0Y70866D02*
X224410D01*
Y141732D01*
X448819D01*
Y70866D02*
Y141732D01*
X224410Y70866D02*
X448819D01*
Y141732D01*
X673228D01*
Y70866D02*
Y141732D01*
X448819Y70866D02*
X673228D01*
X0Y141732D02*
Y212598D01*
X224410D01*
Y141732D02*
Y212598D01*
X0Y141732D02*
X224410D01*
Y212598D01*
X448819D01*
Y141732D02*
Y212598D01*
X224410Y141732D02*
X448819D01*
Y212598D01*
X673228D01*
Y141732D02*
Y212598D01*
X448819Y141732D02*
X673228D01*
X0Y212598D02*
Y283465D01*
X224410D01*
Y212598D02*
Y283465D01*
X0Y212598D02*
X224410D01*
Y283465D01*
X448819D01*
Y212598D02*
Y283465D01*
X224410Y212598D02*
X448819D01*
Y283465D01*
X673228D01*
Y212598D02*
Y283465D01*
X448819Y212598D02*
X673228D01*
X0Y283465D02*
Y354331D01*
X224410D01*
Y283465D02*
Y354331D01*
X0Y283465D02*
X224410D01*
Y354331D01*
X448819D01*
Y283465D02*
Y354331D01*
X224410Y283465D02*
X448819D01*
Y354331D01*
X673228D01*
Y283465D02*
Y354331D01*
X448819Y283465D02*
X673228D01*
D11*
X46555Y51772D02*
D03*
Y56890D02*
D03*
X39272Y54331D02*
D03*
X46555Y14370D02*
D03*
Y19488D02*
D03*
X39272Y16929D02*
D03*
X76870Y8465D02*
D03*
Y13583D02*
D03*
X69587Y11024D02*
D03*
X124311Y15945D02*
D03*
Y10827D02*
D03*
X131595Y13386D02*
D03*
X173327Y60433D02*
D03*
Y65551D02*
D03*
X166043Y62992D02*
D03*
X46555Y32874D02*
D03*
Y37992D02*
D03*
X39272Y35433D02*
D03*
X182776Y5709D02*
D03*
Y10827D02*
D03*
X175492Y8268D02*
D03*
X270965Y51772D02*
D03*
Y56890D02*
D03*
X263681Y54331D02*
D03*
X270965Y14370D02*
D03*
Y19488D02*
D03*
X263681Y16929D02*
D03*
X301279Y8465D02*
D03*
Y13583D02*
D03*
X293996Y11024D02*
D03*
X348721Y15945D02*
D03*
Y10827D02*
D03*
X356004Y13386D02*
D03*
X397736Y60433D02*
D03*
Y65551D02*
D03*
X390453Y62992D02*
D03*
X270965Y32874D02*
D03*
Y37992D02*
D03*
X263681Y35433D02*
D03*
X407185Y5709D02*
D03*
Y10827D02*
D03*
X399902Y8268D02*
D03*
X495374Y51772D02*
D03*
Y56890D02*
D03*
X488091Y54331D02*
D03*
X495374Y14370D02*
D03*
Y19488D02*
D03*
X488091Y16929D02*
D03*
X525689Y8465D02*
D03*
Y13583D02*
D03*
X518405Y11024D02*
D03*
X573130Y15945D02*
D03*
Y10827D02*
D03*
X580413Y13386D02*
D03*
X622146Y60433D02*
D03*
Y65551D02*
D03*
X614862Y62992D02*
D03*
X495374Y32874D02*
D03*
Y37992D02*
D03*
X488091Y35433D02*
D03*
X631595Y5709D02*
D03*
Y10827D02*
D03*
X624311Y8268D02*
D03*
X46555Y122638D02*
D03*
Y127756D02*
D03*
X39272Y125197D02*
D03*
X46555Y85236D02*
D03*
Y90354D02*
D03*
X39272Y87795D02*
D03*
X76870Y79331D02*
D03*
Y84449D02*
D03*
X69587Y81890D02*
D03*
X124311Y86811D02*
D03*
Y81693D02*
D03*
X131595Y84252D02*
D03*
X173327Y131299D02*
D03*
Y136417D02*
D03*
X166043Y133858D02*
D03*
X46555Y103740D02*
D03*
Y108858D02*
D03*
X39272Y106299D02*
D03*
X182776Y76575D02*
D03*
Y81693D02*
D03*
X175492Y79134D02*
D03*
X270965Y122638D02*
D03*
Y127756D02*
D03*
X263681Y125197D02*
D03*
X270965Y85236D02*
D03*
Y90354D02*
D03*
X263681Y87795D02*
D03*
X301279Y79331D02*
D03*
Y84449D02*
D03*
X293996Y81890D02*
D03*
X348721Y86811D02*
D03*
Y81693D02*
D03*
X356004Y84252D02*
D03*
X397736Y131299D02*
D03*
Y136417D02*
D03*
X390453Y133858D02*
D03*
X270965Y103740D02*
D03*
Y108858D02*
D03*
X263681Y106299D02*
D03*
X407185Y76575D02*
D03*
Y81693D02*
D03*
X399902Y79134D02*
D03*
X495374Y122638D02*
D03*
Y127756D02*
D03*
X488091Y125197D02*
D03*
X495374Y85236D02*
D03*
Y90354D02*
D03*
X488091Y87795D02*
D03*
X525689Y79331D02*
D03*
Y84449D02*
D03*
X518405Y81890D02*
D03*
X573130Y86811D02*
D03*
Y81693D02*
D03*
X580413Y84252D02*
D03*
X622146Y131299D02*
D03*
Y136417D02*
D03*
X614862Y133858D02*
D03*
X495374Y103740D02*
D03*
Y108858D02*
D03*
X488091Y106299D02*
D03*
X631595Y76575D02*
D03*
Y81693D02*
D03*
X624311Y79134D02*
D03*
X46555Y193504D02*
D03*
Y198622D02*
D03*
X39272Y196063D02*
D03*
X46555Y156102D02*
D03*
Y161221D02*
D03*
X39272Y158661D02*
D03*
X76870Y150197D02*
D03*
Y155315D02*
D03*
X69587Y152756D02*
D03*
X124311Y157677D02*
D03*
Y152559D02*
D03*
X131595Y155118D02*
D03*
X173327Y202165D02*
D03*
Y207283D02*
D03*
X166043Y204724D02*
D03*
X46555Y174606D02*
D03*
Y179724D02*
D03*
X39272Y177165D02*
D03*
X182776Y147441D02*
D03*
Y152559D02*
D03*
X175492Y150000D02*
D03*
X270965Y193504D02*
D03*
Y198622D02*
D03*
X263681Y196063D02*
D03*
X270965Y156102D02*
D03*
Y161221D02*
D03*
X263681Y158661D02*
D03*
X301279Y150197D02*
D03*
Y155315D02*
D03*
X293996Y152756D02*
D03*
X348721Y157677D02*
D03*
Y152559D02*
D03*
X356004Y155118D02*
D03*
X397736Y202165D02*
D03*
Y207283D02*
D03*
X390453Y204724D02*
D03*
X270965Y174606D02*
D03*
Y179724D02*
D03*
X263681Y177165D02*
D03*
X407185Y147441D02*
D03*
Y152559D02*
D03*
X399902Y150000D02*
D03*
X495374Y193504D02*
D03*
Y198622D02*
D03*
X488091Y196063D02*
D03*
X495374Y156102D02*
D03*
Y161221D02*
D03*
X488091Y158661D02*
D03*
X525689Y150197D02*
D03*
Y155315D02*
D03*
X518405Y152756D02*
D03*
X573130Y157677D02*
D03*
Y152559D02*
D03*
X580413Y155118D02*
D03*
X622146Y202165D02*
D03*
Y207283D02*
D03*
X614862Y204724D02*
D03*
X495374Y174606D02*
D03*
Y179724D02*
D03*
X488091Y177165D02*
D03*
X631595Y147441D02*
D03*
Y152559D02*
D03*
X624311Y150000D02*
D03*
X46555Y264370D02*
D03*
Y269488D02*
D03*
X39272Y266929D02*
D03*
X46555Y226969D02*
D03*
Y232087D02*
D03*
X39272Y229528D02*
D03*
X76870Y221063D02*
D03*
Y226181D02*
D03*
X69587Y223622D02*
D03*
X124311Y228543D02*
D03*
Y223425D02*
D03*
X131595Y225984D02*
D03*
X173327Y273031D02*
D03*
Y278150D02*
D03*
X166043Y275590D02*
D03*
X46555Y245472D02*
D03*
Y250590D02*
D03*
X39272Y248031D02*
D03*
X182776Y218307D02*
D03*
Y223425D02*
D03*
X175492Y220866D02*
D03*
X270965Y264370D02*
D03*
Y269488D02*
D03*
X263681Y266929D02*
D03*
X270965Y226969D02*
D03*
Y232087D02*
D03*
X263681Y229528D02*
D03*
X301279Y221063D02*
D03*
Y226181D02*
D03*
X293996Y223622D02*
D03*
X348721Y228543D02*
D03*
Y223425D02*
D03*
X356004Y225984D02*
D03*
X397736Y273031D02*
D03*
Y278150D02*
D03*
X390453Y275590D02*
D03*
X270965Y245472D02*
D03*
Y250590D02*
D03*
X263681Y248031D02*
D03*
X407185Y218307D02*
D03*
Y223425D02*
D03*
X399902Y220866D02*
D03*
X495374Y264370D02*
D03*
Y269488D02*
D03*
X488091Y266929D02*
D03*
X495374Y226969D02*
D03*
Y232087D02*
D03*
X488091Y229528D02*
D03*
X525689Y221063D02*
D03*
Y226181D02*
D03*
X518405Y223622D02*
D03*
X573130Y228543D02*
D03*
Y223425D02*
D03*
X580413Y225984D02*
D03*
X622146Y273031D02*
D03*
Y278150D02*
D03*
X614862Y275590D02*
D03*
X495374Y245472D02*
D03*
Y250590D02*
D03*
X488091Y248031D02*
D03*
X631595Y218307D02*
D03*
Y223425D02*
D03*
X624311Y220866D02*
D03*
X46555Y335236D02*
D03*
Y340354D02*
D03*
X39272Y337795D02*
D03*
X46555Y297835D02*
D03*
Y302953D02*
D03*
X39272Y300394D02*
D03*
X76870Y291929D02*
D03*
Y297047D02*
D03*
X69587Y294488D02*
D03*
X124311Y299410D02*
D03*
Y294291D02*
D03*
X131595Y296850D02*
D03*
X173327Y343898D02*
D03*
Y349016D02*
D03*
X166043Y346457D02*
D03*
X46555Y316339D02*
D03*
Y321457D02*
D03*
X39272Y318898D02*
D03*
X182776Y289173D02*
D03*
Y294291D02*
D03*
X175492Y291732D02*
D03*
X270965Y335236D02*
D03*
Y340354D02*
D03*
X263681Y337795D02*
D03*
X270965Y297835D02*
D03*
Y302953D02*
D03*
X263681Y300394D02*
D03*
X301279Y291929D02*
D03*
Y297047D02*
D03*
X293996Y294488D02*
D03*
X348721Y299410D02*
D03*
Y294291D02*
D03*
X356004Y296850D02*
D03*
X397736Y343898D02*
D03*
Y349016D02*
D03*
X390453Y346457D02*
D03*
X270965Y316339D02*
D03*
Y321457D02*
D03*
X263681Y318898D02*
D03*
X407185Y289173D02*
D03*
Y294291D02*
D03*
X399902Y291732D02*
D03*
X495374Y335236D02*
D03*
Y340354D02*
D03*
X488091Y337795D02*
D03*
X495374Y297835D02*
D03*
Y302953D02*
D03*
X488091Y300394D02*
D03*
X525689Y291929D02*
D03*
Y297047D02*
D03*
X518405Y294488D02*
D03*
X573130Y299410D02*
D03*
Y294291D02*
D03*
X580413Y296850D02*
D03*
X622146Y343898D02*
D03*
Y349016D02*
D03*
X614862Y346457D02*
D03*
X495374Y316339D02*
D03*
Y321457D02*
D03*
X488091Y318898D02*
D03*
X631595Y289173D02*
D03*
Y294291D02*
D03*
X624311Y291732D02*
D03*
D12*
X84959Y55118D02*
D03*
X76459D02*
D03*
X181415Y46457D02*
D03*
X172915D02*
D03*
X173309Y23228D02*
D03*
X181809D02*
D03*
X309368Y55118D02*
D03*
X300868D02*
D03*
X405825Y46457D02*
D03*
X397325D02*
D03*
X397719Y23228D02*
D03*
X406218D02*
D03*
X533778Y55118D02*
D03*
X525278D02*
D03*
X630234Y46457D02*
D03*
X621734D02*
D03*
X622128Y23228D02*
D03*
X630628D02*
D03*
X84959Y125984D02*
D03*
X76459D02*
D03*
X181415Y117323D02*
D03*
X172915D02*
D03*
X173309Y94095D02*
D03*
X181809D02*
D03*
X309368Y125984D02*
D03*
X300868D02*
D03*
X405825Y117323D02*
D03*
X397325D02*
D03*
X397719Y94095D02*
D03*
X406218D02*
D03*
X533778Y125984D02*
D03*
X525278D02*
D03*
X630234Y117323D02*
D03*
X621734D02*
D03*
X622128Y94095D02*
D03*
X630628D02*
D03*
X84959Y196850D02*
D03*
X76459D02*
D03*
X181415Y188189D02*
D03*
X172915D02*
D03*
X173309Y164961D02*
D03*
X181809D02*
D03*
X309368Y196850D02*
D03*
X300868D02*
D03*
X405825Y188189D02*
D03*
X397325D02*
D03*
X397719Y164961D02*
D03*
X406218D02*
D03*
X533778Y196850D02*
D03*
X525278D02*
D03*
X630234Y188189D02*
D03*
X621734D02*
D03*
X622128Y164961D02*
D03*
X630628D02*
D03*
X84959Y267717D02*
D03*
X76459D02*
D03*
X181415Y259055D02*
D03*
X172915D02*
D03*
X173309Y235827D02*
D03*
X181809D02*
D03*
X309368Y267717D02*
D03*
X300868D02*
D03*
X405825Y259055D02*
D03*
X397325D02*
D03*
X397719Y235827D02*
D03*
X406218D02*
D03*
X533778Y267717D02*
D03*
X525278D02*
D03*
X630234Y259055D02*
D03*
X621734D02*
D03*
X622128Y235827D02*
D03*
X630628D02*
D03*
X84959Y338583D02*
D03*
X76459D02*
D03*
X181415Y329921D02*
D03*
X172915D02*
D03*
X173309Y306693D02*
D03*
X181809D02*
D03*
X309368Y338583D02*
D03*
X300868D02*
D03*
X405825Y329921D02*
D03*
X397325D02*
D03*
X397719Y306693D02*
D03*
X406218D02*
D03*
X533778Y338583D02*
D03*
X525278D02*
D03*
X630234Y329921D02*
D03*
X621734D02*
D03*
X622128Y306693D02*
D03*
X630628D02*
D03*
D13*
X140945Y26378D02*
D03*
Y57874D02*
D03*
X365354Y26378D02*
D03*
Y57874D02*
D03*
X589764Y26378D02*
D03*
Y57874D02*
D03*
X140945Y97244D02*
D03*
Y128740D02*
D03*
X365354Y97244D02*
D03*
Y128740D02*
D03*
X589764Y97244D02*
D03*
Y128740D02*
D03*
X140945Y168110D02*
D03*
Y199606D02*
D03*
X365354Y168110D02*
D03*
Y199606D02*
D03*
X589764Y168110D02*
D03*
Y199606D02*
D03*
X140945Y238976D02*
D03*
Y270472D02*
D03*
X365354Y238976D02*
D03*
Y270472D02*
D03*
X589764Y238976D02*
D03*
Y270472D02*
D03*
X140945Y309842D02*
D03*
Y341339D02*
D03*
X365354Y309842D02*
D03*
Y341339D02*
D03*
X589764Y309842D02*
D03*
Y341339D02*
D03*
D14*
X189370Y4724D02*
D03*
Y11024D02*
D03*
X53150Y14567D02*
D03*
Y20866D02*
D03*
X180315Y65748D02*
D03*
Y59449D02*
D03*
X53543Y51181D02*
D03*
Y57480D02*
D03*
X83465Y8268D02*
D03*
Y14567D02*
D03*
X117717Y16929D02*
D03*
Y10630D02*
D03*
X155512Y54724D02*
D03*
Y48425D02*
D03*
X53150Y33071D02*
D03*
Y39370D02*
D03*
X413779Y4724D02*
D03*
Y11024D02*
D03*
X277559Y14567D02*
D03*
Y20866D02*
D03*
X404724Y65748D02*
D03*
Y59449D02*
D03*
X277953Y51181D02*
D03*
Y57480D02*
D03*
X307874Y8268D02*
D03*
Y14567D02*
D03*
X342126Y16929D02*
D03*
Y10630D02*
D03*
X379921Y54724D02*
D03*
Y48425D02*
D03*
X277559Y33071D02*
D03*
Y39370D02*
D03*
X638189Y4724D02*
D03*
Y11024D02*
D03*
X501968Y14567D02*
D03*
Y20866D02*
D03*
X629134Y65748D02*
D03*
Y59449D02*
D03*
X502362Y51181D02*
D03*
Y57480D02*
D03*
X532283Y8268D02*
D03*
Y14567D02*
D03*
X566535Y16929D02*
D03*
Y10630D02*
D03*
X604331Y54724D02*
D03*
Y48425D02*
D03*
X501968Y33071D02*
D03*
Y39370D02*
D03*
X189370Y75590D02*
D03*
Y81890D02*
D03*
X53150Y85433D02*
D03*
Y91732D02*
D03*
X180315Y136614D02*
D03*
Y130315D02*
D03*
X53543Y122047D02*
D03*
Y128347D02*
D03*
X83465Y79134D02*
D03*
Y85433D02*
D03*
X117717Y87795D02*
D03*
Y81496D02*
D03*
X155512Y125591D02*
D03*
Y119291D02*
D03*
X53150Y103937D02*
D03*
Y110236D02*
D03*
X413779Y75590D02*
D03*
Y81890D02*
D03*
X277559Y85433D02*
D03*
Y91732D02*
D03*
X404724Y136614D02*
D03*
Y130315D02*
D03*
X277953Y122047D02*
D03*
Y128347D02*
D03*
X307874Y79134D02*
D03*
Y85433D02*
D03*
X342126Y87795D02*
D03*
Y81496D02*
D03*
X379921Y125591D02*
D03*
Y119291D02*
D03*
X277559Y103937D02*
D03*
Y110236D02*
D03*
X638189Y75590D02*
D03*
Y81890D02*
D03*
X501968Y85433D02*
D03*
Y91732D02*
D03*
X629134Y136614D02*
D03*
Y130315D02*
D03*
X502362Y122047D02*
D03*
Y128347D02*
D03*
X532283Y79134D02*
D03*
Y85433D02*
D03*
X566535Y87795D02*
D03*
Y81496D02*
D03*
X604331Y125591D02*
D03*
Y119291D02*
D03*
X501968Y103937D02*
D03*
Y110236D02*
D03*
X189370Y146457D02*
D03*
Y152756D02*
D03*
X53150Y156299D02*
D03*
Y162598D02*
D03*
X180315Y207480D02*
D03*
Y201181D02*
D03*
X53543Y192913D02*
D03*
Y199213D02*
D03*
X83465Y150000D02*
D03*
Y156299D02*
D03*
X117717Y158661D02*
D03*
Y152362D02*
D03*
X155512Y196457D02*
D03*
Y190157D02*
D03*
X53150Y174803D02*
D03*
Y181102D02*
D03*
X413779Y146457D02*
D03*
Y152756D02*
D03*
X277559Y156299D02*
D03*
Y162598D02*
D03*
X404724Y207480D02*
D03*
Y201181D02*
D03*
X277953Y192913D02*
D03*
Y199213D02*
D03*
X307874Y150000D02*
D03*
Y156299D02*
D03*
X342126Y158661D02*
D03*
Y152362D02*
D03*
X379921Y196457D02*
D03*
Y190157D02*
D03*
X277559Y174803D02*
D03*
Y181102D02*
D03*
X638189Y146457D02*
D03*
Y152756D02*
D03*
X501968Y156299D02*
D03*
Y162598D02*
D03*
X629134Y207480D02*
D03*
Y201181D02*
D03*
X502362Y192913D02*
D03*
Y199213D02*
D03*
X532283Y150000D02*
D03*
Y156299D02*
D03*
X566535Y158661D02*
D03*
Y152362D02*
D03*
X604331Y196457D02*
D03*
Y190157D02*
D03*
X501968Y174803D02*
D03*
Y181102D02*
D03*
X189370Y217323D02*
D03*
Y223622D02*
D03*
X53150Y227165D02*
D03*
Y233465D02*
D03*
X180315Y278346D02*
D03*
Y272047D02*
D03*
X53543Y263779D02*
D03*
Y270079D02*
D03*
X83465Y220866D02*
D03*
Y227165D02*
D03*
X117717Y229528D02*
D03*
Y223228D02*
D03*
X155512Y267323D02*
D03*
Y261024D02*
D03*
X53150Y245669D02*
D03*
Y251969D02*
D03*
X413779Y217323D02*
D03*
Y223622D02*
D03*
X277559Y227165D02*
D03*
Y233465D02*
D03*
X404724Y278346D02*
D03*
Y272047D02*
D03*
X277953Y263779D02*
D03*
Y270079D02*
D03*
X307874Y220866D02*
D03*
Y227165D02*
D03*
X342126Y229528D02*
D03*
Y223228D02*
D03*
X379921Y267323D02*
D03*
Y261024D02*
D03*
X277559Y245669D02*
D03*
Y251969D02*
D03*
X638189Y217323D02*
D03*
Y223622D02*
D03*
X501968Y227165D02*
D03*
Y233465D02*
D03*
X629134Y278346D02*
D03*
Y272047D02*
D03*
X502362Y263779D02*
D03*
Y270079D02*
D03*
X532283Y220866D02*
D03*
Y227165D02*
D03*
X566535Y229528D02*
D03*
Y223228D02*
D03*
X604331Y267323D02*
D03*
Y261024D02*
D03*
X501968Y245669D02*
D03*
Y251969D02*
D03*
X189370Y288189D02*
D03*
Y294488D02*
D03*
X53150Y298031D02*
D03*
Y304331D02*
D03*
X180315Y349213D02*
D03*
Y342913D02*
D03*
X53543Y334646D02*
D03*
Y340945D02*
D03*
X83465Y291732D02*
D03*
Y298031D02*
D03*
X117717Y300394D02*
D03*
Y294094D02*
D03*
X155512Y338189D02*
D03*
Y331890D02*
D03*
X53150Y316535D02*
D03*
Y322835D02*
D03*
X413779Y288189D02*
D03*
Y294488D02*
D03*
X277559Y298031D02*
D03*
Y304331D02*
D03*
X404724Y349213D02*
D03*
Y342913D02*
D03*
X277953Y334646D02*
D03*
Y340945D02*
D03*
X307874Y291732D02*
D03*
Y298031D02*
D03*
X342126Y300394D02*
D03*
Y294094D02*
D03*
X379921Y338189D02*
D03*
Y331890D02*
D03*
X277559Y316535D02*
D03*
Y322835D02*
D03*
X638189Y288189D02*
D03*
Y294488D02*
D03*
X501968Y298031D02*
D03*
Y304331D02*
D03*
X629134Y349213D02*
D03*
Y342913D02*
D03*
X502362Y334646D02*
D03*
Y340945D02*
D03*
X532283Y291732D02*
D03*
Y298031D02*
D03*
X566535Y300394D02*
D03*
Y294094D02*
D03*
X604331Y338189D02*
D03*
Y331890D02*
D03*
X501968Y316535D02*
D03*
Y322835D02*
D03*
D15*
X68504Y64567D02*
D03*
X62205D02*
D03*
X79134Y48031D02*
D03*
X85433D02*
D03*
Y42913D02*
D03*
X79134D02*
D03*
Y37795D02*
D03*
X85433D02*
D03*
X79134Y32677D02*
D03*
X85433D02*
D03*
X89764Y24016D02*
D03*
X96063D02*
D03*
Y17717D02*
D03*
X89764D02*
D03*
X103543Y6299D02*
D03*
X109843D02*
D03*
X124803Y31102D02*
D03*
X118504D02*
D03*
X140945Y66535D02*
D03*
X147244D02*
D03*
X292913Y64567D02*
D03*
X286614D02*
D03*
X303543Y48031D02*
D03*
X309842D02*
D03*
Y42913D02*
D03*
X303543D02*
D03*
Y37795D02*
D03*
X309842D02*
D03*
X303543Y32677D02*
D03*
X309842D02*
D03*
X314173Y24016D02*
D03*
X320472D02*
D03*
Y17717D02*
D03*
X314173D02*
D03*
X327953Y6299D02*
D03*
X334252D02*
D03*
X349213Y31102D02*
D03*
X342913D02*
D03*
X365354Y66535D02*
D03*
X371654D02*
D03*
X517323Y64567D02*
D03*
X511024D02*
D03*
X527953Y48031D02*
D03*
X534252D02*
D03*
Y42913D02*
D03*
X527953D02*
D03*
Y37795D02*
D03*
X534252D02*
D03*
X527953Y32677D02*
D03*
X534252D02*
D03*
X538583Y24016D02*
D03*
X544882D02*
D03*
Y17717D02*
D03*
X538583D02*
D03*
X552362Y6299D02*
D03*
X558661D02*
D03*
X573622Y31102D02*
D03*
X567323D02*
D03*
X589764Y66535D02*
D03*
X596063D02*
D03*
X68504Y135433D02*
D03*
X62205D02*
D03*
X79134Y118898D02*
D03*
X85433D02*
D03*
Y113779D02*
D03*
X79134D02*
D03*
Y108661D02*
D03*
X85433D02*
D03*
X79134Y103543D02*
D03*
X85433D02*
D03*
X89764Y94882D02*
D03*
X96063D02*
D03*
Y88583D02*
D03*
X89764D02*
D03*
X103543Y77165D02*
D03*
X109843D02*
D03*
X124803Y101969D02*
D03*
X118504D02*
D03*
X140945Y137402D02*
D03*
X147244D02*
D03*
X292913Y135433D02*
D03*
X286614D02*
D03*
X303543Y118898D02*
D03*
X309842D02*
D03*
Y113779D02*
D03*
X303543D02*
D03*
Y108661D02*
D03*
X309842D02*
D03*
X303543Y103543D02*
D03*
X309842D02*
D03*
X314173Y94882D02*
D03*
X320472D02*
D03*
Y88583D02*
D03*
X314173D02*
D03*
X327953Y77165D02*
D03*
X334252D02*
D03*
X349213Y101969D02*
D03*
X342913D02*
D03*
X365354Y137402D02*
D03*
X371654D02*
D03*
X517323Y135433D02*
D03*
X511024D02*
D03*
X527953Y118898D02*
D03*
X534252D02*
D03*
Y113779D02*
D03*
X527953D02*
D03*
Y108661D02*
D03*
X534252D02*
D03*
X527953Y103543D02*
D03*
X534252D02*
D03*
X538583Y94882D02*
D03*
X544882D02*
D03*
Y88583D02*
D03*
X538583D02*
D03*
X552362Y77165D02*
D03*
X558661D02*
D03*
X573622Y101969D02*
D03*
X567323D02*
D03*
X589764Y137402D02*
D03*
X596063D02*
D03*
X68504Y206299D02*
D03*
X62205D02*
D03*
X79134Y189764D02*
D03*
X85433D02*
D03*
Y184646D02*
D03*
X79134D02*
D03*
Y179527D02*
D03*
X85433D02*
D03*
X79134Y174409D02*
D03*
X85433D02*
D03*
X89764Y165748D02*
D03*
X96063D02*
D03*
Y159449D02*
D03*
X89764D02*
D03*
X103543Y148031D02*
D03*
X109843D02*
D03*
X124803Y172835D02*
D03*
X118504D02*
D03*
X140945Y208268D02*
D03*
X147244D02*
D03*
X292913Y206299D02*
D03*
X286614D02*
D03*
X303543Y189764D02*
D03*
X309842D02*
D03*
Y184646D02*
D03*
X303543D02*
D03*
Y179527D02*
D03*
X309842D02*
D03*
X303543Y174409D02*
D03*
X309842D02*
D03*
X314173Y165748D02*
D03*
X320472D02*
D03*
Y159449D02*
D03*
X314173D02*
D03*
X327953Y148031D02*
D03*
X334252D02*
D03*
X349213Y172835D02*
D03*
X342913D02*
D03*
X365354Y208268D02*
D03*
X371654D02*
D03*
X517323Y206299D02*
D03*
X511024D02*
D03*
X527953Y189764D02*
D03*
X534252D02*
D03*
Y184646D02*
D03*
X527953D02*
D03*
Y179527D02*
D03*
X534252D02*
D03*
X527953Y174409D02*
D03*
X534252D02*
D03*
X538583Y165748D02*
D03*
X544882D02*
D03*
Y159449D02*
D03*
X538583D02*
D03*
X552362Y148031D02*
D03*
X558661D02*
D03*
X573622Y172835D02*
D03*
X567323D02*
D03*
X589764Y208268D02*
D03*
X596063D02*
D03*
X68504Y277165D02*
D03*
X62205D02*
D03*
X79134Y260630D02*
D03*
X85433D02*
D03*
Y255512D02*
D03*
X79134D02*
D03*
Y250394D02*
D03*
X85433D02*
D03*
X79134Y245276D02*
D03*
X85433D02*
D03*
X89764Y236614D02*
D03*
X96063D02*
D03*
Y230315D02*
D03*
X89764D02*
D03*
X103543Y218898D02*
D03*
X109843D02*
D03*
X124803Y243701D02*
D03*
X118504D02*
D03*
X140945Y279134D02*
D03*
X147244D02*
D03*
X292913Y277165D02*
D03*
X286614D02*
D03*
X303543Y260630D02*
D03*
X309842D02*
D03*
Y255512D02*
D03*
X303543D02*
D03*
Y250394D02*
D03*
X309842D02*
D03*
X303543Y245276D02*
D03*
X309842D02*
D03*
X314173Y236614D02*
D03*
X320472D02*
D03*
Y230315D02*
D03*
X314173D02*
D03*
X327953Y218898D02*
D03*
X334252D02*
D03*
X349213Y243701D02*
D03*
X342913D02*
D03*
X365354Y279134D02*
D03*
X371654D02*
D03*
X517323Y277165D02*
D03*
X511024D02*
D03*
X527953Y260630D02*
D03*
X534252D02*
D03*
Y255512D02*
D03*
X527953D02*
D03*
Y250394D02*
D03*
X534252D02*
D03*
X527953Y245276D02*
D03*
X534252D02*
D03*
X538583Y236614D02*
D03*
X544882D02*
D03*
Y230315D02*
D03*
X538583D02*
D03*
X552362Y218898D02*
D03*
X558661D02*
D03*
X573622Y243701D02*
D03*
X567323D02*
D03*
X589764Y279134D02*
D03*
X596063D02*
D03*
X68504Y348031D02*
D03*
X62205D02*
D03*
X79134Y331496D02*
D03*
X85433D02*
D03*
Y326378D02*
D03*
X79134D02*
D03*
Y321260D02*
D03*
X85433D02*
D03*
X79134Y316142D02*
D03*
X85433D02*
D03*
X89764Y307480D02*
D03*
X96063D02*
D03*
Y301181D02*
D03*
X89764D02*
D03*
X103543Y289764D02*
D03*
X109843D02*
D03*
X124803Y314567D02*
D03*
X118504D02*
D03*
X140945Y350000D02*
D03*
X147244D02*
D03*
X292913Y348031D02*
D03*
X286614D02*
D03*
X303543Y331496D02*
D03*
X309842D02*
D03*
Y326378D02*
D03*
X303543D02*
D03*
Y321260D02*
D03*
X309842D02*
D03*
X303543Y316142D02*
D03*
X309842D02*
D03*
X314173Y307480D02*
D03*
X320472D02*
D03*
Y301181D02*
D03*
X314173D02*
D03*
X327953Y289764D02*
D03*
X334252D02*
D03*
X349213Y314567D02*
D03*
X342913D02*
D03*
X365354Y350000D02*
D03*
X371654D02*
D03*
X517323Y348031D02*
D03*
X511024D02*
D03*
X527953Y331496D02*
D03*
X534252D02*
D03*
Y326378D02*
D03*
X527953D02*
D03*
Y321260D02*
D03*
X534252D02*
D03*
X527953Y316142D02*
D03*
X534252D02*
D03*
X538583Y307480D02*
D03*
X544882D02*
D03*
Y301181D02*
D03*
X538583D02*
D03*
X552362Y289764D02*
D03*
X558661D02*
D03*
X573622Y314567D02*
D03*
X567323D02*
D03*
X589764Y350000D02*
D03*
X596063D02*
D03*
D16*
X67126Y57579D02*
D03*
X62008D02*
D03*
X64567Y50295D02*
D03*
X103347Y12894D02*
D03*
X108465D02*
D03*
X105905Y20177D02*
D03*
X291535Y57579D02*
D03*
X286417D02*
D03*
X288976Y50295D02*
D03*
X327756Y12894D02*
D03*
X332874D02*
D03*
X330315Y20177D02*
D03*
X515945Y57579D02*
D03*
X510827D02*
D03*
X513386Y50295D02*
D03*
X552165Y12894D02*
D03*
X557283D02*
D03*
X554724Y20177D02*
D03*
X67126Y128445D02*
D03*
X62008D02*
D03*
X64567Y121161D02*
D03*
X103347Y83760D02*
D03*
X108465D02*
D03*
X105905Y91043D02*
D03*
X291535Y128445D02*
D03*
X286417D02*
D03*
X288976Y121161D02*
D03*
X327756Y83760D02*
D03*
X332874D02*
D03*
X330315Y91043D02*
D03*
X515945Y128445D02*
D03*
X510827D02*
D03*
X513386Y121161D02*
D03*
X552165Y83760D02*
D03*
X557283D02*
D03*
X554724Y91043D02*
D03*
X67126Y199311D02*
D03*
X62008D02*
D03*
X64567Y192028D02*
D03*
X103347Y154626D02*
D03*
X108465D02*
D03*
X105905Y161909D02*
D03*
X291535Y199311D02*
D03*
X286417D02*
D03*
X288976Y192028D02*
D03*
X327756Y154626D02*
D03*
X332874D02*
D03*
X330315Y161909D02*
D03*
X515945Y199311D02*
D03*
X510827D02*
D03*
X513386Y192028D02*
D03*
X552165Y154626D02*
D03*
X557283D02*
D03*
X554724Y161909D02*
D03*
X67126Y270177D02*
D03*
X62008D02*
D03*
X64567Y262894D02*
D03*
X103347Y225492D02*
D03*
X108465D02*
D03*
X105905Y232776D02*
D03*
X291535Y270177D02*
D03*
X286417D02*
D03*
X288976Y262894D02*
D03*
X327756Y225492D02*
D03*
X332874D02*
D03*
X330315Y232776D02*
D03*
X515945Y270177D02*
D03*
X510827D02*
D03*
X513386Y262894D02*
D03*
X552165Y225492D02*
D03*
X557283D02*
D03*
X554724Y232776D02*
D03*
X67126Y341043D02*
D03*
X62008D02*
D03*
X64567Y333760D02*
D03*
X103347Y296358D02*
D03*
X108465D02*
D03*
X105905Y303642D02*
D03*
X291535Y341043D02*
D03*
X286417D02*
D03*
X288976Y333760D02*
D03*
X327756Y296358D02*
D03*
X332874D02*
D03*
X330315Y303642D02*
D03*
X515945Y341043D02*
D03*
X510827D02*
D03*
X513386Y333760D02*
D03*
X552165Y296358D02*
D03*
X557283D02*
D03*
X554724Y303642D02*
D03*
D17*
X93504Y46260D02*
D03*
Y44291D02*
D03*
Y42323D02*
D03*
Y40354D02*
D03*
Y38386D02*
D03*
Y36417D02*
D03*
Y34449D02*
D03*
Y32480D02*
D03*
X112008Y46260D02*
D03*
Y44291D02*
D03*
Y42323D02*
D03*
Y40354D02*
D03*
Y38386D02*
D03*
Y36417D02*
D03*
Y34449D02*
D03*
Y32480D02*
D03*
X317913Y46260D02*
D03*
Y44291D02*
D03*
Y42323D02*
D03*
Y40354D02*
D03*
Y38386D02*
D03*
Y36417D02*
D03*
Y34449D02*
D03*
Y32480D02*
D03*
X336417Y46260D02*
D03*
Y44291D02*
D03*
Y42323D02*
D03*
Y40354D02*
D03*
Y38386D02*
D03*
Y36417D02*
D03*
Y34449D02*
D03*
Y32480D02*
D03*
X542323Y46260D02*
D03*
Y44291D02*
D03*
Y42323D02*
D03*
Y40354D02*
D03*
Y38386D02*
D03*
Y36417D02*
D03*
Y34449D02*
D03*
Y32480D02*
D03*
X560827Y46260D02*
D03*
Y44291D02*
D03*
Y42323D02*
D03*
Y40354D02*
D03*
Y38386D02*
D03*
Y36417D02*
D03*
Y34449D02*
D03*
Y32480D02*
D03*
X93504Y117126D02*
D03*
Y115157D02*
D03*
Y113189D02*
D03*
Y111221D02*
D03*
Y109252D02*
D03*
Y107283D02*
D03*
Y105315D02*
D03*
Y103347D02*
D03*
X112008Y117126D02*
D03*
Y115157D02*
D03*
Y113189D02*
D03*
Y111221D02*
D03*
Y109252D02*
D03*
Y107283D02*
D03*
Y105315D02*
D03*
Y103347D02*
D03*
X317913Y117126D02*
D03*
Y115157D02*
D03*
Y113189D02*
D03*
Y111221D02*
D03*
Y109252D02*
D03*
Y107283D02*
D03*
Y105315D02*
D03*
Y103347D02*
D03*
X336417Y117126D02*
D03*
Y115157D02*
D03*
Y113189D02*
D03*
Y111221D02*
D03*
Y109252D02*
D03*
Y107283D02*
D03*
Y105315D02*
D03*
Y103347D02*
D03*
X542323Y117126D02*
D03*
Y115157D02*
D03*
Y113189D02*
D03*
Y111221D02*
D03*
Y109252D02*
D03*
Y107283D02*
D03*
Y105315D02*
D03*
Y103347D02*
D03*
X560827Y117126D02*
D03*
Y115157D02*
D03*
Y113189D02*
D03*
Y111221D02*
D03*
Y109252D02*
D03*
Y107283D02*
D03*
Y105315D02*
D03*
Y103347D02*
D03*
X93504Y187992D02*
D03*
Y186024D02*
D03*
Y184055D02*
D03*
Y182087D02*
D03*
Y180118D02*
D03*
Y178150D02*
D03*
Y176181D02*
D03*
Y174213D02*
D03*
X112008Y187992D02*
D03*
Y186024D02*
D03*
Y184055D02*
D03*
Y182087D02*
D03*
Y180118D02*
D03*
Y178150D02*
D03*
Y176181D02*
D03*
Y174213D02*
D03*
X317913Y187992D02*
D03*
Y186024D02*
D03*
Y184055D02*
D03*
Y182087D02*
D03*
Y180118D02*
D03*
Y178150D02*
D03*
Y176181D02*
D03*
Y174213D02*
D03*
X336417Y187992D02*
D03*
Y186024D02*
D03*
Y184055D02*
D03*
Y182087D02*
D03*
Y180118D02*
D03*
Y178150D02*
D03*
Y176181D02*
D03*
Y174213D02*
D03*
X542323Y187992D02*
D03*
Y186024D02*
D03*
Y184055D02*
D03*
Y182087D02*
D03*
Y180118D02*
D03*
Y178150D02*
D03*
Y176181D02*
D03*
Y174213D02*
D03*
X560827Y187992D02*
D03*
Y186024D02*
D03*
Y184055D02*
D03*
Y182087D02*
D03*
Y180118D02*
D03*
Y178150D02*
D03*
Y176181D02*
D03*
Y174213D02*
D03*
X93504Y258858D02*
D03*
Y256890D02*
D03*
Y254921D02*
D03*
Y252953D02*
D03*
Y250984D02*
D03*
Y249016D02*
D03*
Y247047D02*
D03*
Y245079D02*
D03*
X112008Y258858D02*
D03*
Y256890D02*
D03*
Y254921D02*
D03*
Y252953D02*
D03*
Y250984D02*
D03*
Y249016D02*
D03*
Y247047D02*
D03*
Y245079D02*
D03*
X317913Y258858D02*
D03*
Y256890D02*
D03*
Y254921D02*
D03*
Y252953D02*
D03*
Y250984D02*
D03*
Y249016D02*
D03*
Y247047D02*
D03*
Y245079D02*
D03*
X336417Y258858D02*
D03*
Y256890D02*
D03*
Y254921D02*
D03*
Y252953D02*
D03*
Y250984D02*
D03*
Y249016D02*
D03*
Y247047D02*
D03*
Y245079D02*
D03*
X542323Y258858D02*
D03*
Y256890D02*
D03*
Y254921D02*
D03*
Y252953D02*
D03*
Y250984D02*
D03*
Y249016D02*
D03*
Y247047D02*
D03*
Y245079D02*
D03*
X560827Y258858D02*
D03*
Y256890D02*
D03*
Y254921D02*
D03*
Y252953D02*
D03*
Y250984D02*
D03*
Y249016D02*
D03*
Y247047D02*
D03*
Y245079D02*
D03*
X93504Y329724D02*
D03*
Y327756D02*
D03*
Y325787D02*
D03*
Y323819D02*
D03*
Y321850D02*
D03*
Y319882D02*
D03*
Y317913D02*
D03*
Y315945D02*
D03*
X112008Y329724D02*
D03*
Y327756D02*
D03*
Y325787D02*
D03*
Y323819D02*
D03*
Y321850D02*
D03*
Y319882D02*
D03*
Y317913D02*
D03*
Y315945D02*
D03*
X317913Y329724D02*
D03*
Y327756D02*
D03*
Y325787D02*
D03*
Y323819D02*
D03*
Y321850D02*
D03*
Y319882D02*
D03*
Y317913D02*
D03*
Y315945D02*
D03*
X336417Y329724D02*
D03*
Y327756D02*
D03*
Y325787D02*
D03*
Y323819D02*
D03*
Y321850D02*
D03*
Y319882D02*
D03*
Y317913D02*
D03*
Y315945D02*
D03*
X542323Y329724D02*
D03*
Y327756D02*
D03*
Y325787D02*
D03*
Y323819D02*
D03*
Y321850D02*
D03*
Y319882D02*
D03*
Y317913D02*
D03*
Y315945D02*
D03*
X560827Y329724D02*
D03*
Y327756D02*
D03*
Y325787D02*
D03*
Y323819D02*
D03*
Y321850D02*
D03*
Y319882D02*
D03*
Y317913D02*
D03*
Y315945D02*
D03*
D18*
X109646Y30118D02*
D03*
X107677D02*
D03*
X105709D02*
D03*
X103740D02*
D03*
X101772D02*
D03*
X99803D02*
D03*
X97835D02*
D03*
X95866D02*
D03*
Y48622D02*
D03*
X97835D02*
D03*
X99803D02*
D03*
X101772D02*
D03*
X103740D02*
D03*
X105709D02*
D03*
X107677D02*
D03*
X109646D02*
D03*
X334055Y30118D02*
D03*
X332087D02*
D03*
X330118D02*
D03*
X328150D02*
D03*
X326181D02*
D03*
X324213D02*
D03*
X322244D02*
D03*
X320276D02*
D03*
Y48622D02*
D03*
X322244D02*
D03*
X324213D02*
D03*
X326181D02*
D03*
X328150D02*
D03*
X330118D02*
D03*
X332087D02*
D03*
X334055D02*
D03*
X558465Y30118D02*
D03*
X556496D02*
D03*
X554528D02*
D03*
X552559D02*
D03*
X550591D02*
D03*
X548622D02*
D03*
X546654D02*
D03*
X544685D02*
D03*
Y48622D02*
D03*
X546654D02*
D03*
X548622D02*
D03*
X550591D02*
D03*
X552559D02*
D03*
X554528D02*
D03*
X556496D02*
D03*
X558465D02*
D03*
X109646Y100984D02*
D03*
X107677D02*
D03*
X105709D02*
D03*
X103740D02*
D03*
X101772D02*
D03*
X99803D02*
D03*
X97835D02*
D03*
X95866D02*
D03*
Y119488D02*
D03*
X97835D02*
D03*
X99803D02*
D03*
X101772D02*
D03*
X103740D02*
D03*
X105709D02*
D03*
X107677D02*
D03*
X109646D02*
D03*
X334055Y100984D02*
D03*
X332087D02*
D03*
X330118D02*
D03*
X328150D02*
D03*
X326181D02*
D03*
X324213D02*
D03*
X322244D02*
D03*
X320276D02*
D03*
Y119488D02*
D03*
X322244D02*
D03*
X324213D02*
D03*
X326181D02*
D03*
X328150D02*
D03*
X330118D02*
D03*
X332087D02*
D03*
X334055D02*
D03*
X558465Y100984D02*
D03*
X556496D02*
D03*
X554528D02*
D03*
X552559D02*
D03*
X550591D02*
D03*
X548622D02*
D03*
X546654D02*
D03*
X544685D02*
D03*
Y119488D02*
D03*
X546654D02*
D03*
X548622D02*
D03*
X550591D02*
D03*
X552559D02*
D03*
X554528D02*
D03*
X556496D02*
D03*
X558465D02*
D03*
X109646Y171850D02*
D03*
X107677D02*
D03*
X105709D02*
D03*
X103740D02*
D03*
X101772D02*
D03*
X99803D02*
D03*
X97835D02*
D03*
X95866D02*
D03*
Y190354D02*
D03*
X97835D02*
D03*
X99803D02*
D03*
X101772D02*
D03*
X103740D02*
D03*
X105709D02*
D03*
X107677D02*
D03*
X109646D02*
D03*
X334055Y171850D02*
D03*
X332087D02*
D03*
X330118D02*
D03*
X328150D02*
D03*
X326181D02*
D03*
X324213D02*
D03*
X322244D02*
D03*
X320276D02*
D03*
Y190354D02*
D03*
X322244D02*
D03*
X324213D02*
D03*
X326181D02*
D03*
X328150D02*
D03*
X330118D02*
D03*
X332087D02*
D03*
X334055D02*
D03*
X558465Y171850D02*
D03*
X556496D02*
D03*
X554528D02*
D03*
X552559D02*
D03*
X550591D02*
D03*
X548622D02*
D03*
X546654D02*
D03*
X544685D02*
D03*
Y190354D02*
D03*
X546654D02*
D03*
X548622D02*
D03*
X550591D02*
D03*
X552559D02*
D03*
X554528D02*
D03*
X556496D02*
D03*
X558465D02*
D03*
X109646Y242717D02*
D03*
X107677D02*
D03*
X105709D02*
D03*
X103740D02*
D03*
X101772D02*
D03*
X99803D02*
D03*
X97835D02*
D03*
X95866D02*
D03*
Y261221D02*
D03*
X97835D02*
D03*
X99803D02*
D03*
X101772D02*
D03*
X103740D02*
D03*
X105709D02*
D03*
X107677D02*
D03*
X109646D02*
D03*
X334055Y242717D02*
D03*
X332087D02*
D03*
X330118D02*
D03*
X328150D02*
D03*
X326181D02*
D03*
X324213D02*
D03*
X322244D02*
D03*
X320276D02*
D03*
Y261221D02*
D03*
X322244D02*
D03*
X324213D02*
D03*
X326181D02*
D03*
X328150D02*
D03*
X330118D02*
D03*
X332087D02*
D03*
X334055D02*
D03*
X558465Y242717D02*
D03*
X556496D02*
D03*
X554528D02*
D03*
X552559D02*
D03*
X550591D02*
D03*
X548622D02*
D03*
X546654D02*
D03*
X544685D02*
D03*
Y261221D02*
D03*
X546654D02*
D03*
X548622D02*
D03*
X550591D02*
D03*
X552559D02*
D03*
X554528D02*
D03*
X556496D02*
D03*
X558465D02*
D03*
X109646Y313583D02*
D03*
X107677D02*
D03*
X105709D02*
D03*
X103740D02*
D03*
X101772D02*
D03*
X99803D02*
D03*
X97835D02*
D03*
X95866D02*
D03*
Y332087D02*
D03*
X97835D02*
D03*
X99803D02*
D03*
X101772D02*
D03*
X103740D02*
D03*
X105709D02*
D03*
X107677D02*
D03*
X109646D02*
D03*
X334055Y313583D02*
D03*
X332087D02*
D03*
X330118D02*
D03*
X328150D02*
D03*
X326181D02*
D03*
X324213D02*
D03*
X322244D02*
D03*
X320276D02*
D03*
Y332087D02*
D03*
X322244D02*
D03*
X324213D02*
D03*
X326181D02*
D03*
X328150D02*
D03*
X330118D02*
D03*
X332087D02*
D03*
X334055D02*
D03*
X558465Y313583D02*
D03*
X556496D02*
D03*
X554528D02*
D03*
X552559D02*
D03*
X550591D02*
D03*
X548622D02*
D03*
X546654D02*
D03*
X544685D02*
D03*
Y332087D02*
D03*
X546654D02*
D03*
X548622D02*
D03*
X550591D02*
D03*
X552559D02*
D03*
X554528D02*
D03*
X556496D02*
D03*
X558465D02*
D03*
D22*
X181496Y30709D02*
D03*
Y38209D02*
D03*
X405905Y30709D02*
D03*
Y38209D02*
D03*
X630315Y30709D02*
D03*
Y38209D02*
D03*
X181496Y101575D02*
D03*
Y109075D02*
D03*
X405905Y101575D02*
D03*
Y109075D02*
D03*
X630315Y101575D02*
D03*
Y109075D02*
D03*
X181496Y172441D02*
D03*
Y179941D02*
D03*
X405905Y172441D02*
D03*
Y179941D02*
D03*
X630315Y172441D02*
D03*
Y179941D02*
D03*
X181496Y243307D02*
D03*
Y250807D02*
D03*
X405905Y243307D02*
D03*
Y250807D02*
D03*
X630315Y243307D02*
D03*
Y250807D02*
D03*
X181496Y314173D02*
D03*
Y321673D02*
D03*
X405905Y314173D02*
D03*
Y321673D02*
D03*
X630315Y314173D02*
D03*
Y321673D02*
D03*
D23*
X173496Y34509D02*
D03*
X397905D02*
D03*
X622315D02*
D03*
X173496Y105375D02*
D03*
X397905D02*
D03*
X622315D02*
D03*
X173496Y176241D02*
D03*
X397905D02*
D03*
X622315D02*
D03*
X173496Y247107D02*
D03*
X397905D02*
D03*
X622315D02*
D03*
X173496Y317973D02*
D03*
X397905D02*
D03*
X622315D02*
D03*
D38*
X102756Y39370D02*
D03*
X327165D02*
D03*
X551575D02*
D03*
X102756Y110236D02*
D03*
X327165D02*
D03*
X551575D02*
D03*
X102756Y181102D02*
D03*
X327165D02*
D03*
X551575D02*
D03*
X102756Y251969D02*
D03*
X327165D02*
D03*
X551575D02*
D03*
X102756Y322835D02*
D03*
X327165D02*
D03*
X551575D02*
D03*
D39*
X160630Y37402D02*
D03*
X385039D02*
D03*
X609449D02*
D03*
X160630Y108268D02*
D03*
X385039D02*
D03*
X609449D02*
D03*
X160630Y179134D02*
D03*
X385039D02*
D03*
X609449D02*
D03*
X160630Y250000D02*
D03*
X385039D02*
D03*
X609449D02*
D03*
X160630Y320866D02*
D03*
X385039D02*
D03*
X609449D02*
D03*
D40*
X156693Y31791D02*
D03*
X158661D02*
D03*
X160630D02*
D03*
X162598D02*
D03*
X164567D02*
D03*
Y43012D02*
D03*
X162598D02*
D03*
X160630D02*
D03*
X158661D02*
D03*
X156693D02*
D03*
X381102Y31791D02*
D03*
X383071D02*
D03*
X385039D02*
D03*
X387008D02*
D03*
X388976D02*
D03*
Y43012D02*
D03*
X387008D02*
D03*
X385039D02*
D03*
X383071D02*
D03*
X381102D02*
D03*
X605512Y31791D02*
D03*
X607480D02*
D03*
X609449D02*
D03*
X611417D02*
D03*
X613386D02*
D03*
Y43012D02*
D03*
X611417D02*
D03*
X609449D02*
D03*
X607480D02*
D03*
X605512D02*
D03*
X156693Y102657D02*
D03*
X158661D02*
D03*
X160630D02*
D03*
X162598D02*
D03*
X164567D02*
D03*
Y113878D02*
D03*
X162598D02*
D03*
X160630D02*
D03*
X158661D02*
D03*
X156693D02*
D03*
X381102Y102657D02*
D03*
X383071D02*
D03*
X385039D02*
D03*
X387008D02*
D03*
X388976D02*
D03*
Y113878D02*
D03*
X387008D02*
D03*
X385039D02*
D03*
X383071D02*
D03*
X381102D02*
D03*
X605512Y102657D02*
D03*
X607480D02*
D03*
X609449D02*
D03*
X611417D02*
D03*
X613386D02*
D03*
Y113878D02*
D03*
X611417D02*
D03*
X609449D02*
D03*
X607480D02*
D03*
X605512D02*
D03*
X156693Y173524D02*
D03*
X158661D02*
D03*
X160630D02*
D03*
X162598D02*
D03*
X164567D02*
D03*
Y184744D02*
D03*
X162598D02*
D03*
X160630D02*
D03*
X158661D02*
D03*
X156693D02*
D03*
X381102Y173524D02*
D03*
X383071D02*
D03*
X385039D02*
D03*
X387008D02*
D03*
X388976D02*
D03*
Y184744D02*
D03*
X387008D02*
D03*
X385039D02*
D03*
X383071D02*
D03*
X381102D02*
D03*
X605512Y173524D02*
D03*
X607480D02*
D03*
X609449D02*
D03*
X611417D02*
D03*
X613386D02*
D03*
Y184744D02*
D03*
X611417D02*
D03*
X609449D02*
D03*
X607480D02*
D03*
X605512D02*
D03*
X156693Y244390D02*
D03*
X158661D02*
D03*
X160630D02*
D03*
X162598D02*
D03*
X164567D02*
D03*
Y255610D02*
D03*
X162598D02*
D03*
X160630D02*
D03*
X158661D02*
D03*
X156693D02*
D03*
X381102Y244390D02*
D03*
X383071D02*
D03*
X385039D02*
D03*
X387008D02*
D03*
X388976D02*
D03*
Y255610D02*
D03*
X387008D02*
D03*
X385039D02*
D03*
X383071D02*
D03*
X381102D02*
D03*
X605512Y244390D02*
D03*
X607480D02*
D03*
X609449D02*
D03*
X611417D02*
D03*
X613386D02*
D03*
Y255610D02*
D03*
X611417D02*
D03*
X609449D02*
D03*
X607480D02*
D03*
X605512D02*
D03*
X156693Y315256D02*
D03*
X158661D02*
D03*
X160630D02*
D03*
X162598D02*
D03*
X164567D02*
D03*
Y326476D02*
D03*
X162598D02*
D03*
X160630D02*
D03*
X158661D02*
D03*
X156693D02*
D03*
X381102Y315256D02*
D03*
X383071D02*
D03*
X385039D02*
D03*
X387008D02*
D03*
X388976D02*
D03*
Y326476D02*
D03*
X387008D02*
D03*
X385039D02*
D03*
X383071D02*
D03*
X381102D02*
D03*
X605512Y315256D02*
D03*
X607480D02*
D03*
X609449D02*
D03*
X611417D02*
D03*
X613386D02*
D03*
Y326476D02*
D03*
X611417D02*
D03*
X609449D02*
D03*
X607480D02*
D03*
X605512D02*
D03*
M02*
