M48
;Layer_Color=9474304
;FILE_FORMAT=2:5
INCH,LZ
;TYPE=PLATED
T1F00S00C0.02362
T2F00S00C0.03200
T3F00S00C0.04000
%
T01
X064252Y0136614
X0595669Y0101969
X0587795Y0090158
X0581102Y0093701
X056811Y0097244
X0553937Y0101969
X0531496Y01
X0530709Y0085827
X0523622Y009252
X0512992Y01
X0486614Y0110236
Y0121653
X0477559Y0129134
X0477559Y0084252
X0486614Y0076772
X0477559Y0058661
X0477559Y0041339
X0486614Y0033858
X0477559Y0015748
X0514173Y0012205
X0517717Y0029528
Y0045669
X0524016
X0532677Y0059449
X0549213Y0079921
X0560236Y0045669
X0569291
X0577953Y004685
X0580315Y001811
Y0011417
X061063Y0048031
Y0055512
X0611024Y0084252
X0603543Y0084646
X0470473Y008937
X0473228Y0096457
X041811Y0136614
X037126Y0101969
X0363386Y0090158
X0356693Y0093701
X0343701Y0097244
X0329528Y0101969
X0324803Y0079921
X0335827Y0045669
X0344882
X0353543Y004685
X0355906Y001811
Y0011417
X0386221Y0048031
Y0055512
X0386614Y0084252
X0379134Y0084646
X0306299Y0085827
X0299213Y009252
X0307087Y01
X0288583
X0262205Y0110236
Y0121653
X025315Y0129134
X0248819Y0096457
X0246063Y008937
X025315Y0084252
X0262205Y0076772
X025315Y0058661
X025315Y0041339
X0262205Y0033858
X025315Y0015748
X0289764Y0012205
X0293307Y0029528
Y0045669
X0299606
X0308268Y0059449
X0193701Y0136614
X014685Y0101969
X0138976Y0090158
X0132283Y0093701
X0119291Y0097244
X0105118Y0101969
X0082677Y01
X008189Y0085827
X0074803Y009252
X0064173Y01
X0037795Y0110236
Y0121653
X002874Y0129134
X0024409Y0096457
X0021654Y008937
X002874Y0084252
X0037795Y0076772
X002874Y0058661
X002874Y0041339
X0037795Y0033858
X002874Y0015748
X0065354Y0012205
X0068898Y0029528
Y0045669
X0075197
X0083858Y0059449
X0100394Y0079921
X0111417Y0045669
X0120472
X0129134Y004685
X0131496Y001811
Y0011417
X0161811Y0048031
Y0055512
X0162205Y0084252
X0154724Y0084646
X0131496Y0154724
Y0161417
X0129134Y0190157
X0120472Y0188976
X0111417
X0075197
X0068898
Y0172835
X0065354Y0155512
X002874Y0159055
Y0184646
X0037795Y0177165
X002874Y0201969
Y0227559
X0021654Y0232677
X0024409Y0239764
X0037795Y0253543
Y0264961
X002874Y0272441
X002874Y0302362
X0065354Y0298819
X0064173Y0243307
X0074803Y0235827
X008189Y0229134
X0082677Y0243307
X0105118Y0245276
X0119291Y0240551
X0132283Y0237008
X0138976Y0233465
X014685Y0245276
X0154724Y0227953
X0162205Y0227559
X0161811Y0198819
Y0191339
X0083858Y0202756
X0100394Y0223228
X0037795Y0220079
X0131496Y0298031
Y0304724
X0193701Y0279921
X025315Y0272441
X0262205Y0264961
Y0253543
X0248819Y0239764
X0246063Y0232677
X025315Y0227559
X0262205Y0220079
X025315Y0201969
X025315Y0184646
X0262205Y0177165
X025315Y0159055
X0289764Y0155512
X0293307Y0172835
Y0188976
X0299606
X0308268Y0202756
X0306299Y0229134
X0299213Y0235827
X0307087Y0243307
X0288583
X0289764Y0298819
X025315Y0302362
X0355906Y0304724
Y0298031
X0356693Y0237008
X0363386Y0233465
X037126Y0245276
X0379134Y0227953
X0386614Y0227559
X0386221Y0198819
Y0191339
X0353543Y0190157
X0344882Y0188976
X0335827
X0324803Y0223228
X0329528Y0245276
X0343701Y0240551
X0355906Y0161417
Y0154724
X041811Y0279921
X0473228Y0239764
X0470473Y0232677
X0477559Y0227559
X0486614Y0220079
X0477559Y0201969
X0477559Y0184646
X0486614Y0177165
X0477559Y0159055
X0514173Y0155512
X0517717Y0172835
Y0188976
X0524016
X0532677Y0202756
X0530709Y0229134
X0523622Y0235827
X0531496Y0243307
X0512992
X0486614Y0253543
Y0264961
X0477559Y0272441
X0477559Y0302362
X0514173Y0298819
X0580315Y0298031
Y0304724
X0581102Y0237008
X0587795Y0233465
X0595669Y0245276
X0603543Y0227953
X0611024Y0227559
X061063Y0198819
Y0191339
X0577953Y0190157
X0569291Y0188976
X0560236
X0549213Y0223228
X0553937Y0245276
X056811Y0240551
X0580315Y0161417
Y0154724
X064252Y0279921
Y0423228
X0580315Y0441339
Y0448032
X0581102Y0380315
X0587795Y0376772
X0595669Y0388583
X0603543Y037126
X0611024Y0370866
X061063Y0342126
Y0334646
X0577953Y0333465
X0569291Y0332283
X0560236
X0524016
X0517717
Y0316142
X0486614Y0320472
X0477559Y0327953
X0477559Y0345276
Y0370866
X0486614Y0363386
X0486614Y039685
Y0408268
X0477559Y0415748
X0477559Y0445669
X0486614Y0463779
X0517717Y0459449
X0514173Y0442126
X0512992Y0386614
X0523622Y0379134
X0530709Y0372441
X0531496Y0386614
X0553937Y0388583
X056811Y0383858
X0549213Y0366535
X0532677Y0346063
X0470473Y0375984
X0473228Y0383071
X041811Y0423228
X0355906Y0441339
Y0448032
X0356693Y0380315
X0363386Y0376772
X037126Y0388583
X0379134Y037126
X0386614Y0370866
X0386221Y0342126
Y0334646
X0353543Y0333465
X0344882Y0332283
X0335827
X0324803Y0366535
X0329528Y0388583
X0343701Y0383858
X0307087Y0386614
X0306299Y0372441
X0299213Y0379134
X0288583Y0386614
X0262205Y039685
Y0408268
X025315Y0415748
X025315Y0445669
X0262205Y0463779
X0293307Y0459449
X0289764Y0442126
X0248819Y0383071
X0246063Y0375984
X025315Y0370866
X0262205Y0363386
X025315Y0345276
X025315Y0327953
X0262205Y0320472
X0293307Y0316142
Y0332283
X0299606
X0308268Y0346063
X0193701Y0423228
X0131496Y0441339
Y0448032
X0132283Y0380315
X0138976Y0376772
X014685Y0388583
X0154724Y037126
X0162205Y0370866
X0161811Y0342126
Y0334646
X0129134Y0333465
X0120472Y0332283
X0111417
X0075197
X0068898
Y0316142
X0037795Y0320472
X002874Y0327953
X002874Y0345276
Y0370866
X0021654Y0375984
X0024409Y0383071
X0037795Y039685
Y0408268
X002874Y0415748
X002874Y0445669
X0037795Y0463779
X0068898Y0459449
X0065354Y0442126
X0064173Y0386614
X0074803Y0379134
X008189Y0372441
X0082677Y0386614
X0105118Y0388583
X0119291Y0383858
X0100394Y0366535
X0083858Y0346063
X0037795Y0363386
X002874Y047126
X002874Y0488583
Y0514173
X0021654Y0519291
X0024409Y0526378
X0037795Y0540158
Y0551575
X002874Y0559055
X002874Y0588976
Y0614567
X0037795Y0607087
X0068898Y0602756
Y0618898
X0075197
X0111417
X0120472
X0129134Y0620079
X0131496Y0591339
Y0584646
X0132283Y0523622
X0138976Y0520079
X014685Y053189
X0154724Y0514567
X0162205Y0514173
X0161811Y0485433
Y0477953
X0129134Y0476772
X0120472Y0475591
X0111417
X0075197
X0068898
X0083858Y048937
X008189Y0515748
X0074803Y0522441
X0082677Y0529921
X0064173
X0105118Y053189
X0119291Y0527165
X0100394Y0509842
X0037795Y0506693
X0065354Y0585433
X0193701Y0566535
X025315Y0559055
X0262205Y0551575
Y0540158
X0248819Y0526378
X0246063Y0519291
X025315Y0514173
X0262205Y0506693
X025315Y0488583
X025315Y047126
X0293307Y0475591
X0299606
X0308268Y048937
X0306299Y0515748
X0299213Y0522441
X0307087Y0529921
X0288583
X0289764Y0585433
X0293307Y0602756
Y0618898
X0299606
X0262205Y0607087
X025315Y0614567
Y0588976
X0355906Y0591339
Y0584646
X0353543Y0620079
X0344882Y0618898
X0335827
X0329528Y053189
X0343701Y0527165
X0356693Y0523622
X0363386Y0520079
X037126Y053189
X0379134Y0514567
X0386614Y0514173
X0386221Y0485433
Y0477953
X0353543Y0476772
X0344882Y0475591
X0335827
X0324803Y0509842
X041811Y0566535
X0473228Y0526378
X0470473Y0519291
X0477559Y0514173
X0486614Y0506693
X0477559Y0488583
X0477559Y047126
X0517717Y0475591
X0524016
X0532677Y048937
X0530709Y0515748
X0523622Y0522441
X0531496Y0529921
X0512992
X0486614Y0540158
Y0551575
X0477559Y0559055
X0477559Y0588976
Y0614567
X0486614Y0607087
X0517717Y0602756
Y0618898
X0524016
X0560236
X0569291
X0577953Y0620079
X0580315Y0591339
Y0584646
X0581102Y0523622
X0587795Y0520079
X0595669Y053189
X0603543Y0514567
X0611024Y0514173
X061063Y0485433
Y0477953
X0577953Y0476772
X0569291Y0475591
X0560236
X0549213Y0509842
X0553937Y053189
X056811Y0527165
X0514173Y0585433
X064252Y0566535
Y0709842
X0595669Y0675197
X0587795Y0663386
X0581102Y0666929
X056811Y0670472
X0553937Y0675197
X0531496Y0673228
X0530709Y0659055
X0523622Y0665748
X0512992Y0673228
X0486614Y0683465
Y0694882
X0477559Y0702362
X0477559Y065748
X0486614Y065
X0477559Y063189
X0532677Y0632677
X0549213Y065315
X0603543Y0657874
X0611024Y065748
X061063Y062874
Y062126
X0470473Y0662598
X0473228Y0669685
X041811Y0709842
X037126Y0675197
X0363386Y0663386
X0356693Y0666929
X0343701Y0670472
X0329528Y0675197
X0324803Y065315
X0379134Y0657874
X0386614Y065748
X0386221Y062874
Y062126
X0308268Y0632677
X0306299Y0659055
X0299213Y0665748
X0307087Y0673228
X0288583
X0262205Y0683465
Y0694882
X025315Y0702362
X0248819Y0669685
X0246063Y0662598
X025315Y065748
X0262205Y065
X025315Y063189
X0193701Y0709842
X014685Y0675197
X0138976Y0663386
X0132283Y0666929
X0119291Y0670472
X0105118Y0675197
X0082677Y0673228
X008189Y0659055
X0074803Y0665748
X0064173Y0673228
X0037795Y0683465
Y0694882
X002874Y0702362
X0024409Y0669685
X0021654Y0662598
X002874Y065748
X0037795Y065
X002874Y063189
X0083858Y0632677
X0100394Y065315
X0154724Y0657874
X0162205Y065748
X0161811Y062874
Y062126
T02
X0462992Y0016142
Y0024016
Y003189
Y0039764
X0463386Y0105905
Y0113779
Y0121653
Y0129527
X0238976
Y0121653
Y0113779
Y0105905
X0238583Y0039764
Y003189
Y0024016
Y0016142
X0014173
Y0024016
Y003189
Y0039764
X0014567Y0105905
Y0113779
Y0121653
Y0129527
X0014173Y0159449
Y0167323
Y0175197
Y0183071
X0014567Y0249213
Y0257087
Y0264961
Y0272835
X0014173Y0302756
X0238583
X0238976Y0272835
Y0264961
Y0257087
Y0249213
X0238583Y0183071
Y0175197
Y0167323
Y0159449
X0462992
Y0167323
Y0175197
Y0183071
X0463386Y0249213
Y0257087
Y0264961
Y0272835
X0462992Y0302756
Y031063
Y0318504
Y0326378
X0463386Y039252
Y0400394
Y0408268
Y0416142
X0462992Y0446063
Y0453937
Y0461811
X0238583
Y0453937
Y0446063
X0238976Y0416142
Y0408268
Y0400394
Y039252
X0238583Y0326378
Y0318504
Y031063
X0014173
Y0318504
Y0326378
X0014567Y039252
Y0400394
Y0408268
Y0416142
X0014173Y0446063
Y0453937
Y0461811
Y0469685
X0014567Y0535827
Y0543701
Y0551575
Y0559449
X0014173Y058937
Y0597244
Y0605118
Y0612992
X0238583
Y0605118
Y0597244
Y058937
X0238976Y0559449
Y0551575
Y0543701
Y0535827
X0238583Y0469685
X0462992
X0463386Y0535827
Y0543701
Y0551575
Y0559449
X0462992Y058937
Y0597244
Y0605118
Y0612992
X0463386Y0679134
Y0687008
Y0694882
Y0702756
X0238976
Y0694882
Y0687008
Y0679134
X0014567
Y0687008
Y0694882
Y0702756
T03
X0660236Y0056653
Y0066654
Y0076653
Y0086654
X0461417Y0086654
Y0076653
Y0066654
Y0056653
X0435827Y0056653
Y0066654
Y0076653
Y0086654
X0237008Y0086654
Y0076653
Y0066654
Y0056653
X0211417Y0056653
Y0066654
Y0076653
Y0086654
X0012598Y0086654
Y0076653
Y0066654
Y0056653
Y0199961
Y0209961
Y0219961
Y0229961
X0211417Y0229961
Y0219961
Y0209961
Y0199961
X0237008Y0199961
Y0209961
Y0219961
Y0229961
X0435827Y0229961
Y0219961
Y0209961
Y0199961
X0461417Y0199961
Y0209961
Y0219961
Y0229961
X0660236Y0229961
Y0219961
Y0209961
Y0199961
Y0343268
Y0353268
Y0363268
Y0373268
X0461417Y0373268
Y0363268
Y0353268
Y0343268
X0435827Y0343268
Y0353268
Y0363268
Y0373268
X0237008Y0373268
Y0363268
Y0353268
Y0343268
X0211417Y0343268
Y0353268
Y0363268
Y0373268
X0012598Y0373268
Y0363268
Y0353268
Y0343268
Y0486575
Y0496575
Y0506575
Y0516575
X0211417Y0516575
Y0506575
Y0496575
Y0486575
X0237008Y0486575
Y0496575
Y0506575
Y0516575
X0435827Y0516575
Y0506575
Y0496575
Y0486575
X0461417Y0486575
Y0496575
Y0506575
Y0516575
X0660236Y0516575
Y0506575
Y0496575
Y0486575
Y0629882
Y0639882
Y0649882
Y0659882
X0461417Y0659882
Y0649882
Y0639882
Y0629882
X0435827Y0629882
Y0639882
Y0649882
Y0659882
X0237008Y0659882
Y0649882
Y0639882
Y0629882
X0211417Y0629882
Y0639882
Y0649882
Y0659882
X0012598Y0659882
Y0649882
Y0639882
Y0629882
M30
