%FSLAX25Y25*%
%MOIN*%
G70*
G01*
G75*
G04 Layer_Color=15269887*
%ADD10C,0.00787*%
%ADD11R,0.05000X0.03600*%
%ADD12R,0.03600X0.03600*%
%ADD13R,0.03150X0.03150*%
%ADD14R,0.07480X0.04000*%
%ADD15R,0.21654X0.07874*%
%ADD16R,0.03150X0.03150*%
%ADD17R,0.01654X0.07008*%
%ADD18R,0.07600X0.02400*%
%ADD19O,0.07600X0.02400*%
%ADD20R,0.05000X0.05000*%
%ADD21R,0.06890X0.04331*%
%ADD22R,0.06890X0.13583*%
%ADD23R,0.06693X0.07087*%
%ADD24C,0.00984*%
%ADD25C,0.03937*%
%ADD26C,0.01181*%
%ADD27C,0.01969*%
%ADD28C,0.01575*%
%ADD29R,0.06000X0.06000*%
%ADD30C,0.06000*%
%ADD31R,0.07000X0.07000*%
%ADD32C,0.07000*%
%ADD33C,0.04331*%
%ADD34R,0.05000X0.05000*%
%ADD35R,0.07874X0.05118*%
%ADD36C,0.00800*%
%ADD37C,0.01000*%
%ADD38C,0.00591*%
%ADD39C,0.00984*%
%ADD40C,0.02000*%
%ADD41R,0.05800X0.04400*%
%ADD42R,0.04400X0.04400*%
%ADD43R,0.03950X0.03950*%
%ADD44R,0.08280X0.04800*%
%ADD45R,0.22453X0.08674*%
%ADD46R,0.03950X0.03950*%
%ADD47R,0.02454X0.07808*%
%ADD48R,0.08400X0.03200*%
%ADD49O,0.08400X0.03200*%
%ADD50R,0.05800X0.05800*%
%ADD51R,0.07690X0.05131*%
%ADD52R,0.07690X0.14383*%
%ADD53R,0.07493X0.07887*%
%ADD54R,0.06800X0.06800*%
%ADD55C,0.06800*%
%ADD56R,0.07800X0.07800*%
%ADD57C,0.07800*%
%ADD58C,0.05131*%
%ADD59R,0.05800X0.05800*%
%ADD60R,0.08674X0.05918*%
%ADD61C,0.00600*%
D10*
X0Y-19685D02*
Y736221D01*
X224410Y-19685D02*
Y736221D01*
X448819Y-19685D02*
Y736221D01*
X-19685Y716535D02*
X692913D01*
X-19685Y573228D02*
X692913D01*
X-19685Y429921D02*
X692913D01*
X-19685Y286614D02*
X692913D01*
X-19685Y143307D02*
X692913D01*
X-19685Y0D02*
X692913D01*
X673228Y-19685D02*
Y736221D01*
X-19685Y-19685D02*
X692913D01*
Y736221D01*
X-19685D02*
X692913D01*
X-19685Y-19685D02*
Y736221D01*
X0Y0D02*
X224410D01*
Y143307D01*
X0D02*
X224410D01*
X0Y0D02*
Y143307D01*
X224410Y0D02*
X448819D01*
Y143307D01*
X224410D02*
X448819D01*
X224410Y0D02*
Y143307D01*
X448819Y0D02*
X673228D01*
Y143307D01*
X448819D02*
X673228D01*
X448819Y0D02*
Y143307D01*
X0D02*
X224410D01*
Y286614D01*
X0D02*
X224410D01*
X0Y143307D02*
Y286614D01*
X224410Y143307D02*
X448819D01*
Y286614D01*
X224410D02*
X448819D01*
X224410Y143307D02*
Y286614D01*
X448819Y143307D02*
X673228D01*
Y286614D01*
X448819D02*
X673228D01*
X448819Y143307D02*
Y286614D01*
X0D02*
X224410D01*
Y429921D01*
X0D02*
X224410D01*
X0Y286614D02*
Y429921D01*
X224410Y286614D02*
X448819D01*
Y429921D01*
X224410D02*
X448819D01*
X224410Y286614D02*
Y429921D01*
X448819Y286614D02*
X673228D01*
Y429921D01*
X448819D02*
X673228D01*
X448819Y286614D02*
Y429921D01*
X0D02*
X224410D01*
Y573228D01*
X0D02*
X224410D01*
X0Y429921D02*
Y573228D01*
X224410Y429921D02*
X448819D01*
Y573228D01*
X224410D02*
X448819D01*
X224410Y429921D02*
Y573228D01*
X448819Y429921D02*
X673228D01*
Y573228D01*
X448819D02*
X673228D01*
X448819Y429921D02*
Y573228D01*
X0D02*
X224410D01*
Y716536D01*
X0D02*
X224410D01*
X0Y573228D02*
Y716536D01*
X224410Y573228D02*
X448819D01*
Y716536D01*
X224410D02*
X448819D01*
X224410Y573228D02*
Y716536D01*
X448819Y573228D02*
X673228D01*
Y716536D01*
X448819D02*
X673228D01*
X448819Y573228D02*
Y716536D01*
M02*
